<svg width="60" height="60" viewBox="0 0 60 60" fill="none" xmlns="http://www.w3.org/2000/svg">
<path d="M30 60C46.5685 60 60 46.5685 60 30C60 13.4315 46.5685 0 30 0C13.4315 0 0 13.4315 0 30C0 46.5685 13.4315 60 30 60Z" fill="#FFE9CF"/>
<path d="M33.2433 18.293C33.1804 18.2441 33.1214 18.2035 33.0663 18.1709C33.0113 18.1383 32.9523 18.1058 32.8893 18.0732C32.8264 18.057 32.7635 18.0407 32.7006 18.0244C32.6376 18.0081 32.5669 18 32.4882 18H20.0765C19.7933 18 19.5259 18.0529 19.2742 18.1587C19.0225 18.2645 18.8023 18.415 18.6135 18.6104C18.409 18.8057 18.2556 19.0295 18.1534 19.2817C18.0511 19.534 18 19.7985 18 20.0752V40.9248C18 41.2015 18.0511 41.466 18.1534 41.7183C18.2556 41.9705 18.409 42.1943 18.6135 42.3896C18.8023 42.585 19.0225 42.7355 19.2742 42.8413C19.5259 42.9471 19.7933 43 20.0765 43H36.6412C36.9086 43 37.1721 42.9471 37.4317 42.8413C37.6912 42.7355 37.9154 42.585 38.1041 42.3896C38.2929 42.1943 38.4424 41.9705 38.5525 41.7183C38.6626 41.466 38.7177 41.2015 38.7177 40.9248V24.25C38.7177 24.1849 38.7098 24.1198 38.6941 24.0547C38.6783 23.9896 38.6547 23.9245 38.6233 23.8594C38.6075 23.7943 38.58 23.7332 38.5407 23.6763C38.5014 23.6193 38.4581 23.5664 38.4109 23.5176L33.2433 18.293ZM36.2164 24.25H32.4882V20.5146L36.2164 24.25ZM36.6412 40.9248H20.0765V20.0752H30.4353V25.2998C30.4353 25.43 30.4589 25.5602 30.5061 25.6904C30.5533 25.8206 30.6241 25.9346 30.7185 26.0322C30.8286 26.1299 30.9466 26.2031 31.0724 26.252C31.1983 26.3008 31.332 26.3252 31.4736 26.3252H36.6412V40.9248ZM43.8853 23.2002C43.4763 23.2002 43.083 23.2816 42.7055 23.4443C42.3279 23.6071 41.9897 23.835 41.6908 24.1279C41.4076 24.4209 41.1835 24.7586 41.0183 25.1411C40.8531 25.5236 40.7705 25.9183 40.7705 26.3252V36.75C40.7863 36.8477 40.8059 36.9453 40.8295 37.043C40.8531 37.1406 40.8964 37.2301 40.9593 37.3115L43.0358 40.4365C43.083 40.5179 43.1381 40.5871 43.201 40.644C43.2639 40.701 43.3347 40.7458 43.4133 40.7783C43.4763 40.8271 43.551 40.8597 43.6375 40.876C43.724 40.8923 43.8066 40.9004 43.8853 40.9004C43.9797 40.9004 44.0662 40.8923 44.1448 40.876C44.2235 40.8597 44.3021 40.8271 44.3808 40.7783C44.4595 40.7458 44.5302 40.701 44.5932 40.644C44.6561 40.5871 44.7111 40.5179 44.7583 40.4365L46.8112 37.3115C46.8742 37.2301 46.9213 37.1406 46.9528 37.043C46.9843 36.9453 47 36.8477 47 36.75V26.3252C47 25.9183 46.9213 25.5236 46.764 25.1411C46.6067 24.7586 46.3786 24.4209 46.0797 24.1279C45.7966 23.835 45.4623 23.6071 45.0769 23.4443C44.6915 23.2816 44.2943 23.2002 43.8853 23.2002ZM42.847 26.3252C42.847 26.195 42.8746 26.0648 42.9296 25.9346C42.9847 25.8044 43.0594 25.6904 43.1538 25.5928C43.2482 25.4951 43.3583 25.4219 43.4841 25.373C43.61 25.3242 43.7437 25.2998 43.8853 25.2998C44.0268 25.2998 44.1606 25.3242 44.2864 25.373C44.4123 25.4219 44.5224 25.4951 44.6168 25.5928C44.7111 25.6904 44.7859 25.8044 44.8409 25.9346C44.896 26.0648 44.9235 26.195 44.9235 26.3252V27.375H42.847V26.3252ZM44.9235 36.4326L43.8853 37.9951L42.847 36.4326V29.4502H44.9235V36.4326ZM23.1676 26.3252H27.3206C27.4622 26.3252 27.5959 26.3008 27.7217 26.252C27.8476 26.2031 27.9577 26.1299 28.0521 26.0322C28.1465 25.9346 28.2212 25.8206 28.2762 25.6904C28.3313 25.5602 28.3588 25.43 28.3588 25.2998C28.3588 25.1533 28.3313 25.015 28.2762 24.8848C28.2212 24.7546 28.1465 24.6406 28.0521 24.543C27.9577 24.4453 27.8476 24.3721 27.7217 24.3232C27.5959 24.2744 27.4622 24.25 27.3206 24.25H23.1676C23.0418 24.25 22.9159 24.2744 22.7901 24.3232C22.6642 24.3721 22.5462 24.4453 22.4361 24.543C22.3417 24.6406 22.271 24.7546 22.2238 24.8848C22.1766 25.015 22.153 25.1533 22.153 25.2998C22.153 25.43 22.1766 25.5602 22.2238 25.6904C22.271 25.8206 22.3417 25.9346 22.4361 26.0322C22.5462 26.1299 22.6642 26.2031 22.7901 26.252C22.9159 26.3008 23.0418 26.3252 23.1676 26.3252ZM22.153 30.5C22.153 30.6302 22.1766 30.7604 22.2238 30.8906C22.271 31.0208 22.3417 31.1348 22.4361 31.2324C22.5462 31.3301 22.6642 31.4074 22.7901 31.4644C22.9159 31.5213 23.0418 31.5498 23.1676 31.5498H33.5264C33.668 31.5498 33.8017 31.5213 33.9276 31.4644C34.0534 31.4074 34.1635 31.3301 34.2579 31.2324C34.3523 31.1348 34.427 31.0208 34.4821 30.8906C34.5372 30.7604 34.5647 30.6302 34.5647 30.5C34.5647 30.3698 34.5372 30.2396 34.4821 30.1094C34.427 29.9792 34.3523 29.8652 34.2579 29.7676C34.1635 29.6699 34.0534 29.5926 33.9276 29.5356C33.8017 29.4787 33.668 29.4502 33.5264 29.4502H23.1676C23.0418 29.4502 22.9159 29.4787 22.7901 29.5356C22.6642 29.5926 22.5462 29.6699 22.4361 29.7676C22.3417 29.8652 22.271 29.9792 22.2238 30.1094C22.1766 30.2396 22.153 30.3698 22.153 30.5ZM33.5264 34.6748H23.1676C23.0418 34.6748 22.9159 34.6992 22.7901 34.748C22.6642 34.7969 22.5462 34.8701 22.4361 34.9678C22.3417 35.0654 22.271 35.1794 22.2238 35.3096C22.1766 35.4398 22.153 35.57 22.153 35.7002C22.153 35.8467 22.1766 35.981 22.2238 36.103C22.271 36.2251 22.3417 36.3431 22.4361 36.457C22.5462 36.5547 22.6642 36.6279 22.7901 36.6768C22.9159 36.7256 23.0418 36.75 23.1676 36.75H33.5264C33.668 36.75 33.8017 36.7256 33.9276 36.6768C34.0534 36.6279 34.1635 36.5547 34.2579 36.457C34.3523 36.3431 34.427 36.2251 34.4821 36.103C34.5372 35.981 34.5647 35.8467 34.5647 35.7002C34.5647 35.57 34.5372 35.4398 34.4821 35.3096C34.427 35.1794 34.3523 35.0654 34.2579 34.9678C34.1635 34.8701 34.0534 34.7969 33.9276 34.748C33.8017 34.6992 33.668 34.6748 33.5264 34.6748Z" fill="#0B3948"/>
</svg>
