<svg width="60" height="60" viewBox="0 0 60 60" fill="none" xmlns="http://www.w3.org/2000/svg">
<path d="M30 60C46.5685 60 60 46.5685 60 30C60 13.4315 46.5685 0 30 0C13.4315 0 0 13.4315 0 30C0 46.5685 13.4315 60 30 60Z" fill="#B3ECFF"/>
<path d="M22.0522 35.8455H22.9947C23.1136 35.8455 23.2282 35.82 23.3386 35.7691C23.449 35.7181 23.5466 35.6502 23.6315 35.5653C23.7334 35.4804 23.8056 35.3785 23.848 35.2596C23.8905 35.1407 23.9117 35.0218 23.9117 34.9029C23.9117 34.784 23.8905 34.6651 23.848 34.5462C23.8056 34.4274 23.7334 34.3255 23.6315 34.2405C23.5466 34.1556 23.449 34.0877 23.3386 34.0367C23.2282 33.9858 23.1136 33.9603 22.9947 33.9603H22.0522C21.9333 33.9603 21.8144 33.9858 21.6956 34.0367C21.5767 34.0877 21.4748 34.1556 21.3899 34.2405C21.305 34.3255 21.2413 34.4274 21.1988 34.5462C21.1564 34.6651 21.1352 34.784 21.1352 34.9029C21.1352 35.0218 21.1564 35.1407 21.1988 35.2596C21.2413 35.3785 21.305 35.4804 21.3899 35.5653C21.4748 35.6502 21.5767 35.7181 21.6956 35.7691C21.8144 35.82 21.9333 35.8455 22.0522 35.8455ZM23.9117 36.7626H22.0522C21.9333 36.7626 21.8144 36.7881 21.6956 36.839C21.5767 36.89 21.4748 36.9579 21.3899 37.0429C21.305 37.1278 21.2413 37.2254 21.1988 37.3358C21.1564 37.4462 21.1352 37.5693 21.1352 37.7052C21.1352 37.8241 21.1564 37.9387 21.1988 38.0491C21.2413 38.1595 21.305 38.2657 21.3899 38.3676C21.4748 38.4525 21.5767 38.5162 21.6956 38.5586C21.8144 38.6011 21.9333 38.6223 22.0522 38.6223H23.9117C24.0306 38.6223 24.1495 38.6011 24.2684 38.5586C24.3872 38.5162 24.4891 38.4525 24.574 38.3676C24.6589 38.2657 24.7269 38.1595 24.7778 38.0491C24.8288 37.9387 24.8542 37.8241 24.8542 37.7052C24.8542 37.5693 24.8288 37.4462 24.7778 37.3358C24.7269 37.2254 24.6589 37.1278 24.574 37.0429C24.4891 36.9579 24.3872 36.89 24.2684 36.839C24.1495 36.7881 24.0306 36.7626 23.9117 36.7626ZM43.1184 36.6352C43.0844 36.5503 43.0462 36.4697 43.0038 36.3932C42.9613 36.3168 42.9061 36.2446 42.8382 36.1767C42.7703 36.1257 42.6939 36.079 42.609 36.0366C42.524 35.9941 42.4391 35.9644 42.3542 35.9474C41.9976 35.8965 41.6452 35.8158 41.2971 35.7054C40.949 35.595 40.6136 35.4464 40.2909 35.2596C40.206 35.2086 40.1168 35.1534 40.0234 35.094C39.93 35.0345 39.8409 34.9708 39.756 34.9029V22.802C39.756 22.4284 39.6838 22.0717 39.5394 21.732C39.3951 21.3924 39.1956 21.0952 38.9408 20.8404C38.6861 20.5687 38.3889 20.3606 38.0493 20.2163C37.7096 20.0719 37.3615 19.9997 37.0049 19.9997H20.1927C19.8191 19.9997 19.4624 20.0719 19.1228 20.2163C18.7832 20.3606 18.4775 20.5602 18.2058 20.8149C17.951 21.0867 17.7515 21.3924 17.6071 21.732C17.4628 22.0717 17.3906 22.4284 17.3906 22.802V38.7242C17.4076 39.0809 17.4883 39.4248 17.6326 39.756C17.777 40.0872 17.985 40.3801 18.2567 40.6349C18.5114 40.8897 18.8086 41.085 19.1483 41.2208C19.4879 41.3567 19.836 41.4246 20.1927 41.4246H33.3622C33.4981 42.053 33.7316 42.6475 34.0627 43.2079C34.3939 43.7684 34.8057 44.2609 35.2982 44.6855C35.6888 45.0422 36.1218 45.3351 36.5973 45.5644C37.0728 45.7937 37.5653 45.9678 38.0747 46.0867C38.1087 46.0867 38.1427 46.0867 38.1766 46.0867C38.2106 46.0867 38.2446 46.0867 38.2785 46.0867C38.3125 46.0867 38.3507 46.0867 38.3932 46.0867C38.4356 46.0867 38.4738 46.0867 38.5078 46.0867C39.0173 45.9678 39.5097 45.7937 39.9852 45.5644C40.4607 45.3351 40.8938 45.0422 41.2844 44.6855C41.7768 44.2439 42.1929 43.7174 42.5325 43.106C42.8722 42.5116 43.1184 41.8662 43.2712 41.1699C43.4241 40.4736 43.492 39.7433 43.475 38.979C43.4581 38.2147 43.3392 37.4335 43.1184 36.6352ZM30.4328 21.8594V26.5215H26.7138V21.8594H30.4328ZM33.4387 36.6352C33.3028 37.1108 33.2051 37.5948 33.1457 38.0873C33.0863 38.5799 33.065 39.0724 33.082 39.5649H20.1927C20.1247 39.5649 20.0611 39.5607 20.0016 39.5522C19.9422 39.5437 19.887 39.531 19.836 39.514C19.7851 39.497 19.7341 39.4715 19.6832 39.4376C19.6323 39.4036 19.5813 39.3611 19.5304 39.3102C19.4964 39.2762 19.4582 39.2337 19.4157 39.1828C19.3733 39.1318 19.3436 39.0809 19.3266 39.0299C19.3096 38.979 19.2926 38.9238 19.2756 38.8644C19.2586 38.8049 19.2502 38.7412 19.2502 38.6733V22.802C19.2502 22.7341 19.2544 22.6704 19.2629 22.611C19.2714 22.5515 19.2926 22.4878 19.3266 22.4199C19.3436 22.3689 19.369 22.318 19.403 22.267C19.437 22.2161 19.4709 22.1651 19.5049 22.1142C19.5558 22.0802 19.6068 22.0462 19.6577 22.0123C19.7087 21.9783 19.7681 21.9443 19.836 21.9104C19.887 21.8934 19.9422 21.8807 20.0016 21.8722C20.0611 21.8637 20.1247 21.8594 20.1927 21.8594H24.8542V27.4386C24.8542 27.5744 24.8755 27.6976 24.9179 27.808C24.9604 27.9184 25.0241 28.016 25.109 28.1009C25.2109 28.1859 25.317 28.2538 25.4274 28.3047C25.5378 28.3557 25.6524 28.3812 25.7713 28.3812H31.3753C31.4942 28.3812 31.6088 28.3557 31.7192 28.3047C31.8296 28.2538 31.9357 28.1859 32.0376 28.1009C32.1225 28.016 32.1862 27.9184 32.2287 27.808C32.2711 27.6976 32.2924 27.5744 32.2924 27.4386V21.8594H37.0049C37.0558 21.8594 37.111 21.8637 37.1705 21.8722C37.2299 21.8807 37.2936 21.9019 37.3615 21.9359C37.4124 21.9528 37.4634 21.9783 37.5143 22.0123C37.5653 22.0462 37.6077 22.0887 37.6417 22.1397C37.6927 22.1736 37.7309 22.2161 37.7563 22.267C37.7818 22.318 37.8115 22.3774 37.8455 22.4454C37.8625 22.4963 37.8752 22.5515 37.8837 22.611C37.8922 22.6704 37.8964 22.7341 37.8964 22.802V34.0622C37.8455 34.0792 37.7945 34.1047 37.7436 34.1386C37.6927 34.1726 37.6502 34.2066 37.6162 34.2405C37.4124 34.4443 37.1959 34.6312 36.9667 34.801C36.7374 34.9708 36.4954 35.1237 36.2407 35.2596C35.935 35.4464 35.6081 35.595 35.26 35.7054C34.9118 35.8158 34.5595 35.8965 34.2028 35.9474C34.1179 35.9644 34.033 35.9941 33.9481 36.0366C33.8632 36.079 33.7868 36.1257 33.7189 36.1767C33.6509 36.2446 33.5915 36.3168 33.5405 36.3932C33.4896 36.4697 33.4556 36.5503 33.4387 36.6352ZM40.0107 43.2844C39.773 43.5051 39.5055 43.6962 39.2083 43.8576C38.9111 44.0189 38.6012 44.142 38.2785 44.227C37.9559 44.142 37.646 44.0189 37.3488 43.8576C37.0516 43.6962 36.7756 43.5051 36.5209 43.2844C35.8416 42.6899 35.3788 41.8959 35.1326 40.9024C34.8864 39.9089 34.8736 38.8431 35.0944 37.7052C35.451 37.6203 35.7992 37.5141 36.1388 37.3868C36.4784 37.2594 36.8096 37.1023 37.1322 36.9155C37.336 36.8136 37.5313 36.6989 37.7181 36.5716C37.9049 36.4442 38.0917 36.3126 38.2785 36.1767C38.4484 36.3126 38.6267 36.4442 38.8135 36.5716C39.0003 36.6989 39.1956 36.8136 39.3993 36.9155C39.722 37.1023 40.0532 37.2594 40.3928 37.3868C40.7324 37.5141 41.0806 37.6203 41.4372 37.7052C41.573 38.1808 41.6452 38.6733 41.6537 39.1828C41.6622 39.6923 41.607 40.1933 41.4881 40.6859C41.3523 41.1784 41.1612 41.6454 40.915 42.087C40.6688 42.5286 40.3673 42.9277 40.0107 43.2844ZM40.3164 38.0364C40.1975 37.9685 40.0786 37.926 39.9598 37.909C39.8409 37.892 39.722 37.9005 39.6031 37.9345C39.4843 37.9685 39.3781 38.0237 39.2847 38.1001C39.1913 38.1765 39.1107 38.2657 39.0427 38.3676L37.9983 40.2273L37.2596 39.6923C37.2087 39.6583 37.1535 39.6286 37.094 39.6031C37.0346 39.5777 36.9794 39.5564 36.9285 39.5395C36.8605 39.5225 36.7968 39.5097 36.7374 39.5012C36.678 39.4928 36.6228 39.497 36.5718 39.514C36.5039 39.514 36.4402 39.5267 36.3808 39.5522C36.3214 39.5777 36.2662 39.6074 36.2152 39.6414C36.1643 39.6753 36.1176 39.7093 36.0751 39.7433C36.0327 39.7772 35.9944 39.8197 35.9605 39.8706C35.9095 39.9216 35.8713 39.9768 35.8459 40.0362C35.8204 40.0957 35.7992 40.1509 35.7822 40.2018C35.7822 40.2698 35.7779 40.3334 35.7694 40.3929C35.7609 40.4523 35.7652 40.5075 35.7822 40.5585C35.7822 40.6264 35.7949 40.6901 35.8204 40.7495C35.8459 40.809 35.8671 40.8642 35.8841 40.9151C35.918 40.9661 35.9562 41.0128 35.9987 41.0553C36.0411 41.0977 36.0878 41.1359 36.1388 41.1699L37.7181 42.3418C37.7861 42.4097 37.871 42.4607 37.9729 42.4946C38.0747 42.5286 38.1766 42.5456 38.2785 42.5456C38.3125 42.5456 38.3422 42.5456 38.3677 42.5456C38.3932 42.5456 38.4229 42.5456 38.4568 42.5456C38.5248 42.5286 38.5885 42.5074 38.6479 42.4819C38.7073 42.4564 38.7625 42.4267 38.8135 42.3927C38.8644 42.3418 38.9111 42.2951 38.9536 42.2526C38.996 42.2101 39.0342 42.1549 39.0682 42.087L40.6475 39.3102C40.7155 39.1913 40.7579 39.0724 40.7749 38.9535C40.7919 38.8346 40.7834 38.7157 40.7494 38.5969C40.7155 38.478 40.6603 38.3676 40.5838 38.2657C40.5074 38.1638 40.4183 38.0873 40.3164 38.0364Z" fill="#0B3948"/>
</svg>
