<svg width="60" height="60" viewBox="0 0 60 60" fill="none" xmlns="http://www.w3.org/2000/svg">
<path d="M30 60C46.5685 60 60 46.5685 60 30C60 13.4315 46.5685 0 30 0C13.4315 0 0 13.4315 0 30C0 46.5685 13.4315 60 30 60Z" fill="#E5DEFF"/>
<path d="M22.0522 35.8457H22.9947C23.1136 35.8457 23.2282 35.8203 23.3386 35.7693C23.449 35.7184 23.5466 35.6504 23.6315 35.5655C23.7334 35.4806 23.8056 35.3787 23.848 35.2598C23.8905 35.1409 23.9117 35.022 23.9117 34.9032C23.9117 34.7843 23.8905 34.6654 23.848 34.5465C23.8056 34.4276 23.7334 34.3257 23.6315 34.2408C23.5466 34.1559 23.449 34.0879 23.3386 34.037C23.2282 33.986 23.1136 33.9606 22.9947 33.9606H22.0522C21.9333 33.9606 21.8144 33.986 21.6956 34.037C21.5767 34.0879 21.4748 34.1559 21.3899 34.2408C21.305 34.3257 21.2413 34.4276 21.1988 34.5465C21.1564 34.6654 21.1352 34.7843 21.1352 34.9032C21.1352 35.022 21.1564 35.1409 21.1988 35.2598C21.2413 35.3787 21.305 35.4806 21.3899 35.5655C21.4748 35.6504 21.5767 35.7184 21.6956 35.7693C21.8144 35.8203 21.9333 35.8457 22.0522 35.8457ZM23.9117 36.7629H22.0522C21.9333 36.7629 21.8144 36.7883 21.6956 36.8393C21.5767 36.8902 21.4748 36.9582 21.3899 37.0431C21.305 37.128 21.2413 37.2257 21.1988 37.3361C21.1564 37.4465 21.1352 37.5696 21.1352 37.7055C21.1352 37.8243 21.1564 37.939 21.1988 38.0494C21.2413 38.1598 21.305 38.2659 21.3899 38.3678C21.4748 38.4527 21.5767 38.5164 21.6956 38.5589C21.8144 38.6014 21.9333 38.6226 22.0522 38.6226H23.9117C24.0306 38.6226 24.1495 38.6014 24.2684 38.5589C24.3872 38.5164 24.4891 38.4527 24.574 38.3678C24.6589 38.2659 24.7269 38.1598 24.7778 38.0494C24.8288 37.939 24.8542 37.8243 24.8542 37.7055C24.8542 37.5696 24.8288 37.4465 24.7778 37.3361C24.7269 37.2257 24.6589 37.128 24.574 37.0431C24.4891 36.9582 24.3872 36.8902 24.2684 36.8393C24.1495 36.7883 24.0306 36.7629 23.9117 36.7629ZM43.1184 36.6355C43.0844 36.5506 43.0462 36.4699 43.0038 36.3935C42.9613 36.317 42.9061 36.2449 42.8382 36.1769C42.7703 36.126 42.6939 36.0793 42.609 36.0368C42.524 35.9944 42.4391 35.9646 42.3542 35.9476C41.9976 35.8967 41.6452 35.816 41.2971 35.7056C40.949 35.5952 40.6136 35.4466 40.2909 35.2598C40.206 35.2089 40.1168 35.1537 40.0234 35.0942C39.93 35.0348 39.8409 34.9711 39.756 34.9032V22.8023C39.756 22.4286 39.6838 22.072 39.5394 21.7323C39.3951 21.3926 39.1956 21.0954 38.9408 20.8407C38.6861 20.5689 38.3889 20.3609 38.0493 20.2165C37.7096 20.0721 37.3615 20 37.0049 20H20.1927C19.8191 20 19.4624 20.0721 19.1228 20.2165C18.7832 20.3609 18.4775 20.5604 18.2058 20.8152C17.951 21.0869 17.7515 21.3926 17.6071 21.7323C17.4628 22.072 17.3906 22.4286 17.3906 22.8023V38.7245C17.4076 39.0811 17.4883 39.4251 17.6326 39.7562C17.777 40.0874 17.985 40.3804 18.2567 40.6351C18.5114 40.8899 18.8086 41.0852 19.1483 41.2211C19.4879 41.357 19.836 41.4249 20.1927 41.4249H33.3622C33.4981 42.0533 33.7316 42.6477 34.0627 43.2082C34.3939 43.7686 34.8057 44.2612 35.2982 44.6858C35.6888 45.0424 36.1218 45.3354 36.5973 45.5647C37.0728 45.7939 37.5653 45.968 38.0747 46.0869C38.1087 46.0869 38.1427 46.0869 38.1766 46.0869C38.2106 46.0869 38.2446 46.0869 38.2785 46.0869C38.3125 46.0869 38.3507 46.0869 38.3932 46.0869C38.4356 46.0869 38.4738 46.0869 38.5078 46.0869C39.0173 45.968 39.5097 45.7939 39.9852 45.5647C40.4607 45.3354 40.8938 45.0424 41.2844 44.6858C41.7768 44.2442 42.1929 43.7177 42.5325 43.1063C42.8722 42.5118 43.1184 41.8665 43.2712 41.1701C43.4241 40.4738 43.492 39.7435 43.475 38.9792C43.4581 38.215 43.3392 37.4337 43.1184 36.6355ZM30.4328 21.8597V26.5217H26.7138V21.8597H30.4328ZM33.4387 36.6355C33.3028 37.111 33.2051 37.5951 33.1457 38.0876C33.0863 38.5801 33.065 39.0726 33.082 39.5652H20.1927C20.1247 39.5652 20.0611 39.5609 20.0016 39.5524C19.9422 39.5439 19.887 39.5312 19.836 39.5142C19.7851 39.4972 19.7341 39.4718 19.6832 39.4378C19.6323 39.4038 19.5813 39.3614 19.5304 39.3104C19.4964 39.2765 19.4582 39.234 19.4157 39.183C19.3733 39.1321 19.3436 39.0811 19.3266 39.0302C19.3096 38.9792 19.2926 38.924 19.2756 38.8646C19.2586 38.8052 19.2502 38.7415 19.2502 38.6735V22.8023C19.2502 22.7343 19.2544 22.6706 19.2629 22.6112C19.2714 22.5518 19.2926 22.4881 19.3266 22.4201C19.3436 22.3692 19.369 22.3182 19.403 22.2673C19.437 22.2163 19.4709 22.1654 19.5049 22.1144C19.5558 22.0805 19.6068 22.0465 19.6577 22.0125C19.7087 21.9786 19.7681 21.9446 19.836 21.9106C19.887 21.8936 19.9422 21.8809 20.0016 21.8724C20.0611 21.8639 20.1247 21.8597 20.1927 21.8597H24.8542V27.4388C24.8542 27.5747 24.8755 27.6978 24.9179 27.8082C24.9604 27.9186 25.0241 28.0163 25.109 28.1012C25.2109 28.1861 25.317 28.254 25.4274 28.305C25.5378 28.3559 25.6524 28.3814 25.7713 28.3814H31.3753C31.4942 28.3814 31.6088 28.3559 31.7192 28.305C31.8296 28.254 31.9357 28.1861 32.0376 28.1012C32.1225 28.0163 32.1862 27.9186 32.2287 27.8082C32.2711 27.6978 32.2924 27.5747 32.2924 27.4388V21.8597H37.0049C37.0558 21.8597 37.111 21.8639 37.1705 21.8724C37.2299 21.8809 37.2936 21.9021 37.3615 21.9361C37.4124 21.9531 37.4634 21.9786 37.5143 22.0125C37.5653 22.0465 37.6077 22.089 37.6417 22.1399C37.6927 22.1739 37.7309 22.2163 37.7563 22.2673C37.7818 22.3182 37.8115 22.3777 37.8455 22.4456C37.8625 22.4966 37.8752 22.5518 37.8837 22.6112C37.8922 22.6706 37.8964 22.7343 37.8964 22.8023V34.0625C37.8455 34.0794 37.7945 34.1049 37.7436 34.1389C37.6927 34.1729 37.6502 34.2068 37.6162 34.2408C37.4124 34.4446 37.1959 34.6314 36.9667 34.8012C36.7374 34.9711 36.4954 35.1239 36.2407 35.2598C35.935 35.4466 35.6081 35.5952 35.26 35.7056C34.9118 35.816 34.5595 35.8967 34.2028 35.9476C34.1179 35.9646 34.033 35.9944 33.9481 36.0368C33.8632 36.0793 33.7868 36.126 33.7189 36.1769C33.6509 36.2449 33.5915 36.317 33.5405 36.3935C33.4896 36.4699 33.4556 36.5506 33.4387 36.6355ZM40.0107 43.2846C39.773 43.5054 39.5055 43.6965 39.2083 43.8578C38.9111 44.0191 38.6012 44.1423 38.2785 44.2272C37.9559 44.1423 37.646 44.0191 37.3488 43.8578C37.0516 43.6965 36.7756 43.5054 36.5209 43.2846C35.8416 42.6902 35.3788 41.8962 35.1326 40.9026C34.8864 39.9091 34.8736 38.8434 35.0944 37.7055C35.451 37.6205 35.7992 37.5144 36.1388 37.387C36.4784 37.2596 36.8096 37.1025 37.1322 36.9157C37.336 36.8138 37.5313 36.6992 37.7181 36.5718C37.9049 36.4444 38.0917 36.3128 38.2785 36.1769C38.4484 36.3128 38.6267 36.4444 38.8135 36.5718C39.0003 36.6992 39.1956 36.8138 39.3993 36.9157C39.722 37.1025 40.0532 37.2596 40.3928 37.387C40.7324 37.5144 41.0806 37.6205 41.4372 37.7055C41.573 38.181 41.6452 38.6735 41.6537 39.183C41.6622 39.6926 41.607 40.1936 41.4881 40.6861C41.3523 41.1786 41.1612 41.6457 40.915 42.0873C40.6688 42.5288 40.3673 42.9279 40.0107 43.2846ZM40.3164 38.0366C40.1975 37.9687 40.0786 37.9262 39.9598 37.9093C39.8409 37.8923 39.722 37.9008 39.6031 37.9347C39.4843 37.9687 39.3781 38.0239 39.2847 38.1003C39.1913 38.1768 39.1107 38.2659 39.0427 38.3678L37.9983 40.2275L37.2596 39.6926C37.2087 39.6586 37.1535 39.6289 37.094 39.6034C37.0346 39.5779 36.9794 39.5567 36.9285 39.5397C36.8605 39.5227 36.7968 39.51 36.7374 39.5015C36.678 39.493 36.6228 39.4972 36.5718 39.5142C36.5039 39.5142 36.4402 39.527 36.3808 39.5524C36.3214 39.5779 36.2662 39.6076 36.2152 39.6416C36.1643 39.6756 36.1176 39.7095 36.0751 39.7435C36.0327 39.7775 35.9944 39.8199 35.9605 39.8709C35.9095 39.9218 35.8713 39.977 35.8459 40.0365C35.8204 40.0959 35.7992 40.1511 35.7822 40.2021C35.7822 40.27 35.7779 40.3337 35.7694 40.3931C35.7609 40.4526 35.7652 40.5078 35.7822 40.5587C35.7822 40.6267 35.7949 40.6903 35.8204 40.7498C35.8459 40.8092 35.8671 40.8644 35.8841 40.9154C35.918 40.9663 35.9562 41.013 35.9987 41.0555C36.0411 41.098 36.0878 41.1362 36.1388 41.1701L37.7181 42.342C37.7861 42.4099 37.871 42.4609 37.9729 42.4949C38.0747 42.5288 38.1766 42.5458 38.2785 42.5458C38.3125 42.5458 38.3422 42.5458 38.3677 42.5458C38.3932 42.5458 38.4229 42.5458 38.4568 42.5458C38.5248 42.5288 38.5885 42.5076 38.6479 42.4821C38.7073 42.4566 38.7625 42.4269 38.8135 42.393C38.8644 42.342 38.9111 42.2953 38.9536 42.2528C38.996 42.2104 39.0342 42.1552 39.0682 42.0873L40.6475 39.3104C40.7155 39.1915 40.7579 39.0726 40.7749 38.9538C40.7919 38.8349 40.7834 38.716 40.7494 38.5971C40.7155 38.4782 40.6603 38.3678 40.5838 38.2659C40.5074 38.164 40.4183 38.0876 40.3164 38.0366Z" fill="#0B3948"/>
</svg>
