<svg width="59" height="59" viewBox="0 0 59 59" fill="none" xmlns="http://www.w3.org/2000/svg">
<path d="M29.0263 58.05C45.0571 58.05 58.0526 45.0551 58.0526 29.025C58.0526 12.9949 45.0571 0 29.0263 0C12.9955 0 0 12.9949 0 29.025C0 45.0551 12.9955 58.05 29.0263 58.05Z" fill="#42B8D1" fill-opacity="0.32"/>
<path d="M41.6777 35.0674C41.641 34.9743 41.5997 34.8858 41.5538 34.802C41.5079 34.7182 41.4482 34.6391 41.3748 34.5646C41.3013 34.5087 41.2187 34.4575 41.1269 34.411C41.0351 34.3644 40.9433 34.3318 40.8515 34.3132C40.723 34.2946 40.5899 34.2713 40.4522 34.2434C40.3146 34.2154 40.1814 34.1735 40.0529 34.1177V29.7879C40.0529 29.4341 39.9841 29.0849 39.8464 28.7404C39.7087 28.3959 39.5113 28.1026 39.2543 27.8605C39.0157 27.5997 38.7265 27.3996 38.3869 27.2599C38.0472 27.1202 37.703 27.0504 37.3542 27.0504H37.0513V18.3909C37.0513 18.186 37.0099 17.9858 36.9273 17.7903C36.8447 17.5947 36.7391 17.4225 36.6106 17.2735C36.4638 17.1245 36.2985 17.0128 36.1149 16.9383C35.9314 16.8638 35.7386 16.8266 35.5366 16.8266H20.4731C20.2712 16.8266 20.083 16.8685 19.9086 16.9523C19.7342 17.0361 19.5735 17.1525 19.4267 17.3014C19.2798 17.4504 19.1696 17.618 19.0962 17.8042C19.0228 17.9905 18.9861 18.186 18.9861 18.3909V22.9441H18.6831C18.3343 22.9441 17.9947 23.0139 17.6642 23.1536C17.3338 23.2933 17.04 23.4935 16.783 23.7542C16.526 24.0149 16.3286 24.3129 16.1909 24.6481C16.0532 24.9833 15.9844 25.3371 15.9844 25.7096V38.5871C15.9844 38.9409 16.0532 39.2901 16.1909 39.6346C16.3286 39.9791 16.526 40.2818 16.783 40.5425C17.04 40.7846 17.3338 40.9754 17.6642 41.1151C17.9947 41.2548 18.3343 41.3246 18.6831 41.3246H31.4885C31.6904 41.8461 31.9475 42.3302 32.2596 42.7772C32.5717 43.2241 32.9389 43.6245 33.3611 43.9783C33.765 44.3508 34.2148 44.6581 34.7105 44.9002C35.2062 45.1423 35.7111 45.3192 36.2251 45.4309C36.2618 45.4309 36.2985 45.4309 36.3353 45.4309C36.372 45.4309 36.4087 45.4309 36.4454 45.4309C36.4821 45.4309 36.5234 45.4309 36.5693 45.4309C36.6152 45.4309 36.6565 45.4309 36.6933 45.4309C37.244 45.3005 37.7764 45.1097 38.2905 44.8583C38.8045 44.6069 39.2727 44.2856 39.6949 43.8945C40.2273 43.4104 40.6771 42.8331 41.0443 42.1626C41.4115 41.5108 41.6777 40.8032 41.8429 40.0397C42.0082 39.2761 42.0816 38.4754 42.0632 37.6373C42.0449 36.7993 41.9164 35.9427 41.6777 35.0674ZM20.9964 18.8657H35.0409V27.0504H27.0548C26.9997 27.0504 26.9401 27.0411 26.8758 27.0224C26.8116 27.0038 26.7519 26.9759 26.6968 26.9386C26.6417 26.9014 26.5912 26.8595 26.5454 26.8129C26.4995 26.7664 26.4673 26.7152 26.449 26.6593L25.375 24.4805C25.2648 24.257 25.1271 24.0521 24.9619 23.8659C24.7967 23.6797 24.6131 23.5121 24.4111 23.3631C24.1908 23.2327 23.9613 23.135 23.7227 23.0698C23.484 23.0046 23.2453 22.9627 23.0067 22.9441H20.9964V18.8657ZM18.6831 39.2854C18.5913 39.2854 18.5041 39.2668 18.4215 39.2296C18.3389 39.1923 18.2609 39.1458 18.1874 39.0899C18.1324 39.0154 18.0865 38.9363 18.0498 38.8525C18.013 38.7687 17.9947 38.6802 17.9947 38.5871V25.7096C17.9947 25.6164 18.013 25.528 18.0498 25.4442C18.0865 25.3604 18.1324 25.2812 18.1874 25.2067C18.2609 25.1322 18.3389 25.0764 18.4215 25.0391C18.5041 25.0019 18.5913 24.9833 18.6831 24.9833H23.0067C23.0617 24.9833 23.1214 24.9926 23.1857 25.0112C23.2499 25.0298 23.3096 25.0578 23.3647 25.095C23.4197 25.1323 23.4702 25.1742 23.5161 25.2207C23.562 25.2673 23.6033 25.3185 23.64 25.3743L24.714 27.5532C24.8058 27.7767 24.9389 27.9815 25.1134 28.1677C25.2878 28.354 25.4759 28.5216 25.6779 28.6705C25.8798 28.8009 26.1001 28.9033 26.3388 28.9778C26.5775 29.0523 26.8161 29.0896 27.0548 29.0896H37.3542C37.446 29.0896 37.5332 29.1082 37.6158 29.1454C37.6984 29.1827 37.7764 29.2292 37.8499 29.2851C37.9049 29.3596 37.9508 29.4387 37.9876 29.5225C38.0243 29.6063 38.0426 29.6948 38.0426 29.7879V33.1679C37.8958 33.0562 37.7489 32.9398 37.602 32.8187C37.4551 32.6977 37.3083 32.572 37.1614 32.4416C37.0696 32.3485 36.964 32.274 36.8447 32.2182C36.7254 32.1623 36.6015 32.1344 36.4729 32.1344C36.3261 32.1344 36.193 32.1623 36.0736 32.2182C35.9543 32.274 35.8487 32.3485 35.7569 32.4416C35.5366 32.6651 35.3026 32.87 35.0547 33.0562C34.8069 33.2424 34.5453 33.41 34.2699 33.559C33.9394 33.7452 33.586 33.9035 33.2096 34.0339C32.8333 34.1642 32.4523 34.2573 32.0668 34.3132C31.975 34.3318 31.8832 34.3598 31.7914 34.397C31.6996 34.4342 31.617 34.4901 31.5436 34.5646C31.4701 34.6205 31.4105 34.6903 31.3646 34.7741C31.3187 34.8579 31.2774 34.9464 31.2406 35.0395C31.0571 35.7285 30.9423 36.4315 30.8964 37.1485C30.8505 37.8655 30.8735 38.5778 30.9653 39.2854H18.6831ZM38.3456 42.3582C38.0702 42.6003 37.7718 42.8098 37.4506 42.9867C37.1293 43.1636 36.7942 43.2986 36.4454 43.3917C36.1149 43.2986 35.7891 43.1636 35.4678 42.9867C35.1465 42.8098 34.8482 42.6003 34.5728 42.3582C33.8384 41.7064 33.3427 40.8358 33.0857 39.7464C32.8287 38.6569 32.8103 37.4884 33.0306 36.2406C33.4162 36.1475 33.7925 36.0311 34.1597 35.8915C34.5269 35.7518 34.8849 35.5795 35.2337 35.3747C35.454 35.263 35.6652 35.1373 35.8671 34.9976C36.069 34.8579 36.2618 34.7136 36.4454 34.5646C36.6474 34.7136 36.8493 34.8579 37.0513 34.9976C37.2532 35.1373 37.4643 35.263 37.6846 35.3747C38.0335 35.5795 38.3915 35.7518 38.7586 35.8915C39.1258 36.0311 39.5022 36.1475 39.8877 36.2406C40.0346 36.7621 40.108 37.3021 40.108 37.8608C40.108 38.4195 40.0438 38.9689 39.9152 39.5089C39.7867 40.049 39.5894 40.5611 39.3232 41.0453C39.057 41.5295 38.7311 41.9671 38.3456 42.3582ZM38.6485 36.6038C38.5383 36.5293 38.419 36.4827 38.2905 36.4641C38.162 36.4455 38.0335 36.4548 37.9049 36.492C37.7764 36.5293 37.6571 36.5898 37.5469 36.6736C37.4368 36.7574 37.3542 36.8552 37.2991 36.9669L36.1425 39.0061L35.3714 38.4195C35.3163 38.3822 35.2567 38.3497 35.1924 38.3217C35.1282 38.2938 35.0685 38.2705 35.0134 38.2519C34.94 38.2333 34.8711 38.2193 34.8069 38.21C34.7426 38.2007 34.6829 38.2053 34.6279 38.224C34.5544 38.224 34.4856 38.2379 34.4213 38.2659C34.3571 38.2938 34.2974 38.3264 34.2423 38.3636C34.1873 38.4009 34.1368 38.4381 34.0909 38.4754C34.045 38.5126 34.0037 38.5592 33.967 38.615C33.9302 38.6709 33.8935 38.7314 33.8568 38.7966C33.8201 38.8618 33.8017 38.9223 33.8017 38.9782C33.7834 39.0527 33.7696 39.1225 33.7604 39.1877C33.7512 39.2529 33.7558 39.3134 33.7742 39.3692C33.7742 39.4437 33.788 39.5136 33.8155 39.5787C33.843 39.6439 33.8752 39.7045 33.9119 39.7603C33.9302 39.8162 33.9624 39.8674 34.0083 39.914C34.0542 39.9605 34.1046 40.0024 34.1597 40.0397L35.8671 41.3246C35.9405 41.3991 36.0323 41.455 36.1425 41.4922C36.2526 41.5295 36.3536 41.5481 36.4454 41.5481C36.4821 41.5481 36.5188 41.5481 36.5556 41.5481C36.5923 41.5481 36.629 41.5481 36.6657 41.5481C36.7391 41.5295 36.808 41.5062 36.8723 41.4783C36.9365 41.4503 36.9962 41.4177 37.0513 41.3805C37.1063 41.3246 37.1568 41.2734 37.2027 41.2269C37.2486 41.1803 37.2899 41.1198 37.3266 41.0453L39.034 38.0005C39.0891 37.8701 39.1258 37.7398 39.1442 37.6094C39.1625 37.479 39.1533 37.3487 39.1166 37.2183C39.0799 37.088 39.0202 36.9669 38.9376 36.8552C38.855 36.7435 38.7586 36.6597 38.6485 36.6038Z" fill="#0B3948"/>
</svg>
