<svg width="100" height="100" viewBox="0 0 100 100" fill="none" xmlns="http://www.w3.org/2000/svg">
<path d="M83.2125 25.825C83.0412 24.7215 82.4799 23.7161 81.6303 22.9913C80.7808 22.2665 79.6995 21.8704 78.5828 21.875H67.1875V10.9375C67.1875 8.35312 65.0844 6.25 62.5 6.25H45.3125C42.7281 6.25 40.625 8.35312 40.625 10.9375V14.35C40.1246 14.1649 39.596 14.0677 39.0625 14.0625H28.125C25.5406 14.0625 23.4375 16.1656 23.4375 18.75V22.1625C22.9371 21.9774 22.4085 21.8802 21.875 21.875H10.9375C8.35312 21.875 6.25 23.9781 6.25 26.5625V92.1875C6.25 92.6019 6.41462 92.9993 6.70765 93.2924C7.00067 93.5854 7.3981 93.75 7.8125 93.75H65.625C66.0394 93.75 66.4368 93.5854 66.7299 93.2924C67.0229 92.9993 67.1875 92.6019 67.1875 92.1875V43.2063L75.0188 92.4328C75.0772 92.8002 75.2647 93.1347 75.5477 93.3761C75.8307 93.6176 76.1905 93.7501 76.5625 93.75H92.1875C92.4136 93.7501 92.6371 93.7012 92.8425 93.6065C93.0479 93.5118 93.2302 93.3737 93.377 93.2017C93.5238 93.0296 93.6315 92.8278 93.6927 92.61C93.7538 92.3923 93.767 92.1639 93.7312 91.9406L83.2125 25.825ZM56.25 9.375V27.4781L55.7922 27.0203C55.6474 26.8747 55.4753 26.7592 55.2857 26.6803C55.0961 26.6015 54.8928 26.5609 54.6875 26.5609C54.4822 26.5609 54.2789 26.6015 54.0893 26.6803C53.8997 26.7592 53.7276 26.8747 53.5828 27.0203L53.125 27.4781V9.375H56.25ZM9.375 26.5625C9.375 25.7 10.0766 25 10.9375 25H21.875C22.7359 25 23.4375 25.7 23.4375 26.5625V90.625H9.375V26.5625ZM26.5625 26.5625V18.75C26.5625 17.8875 27.2641 17.1875 28.125 17.1875H39.0625C39.9234 17.1875 40.625 17.8875 40.625 18.75V90.625H26.5625V26.5625ZM64.0625 90.625H43.75V10.9375C43.75 10.075 44.4516 9.375 45.3125 9.375H50V31.25C50.0001 31.559 50.0917 31.861 50.2634 32.1179C50.4351 32.3748 50.6791 32.575 50.9646 32.6932C51.2501 32.8115 51.5642 32.8424 51.8672 32.7822C52.1703 32.7219 52.4487 32.5731 52.6672 32.3547L54.6875 30.3344L56.7078 32.3547C56.9263 32.5731 57.2047 32.7219 57.5078 32.7822C57.8108 32.8424 58.1249 32.8115 58.4104 32.6932C58.6959 32.575 58.9399 32.3748 59.1116 32.1179C59.2833 31.861 59.3749 31.559 59.375 31.25V9.375H62.5C63.3609 9.375 64.0625 10.075 64.0625 10.9375V90.625ZM77.8969 90.625L67.4563 25H78.5828C79.3562 25 80.0047 25.5531 80.125 26.3172L90.3562 90.625H77.8969Z" fill="white"/>
</svg>
