<svg width="100" height="100" viewBox="0 0 100 100" fill="none" xmlns="http://www.w3.org/2000/svg">
<path d="M92.1516 43.2316V20.5355L93.7584 17.041C93.9027 16.7272 93.9389 16.3743 93.8613 16.0377L92.1117 8.43926C92.0324 8.09481 91.8387 7.78743 91.5621 7.56731C91.2855 7.34719 90.9425 7.22735 90.5891 7.22734H85.491C85.1375 7.22735 84.7945 7.34719 84.518 7.56731C84.2414 7.78743 84.0477 8.09481 83.9684 8.43926L82.2187 16.0379C82.1413 16.3745 82.1775 16.7273 82.3217 17.0412L83.9285 20.5357V43.232C82.5234 43.535 81.4668 44.7859 81.4668 46.2803V53.3582H74.4988C73.8985 52.7598 73.2193 52.2461 72.4801 51.8313V25.1301C75.4031 23.4918 77.2408 20.4023 77.2408 16.9934C77.2408 13.4586 75.2809 10.2687 72.126 8.66875C71.8878 8.54797 71.6226 8.49026 71.3558 8.50112C71.0889 8.51199 70.8293 8.59107 70.6017 8.73082C70.3741 8.87057 70.1862 9.06632 70.0558 9.29938C69.9254 9.53244 69.8569 9.79504 69.8568 10.0621V16.9691L67.9117 18.0922L65.9666 16.9691V10.0621C65.9666 9.79504 65.8981 9.53244 65.7677 9.29938C65.6373 9.06632 65.4493 8.87057 65.2217 8.73082C64.9941 8.59107 64.7345 8.51199 64.4677 8.50112C64.2008 8.49026 63.9357 8.54797 63.6975 8.66875C60.5426 10.2687 58.5826 13.4584 58.5826 16.9934C58.5826 20.4023 60.4203 23.4918 63.3434 25.1301V47.4195C61.5355 44.0937 59.0342 41.14 56.0102 38.8271C53.3127 36.7641 50.3139 35.257 47.1277 34.3422C50.4365 32.3354 52.885 29.027 53.7316 25.0762C55.5066 24.9555 56.915 23.4766 56.915 21.6715C56.915 20.2199 56.0051 18.977 54.7258 18.4828C54.6146 12.3906 50.8861 7.0291 45.2807 4.78477C45.1566 4.30718 44.9298 3.86244 44.616 3.48164C43.7021 2.36719 42.0721 1.72285 39.7707 1.56602C39.7 1.56133 39.6291 1.56133 39.5584 1.56602C37.2572 1.72285 35.627 2.36738 34.7131 3.48164C34.3993 3.86244 34.1725 4.30718 34.0484 4.78477C28.443 7.0291 24.7145 12.3904 24.6033 18.4828C23.3238 18.977 22.4141 20.2199 22.4141 21.6715C22.4141 23.4768 23.8225 24.9555 25.5977 25.0762C26.4459 29.0344 28.9021 32.3473 32.2201 34.3529C28.7295 35.3576 25.4502 37.0621 22.6139 39.3848C18.2197 42.9832 15.06 47.9078 13.6213 53.3576H10.7857C10.3713 53.3576 9.97391 53.5222 9.68089 53.8153C9.38786 54.1083 9.22324 54.5057 9.22324 54.9201V64.9221C9.22324 65.2378 9.3189 65.5462 9.49762 65.8065C9.67634 66.0668 9.92974 66.2668 10.2244 66.3803L11.274 66.7842L9.12891 68.9295C8.90562 69.1528 8.75521 69.4384 8.69751 69.7489C8.6398 70.0593 8.67751 70.38 8.80566 70.6686L9.68359 72.6453C9.14922 73.6252 8.72058 74.6591 8.40488 75.7297L6.38789 76.5061C6.09322 76.6195 5.83982 76.8195 5.6611 77.0799C5.48238 77.3402 5.38672 77.6485 5.38672 77.9643V82.4727C5.38672 82.7884 5.48238 83.0968 5.6611 83.3571C5.83982 83.6174 6.09322 83.8174 6.38789 83.9309L8.4043 84.707C8.71996 85.7779 9.14868 86.8121 9.6832 87.7922L8.80566 89.7682C8.67746 90.0567 8.6397 90.3774 8.69737 90.6878C8.75504 90.9983 8.90543 91.284 9.12871 91.5072L12.3166 94.6951C12.5399 94.9184 12.8255 95.0688 13.136 95.1265C13.4464 95.1842 13.7671 95.1465 14.0557 95.0184L16.0328 94.1402C17.0126 94.6746 18.0464 95.1032 19.1168 95.4189L19.8934 97.4363C20.0068 97.731 20.2068 97.9844 20.4672 98.1631C20.7275 98.3418 21.0358 98.4375 21.3516 98.4375H25.86C26.1757 98.4375 26.4841 98.3418 26.7444 98.1631C27.0047 97.9844 27.2047 97.731 27.3182 97.4363L28.0943 95.4197C29.1652 95.1041 30.1994 94.6754 31.1795 94.1408L33.1557 95.0186C33.4443 95.1466 33.7649 95.1843 34.0753 95.1266C34.3857 95.0689 34.6714 94.9185 34.8947 94.6953L37.8996 91.6904C38.3359 91.8254 38.7744 91.9537 39.2148 92.0703L41.2803 97.4363C41.3937 97.731 41.5937 97.9845 41.854 98.1632C42.1143 98.3419 42.4227 98.4376 42.7385 98.4375H52.7406C53.0564 98.4375 53.3647 98.3418 53.625 98.1631C53.8853 97.9844 54.0854 97.731 54.1988 97.4363L56.2648 92.0689C59.1294 91.311 61.8789 90.1711 64.4394 88.6799L69.6994 91.016C69.988 91.1441 70.3086 91.1818 70.6191 91.1241C70.9295 91.0664 71.2152 90.916 71.4385 90.6928L78.5111 83.6203C78.7344 83.397 78.8848 83.1114 78.9425 82.8009C79.0002 82.4905 78.9625 82.1698 78.8344 81.8812L76.499 76.6232C77.9908 74.062 79.1309 71.3116 79.8887 68.4461L81.5592 67.8031C81.7748 68.408 82.3508 68.8416 83.0297 68.8416H93.0512C93.4656 68.8416 93.863 68.677 94.156 68.384C94.449 68.0909 94.6137 67.6935 94.6137 67.2791V46.2799C94.6135 44.7855 93.5566 43.5346 92.1516 43.2316ZM86.735 10.3521H89.3457L90.6967 16.2195L89.1697 19.5406C89.0756 19.7454 89.0269 19.968 89.0269 20.1934V43.1604H87.0541V20.1936C87.0541 19.9682 87.0053 19.7455 86.9113 19.5408L85.3844 16.2197L86.735 10.3521ZM61.7072 16.9936C61.7072 15.6789 62.1148 14.4359 62.8414 13.4094V17.8713C62.8414 18.1456 62.9136 18.415 63.0508 18.6525C63.1879 18.89 63.3851 19.0873 63.6227 19.2244L67.1303 21.2498C67.3678 21.3869 67.6372 21.4591 67.9115 21.4591C68.1858 21.4591 68.4552 21.3869 68.6928 21.2498L72.2004 19.2244C72.4379 19.0873 72.6352 18.89 72.7723 18.6525C72.9094 18.415 72.9816 18.1456 72.9816 17.8713V13.4096C73.7082 14.4361 74.1158 15.6791 74.1158 16.9936C74.1175 18.2164 73.7573 19.4124 73.0805 20.4308C72.4037 21.4493 71.4406 22.2446 70.3125 22.7166C70.0288 22.8358 69.7867 23.036 69.6164 23.2923C69.4461 23.5485 69.3553 23.8494 69.3553 24.157V52.8041C69.3553 53.1118 69.4461 53.4126 69.6164 53.6688C69.7867 53.9251 70.0289 54.1253 70.3125 54.2445C71.4406 54.7165 72.4037 55.5118 73.0805 56.5302C73.7574 57.5486 74.1176 58.7446 74.1158 59.9674C74.1158 61.282 73.7082 62.525 72.9818 63.5516V59.0896C72.9818 58.8154 72.9096 58.5459 72.7725 58.3084C72.6354 58.0709 72.4381 57.8737 72.2006 57.7365L68.6928 55.7111C68.4552 55.574 68.1858 55.5018 67.9115 55.5018C67.6372 55.5018 67.3678 55.574 67.1303 55.7111L63.6227 57.7365C63.3851 57.8737 63.1879 58.0709 63.0508 58.3084C62.9136 58.5459 62.8414 58.8154 62.8414 59.0896V63.5516C62.115 62.525 61.7072 61.282 61.7072 59.9674C61.7055 58.7446 62.0658 57.5486 62.7426 56.5302C63.4195 55.5117 64.3826 54.7165 65.5107 54.2445C65.7944 54.1253 66.0365 53.9251 66.2068 53.6688C66.3771 53.4126 66.4679 53.1118 66.468 52.8041V24.157C66.468 23.8494 66.3771 23.5485 66.2068 23.2923C66.0365 23.0361 65.7944 22.8358 65.5107 22.7166C64.3826 22.2446 63.4195 21.4493 62.7426 20.4309C62.0658 19.4124 61.7055 18.2164 61.7072 16.9936ZM40.8236 76.5061L38.807 75.7299C38.4913 74.659 38.0625 73.6248 37.5279 72.6447L38.4055 70.6686C38.5337 70.38 38.5714 70.0594 38.5138 69.7489C38.4561 69.4385 38.3057 69.1528 38.0824 68.9295L34.8945 65.7416C34.6713 65.5183 34.3856 65.3679 34.0752 65.3102C33.7647 65.2525 33.444 65.2902 33.1555 65.4184L31.1785 66.2965C30.1987 65.7621 29.1648 65.3334 28.0943 65.0178L27.3178 63.0006C27.2044 62.7059 27.0043 62.4525 26.744 62.2737C26.4837 62.095 26.1753 61.9994 25.8596 61.9994H24.0482C23.9874 61.3084 23.9562 60.615 23.9549 59.9213C23.9549 59.6359 23.9617 59.3504 23.9721 59.065L58.6305 59.0648C58.5999 59.3648 58.5837 59.6661 58.582 59.9676C58.582 63.5027 60.542 66.6926 63.6971 68.2924C63.9352 68.4133 64.2004 68.4711 64.4673 68.4603C64.7342 68.4494 64.9938 68.3702 65.2213 68.2303C65.4489 68.0905 65.6369 67.8947 65.7672 67.6616C65.8976 67.4285 65.9661 67.1659 65.966 66.8988V59.992L67.9111 58.8687L69.8564 59.9918V66.8986C69.8564 67.2437 69.9711 67.5725 70.1727 67.8396C66.8518 77.2703 57.8852 83.7057 47.7391 83.7057C45.7188 83.7076 43.7065 83.4521 41.7508 82.9453C41.7994 82.7925 41.8242 82.633 41.8242 82.4727V77.9643C41.8245 77.6485 41.729 77.3401 41.5504 77.0798C41.3717 76.8194 41.1183 76.6194 40.8236 76.5061ZM37.1291 5.46328C37.3639 5.17715 38.1672 4.80781 39.6641 4.6916C41.1611 4.80781 41.9643 5.17695 42.199 5.46328C42.2381 5.51094 42.2916 5.57617 42.2623 5.80234L41.5945 10.9451C41.5743 11.1125 41.4931 11.2666 41.3664 11.3779C41.2397 11.4892 41.0764 11.5499 40.9078 11.5484H38.4205C38.2519 11.5499 38.0886 11.4892 37.9619 11.3779C37.8352 11.2666 37.754 11.1125 37.7338 10.9451L37.066 5.80254C37.0363 5.57617 37.0898 5.51094 37.1291 5.46328ZM34.2174 8.13437L34.6346 11.3477C34.8809 13.2437 36.5082 14.6734 38.4203 14.6734H40.9076C42.8197 14.6734 44.4471 13.2436 44.6934 11.3477L45.1105 8.13437C48.9113 10.0738 51.4102 13.9131 51.5918 18.2551H27.7363C27.9178 13.9131 30.4166 10.0736 34.2174 8.13437ZM25.8301 21.3801H53.498C53.6561 21.3801 53.7896 21.5137 53.7896 21.6717C53.7896 21.8297 53.6561 21.9633 53.498 21.9633H25.8301C25.6719 21.9633 25.5385 21.8297 25.5385 21.6717C25.5385 21.5137 25.6719 21.3801 25.8301 21.3801ZM28.8193 25.0883H50.509C49.1715 29.873 44.7857 33.2994 39.6672 33.3006H39.6615C34.5424 33.2994 30.1568 29.873 28.8193 25.0883ZM39.6613 36.4256H39.6662C49.8533 36.4266 58.9645 43.0156 62.2111 52.5818C61.0554 53.4727 60.1255 54.623 59.4967 55.9398L24.2891 55.94C24.3293 55.7016 24.3717 55.4637 24.4191 55.227C24.4646 55.0003 24.4591 54.7663 24.4032 54.542C24.3473 54.3176 24.2422 54.1085 24.0956 53.9297C23.9491 53.7509 23.7646 53.6068 23.5556 53.5079C23.3467 53.409 23.1183 53.3578 22.8871 53.3578H16.8672C19.8594 43.44 29.1502 36.4268 39.6613 36.4256ZM12.3482 56.4828H21.049C20.9033 57.6231 20.8302 58.7715 20.8301 59.9211C20.8301 60.6348 20.8611 61.3506 20.9174 62.0629C20.6859 62.1295 20.4731 62.2488 20.2954 62.4114C20.1178 62.574 19.9801 62.7755 19.8934 63.0002L19.1168 65.0176C18.4662 65.2094 17.8318 65.4478 17.2121 65.7215L12.3482 63.8492V56.4828ZM34.3482 88.3316L35.1141 90.0561L33.4434 91.7268L31.7197 90.9613C31.4877 90.8583 31.2341 90.8133 30.9809 90.8303C30.7276 90.8474 30.4823 90.9258 30.2662 91.059C29.1206 91.7653 27.8695 92.2839 26.5602 92.5953C26.3133 92.654 26.0844 92.772 25.8933 92.9391C25.7023 93.1061 25.5548 93.3172 25.4637 93.5541L24.7869 95.3125H22.4242L21.7471 93.5535C21.6559 93.3167 21.5084 93.1056 21.3174 92.9385C21.1263 92.7715 20.8975 92.6535 20.6506 92.5947C19.3416 92.2832 18.0909 91.7646 16.9455 91.0586C16.7294 90.9255 16.4841 90.8471 16.2309 90.8301C15.9777 90.813 15.7241 90.858 15.4922 90.9609L13.7678 91.7268L12.0971 90.0561L12.8625 88.3326C12.9655 88.1006 13.0105 87.847 12.9935 87.5938C12.9765 87.3405 12.898 87.0952 12.7648 86.8791C12.0586 85.7335 11.5399 84.4823 11.2285 83.173C11.1698 82.9262 11.0518 82.6973 10.8847 82.5063C10.7176 82.3152 10.5066 82.1677 10.2697 82.0766L8.51133 81.3998V79.0369L10.2701 78.36C10.5069 78.2688 10.718 78.1213 10.8851 77.9302C11.0521 77.7392 11.1701 77.5103 11.2289 77.2635C11.5403 75.9545 12.0589 74.7036 12.765 73.5582C12.8981 73.3421 12.9765 73.0968 12.9935 72.8435C13.0105 72.5903 12.9656 72.3367 12.8627 72.1047L12.0969 70.3805L13.7678 68.7098L15.4922 69.4756C15.7241 69.5786 15.9777 69.6235 16.2309 69.6065C16.4841 69.5895 16.7294 69.511 16.9455 69.3779C18.0909 68.6719 19.3416 68.1533 20.6506 67.8418C20.8975 67.783 21.1263 67.665 21.3173 67.4979C21.5084 67.3309 21.6559 67.1198 21.7471 66.883L22.4242 65.124H24.7869L25.4641 66.883C25.5552 67.1199 25.7027 67.331 25.8937 67.498C26.0848 67.6651 26.3136 67.7831 26.5605 67.8418C27.8695 68.1533 29.1203 68.6719 30.2656 69.3779C30.4818 69.5109 30.727 69.5893 30.9802 69.6063C31.2334 69.6234 31.487 69.5785 31.7189 69.4756L33.4434 68.7098L35.1141 70.3805L34.3486 72.1041C34.2456 72.3361 34.2006 72.5897 34.2176 72.8429C34.2347 73.0962 34.3131 73.3415 34.4463 73.5576C35.1526 74.7032 35.6713 75.9543 35.9826 77.2637C36.0414 77.5106 36.1594 77.7394 36.3264 77.9305C36.4935 78.1215 36.7046 78.269 36.9414 78.3602L38.6998 79.0369V81.3996L36.9408 82.0768C36.704 82.1679 36.4929 82.3153 36.3258 82.5063C36.1588 82.6973 36.0408 82.9262 35.982 83.173C35.6704 84.482 35.1519 85.7327 34.4459 86.8781C34.3127 87.0942 34.2343 87.3395 34.2173 87.5928C34.2002 87.8461 34.2452 88.0997 34.3482 88.3316ZM78.0096 65.8209C77.7727 65.912 77.5616 66.0595 77.3946 66.2506C77.2275 66.4416 77.1095 66.6705 77.0508 66.9174C76.3131 70.0191 75.0845 72.983 73.4113 75.6969C73.2782 75.913 73.1997 76.1583 73.1827 76.4116C73.1657 76.6648 73.2106 76.9184 73.3137 77.1504L75.5426 82.1689L69.9871 87.7244L64.9666 85.4945C64.7346 85.3915 64.481 85.3466 64.2278 85.3636C63.9745 85.3806 63.7292 85.4591 63.5131 85.5922C60.7998 87.2648 57.8367 88.4932 54.7359 89.2311C54.489 89.2898 54.2602 89.4078 54.0691 89.5749C53.8781 89.7419 53.7306 89.953 53.6394 90.1898L51.6678 95.3125H43.8111L41.84 90.1914C41.7489 89.9545 41.6014 89.7435 41.4104 89.5764C41.2193 89.4093 40.9905 89.2913 40.7436 89.2326C39.7415 88.9929 38.7525 88.7018 37.7805 88.3604L37.5277 87.7914C37.9695 86.9782 38.3386 86.1275 38.6309 85.2494C41.5451 86.299 44.6031 86.8307 47.7398 86.8307C59.7559 86.8307 70.3117 78.8525 73.6078 67.3588C75.8826 65.6125 77.2414 62.9102 77.2414 59.9676C77.2412 58.7735 77.0118 57.5906 76.5658 56.483H81.4676V64.4902L78.0096 65.8209ZM91.4885 65.7166H84.5916L84.5863 46.2857L91.4885 46.2801V65.7166ZM23.6057 70.7934C18.4088 70.7934 14.1807 75.0215 14.1807 80.2186C14.1807 85.4154 18.4088 89.6436 23.6057 89.6436C28.8025 89.6436 33.0307 85.4156 33.0307 80.2186C33.0307 75.0215 28.8025 70.7934 23.6057 70.7934ZM23.6057 86.5184C20.1318 86.5184 17.3057 83.6922 17.3057 80.2184C17.3057 76.7443 20.1318 73.9182 23.6057 73.9182C27.0795 73.9182 29.9057 76.7443 29.9057 80.2184C29.9057 83.6924 27.0795 86.5184 23.6057 86.5184Z" fill="white"/>
</svg>
