<svg width="50" height="50" viewBox="0 0 50 50" fill="none" xmlns="http://www.w3.org/2000/svg">
<g clip-path="url(#clip0_14_790)">
<path d="M24.7792 50C24.6252 50.0002 24.473 49.9661 24.3337 49.9004C24.1944 49.8347 24.0714 49.739 23.9736 49.62C23.8758 49.5011 23.8055 49.3619 23.768 49.2125C23.7304 49.0632 23.7264 48.9073 23.7563 48.7562L25.2292 41.3917C25.2682 41.1891 25.3677 41.0032 25.5146 40.8583L41.7188 24.6542C42.3056 24.0698 43.1 23.7418 43.9281 23.7418C44.7563 23.7418 45.5507 24.0698 46.1375 24.6542L49.0833 27.6C49.6687 28.1863 49.9974 28.9809 49.9974 29.8094C49.9974 30.6378 49.6687 31.4325 49.0833 32.0187L32.8792 48.2229C32.7338 48.369 32.5481 48.4684 32.3458 48.5083L24.9813 49.9812C24.9146 49.9937 24.847 50 24.7792 50ZM27.2125 42.1062L26.1083 47.6292L31.6313 46.525L47.6125 30.5437C47.8078 30.3484 47.9175 30.0835 47.9175 29.8073C47.9175 29.5311 47.8078 29.2662 47.6125 29.0708L44.6667 26.125C44.4713 25.9297 44.2064 25.82 43.9302 25.82C43.654 25.82 43.3891 25.9297 43.1938 26.125L27.2125 42.1062ZM19.7917 43.75H5.20833C3.82734 43.7489 2.50322 43.1998 1.5267 42.2233C0.550191 41.2468 0.00110347 39.9227 0 38.5417L0 11.4583C0 8.58542 2.33542 6.25 5.20833 6.25H9.375C9.65127 6.25 9.91622 6.35975 10.1116 6.5551C10.3069 6.75045 10.4167 7.0154 10.4167 7.29167C10.4167 7.56793 10.3069 7.83289 10.1116 8.02824C9.91622 8.22359 9.65127 8.33333 9.375 8.33333H5.20833C3.48542 8.33333 2.08333 9.73542 2.08333 11.4583V38.5417C2.08333 40.2646 3.48542 41.6667 5.20833 41.6667H19.7917C20.0679 41.6667 20.3329 41.7764 20.5282 41.9718C20.7236 42.1671 20.8333 42.4321 20.8333 42.7083C20.8333 42.9846 20.7236 43.2496 20.5282 43.4449C20.3329 43.6403 20.0679 43.75 19.7917 43.75ZM34.375 25C34.0987 25 33.8338 24.8903 33.6384 24.6949C33.4431 24.4996 33.3333 24.2346 33.3333 23.9583V11.4583C33.3333 9.73542 31.9313 8.33333 30.2083 8.33333H26.0417C25.7654 8.33333 25.5004 8.22359 25.3051 8.02824C25.1097 7.83289 25 7.56793 25 7.29167C25 7.0154 25.1097 6.75045 25.3051 6.5551C25.5004 6.35975 25.7654 6.25 26.0417 6.25H30.2083C33.0813 6.25 35.4167 8.58542 35.4167 11.4583V23.9583C35.4167 24.2346 35.3069 24.4996 35.1116 24.6949C34.9162 24.8903 34.6513 25 34.375 25Z" fill="white"/>
<path d="M23.9583 12.5H11.4583C9.73542 12.5 8.33333 11.0979 8.33333 9.375V5.20833C8.33333 4.93207 8.44308 4.66711 8.63843 4.47176C8.83378 4.27641 9.09873 4.16667 9.375 4.16667H12.6042C13.0875 1.79167 15.1938 0 17.7083 0C20.2229 0 22.3292 1.79167 22.8125 4.16667H26.0417C26.3179 4.16667 26.5829 4.27641 26.7782 4.47176C26.9736 4.66711 27.0833 4.93207 27.0833 5.20833V9.375C27.0833 11.0979 25.6813 12.5 23.9583 12.5ZM10.4167 6.25V9.375C10.4167 9.94792 10.8854 10.4167 11.4583 10.4167H23.9583C24.5313 10.4167 25 9.94792 25 9.375V6.25H21.875C21.5987 6.25 21.3338 6.14025 21.1384 5.9449C20.9431 5.74955 20.8333 5.4846 20.8333 5.20833C20.8333 3.48542 19.4313 2.08333 17.7083 2.08333C15.9854 2.08333 14.5833 3.48542 14.5833 5.20833C14.5833 5.4846 14.4736 5.74955 14.2782 5.9449C14.0829 6.14025 13.8179 6.25 13.5417 6.25H10.4167ZM28.125 18.75H7.29167C7.0154 18.75 6.75045 18.6403 6.5551 18.4449C6.35975 18.2496 6.25 17.9846 6.25 17.7083C6.25 17.4321 6.35975 17.1671 6.5551 16.9718C6.75045 16.7764 7.0154 16.6667 7.29167 16.6667H28.125C28.4013 16.6667 28.6662 16.7764 28.8616 16.9718C29.0569 17.1671 29.1667 17.4321 29.1667 17.7083C29.1667 17.9846 29.0569 18.2496 28.8616 18.4449C28.6662 18.6403 28.4013 18.75 28.125 18.75ZM28.125 25H7.29167C7.0154 25 6.75045 24.8903 6.5551 24.6949C6.35975 24.4996 6.25 24.2346 6.25 23.9583C6.25 23.6821 6.35975 23.4171 6.5551 23.2218C6.75045 23.0264 7.0154 22.9167 7.29167 22.9167H28.125C28.4013 22.9167 28.6662 23.0264 28.8616 23.2218C29.0569 23.4171 29.1667 23.6821 29.1667 23.9583C29.1667 24.2346 29.0569 24.4996 28.8616 24.6949C28.6662 24.8903 28.4013 25 28.125 25ZM28.125 31.25H7.29167C7.0154 31.25 6.75045 31.1403 6.5551 30.9449C6.35975 30.7496 6.25 30.4846 6.25 30.2083C6.25 29.9321 6.35975 29.6671 6.5551 29.4718C6.75045 29.2764 7.0154 29.1667 7.29167 29.1667H28.125C28.4013 29.1667 28.6662 29.2764 28.8616 29.4718C29.0569 29.6671 29.1667 29.9321 29.1667 30.2083C29.1667 30.4846 29.0569 30.7496 28.8616 30.9449C28.6662 31.1403 28.4013 31.25 28.125 31.25Z" fill="white"/>
</g>
<defs>
<clipPath id="clip0_14_790">
<rect width="50" height="50" fill="white"/>
</clipPath>
</defs>
</svg>
