<svg width="30" height="30" viewBox="0 0 30 30" fill="none" xmlns="http://www.w3.org/2000/svg">
<rect width="30" height="30" rx="8" fill="#F7F7F7"/>
<path d="M10 5C9.3125 5 8.75 5.5625 8.75 6.25V23.75C8.75 24.4375 9.3125 25 10 25H22.5C23.1875 25 23.75 24.4375 23.75 23.75V10L18.75 5H10Z" fill="#E4E4E4"/>
<path d="M20 10H23.75L18.75 5V8.75C18.75 9.4375 19.3125 10 20 10Z" fill="#A3ABB0"/>
<path opacity="0.3" d="M23.75 13.75L20 10H23.75V13.75Z" fill="#A3ABB0"/>
<path d="M21 21.375C21 21.7188 20.7188 22 20.375 22H6.625C6.28125 22 6 21.7188 6 21.375V15.125C6 14.7812 6.28125 14.5 6.625 14.5H20.375C20.7188 14.5 21 14.7812 21 15.125V21.375Z" fill="#50BEE8"/>
<path d="M7.85 20V16.4H8.9975C9.0275 16.4 9.08667 16.4008 9.175 16.4025C9.265 16.4042 9.35167 16.41 9.435 16.42C9.72 16.4567 9.96083 16.5583 10.1575 16.725C10.3558 16.89 10.5058 17.1008 10.6075 17.3575C10.7092 17.6142 10.76 17.895 10.76 18.2C10.76 18.505 10.7092 18.7858 10.6075 19.0425C10.5058 19.2992 10.3558 19.5108 10.1575 19.6775C9.96083 19.8425 9.72 19.9433 9.435 19.98C9.35333 19.99 9.2675 19.9958 9.1775 19.9975C9.0875 19.9992 9.0275 20 8.9975 20H7.85ZM8.4625 19.4325H8.9975C9.0475 19.4325 9.11083 19.4308 9.1875 19.4275C9.26583 19.4242 9.335 19.4167 9.395 19.405C9.565 19.3733 9.70333 19.2975 9.81 19.1775C9.91667 19.0575 9.995 18.9117 10.045 18.74C10.0967 18.5683 10.1225 18.3883 10.1225 18.2C10.1225 18.005 10.0967 17.8217 10.045 17.65C9.99333 17.4783 9.91333 17.3342 9.805 17.2175C9.69833 17.1008 9.56167 17.0267 9.395 16.995C9.335 16.9817 9.26583 16.9742 9.1875 16.9725C9.11083 16.9692 9.0475 16.9675 8.9975 16.9675H8.4625V19.4325ZM11.9596 20L10.9071 16.4H11.5396L12.2571 19L12.9721 16.405L13.6046 16.4L14.3221 19L15.0371 16.4H15.6696L14.6196 20H14.0246L13.2871 17.44L12.5546 20H11.9596ZM17.4649 20.075C17.2315 20.075 17.0124 20.0342 16.8074 19.9525C16.604 19.8692 16.4249 19.7475 16.2699 19.5875C16.1165 19.4275 15.9965 19.2317 15.9099 19C15.8232 18.7667 15.7799 18.5 15.7799 18.2C15.7799 17.8067 15.8532 17.4708 15.9999 17.1925C16.1465 16.9125 16.3474 16.6983 16.6024 16.55C16.8574 16.4 17.1449 16.325 17.4649 16.325C17.9082 16.325 18.259 16.4283 18.5174 16.635C18.7774 16.84 18.9532 17.1283 19.0449 17.5L18.4299 17.5975C18.3615 17.3842 18.2499 17.2142 18.0949 17.0875C17.9399 16.9592 17.7424 16.895 17.5024 16.895C17.2607 16.8917 17.0599 16.9442 16.8999 17.0525C16.7399 17.1608 16.619 17.3133 16.5374 17.51C16.4574 17.7067 16.4174 17.9367 16.4174 18.2C16.4174 18.4633 16.4574 18.6925 16.5374 18.8875C16.6174 19.0808 16.7374 19.2317 16.8974 19.34C17.059 19.4483 17.2607 19.5042 17.5024 19.5075C17.684 19.5092 17.8432 19.4767 17.9799 19.41C18.1165 19.3417 18.2282 19.2392 18.3149 19.1025C18.4015 18.9642 18.4599 18.7917 18.4899 18.585H17.8549V18.1125H19.1299C19.1332 18.1392 19.1357 18.1783 19.1374 18.23C19.139 18.2817 19.1399 18.3125 19.1399 18.3225C19.1399 18.6625 19.0724 18.965 18.9374 19.23C18.804 19.4933 18.6124 19.7 18.3624 19.85C18.1124 20 17.8132 20.075 17.4649 20.075Z" fill="white"/>
<path opacity="0.3" d="M20.625 21.875H8.75V22.5H20.625C20.9688 22.5 21.25 22.2188 21.25 21.875V21.25C21.25 21.5938 20.9688 21.875 20.625 21.875Z" fill="#A3ABB0"/>
</svg>
