<svg width="60" height="60" viewBox="0 0 60 60" fill="none" xmlns="http://www.w3.org/2000/svg">
<g clip-path="url(#clip0_7_862)">
<path d="M23.5791 51.9073C23.79 52.0053 24.0284 52.0267 24.2534 51.9678C24.4783 51.9089 24.6757 51.7734 24.8115 51.5846L42.8115 26.5846C42.9191 26.4352 42.9833 26.2591 42.9971 26.0755C43.0109 25.892 42.9739 25.7082 42.89 25.5444C42.8061 25.3806 42.6786 25.2431 42.5216 25.147C42.3645 25.051 42.1841 25.0002 42 25.0001H33.0401L36.9702 9.24229C37.0266 9.01671 37.0026 8.77853 36.9023 8.56875C36.802 8.35896 36.6318 8.1907 36.4208 8.09291C35.9834 7.8917 35.4677 8.026 35.1884 8.41565L17.1884 33.4156C17.0808 33.565 17.0166 33.7412 17.0028 33.9247C16.9889 34.1082 17.026 34.292 17.1099 34.4558C17.1938 34.6197 17.3213 34.7572 17.4783 34.8532C17.6353 34.9492 17.8158 35.0001 17.9999 35.0001H26.9598L23.0296 50.7579C22.9733 50.9835 22.9974 51.2217 23.0977 51.4314C23.1979 51.6412 23.3682 51.8095 23.5791 51.9073ZM29.2105 34.2422C29.2473 34.0948 29.25 33.941 29.2184 33.7924C29.1869 33.6438 29.1219 33.5043 29.0283 33.3845C28.9348 33.2648 28.8153 33.168 28.6787 33.1013C28.5422 33.0347 28.3922 33.0001 28.2403 33.0001H19.9522L33.77 13.8086L30.7895 25.7579C30.7527 25.9053 30.75 26.0591 30.7816 26.2077C30.8131 26.3564 30.8781 26.4958 30.9717 26.6156C31.0652 26.7353 31.1847 26.8322 31.3213 26.8988C31.4578 26.9654 31.6078 27 31.7597 27.0001H40.0478L26.23 46.1915L29.2105 34.2422Z" fill="#345766"/>
<path d="M59 29C58.8687 29 58.7387 29.0259 58.6174 29.0762C58.4961 29.1264 58.3858 29.2001 58.293 29.2929C58.2001 29.3858 58.1264 29.496 58.0762 29.6173C58.0259 29.7387 58.0001 29.8687 58.0001 30C58.0001 45.4395 45.4396 58 30.0001 58C21.7329 58 13.8675 54.2919 8.57039 48H14C14.2652 48 14.5196 47.8946 14.7071 47.7071C14.8946 47.5196 15 47.2652 15 47C15 46.7348 14.8946 46.4805 14.7071 46.293C14.5196 46.1054 14.2652 46.0001 14 46.0001H6C5.73479 46.0001 5.48045 46.1054 5.29292 46.293C5.10539 46.4805 5.00004 46.7348 5.00004 47V55.0001C5.00004 55.2653 5.10539 55.5196 5.29292 55.7072C5.48045 55.8947 5.73479 56 6 56C6.26521 56 6.51955 55.8947 6.70708 55.7072C6.89461 55.5196 6.99996 55.2653 6.99996 55.0001V49.2408C12.6751 56.0098 21.1213 60 30 60C46.542 60 60 46.542 60 30C60 29.7348 59.8946 29.4805 59.7071 29.2929C59.5196 29.1054 59.2652 29 59 29ZM30 2.00004C38.2672 2.00004 46.1326 5.70809 51.4297 12H46.0001C45.7349 12 45.4805 12.1054 45.293 12.2929C45.1055 12.4804 45.0001 12.7348 45.0001 13C45.0001 13.2652 45.1055 13.5195 45.293 13.707C45.4805 13.8946 45.7349 13.9999 46.0001 13.9999H54C54.1313 13.9999 54.2613 13.9741 54.3827 13.9238C54.504 13.8736 54.6142 13.7999 54.7071 13.707C54.7999 13.6142 54.8736 13.504 54.9238 13.3826C54.9741 13.2613 55 13.1313 55 13V5.00004C55 4.73483 54.8946 4.48049 54.7071 4.29296C54.5195 4.10543 54.2652 4.00008 54 4.00008C53.7348 4.00008 53.4805 4.10543 53.2929 4.29296C53.1054 4.48049 53 4.73483 53 5.00004V10.7593C47.3249 3.99023 38.8787 0 30 0C13.458 0 0 13.458 0 30C0 30.2652 0.105353 30.5196 0.292882 30.7071C0.480411 30.8946 0.734755 31 0.999961 31C1.26517 31 1.51951 30.8946 1.70704 30.7071C1.89457 30.5196 1.99992 30.2652 1.99992 30C2.00004 14.5605 14.5605 2.00004 30 2.00004Z" fill="#345766"/>
</g>
<defs>
<clipPath id="clip0_7_862">
<rect width="60" height="60" fill="white"/>
</clipPath>
</defs>
</svg>
