<svg width="60" height="60" viewBox="0 0 60 60" fill="none" xmlns="http://www.w3.org/2000/svg">
<path fill-rule="evenodd" clip-rule="evenodd" d="M26.116 16.1335C21.8629 16.1335 18.4534 12.5132 18.6995 8.26008C18.7346 7.87344 19.051 7.55709 19.4727 7.52194C23.7258 7.24075 27.3814 10.6854 27.3462 14.9385C27.6977 15.2197 28.2249 15.7117 28.717 16.2741C28.9631 14.2355 29.42 13.1107 29.7364 12.5483C28.0843 6.9947 31.5993 1.1599 37.2935 0.0351231C37.6801 -0.0351757 38.0668 0.175721 38.2074 0.562364C40.0703 6.04567 36.7311 12.0211 31.1072 13.3567C30.826 13.884 30.1582 15.536 30.1933 19.2618C34.8682 19.4376 39.2618 21.1599 42.7768 24.2179V21.1599C42.7768 18.1019 45.2724 15.5712 48.3655 15.5712C51.4587 15.5712 53.9543 18.1019 53.9543 21.1599V43.4446C60.3866 48.6467 56.7662 59.1564 48.4358 59.1564C45.6942 59.1564 43.2337 57.891 41.6169 55.9226C38.1019 58.5588 33.8137 59.9648 29.42 59.9648C13.8137 59.9648 4.21791 43.2337 11.529 29.877C9.56062 28.9279 8.29524 26.9596 8.29524 24.71C8.29524 18.7697 16.3093 16.8717 19.0158 22.1089C21.8629 20.3866 25.0966 19.4024 28.5764 19.2618C28.471 18.1371 27.0299 16.7311 26.2566 16.1335H26.116ZM12.3374 28.471C13.7434 26.3269 15.5712 24.4639 17.645 22.9877C15.8524 19.1212 9.87697 20.3515 9.87697 24.71C9.87697 26.362 10.8611 27.8383 12.3374 28.471ZM13.9543 17.5044C13.5325 17.5044 13.181 17.1529 13.181 16.6959V14.3058C13.181 13.2513 14.7627 13.2513 14.7627 14.3058V16.6959C14.7627 17.1529 14.4112 17.5044 13.9543 17.5044ZM19.6133 19.8594C18.9455 19.8594 18.5589 18.9806 19.051 18.4886L20.7733 16.7662C21.5114 16.0632 22.6362 17.188 21.8981 17.9262L20.2109 19.6133C20.0351 19.7891 19.8242 19.8594 19.6133 19.8594ZM6.57292 32.8998C5.90508 32.8998 5.51844 32.0562 6.01053 31.529L7.73285 29.8418C8.47099 29.1037 9.59577 30.2284 8.85763 30.9666L7.13531 32.6538C6.99472 32.8295 6.78382 32.8998 6.57292 32.8998ZM5.94023 25.5184H3.51493C2.49559 25.5184 2.49559 23.9367 3.51493 23.9367H5.94023C6.95957 23.9367 6.95957 25.5184 5.94023 25.5184ZM8.29524 19.8594C8.08435 19.8594 7.87345 19.7891 7.73285 19.6133L6.01053 17.9262C5.30754 17.188 6.43233 16.0632 7.13531 16.7662L8.85763 18.4886C9.34972 18.9806 8.96308 19.8594 8.29524 19.8594ZM19.6485 52.3374C19.051 52.3374 18.348 52.1617 17.6801 51.775C14.9736 50.369 12.3374 46.2566 12.7944 40.5272C12.8295 40.0351 12.7944 39.7891 12.7592 39.6836C12.232 39.8242 11.0017 41.0896 10.7908 42.1089C12.0211 51.2829 19.8945 58.3831 29.42 58.3831C31.2126 58.3831 32.9701 58.1371 34.6924 57.6098C33.8137 56.0632 33.9543 54.4464 35.0791 53.0052C28.014 45.5887 35.6415 44.4639 35.7469 42.6362L36.0281 37.9965C36.2039 34.6924 39.5782 34.2355 41.7575 36.4147C42.109 36.7662 42.4604 37.0474 42.7768 37.2935V27.8383C41.6169 27.9086 40.6678 27.4868 40.1054 27.1353C38.1019 28.8576 35.8524 28.9631 34.0597 27.8383C32.5483 28.5413 31.3181 28.5061 30.3339 27.8383C28.3304 26.4323 28.3655 22.6713 28.5061 20.8436C26.0105 20.9842 23.6555 21.5817 21.5114 22.5659C22.6713 23.4095 23.7961 24.8506 23.6555 27.0299C30.6503 28.5413 28.1546 35.8875 23.761 33.6731C23.0228 33.2864 21.6169 31.8453 20.8787 31.7047C20.2812 31.5641 19.0158 32.6186 19.8594 33.2161C20.246 33.4622 20.7733 33.8137 21.406 34.2003C25.2724 36.6608 28.4007 38.84 27.9789 40.949C27.6274 42.5307 25.413 43.0228 23.8313 43.2337C22.1792 43.4798 21.5466 44.3936 22.0738 46.1863C23.1634 50.0878 22.0035 52.3374 19.6485 52.3374ZM10.6503 39.3321C12.2671 37.5747 14.6573 37.4341 14.3761 40.6327C13.9894 45.659 16.1687 49.2091 18.4183 50.369C20.9842 51.7399 21.2654 49.2443 20.5272 46.6432C19.7891 43.9719 20.8787 42.0386 23.5852 41.652C26.1863 41.3005 26.3972 40.6678 26.3972 40.5975C26.7135 39.1564 20.6678 35.7118 18.9455 34.5167C16.6608 32.8998 18.8401 29.6309 21.1951 30.123C22.9877 30.5096 24.71 33.3216 26.0105 32.2671C27.1705 31.3181 26.1863 28.9631 22.6362 28.471C22.1792 28.4007 21.8629 27.9789 21.9684 27.5219C22.4956 24.8857 20.5975 23.7961 19.8242 23.4798C14.4112 26.7135 10.7206 32.5835 10.6503 39.3321ZM30.123 20.8436C29.9473 22.8822 30.0879 25.7293 31.2478 26.5378C31.775 26.9244 32.6538 26.819 33.7785 26.2214C34.0597 26.0457 34.4464 26.116 34.6924 26.3269C34.9033 26.5378 36.8365 28.1546 39.5079 25.5536C40.3163 24.7451 40.8787 26.2566 42.601 26.2566C39.2618 22.9174 34.8682 21.0193 30.123 20.8436ZM40.703 54.587C38.6995 50.9666 39.543 46.2917 42.7768 43.5852V39.1564C41.0896 38.348 39.8242 36.1687 38.3831 36.7311C37.7856 36.942 37.645 37.5747 37.6098 38.1019L37.3286 42.7065C37.1177 46.362 29.6309 45.3778 36.7311 52.4077C37.0123 52.7241 37.0123 53.2513 36.7311 53.5676C35.5712 54.6924 35.3954 55.8523 36.239 57.0826C37.8207 56.485 39.3321 55.6414 40.703 54.587ZM44.3585 26.0457V26.9596C44.2882 30.8611 44.4288 34.7627 44.3585 38.6291V43.9719C44.3585 44.2179 44.2531 44.4639 44.0422 44.6045C38.6643 48.717 41.4763 57.5747 48.4358 57.5747C55.4657 57.5747 58.2777 48.5764 52.6889 44.4991C52.478 44.3585 52.3726 44.1125 52.3726 43.8664V21.1599C52.3726 18.9806 50.58 17.188 48.3655 17.188C46.1511 17.188 44.3585 18.9806 44.3585 21.1599V26.0457ZM48.4358 54.9033C45.9402 54.9033 43.9016 52.8646 43.9016 50.3339C43.9016 48.1195 45.5184 46.2566 47.6274 45.8699V22.1441C47.6274 21.1248 49.2443 21.1248 49.2443 22.1441V45.8699C51.3532 46.2566 52.9701 48.1195 52.9701 50.3339C52.9701 52.8646 50.9314 54.9033 48.4358 54.9033ZM48.4007 47.3813C46.7838 47.4165 45.4833 48.717 45.4833 50.3339C45.4833 51.9859 46.819 53.2864 48.4358 53.2864C50.0527 53.2864 51.3884 51.9859 51.3884 50.3339C51.3884 48.6819 50.0527 47.4165 48.4007 47.3813ZM36.9068 1.75744C32.6538 3.02282 30.123 7.41649 31.1423 11.7047C35.3954 10.4745 37.9262 6.04567 36.9068 1.75744ZM20.3163 9.10366C20.4921 11.9859 22.8471 14.3409 25.7293 14.5518C25.5536 11.6696 23.1986 9.27941 20.3163 9.10366Z" fill="white"/>
</svg>
