<svg width="100" height="100" viewBox="0 0 100 100" fill="none" xmlns="http://www.w3.org/2000/svg">
<path d="M22.938 70.7187C22.422 70.931 21.9531 71.2431 21.5582 71.6371C21.1632 72.0311 20.85 72.4993 20.6366 73.0148C20.4232 73.5302 20.3137 74.0828 20.3145 74.6406C20.3152 75.1985 20.4262 75.7508 20.6411 76.2656L22.813 81.5313C23.2483 82.5678 24.0752 83.3906 25.1139 83.8207C26.1527 84.2508 27.3192 84.2535 28.3599 83.8281C28.5861 83.7271 28.8388 83.7014 29.0807 83.7549C29.3226 83.8083 29.541 83.9381 29.7036 84.125C30.7188 85.3495 31.8433 86.4791 33.063 87.5C33.2408 87.6587 33.3659 87.8679 33.4218 88.0996C33.4776 88.3313 33.4615 88.5746 33.3755 88.7969C32.9501 89.8376 32.9528 91.0041 33.3829 92.0428C33.813 93.0815 34.6358 93.9084 35.6724 94.3438L40.938 96.5156C41.9783 96.9453 43.1465 96.9447 44.1864 96.5141C45.2262 96.0835 46.0529 95.258 46.4849 94.2187C46.5784 93.9976 46.7385 93.8111 46.9429 93.6851C47.1473 93.5591 47.3859 93.4999 47.6255 93.5156C49.185 93.6525 50.7535 93.6525 52.313 93.5156C52.558 93.5036 52.8006 93.5678 53.0077 93.6993C53.2147 93.8308 53.3759 94.0232 53.4692 94.25C53.6798 94.7665 53.9915 95.2358 54.3859 95.6302C54.7803 96.0247 55.2496 96.3363 55.7661 96.5469C56.2615 96.754 56.7917 96.8653 57.3286 96.875C57.8657 96.8668 58.3961 96.7554 58.8911 96.5469L64.1567 94.375C65.1933 93.9397 66.0161 93.1128 66.4462 92.074C66.8763 91.0353 66.879 89.8688 66.4536 88.8281C66.3526 88.6019 66.3269 88.3492 66.3804 88.1073C66.4338 87.8654 66.5636 87.647 66.7505 87.4844C68.0439 86.4825 69.237 85.3574 70.313 84.125C70.4756 83.9381 70.694 83.8083 70.9359 83.7549C71.1778 83.7014 71.4305 83.7271 71.6567 83.8281C72.6974 84.2535 73.8639 84.2508 74.9027 83.8207C75.9414 83.3906 76.7683 82.5678 77.2036 81.5313L79.3755 76.2656C79.5904 75.7508 79.7014 75.1985 79.7021 74.6406C79.7029 74.0828 79.5934 73.5302 79.38 73.0148C79.1666 72.4993 78.8534 72.0311 78.4584 71.6371C78.0635 71.2431 77.5946 70.931 77.0786 70.7187C76.849 70.6294 76.6539 70.4691 76.5218 70.2611C76.3897 70.0531 76.3275 69.8083 76.3442 69.5625C76.3442 68.7656 76.4536 68 76.4536 67.1875H73.3286C73.3286 67.8906 73.3286 68.5781 73.2349 69.2656C73.1518 70.179 73.3654 71.0948 73.8438 71.8773C74.3223 72.6597 75.0402 73.2671 75.8911 73.6094C76.1639 73.7267 76.3801 73.9458 76.4939 74.2201C76.6077 74.4943 76.6101 74.8022 76.5005 75.0781L74.313 80.3281C74.1989 80.6036 73.9801 80.8225 73.7047 80.9368C73.4293 81.051 73.1198 81.0513 72.8442 80.9375C72.0022 80.5826 71.0688 80.5065 70.1804 80.7201C69.292 80.9338 68.4953 81.4261 67.9067 82.125C67.0145 83.2021 66.026 84.1958 64.9536 85.0937C64.2539 85.6783 63.7608 86.4723 63.547 87.3586C63.3331 88.2448 63.41 89.1764 63.7661 90.0156C63.8799 90.2912 63.8797 90.6007 63.7654 90.8761C63.6511 91.1515 63.4322 91.3703 63.1567 91.4844L57.813 93.6562C57.6798 93.7139 57.5362 93.7436 57.3911 93.7436C57.246 93.7436 57.1024 93.7139 56.9692 93.6562C56.6952 93.5392 56.4769 93.3209 56.3599 93.0469C56.0163 92.2002 55.4109 91.4857 54.6322 91.0078C53.8534 90.5298 52.9422 90.3136 52.0317 90.3906C50.6387 90.5156 49.2373 90.5156 47.8442 90.3906C46.9352 90.3099 46.0243 90.5228 45.2453 90.9981C44.4663 91.4734 43.8602 92.186 43.5161 93.0313C43.3993 93.3 43.181 93.5116 42.9088 93.6199C42.6365 93.7282 42.3325 93.7244 42.063 93.6094L36.7974 91.4375C36.5267 91.3263 36.31 91.1139 36.1933 90.8455C36.0766 90.5771 36.0691 90.2738 36.1724 90C36.5297 89.1584 36.6072 88.2243 36.3934 87.3353C36.1796 86.4463 35.6858 85.6496 34.9849 85.0625C33.9077 84.1702 32.914 83.1818 32.0161 82.1094C31.4316 81.4097 30.6376 80.9165 29.7513 80.7027C28.865 80.4889 27.9335 80.5657 27.0942 80.9219C26.8186 81.0357 26.5092 81.0354 26.2338 80.9211C25.9584 80.8069 25.7396 80.588 25.6255 80.3125L23.438 75.0625C23.3728 74.9166 23.3385 74.7587 23.3374 74.5989C23.3363 74.4391 23.3683 74.2808 23.4314 74.134C23.4945 73.9871 23.5874 73.855 23.7042 73.7459C23.821 73.6368 23.9591 73.553 24.1099 73.5C24.9344 73.1592 25.6297 72.5657 26.0957 71.8048C26.5618 71.044 26.7746 70.155 26.7036 69.2656C26.7036 68.5469 26.6099 67.8125 26.6099 67.1094H23.4849C23.4849 67.9063 23.4849 68.6719 23.5942 69.5469C23.6336 69.7876 23.5901 70.0346 23.4709 70.2475C23.3517 70.4603 23.1638 70.6265 22.938 70.7187Z" fill="white"/>
<path d="M50 84.375C54.5584 84.375 58.9301 82.5642 62.1534 79.3409C65.3767 76.1176 67.1875 71.7459 67.1875 67.1875H64.0625C64.0625 70.9171 62.5809 74.494 59.9437 77.1312C57.3065 79.7684 53.7296 81.25 50 81.25C46.2704 81.25 42.6935 79.7684 40.0563 77.1312C37.4191 74.494 35.9375 70.9171 35.9375 67.1875H32.8125C32.8125 71.7459 34.6233 76.1176 37.8466 79.3409C41.0699 82.5642 45.4416 84.375 50 84.375ZM84.375 25C84.375 24.5856 84.2104 24.1882 83.9174 23.8951C83.6243 23.6021 83.2269 23.4375 82.8125 23.4375H70.3125C69.8981 23.4375 69.5007 23.6021 69.2076 23.8951C68.9146 24.1882 68.75 24.5856 68.75 25V60.9375H57.8125V35.9375C57.8125 35.5231 57.6479 35.1257 57.3549 34.8326C57.0618 34.5396 56.6644 34.375 56.25 34.375H43.75C43.3356 34.375 42.9382 34.5396 42.6451 34.8326C42.3521 35.1257 42.1875 35.5231 42.1875 35.9375V60.9375H31.25V46.875C31.25 46.4606 31.0854 46.0632 30.7924 45.7701C30.4993 45.4771 30.1019 45.3125 29.6875 45.3125H17.1875C16.7731 45.3125 16.3757 45.4771 16.0826 45.7701C15.7896 46.0632 15.625 46.4606 15.625 46.875V60.9375H3.125V64.0625H96.875V60.9375H84.375V25ZM28.125 60.9375H18.75V48.4375H28.125V60.9375ZM54.6875 60.9375H45.3125V37.5H54.6875V60.9375ZM81.25 60.9375H71.875V26.5625H81.25V60.9375ZM11.2656 39.875L83.9531 10.6875L81.25 15.5156L83.9688 17.0781L88.8906 8.35937C89.0055 8.15657 89.0735 7.93063 89.0897 7.69812C89.106 7.46561 89.07 7.23242 88.9844 7.01562C88.8979 6.79653 88.7631 6.59981 88.5899 6.44017C88.4168 6.28053 88.2098 6.16211 87.9844 6.09375L78.375 3.125L77.4688 6.25L82.8125 7.8125L10.0938 36.9844L11.2656 39.875Z" fill="white"/>
</svg>
