<svg width="100" height="100" viewBox="0 0 100 100" fill="none" xmlns="http://www.w3.org/2000/svg">
<g clip-path="url(#clip0_41_2666)">
<path d="M13.3368 100H86.6651C89.4263 100 91.6648 97.7615 91.6648 95.0004V38.7607L92.2563 39.1523C92.7943 39.5238 93.4023 39.7819 94.0432 39.9108C94.6841 40.0397 95.3446 40.0368 95.9843 39.9022C96.6426 39.766 97.2666 39.4981 97.8188 39.1146C98.3709 38.7312 98.8398 38.24 99.1974 37.6707L99.2075 37.654C100.672 35.2949 100.031 32.2022 97.7493 30.6195L52.744 0.840026C51.9361 0.292607 50.9826 0 50.0067 0C49.0308 0 48.0773 0.292607 47.2694 0.840026L2.23907 30.6347C-0.0376906 32.2227 -0.670693 35.3162 0.799213 37.6709C1.1528 38.2397 1.61808 38.7308 2.16691 39.1147C2.71574 39.4985 3.33672 39.7671 3.99229 39.9041C4.3253 39.9711 4.66426 40.0046 5.00387 40.0041C5.9751 40.0055 6.92436 39.7152 7.72872 39.1708L8.33696 38.7625V95.0004C8.33696 97.7615 10.5754 100 13.3368 100ZM88.3315 95.0004C88.3315 95.9208 87.5854 96.6669 86.665 96.6669H13.3368C12.4163 96.6669 11.6702 95.9208 11.6702 95.0004V36.5593L50.0009 11.2276L88.3315 36.5593V95.0004ZM5.87215 36.396C5.69952 36.5153 5.50435 36.5982 5.29858 36.6395C5.09282 36.6807 4.88079 36.6796 4.67549 36.636C4.45884 36.5908 4.25371 36.5018 4.07262 36.3746C3.89154 36.2473 3.73831 36.0845 3.6223 35.896C3.36813 35.4996 3.27505 35.021 3.36208 34.5581C3.44912 34.0953 3.7097 33.6832 4.09053 33.4061L49.1225 3.60995C49.3816 3.43399 49.6876 3.33995 50.0009 3.34C50.3203 3.34133 50.632 3.43828 50.8959 3.61837L95.8978 33.398C96.2817 33.6724 96.5459 34.0832 96.6364 34.5462C96.7269 35.0092 96.6367 35.4893 96.3844 35.8879C96.2656 36.0787 96.1094 36.2435 95.9253 36.3724C95.7411 36.5013 95.5328 36.5916 95.3129 36.6378C95.1061 36.6789 94.8932 36.6777 94.6869 36.6342C94.4807 36.5906 94.2854 36.5057 94.1129 36.3846L50.9208 7.83954C50.6483 7.66155 50.3298 7.56676 50.0042 7.56676C49.6787 7.56676 49.3602 7.66155 49.0877 7.83954L5.87215 36.396Z" fill="white"/>
<path d="M36.0784 31.4496C34.1429 29.5233 31.0144 29.5233 29.0789 31.4496L19.7862 40.7422C17.859 42.6774 17.859 45.8065 19.7862 47.7417L34.8669 62.8357L25.5908 72.1134C25.3896 72.3129 25.2432 72.5609 25.1658 72.8335L21.2811 86.4343C21.1448 86.9103 21.121 87.4114 21.2114 87.8982C21.3018 88.385 21.504 88.8442 21.8021 89.2395C22.1002 89.6349 22.486 89.9556 22.9291 90.1765C23.3723 90.3973 23.8607 90.5123 24.3558 90.5123C24.6528 90.5116 24.9484 90.4701 25.2341 90.389L38.8349 86.501C39.1074 86.4234 39.3554 86.2771 39.5549 86.076L48.8343 76.8033L63.9183 91.8889C65.8543 93.8143 68.9818 93.8143 70.9178 91.8889L80.2104 82.5963C82.1376 80.6611 82.1376 77.5319 80.2104 75.5968L65.1347 60.5028L77.8955 47.742C78.5089 47.1296 78.9955 46.4022 79.3275 45.6015C79.6595 44.8008 79.8304 43.9425 79.8304 43.0757C79.8304 42.209 79.6595 41.3507 79.3275 40.55C78.9955 39.7493 78.5089 39.0219 77.8955 38.4095L73.2492 33.7631C72.6379 33.1484 71.9107 32.6611 71.1097 32.3296C70.3087 31.998 69.4498 31.8287 68.5829 31.8316C67.7161 31.8287 66.8574 31.9977 66.0564 32.329C65.2554 32.6603 64.5281 33.1472 63.9166 33.7615L51.1674 46.5356L36.0784 31.4496ZM30.2589 81.4095C29.2784 80.4385 28.1056 79.6835 26.8158 79.193L27.8525 75.5616L33.6321 78.0381L36.1086 83.8177L32.4772 84.8544C31.9862 83.5639 31.2306 82.3904 30.2589 81.4095ZM36.8766 77.1497L61.6166 52.4098L65.068 55.8613L38.9465 81.9811L36.8766 77.1497ZM58.1669 44.2453L61.6184 40.7939L70.8778 50.0533L67.4247 53.5031L58.1669 44.2453ZM59.2619 50.0533L34.5201 74.7932L29.6871 72.7233L55.8086 46.6018L59.2619 50.0533ZM22.1428 45.3868C21.5109 44.7543 21.5109 43.7295 22.1428 43.097L31.4354 33.8044C32.0679 33.1726 33.0927 33.1726 33.7252 33.8044L37.1933 37.2726L33.7252 40.7407C33.5125 40.9462 33.3583 41.2047 33.2785 41.4895C33.1987 41.7743 33.1961 42.0752 33.271 42.3614C33.3458 42.6475 33.4955 42.9086 33.7046 43.1178C33.9137 43.327 34.1748 43.4767 34.4609 43.5517C34.7471 43.6266 35.048 43.624 35.3329 43.5441C35.6177 43.4642 35.8762 43.31 36.0817 43.0972L39.5498 39.6291L43.0013 43.0838L40.6948 45.3903C40.4821 45.5959 40.3279 45.8543 40.2481 46.1391C40.1683 46.4239 40.1657 46.7248 40.2406 47.011C40.3155 47.2971 40.4652 47.5582 40.6743 47.7674C40.8834 47.9766 41.1444 48.1264 41.4305 48.2013C41.7167 48.2762 42.0177 48.2736 42.3025 48.1937C42.5873 48.1139 42.8458 47.9596 43.0513 47.7468L45.3578 45.4403L48.8093 48.8918L37.2267 60.4744L22.1428 45.3868ZM24.5526 87.1175L25.8858 82.4178C27.4001 83.0567 28.6051 84.2617 29.244 85.776L24.5526 87.1175ZM66.2297 66.3155L63.9232 68.622C63.7105 68.8276 63.5563 69.086 63.4765 69.3708C63.3967 69.6556 63.3941 69.9565 63.469 70.2427C63.5439 70.5288 63.6936 70.7899 63.9027 70.9991C64.1118 71.2083 64.3728 71.3581 64.6589 71.4331C64.9451 71.508 65.2461 71.5053 65.5309 71.4255C65.8158 71.3456 66.0742 71.1913 66.2797 70.9785L68.5862 68.6687L72.0377 72.1202L68.5695 75.5884C68.3568 75.7939 68.2027 76.0523 68.1228 76.3371C68.043 76.622 68.0404 76.9229 68.1153 77.209C68.1902 77.4952 68.3399 77.7562 68.549 77.9654C68.7581 78.1746 69.0191 78.3244 69.3052 78.3994C69.5914 78.4743 69.8924 78.4717 70.1772 78.3918C70.4621 78.3119 70.7205 78.1576 70.926 77.9449L74.3942 74.4767L77.8605 77.9447C78.4923 78.5772 78.4923 79.602 77.8605 80.2345L68.5679 89.5273C67.9354 90.1591 66.9106 90.1591 66.2781 89.5273L51.1942 74.4434L62.7767 62.8608L66.2297 66.3155ZM68.5845 35.171C69.0131 35.1696 69.4376 35.2533 69.8335 35.4172C70.2295 35.5811 70.5889 35.822 70.891 36.1259L75.5373 40.7722C76.8094 42.0462 76.8094 44.1096 75.5373 45.3835L73.2325 47.6968L63.9731 38.4374L66.2796 36.1309C66.5812 35.8264 66.9402 35.5848 67.3359 35.42C67.7315 35.2552 68.156 35.1706 68.5845 35.171Z" fill="white"/>
</g>
<defs>
<clipPath id="clip0_41_2666">
<rect width="100" height="100" fill="white"/>
</clipPath>
</defs>
</svg>
