<svg width="24" height="24" viewBox="0 0 24 24" fill="none" xmlns="http://www.w3.org/2000/svg">
<path d="M22.5 17.9997H21.75V9.25004C21.75 9.00318 21.6891 8.76014 21.5726 8.54247C21.4562 8.3248 21.2878 8.13923 21.0825 8.00222L12.8325 2.50191C12.5861 2.33765 12.2966 2.25 12.0005 2.25C11.7043 2.25 11.4148 2.33765 11.1684 2.50191L2.91844 8.00222C2.71292 8.13912 2.54437 8.32464 2.42777 8.54232C2.31116 8.76 2.2501 9.0031 2.25 9.25004V17.9997H1.5C1.30109 17.9997 1.11032 18.0787 0.96967 18.2194C0.829018 18.36 0.75 18.5508 0.75 18.7497C0.75 18.9486 0.829018 19.1394 0.96967 19.2801C1.11032 19.4207 1.30109 19.4997 1.5 19.4997H22.5C22.6989 19.4997 22.8897 19.4207 23.0303 19.2801C23.171 19.1394 23.25 18.9486 23.25 18.7497C23.25 18.5508 23.171 18.36 23.0303 18.2194C22.8897 18.0787 22.6989 17.9997 22.5 17.9997ZM3.75 9.25004L12 3.74972L20.25 9.2491V17.9997H18V12.7497C18 12.5508 17.921 12.36 17.7803 12.2194C17.6397 12.0787 17.4489 11.9997 17.25 11.9997H6.75C6.55109 11.9997 6.36032 12.0787 6.21967 12.2194C6.07902 12.36 6 12.5508 6 12.7497V17.9997H3.75V9.25004ZM16.5 13.4997V14.9997H12.75V13.4997H16.5ZM11.25 14.9997H7.5V13.4997H11.25V14.9997ZM7.5 16.4997H11.25V17.9997H7.5V16.4997ZM12.75 16.4997H16.5V17.9997H12.75V16.4997Z" fill="url(#paint0_linear_81_3033)" fill-opacity="0.9"/>
<defs>
<linearGradient id="paint0_linear_81_3033" x1="11.1562" y1="21.6559" x2="11.1563" y2="1.55445" gradientUnits="userSpaceOnUse">
<stop stop-color="#00D4FF"/>
<stop offset="1" stop-color="#00A3E0"/>
</linearGradient>
</defs>
</svg>
