<svg width="60" height="60" viewBox="0 0 60 60" fill="none" xmlns="http://www.w3.org/2000/svg">
<path d="M44.0625 59.0625C36.2812 59.0625 30 52.7813 30 45C30 37.2187 36.2812 30.9375 44.0625 30.9375C51.8438 30.9375 58.125 37.2187 58.125 45C58.125 52.7813 51.8438 59.0625 44.0625 59.0625ZM44.0625 32.8125C37.3125 32.8125 31.875 38.25 31.875 45C31.875 51.75 37.3125 57.1875 44.0625 57.1875C50.8125 57.1875 56.25 51.75 56.25 45C56.25 38.25 50.8125 32.8125 44.0625 32.8125Z" fill="#345766"/>
<path d="M45 44.0625V38.4375C46.5938 38.4375 47.8125 39.6562 47.8125 41.25H49.6875C49.6875 38.625 47.625 36.5625 45 36.5625V34.6875H43.125V36.5625C40.5 36.5625 38.4375 38.625 38.4375 41.25C38.4375 43.875 40.5 45.9375 43.125 45.9375V51.5625C41.5312 51.5625 40.3125 50.3438 40.3125 48.75H38.4375C38.4375 51.375 40.5 53.4375 43.125 53.4375V55.3125H45V53.4375C47.625 53.4375 49.6875 51.375 49.6875 48.75C49.6875 46.125 47.625 44.0625 45 44.0625ZM40.3125 41.25C40.3125 39.6562 41.5312 38.4375 43.125 38.4375V44.0625C41.5312 44.0625 40.3125 42.8438 40.3125 41.25ZM45 51.5625V45.9375C46.5938 45.9375 47.8125 47.1562 47.8125 48.75C47.8125 50.3438 46.5938 51.5625 45 51.5625ZM20.625 25.3125V5.625H15V1.875H3.75V25.3125H1.875V27.1875H22.5V25.3125H20.625ZM5.625 25.3125V3.75H13.125V5.625H9.375V25.3125H5.625ZM11.25 25.3125V7.5H18.75V25.3125H11.25Z" fill="#345766"/>
<path d="M7.5 5.625H10.3125V7.5H7.5V5.625ZM7.5 9.375H10.3125V11.25H7.5V9.375ZM7.5 13.125H10.3125V15H7.5V13.125ZM7.5 16.875H10.3125V18.75H7.5V16.875ZM7.5 20.625H10.3125V22.5H7.5V20.625ZM13.125 9.375H16.875V11.25H13.125V9.375ZM13.125 13.125H16.875V15H13.125V13.125ZM13.125 16.875H16.875V18.75H13.125V16.875ZM13.125 20.625H16.875V22.5H13.125V20.625Z" fill="#345766"/>
<path d="M31.4063 48.5625C30.9375 48.6563 30.4688 48.75 30 48.75C27 48.75 24.75 45.9375 23.3438 41.8125C26.0625 41.3437 28.7812 41.1563 31.5 41.25C31.6875 40.5938 31.9688 40.0313 32.25 39.375C29.1563 39.1875 25.9688 39.375 22.875 39.9375C22.125 37.2187 21.75 34.0313 21.6563 30.8438H38.5313C38.5313 31.5938 38.4375 32.3437 38.4375 33.0938C39.0938 32.8125 39.6563 32.5313 40.3125 32.3438C40.3125 31.875 40.4063 31.3125 40.4063 30.8438H48.8438C48.8438 31.4063 48.75 31.9688 48.6563 32.5313C49.3125 32.7188 49.875 33 50.4375 33.2813C50.625 32.1563 50.7188 31.0312 50.7188 29.8125C50.7188 18.4687 41.4375 9.1875 30.0937 9.1875C26.3437 9.1875 22.7813 10.2188 19.7813 12V14.1563C21.2813 13.2188 22.875 12.375 24.6563 11.9062C23.7188 12.9375 22.9688 14.3437 22.2188 15.9375C22.0313 16.5 21.75 17.0625 21.5625 17.625C21 17.5312 20.3438 17.3437 19.7813 17.1562V19.125C20.1563 19.2187 20.625 19.3125 21 19.4063C20.25 22.2188 19.875 25.5 19.7813 28.875H11.3438C11.4375 27.9375 11.5313 27 11.7188 26.0625H9.75C9.5625 27.2812 9.375 28.5 9.375 29.8125C9.375 41.1563 18.6563 50.4375 30 50.4375C30.75 50.4375 31.4063 50.4375 32.1563 50.3438C31.875 49.875 31.5938 49.2187 31.4063 48.5625ZM48.6563 29.0625H40.2188C40.125 25.7813 39.75 22.5 39 19.5937C40.7813 19.2187 42.5625 18.6563 44.4375 18C47.0016 21.1351 48.4817 25.0161 48.6563 29.0625ZM43.0313 16.5938C41.5313 17.0625 40.0313 17.5312 38.5313 17.8125C37.7813 15.5625 36.75 13.5 35.4375 12.0937C38.3438 12.9375 40.9688 14.5313 43.0313 16.5938ZM23.8125 16.875C24.8438 14.3437 26.8125 11.25 30 11.25C33 11.25 35.25 14.0625 36.6563 18.1875C32.25 18.9375 27.75 18.9375 23.3438 18.1875C23.4375 17.7187 23.625 17.25 23.8125 16.875ZM22.7813 19.9687C25.2188 20.4375 27.5625 20.625 30 20.625C32.4375 20.625 34.7813 20.4375 37.2188 19.9687C37.9688 22.6875 38.3438 25.875 38.4375 29.0625H21.5625C21.6563 25.7813 22.0313 22.6875 22.7813 19.9687ZM11.3438 30.9375H19.7813C19.875 34.2188 20.25 37.5 21 40.4062C19.2188 40.7812 17.4375 41.3438 15.5625 42C12.9984 38.8649 11.5183 34.9839 11.3438 30.9375ZM16.9688 43.4062C18.4688 42.9375 19.9688 42.4688 21.4688 42.1875C22.2188 44.4375 23.25 46.5 24.5625 47.9062C21.6563 47.0625 19.0313 45.4688 16.9688 43.4062Z" fill="#345766"/>
</svg>
