<svg width="60" height="60" viewBox="0 0 60 60" fill="none" xmlns="http://www.w3.org/2000/svg">
<mask id="path-1-outside-1_7_872" maskUnits="userSpaceOnUse" x="2.70992" y="0.875549" width="54" height="58" fill="black">
<rect fill="white" x="2.70992" y="0.875549" width="54" height="58"/>
<path fill-rule="evenodd" clip-rule="evenodd" d="M13.5688 14.8673C13.7369 14.7667 13.9379 14.7362 14.1283 14.7826C14.3187 14.829 14.4832 14.9485 14.5861 15.1152C14.6891 15.282 14.7223 15.4825 14.6785 15.6736C14.6347 15.8646 14.5175 16.0307 14.3522 16.1359C12.5248 17.2687 10.9518 18.5583 9.60176 20.0064C8.57016 21.1129 7.66922 22.3123 6.88477 23.6054C11.2102 23.1149 15.6144 21.5841 18.746 19.1589C20.1289 18.0879 21.2579 16.8435 22.011 15.44C22.751 14.061 23.128 12.5201 23.0237 10.8305C22.9024 8.86371 22.1307 6.68449 20.5269 4.30793C19.3924 7.15898 16.7425 8.55656 13.9512 10.0282C9.91934 12.1539 5.56242 14.4538 6.02918 22.1614C6.76371 21.0347 7.58707 19.9774 8.5084 18.9892C9.94477 17.4484 11.6204 16.0752 13.5688 14.8673ZM41.2342 24.063H18.8467V26.0307H41.2342V24.063ZM32.9072 56.4597V45.7146H27.1736V56.469C28.1119 56.5754 29.0556 56.6286 30 56.6284C30.9836 56.6284 31.9535 56.5711 32.9072 56.4597ZM25.6768 56.2527C24.1493 55.9843 22.6505 55.572 21.2005 55.0215V27.5273H38.8802V54.9902C37.4308 55.5465 35.932 55.9643 34.4038 56.2382V44.9663C34.4038 44.868 34.3844 44.7707 34.3468 44.6799C34.3092 44.5891 34.2541 44.5066 34.1846 44.4371C34.1151 44.3676 34.0326 44.3125 33.9418 44.2749C33.851 44.2372 33.7537 44.2179 33.6554 44.2179H26.4251C26.3268 44.2179 26.2295 44.2372 26.1387 44.2749C26.0479 44.3125 25.9654 44.3676 25.8959 44.4371C25.8264 44.5066 25.7713 44.5891 25.7337 44.6799C25.6961 44.7707 25.6767 44.868 25.6767 44.9663L25.6768 56.2527ZM24.8032 34.2899H25.6768V38.2038C25.6768 38.4023 25.7557 38.5927 25.896 38.733C26.0364 38.8733 26.2267 38.9522 26.4252 38.9522H33.6555C33.7538 38.9522 33.8511 38.9328 33.9419 38.8952C34.0327 38.8576 34.1152 38.8025 34.1847 38.733C34.2542 38.6635 34.3093 38.581 34.3469 38.4902C34.3846 38.3994 34.4039 38.3021 34.4039 38.2038V34.2899H35.2775C35.3758 34.2899 35.4731 34.2705 35.5639 34.2329C35.6547 34.1953 35.7372 34.1402 35.8067 34.0707C35.8762 34.0012 35.9313 33.9187 35.9689 33.8279C36.0065 33.7371 36.0259 33.6398 36.0259 33.5415C36.0259 33.4432 36.0065 33.3459 35.9689 33.2551C35.9313 33.1643 35.8762 33.0818 35.8067 33.0124C35.7372 32.9429 35.6547 32.8877 35.5639 32.8501C35.4731 32.8125 35.3758 32.7932 35.2775 32.7932H24.8033C24.705 32.7932 24.6077 32.8125 24.5169 32.8501C24.4261 32.8877 24.3436 32.9429 24.2742 33.0124C24.2047 33.0818 24.1495 33.1643 24.1119 33.2551C24.0743 33.3459 24.055 33.4432 24.055 33.5415C24.055 33.6398 24.0743 33.7371 24.1119 33.8279C24.1495 33.9187 24.2047 34.0012 24.2742 34.0707C24.3436 34.1402 24.4261 34.1953 24.5169 34.2329C24.6077 34.2705 24.7049 34.2899 24.8032 34.2899ZM29.292 37.4555V34.2899H27.1734V37.4555H29.292ZM30.7886 34.2899V37.4555H32.9071V34.2899H30.7886ZM16.005 41.7824H13.8413V44.2179H16.005V41.7824ZM13.0929 40.2858H16.7532C16.9517 40.2858 17.1421 40.3646 17.2824 40.505C17.4228 40.6453 17.5016 40.8357 17.5016 41.0341V44.9664C17.5016 45.1648 17.4228 45.3552 17.2824 45.4955C17.1421 45.6359 16.9517 45.7147 16.7532 45.7147H13.0929C12.8944 45.7147 12.7041 45.6359 12.5637 45.4955C12.4234 45.3552 12.3445 45.1648 12.3445 44.9664V41.0341C12.3445 40.8357 12.4234 40.6453 12.5637 40.505C12.7041 40.3646 12.8944 40.2858 13.0929 40.2858ZM45.8807 36.5912H44.0173V38.7041H45.8807V36.5912ZM43.269 35.0945H46.629C46.8275 35.0945 47.0179 35.1733 47.1582 35.3137C47.2985 35.454 47.3774 35.6444 47.3774 35.8429V39.4523C47.3774 39.6508 47.2985 39.8412 47.1582 39.9815C47.0179 40.1219 46.8275 40.2007 46.629 40.2007H43.269C43.0705 40.2007 42.8802 40.1219 42.7399 39.9815C42.5995 39.8412 42.5207 39.6508 42.5207 39.4523V35.8429C42.5207 35.6444 42.5995 35.454 42.7399 35.3137C42.8802 35.1733 43.0705 35.0945 43.269 35.0945ZM45.8807 43.4019H44.0173V45.5148H45.8807V43.4019ZM43.269 41.9053H46.629C46.8275 41.9053 47.0179 41.9842 47.1582 42.1245C47.2985 42.2648 47.3774 42.4552 47.3774 42.6537V46.2632C47.3774 46.3614 47.358 46.4588 47.3204 46.5495C47.2828 46.6403 47.2277 46.7228 47.1582 46.7923C47.0887 46.8618 47.0062 46.917 46.9154 46.9546C46.8246 46.9922 46.7273 47.0115 46.629 47.0115H43.269C43.1708 47.0115 43.0734 46.9922 42.9826 46.9546C42.8918 46.917 42.8093 46.8618 42.7399 46.7923C42.6704 46.7228 42.6152 46.6403 42.5776 46.5495C42.54 46.4588 42.5207 46.3614 42.5207 46.2632V42.6537C42.5207 42.4552 42.5995 42.2648 42.7399 42.1245C42.8802 41.9842 43.0705 41.9053 43.269 41.9053ZM19.7038 34.9777H8.66027V36.6455H19.7038V34.9777ZM19.7038 38.1421V54.3957C16.9949 53.1575 14.5477 51.4461 12.4683 49.3666C11.5677 48.466 10.7375 47.4976 9.98484 46.4701V38.142H19.7038V38.1421ZM40.3768 31.6791H51.1136V30.0113H40.3768V31.6791ZM49.5213 47.1216C48.9038 47.9093 48.2393 48.659 47.5315 49.3668C45.4596 51.4396 43.0374 53.1296 40.3768 54.3586V33.1757H49.5211V47.1076L49.5213 47.1214V47.1216ZM51.0178 33.1758V44.9924C53.4098 41.1792 54.7932 36.6688 54.7932 31.8353C54.7932 24.9887 52.0181 18.7903 47.5315 14.3037C43.0448 9.81703 36.8464 7.04191 29.9999 7.04191C29.9016 7.04191 29.8043 7.02256 29.7135 6.98496C29.6228 6.94735 29.5403 6.89224 29.4708 6.82276C29.4013 6.75328 29.3462 6.67079 29.3086 6.58001C29.271 6.48923 29.2516 6.39193 29.2516 6.29367C29.2516 6.19541 29.271 6.09811 29.3086 6.00733C29.3462 5.91655 29.4013 5.83407 29.4708 5.76458C29.5403 5.6951 29.6228 5.63999 29.7135 5.60239C29.8043 5.56478 29.9016 5.54543 29.9999 5.54543C37.2595 5.54543 43.832 8.48812 48.5896 13.2457C53.3472 18.0033 56.2898 24.5757 56.2898 31.8354C56.2898 39.095 53.3472 45.6676 48.5896 50.4251C43.832 55.1827 37.2595 58.1254 29.9999 58.1254C22.7402 58.1254 16.1677 55.1827 11.4102 50.4251C10.4026 49.4173 9.47818 48.3297 8.64586 47.173C8.63439 47.1583 8.62348 47.1432 8.61316 47.1277C5.52691 42.8191 3.70992 37.5395 3.70992 31.8354C3.70992 30.4446 3.8209 29.0672 4.03441 27.7123C4.20955 26.5988 4.45631 25.4978 4.77316 24.4161C3.19969 14.0114 8.43832 11.2471 13.2554 8.70738C16.1783 7.16625 18.9287 5.71617 19.4896 2.49715C19.5146 2.35039 19.5829 2.21446 19.6857 2.10678C19.7885 1.9991 19.9211 1.92458 20.0666 1.89279C20.212 1.86099 20.3636 1.87337 20.502 1.92833C20.6403 1.98329 20.7591 2.07832 20.8431 2.20125C23.2357 5.30121 24.3553 8.16246 24.5145 10.7433C24.6366 12.7236 24.1943 14.5303 23.3263 16.148C22.4713 17.7414 21.2034 19.1434 19.6579 20.3404C16.0791 23.1118 10.9798 24.7887 6.10758 25.1813C5.85473 26.0886 5.65439 27.0099 5.50758 27.9403C5.30941 29.1976 5.20641 30.4983 5.20641 31.8355C5.20641 36.3264 6.40031 40.5382 8.48813 44.1711V38.1424H7.91191C7.71344 38.1424 7.52309 38.0636 7.38274 37.9232C7.2424 37.7829 7.16356 37.5925 7.16356 37.3941V34.2296C7.16356 34.0312 7.2424 33.8408 7.38274 33.7005C7.52309 33.5601 7.71344 33.4813 7.91191 33.4813H19.7038V27.5277H18.0982C17.8997 27.5277 17.7094 27.4489 17.569 27.3085C17.4287 27.1682 17.3498 26.9778 17.3498 26.7793V23.315C17.3498 23.1166 17.4287 22.9262 17.569 22.7859C17.7094 22.6455 17.8997 22.5667 18.0982 22.5667H41.9824C42.1809 22.5667 42.3713 22.6455 42.5116 22.7859C42.6519 22.9262 42.7308 23.1166 42.7308 23.315V26.7793C42.7308 26.9778 42.6519 27.1682 42.5116 27.3085C42.3713 27.4489 42.1809 27.5277 41.9824 27.5277H40.3768V28.5149H51.8619C52.0604 28.5149 52.2507 28.5937 52.3911 28.7341C52.5314 28.8744 52.6103 29.0648 52.6103 29.2632V32.4277C52.6103 32.5259 52.5909 32.6232 52.5533 32.714C52.5157 32.8048 52.4606 32.8873 52.3911 32.9568C52.3216 33.0263 52.2391 33.0814 52.1483 33.1191C52.0575 33.1567 51.9602 33.176 51.8619 33.176H51.0177L51.0178 33.1758Z"/>
</mask>
<path fill-rule="evenodd" clip-rule="evenodd" d="M13.5688 14.8673C13.7369 14.7667 13.9379 14.7362 14.1283 14.7826C14.3187 14.829 14.4832 14.9485 14.5861 15.1152C14.6891 15.282 14.7223 15.4825 14.6785 15.6736C14.6347 15.8646 14.5175 16.0307 14.3522 16.1359C12.5248 17.2687 10.9518 18.5583 9.60176 20.0064C8.57016 21.1129 7.66922 22.3123 6.88477 23.6054C11.2102 23.1149 15.6144 21.5841 18.746 19.1589C20.1289 18.0879 21.2579 16.8435 22.011 15.44C22.751 14.061 23.128 12.5201 23.0237 10.8305C22.9024 8.86371 22.1307 6.68449 20.5269 4.30793C19.3924 7.15898 16.7425 8.55656 13.9512 10.0282C9.91934 12.1539 5.56242 14.4538 6.02918 22.1614C6.76371 21.0347 7.58707 19.9774 8.5084 18.9892C9.94477 17.4484 11.6204 16.0752 13.5688 14.8673ZM41.2342 24.063H18.8467V26.0307H41.2342V24.063ZM32.9072 56.4597V45.7146H27.1736V56.469C28.1119 56.5754 29.0556 56.6286 30 56.6284C30.9836 56.6284 31.9535 56.5711 32.9072 56.4597ZM25.6768 56.2527C24.1493 55.9843 22.6505 55.572 21.2005 55.0215V27.5273H38.8802V54.9902C37.4308 55.5465 35.932 55.9643 34.4038 56.2382V44.9663C34.4038 44.868 34.3844 44.7707 34.3468 44.6799C34.3092 44.5891 34.2541 44.5066 34.1846 44.4371C34.1151 44.3676 34.0326 44.3125 33.9418 44.2749C33.851 44.2372 33.7537 44.2179 33.6554 44.2179H26.4251C26.3268 44.2179 26.2295 44.2372 26.1387 44.2749C26.0479 44.3125 25.9654 44.3676 25.8959 44.4371C25.8264 44.5066 25.7713 44.5891 25.7337 44.6799C25.6961 44.7707 25.6767 44.868 25.6767 44.9663L25.6768 56.2527ZM24.8032 34.2899H25.6768V38.2038C25.6768 38.4023 25.7557 38.5927 25.896 38.733C26.0364 38.8733 26.2267 38.9522 26.4252 38.9522H33.6555C33.7538 38.9522 33.8511 38.9328 33.9419 38.8952C34.0327 38.8576 34.1152 38.8025 34.1847 38.733C34.2542 38.6635 34.3093 38.581 34.3469 38.4902C34.3846 38.3994 34.4039 38.3021 34.4039 38.2038V34.2899H35.2775C35.3758 34.2899 35.4731 34.2705 35.5639 34.2329C35.6547 34.1953 35.7372 34.1402 35.8067 34.0707C35.8762 34.0012 35.9313 33.9187 35.9689 33.8279C36.0065 33.7371 36.0259 33.6398 36.0259 33.5415C36.0259 33.4432 36.0065 33.3459 35.9689 33.2551C35.9313 33.1643 35.8762 33.0818 35.8067 33.0124C35.7372 32.9429 35.6547 32.8877 35.5639 32.8501C35.4731 32.8125 35.3758 32.7932 35.2775 32.7932H24.8033C24.705 32.7932 24.6077 32.8125 24.5169 32.8501C24.4261 32.8877 24.3436 32.9429 24.2742 33.0124C24.2047 33.0818 24.1495 33.1643 24.1119 33.2551C24.0743 33.3459 24.055 33.4432 24.055 33.5415C24.055 33.6398 24.0743 33.7371 24.1119 33.8279C24.1495 33.9187 24.2047 34.0012 24.2742 34.0707C24.3436 34.1402 24.4261 34.1953 24.5169 34.2329C24.6077 34.2705 24.7049 34.2899 24.8032 34.2899ZM29.292 37.4555V34.2899H27.1734V37.4555H29.292ZM30.7886 34.2899V37.4555H32.9071V34.2899H30.7886ZM16.005 41.7824H13.8413V44.2179H16.005V41.7824ZM13.0929 40.2858H16.7532C16.9517 40.2858 17.1421 40.3646 17.2824 40.505C17.4228 40.6453 17.5016 40.8357 17.5016 41.0341V44.9664C17.5016 45.1648 17.4228 45.3552 17.2824 45.4955C17.1421 45.6359 16.9517 45.7147 16.7532 45.7147H13.0929C12.8944 45.7147 12.7041 45.6359 12.5637 45.4955C12.4234 45.3552 12.3445 45.1648 12.3445 44.9664V41.0341C12.3445 40.8357 12.4234 40.6453 12.5637 40.505C12.7041 40.3646 12.8944 40.2858 13.0929 40.2858ZM45.8807 36.5912H44.0173V38.7041H45.8807V36.5912ZM43.269 35.0945H46.629C46.8275 35.0945 47.0179 35.1733 47.1582 35.3137C47.2985 35.454 47.3774 35.6444 47.3774 35.8429V39.4523C47.3774 39.6508 47.2985 39.8412 47.1582 39.9815C47.0179 40.1219 46.8275 40.2007 46.629 40.2007H43.269C43.0705 40.2007 42.8802 40.1219 42.7399 39.9815C42.5995 39.8412 42.5207 39.6508 42.5207 39.4523V35.8429C42.5207 35.6444 42.5995 35.454 42.7399 35.3137C42.8802 35.1733 43.0705 35.0945 43.269 35.0945ZM45.8807 43.4019H44.0173V45.5148H45.8807V43.4019ZM43.269 41.9053H46.629C46.8275 41.9053 47.0179 41.9842 47.1582 42.1245C47.2985 42.2648 47.3774 42.4552 47.3774 42.6537V46.2632C47.3774 46.3614 47.358 46.4588 47.3204 46.5495C47.2828 46.6403 47.2277 46.7228 47.1582 46.7923C47.0887 46.8618 47.0062 46.917 46.9154 46.9546C46.8246 46.9922 46.7273 47.0115 46.629 47.0115H43.269C43.1708 47.0115 43.0734 46.9922 42.9826 46.9546C42.8918 46.917 42.8093 46.8618 42.7399 46.7923C42.6704 46.7228 42.6152 46.6403 42.5776 46.5495C42.54 46.4588 42.5207 46.3614 42.5207 46.2632V42.6537C42.5207 42.4552 42.5995 42.2648 42.7399 42.1245C42.8802 41.9842 43.0705 41.9053 43.269 41.9053ZM19.7038 34.9777H8.66027V36.6455H19.7038V34.9777ZM19.7038 38.1421V54.3957C16.9949 53.1575 14.5477 51.4461 12.4683 49.3666C11.5677 48.466 10.7375 47.4976 9.98484 46.4701V38.142H19.7038V38.1421ZM40.3768 31.6791H51.1136V30.0113H40.3768V31.6791ZM49.5213 47.1216C48.9038 47.9093 48.2393 48.659 47.5315 49.3668C45.4596 51.4396 43.0374 53.1296 40.3768 54.3586V33.1757H49.5211V47.1076L49.5213 47.1214V47.1216ZM51.0178 33.1758V44.9924C53.4098 41.1792 54.7932 36.6688 54.7932 31.8353C54.7932 24.9887 52.0181 18.7903 47.5315 14.3037C43.0448 9.81703 36.8464 7.04191 29.9999 7.04191C29.9016 7.04191 29.8043 7.02256 29.7135 6.98496C29.6228 6.94735 29.5403 6.89224 29.4708 6.82276C29.4013 6.75328 29.3462 6.67079 29.3086 6.58001C29.271 6.48923 29.2516 6.39193 29.2516 6.29367C29.2516 6.19541 29.271 6.09811 29.3086 6.00733C29.3462 5.91655 29.4013 5.83407 29.4708 5.76458C29.5403 5.6951 29.6228 5.63999 29.7135 5.60239C29.8043 5.56478 29.9016 5.54543 29.9999 5.54543C37.2595 5.54543 43.832 8.48812 48.5896 13.2457C53.3472 18.0033 56.2898 24.5757 56.2898 31.8354C56.2898 39.095 53.3472 45.6676 48.5896 50.4251C43.832 55.1827 37.2595 58.1254 29.9999 58.1254C22.7402 58.1254 16.1677 55.1827 11.4102 50.4251C10.4026 49.4173 9.47818 48.3297 8.64586 47.173C8.63439 47.1583 8.62348 47.1432 8.61316 47.1277C5.52691 42.8191 3.70992 37.5395 3.70992 31.8354C3.70992 30.4446 3.8209 29.0672 4.03441 27.7123C4.20955 26.5988 4.45631 25.4978 4.77316 24.4161C3.19969 14.0114 8.43832 11.2471 13.2554 8.70738C16.1783 7.16625 18.9287 5.71617 19.4896 2.49715C19.5146 2.35039 19.5829 2.21446 19.6857 2.10678C19.7885 1.9991 19.9211 1.92458 20.0666 1.89279C20.212 1.86099 20.3636 1.87337 20.502 1.92833C20.6403 1.98329 20.7591 2.07832 20.8431 2.20125C23.2357 5.30121 24.3553 8.16246 24.5145 10.7433C24.6366 12.7236 24.1943 14.5303 23.3263 16.148C22.4713 17.7414 21.2034 19.1434 19.6579 20.3404C16.0791 23.1118 10.9798 24.7887 6.10758 25.1813C5.85473 26.0886 5.65439 27.0099 5.50758 27.9403C5.30941 29.1976 5.20641 30.4983 5.20641 31.8355C5.20641 36.3264 6.40031 40.5382 8.48813 44.1711V38.1424H7.91191C7.71344 38.1424 7.52309 38.0636 7.38274 37.9232C7.2424 37.7829 7.16356 37.5925 7.16356 37.3941V34.2296C7.16356 34.0312 7.2424 33.8408 7.38274 33.7005C7.52309 33.5601 7.71344 33.4813 7.91191 33.4813H19.7038V27.5277H18.0982C17.8997 27.5277 17.7094 27.4489 17.569 27.3085C17.4287 27.1682 17.3498 26.9778 17.3498 26.7793V23.315C17.3498 23.1166 17.4287 22.9262 17.569 22.7859C17.7094 22.6455 17.8997 22.5667 18.0982 22.5667H41.9824C42.1809 22.5667 42.3713 22.6455 42.5116 22.7859C42.6519 22.9262 42.7308 23.1166 42.7308 23.315V26.7793C42.7308 26.9778 42.6519 27.1682 42.5116 27.3085C42.3713 27.4489 42.1809 27.5277 41.9824 27.5277H40.3768V28.5149H51.8619C52.0604 28.5149 52.2507 28.5937 52.3911 28.7341C52.5314 28.8744 52.6103 29.0648 52.6103 29.2632V32.4277C52.6103 32.5259 52.5909 32.6232 52.5533 32.714C52.5157 32.8048 52.4606 32.8873 52.3911 32.9568C52.3216 33.0263 52.2391 33.0814 52.1483 33.1191C52.0575 33.1567 51.9602 33.176 51.8619 33.176H51.0177L51.0178 33.1758Z" fill="#345766"/>
<path fill-rule="evenodd" clip-rule="evenodd" d="M13.5688 14.8673C13.7369 14.7667 13.9379 14.7362 14.1283 14.7826C14.3187 14.829 14.4832 14.9485 14.5861 15.1152C14.6891 15.282 14.7223 15.4825 14.6785 15.6736C14.6347 15.8646 14.5175 16.0307 14.3522 16.1359C12.5248 17.2687 10.9518 18.5583 9.60176 20.0064C8.57016 21.1129 7.66922 22.3123 6.88477 23.6054C11.2102 23.1149 15.6144 21.5841 18.746 19.1589C20.1289 18.0879 21.2579 16.8435 22.011 15.44C22.751 14.061 23.128 12.5201 23.0237 10.8305C22.9024 8.86371 22.1307 6.68449 20.5269 4.30793C19.3924 7.15898 16.7425 8.55656 13.9512 10.0282C9.91934 12.1539 5.56242 14.4538 6.02918 22.1614C6.76371 21.0347 7.58707 19.9774 8.5084 18.9892C9.94477 17.4484 11.6204 16.0752 13.5688 14.8673ZM41.2342 24.063H18.8467V26.0307H41.2342V24.063ZM32.9072 56.4597V45.7146H27.1736V56.469C28.1119 56.5754 29.0556 56.6286 30 56.6284C30.9836 56.6284 31.9535 56.5711 32.9072 56.4597ZM25.6768 56.2527C24.1493 55.9843 22.6505 55.572 21.2005 55.0215V27.5273H38.8802V54.9902C37.4308 55.5465 35.932 55.9643 34.4038 56.2382V44.9663C34.4038 44.868 34.3844 44.7707 34.3468 44.6799C34.3092 44.5891 34.2541 44.5066 34.1846 44.4371C34.1151 44.3676 34.0326 44.3125 33.9418 44.2749C33.851 44.2372 33.7537 44.2179 33.6554 44.2179H26.4251C26.3268 44.2179 26.2295 44.2372 26.1387 44.2749C26.0479 44.3125 25.9654 44.3676 25.8959 44.4371C25.8264 44.5066 25.7713 44.5891 25.7337 44.6799C25.6961 44.7707 25.6767 44.868 25.6767 44.9663L25.6768 56.2527ZM24.8032 34.2899H25.6768V38.2038C25.6768 38.4023 25.7557 38.5927 25.896 38.733C26.0364 38.8733 26.2267 38.9522 26.4252 38.9522H33.6555C33.7538 38.9522 33.8511 38.9328 33.9419 38.8952C34.0327 38.8576 34.1152 38.8025 34.1847 38.733C34.2542 38.6635 34.3093 38.581 34.3469 38.4902C34.3846 38.3994 34.4039 38.3021 34.4039 38.2038V34.2899H35.2775C35.3758 34.2899 35.4731 34.2705 35.5639 34.2329C35.6547 34.1953 35.7372 34.1402 35.8067 34.0707C35.8762 34.0012 35.9313 33.9187 35.9689 33.8279C36.0065 33.7371 36.0259 33.6398 36.0259 33.5415C36.0259 33.4432 36.0065 33.3459 35.9689 33.2551C35.9313 33.1643 35.8762 33.0818 35.8067 33.0124C35.7372 32.9429 35.6547 32.8877 35.5639 32.8501C35.4731 32.8125 35.3758 32.7932 35.2775 32.7932H24.8033C24.705 32.7932 24.6077 32.8125 24.5169 32.8501C24.4261 32.8877 24.3436 32.9429 24.2742 33.0124C24.2047 33.0818 24.1495 33.1643 24.1119 33.2551C24.0743 33.3459 24.055 33.4432 24.055 33.5415C24.055 33.6398 24.0743 33.7371 24.1119 33.8279C24.1495 33.9187 24.2047 34.0012 24.2742 34.0707C24.3436 34.1402 24.4261 34.1953 24.5169 34.2329C24.6077 34.2705 24.7049 34.2899 24.8032 34.2899ZM29.292 37.4555V34.2899H27.1734V37.4555H29.292ZM30.7886 34.2899V37.4555H32.9071V34.2899H30.7886ZM16.005 41.7824H13.8413V44.2179H16.005V41.7824ZM13.0929 40.2858H16.7532C16.9517 40.2858 17.1421 40.3646 17.2824 40.505C17.4228 40.6453 17.5016 40.8357 17.5016 41.0341V44.9664C17.5016 45.1648 17.4228 45.3552 17.2824 45.4955C17.1421 45.6359 16.9517 45.7147 16.7532 45.7147H13.0929C12.8944 45.7147 12.7041 45.6359 12.5637 45.4955C12.4234 45.3552 12.3445 45.1648 12.3445 44.9664V41.0341C12.3445 40.8357 12.4234 40.6453 12.5637 40.505C12.7041 40.3646 12.8944 40.2858 13.0929 40.2858ZM45.8807 36.5912H44.0173V38.7041H45.8807V36.5912ZM43.269 35.0945H46.629C46.8275 35.0945 47.0179 35.1733 47.1582 35.3137C47.2985 35.454 47.3774 35.6444 47.3774 35.8429V39.4523C47.3774 39.6508 47.2985 39.8412 47.1582 39.9815C47.0179 40.1219 46.8275 40.2007 46.629 40.2007H43.269C43.0705 40.2007 42.8802 40.1219 42.7399 39.9815C42.5995 39.8412 42.5207 39.6508 42.5207 39.4523V35.8429C42.5207 35.6444 42.5995 35.454 42.7399 35.3137C42.8802 35.1733 43.0705 35.0945 43.269 35.0945ZM45.8807 43.4019H44.0173V45.5148H45.8807V43.4019ZM43.269 41.9053H46.629C46.8275 41.9053 47.0179 41.9842 47.1582 42.1245C47.2985 42.2648 47.3774 42.4552 47.3774 42.6537V46.2632C47.3774 46.3614 47.358 46.4588 47.3204 46.5495C47.2828 46.6403 47.2277 46.7228 47.1582 46.7923C47.0887 46.8618 47.0062 46.917 46.9154 46.9546C46.8246 46.9922 46.7273 47.0115 46.629 47.0115H43.269C43.1708 47.0115 43.0734 46.9922 42.9826 46.9546C42.8918 46.917 42.8093 46.8618 42.7399 46.7923C42.6704 46.7228 42.6152 46.6403 42.5776 46.5495C42.54 46.4588 42.5207 46.3614 42.5207 46.2632V42.6537C42.5207 42.4552 42.5995 42.2648 42.7399 42.1245C42.8802 41.9842 43.0705 41.9053 43.269 41.9053ZM19.7038 34.9777H8.66027V36.6455H19.7038V34.9777ZM19.7038 38.1421V54.3957C16.9949 53.1575 14.5477 51.4461 12.4683 49.3666C11.5677 48.466 10.7375 47.4976 9.98484 46.4701V38.142H19.7038V38.1421ZM40.3768 31.6791H51.1136V30.0113H40.3768V31.6791ZM49.5213 47.1216C48.9038 47.9093 48.2393 48.659 47.5315 49.3668C45.4596 51.4396 43.0374 53.1296 40.3768 54.3586V33.1757H49.5211V47.1076L49.5213 47.1214V47.1216ZM51.0178 33.1758V44.9924C53.4098 41.1792 54.7932 36.6688 54.7932 31.8353C54.7932 24.9887 52.0181 18.7903 47.5315 14.3037C43.0448 9.81703 36.8464 7.04191 29.9999 7.04191C29.9016 7.04191 29.8043 7.02256 29.7135 6.98496C29.6228 6.94735 29.5403 6.89224 29.4708 6.82276C29.4013 6.75328 29.3462 6.67079 29.3086 6.58001C29.271 6.48923 29.2516 6.39193 29.2516 6.29367C29.2516 6.19541 29.271 6.09811 29.3086 6.00733C29.3462 5.91655 29.4013 5.83407 29.4708 5.76458C29.5403 5.6951 29.6228 5.63999 29.7135 5.60239C29.8043 5.56478 29.9016 5.54543 29.9999 5.54543C37.2595 5.54543 43.832 8.48812 48.5896 13.2457C53.3472 18.0033 56.2898 24.5757 56.2898 31.8354C56.2898 39.095 53.3472 45.6676 48.5896 50.4251C43.832 55.1827 37.2595 58.1254 29.9999 58.1254C22.7402 58.1254 16.1677 55.1827 11.4102 50.4251C10.4026 49.4173 9.47818 48.3297 8.64586 47.173C8.63439 47.1583 8.62348 47.1432 8.61316 47.1277C5.52691 42.8191 3.70992 37.5395 3.70992 31.8354C3.70992 30.4446 3.8209 29.0672 4.03441 27.7123C4.20955 26.5988 4.45631 25.4978 4.77316 24.4161C3.19969 14.0114 8.43832 11.2471 13.2554 8.70738C16.1783 7.16625 18.9287 5.71617 19.4896 2.49715C19.5146 2.35039 19.5829 2.21446 19.6857 2.10678C19.7885 1.9991 19.9211 1.92458 20.0666 1.89279C20.212 1.86099 20.3636 1.87337 20.502 1.92833C20.6403 1.98329 20.7591 2.07832 20.8431 2.20125C23.2357 5.30121 24.3553 8.16246 24.5145 10.7433C24.6366 12.7236 24.1943 14.5303 23.3263 16.148C22.4713 17.7414 21.2034 19.1434 19.6579 20.3404C16.0791 23.1118 10.9798 24.7887 6.10758 25.1813C5.85473 26.0886 5.65439 27.0099 5.50758 27.9403C5.30941 29.1976 5.20641 30.4983 5.20641 31.8355C5.20641 36.3264 6.40031 40.5382 8.48813 44.1711V38.1424H7.91191C7.71344 38.1424 7.52309 38.0636 7.38274 37.9232C7.2424 37.7829 7.16356 37.5925 7.16356 37.3941V34.2296C7.16356 34.0312 7.2424 33.8408 7.38274 33.7005C7.52309 33.5601 7.71344 33.4813 7.91191 33.4813H19.7038V27.5277H18.0982C17.8997 27.5277 17.7094 27.4489 17.569 27.3085C17.4287 27.1682 17.3498 26.9778 17.3498 26.7793V23.315C17.3498 23.1166 17.4287 22.9262 17.569 22.7859C17.7094 22.6455 17.8997 22.5667 18.0982 22.5667H41.9824C42.1809 22.5667 42.3713 22.6455 42.5116 22.7859C42.6519 22.9262 42.7308 23.1166 42.7308 23.315V26.7793C42.7308 26.9778 42.6519 27.1682 42.5116 27.3085C42.3713 27.4489 42.1809 27.5277 41.9824 27.5277H40.3768V28.5149H51.8619C52.0604 28.5149 52.2507 28.5937 52.3911 28.7341C52.5314 28.8744 52.6103 29.0648 52.6103 29.2632V32.4277C52.6103 32.5259 52.5909 32.6232 52.5533 32.714C52.5157 32.8048 52.4606 32.8873 52.3911 32.9568C52.3216 33.0263 52.2391 33.0814 52.1483 33.1191C52.0575 33.1567 51.9602 33.176 51.8619 33.176H51.0177L51.0178 33.1758Z" stroke="#345766" stroke-width="0.4" mask="url(#path-1-outside-1_7_872)"/>
</svg>
