<svg width="60" height="60" viewBox="0 0 60 60" fill="none" xmlns="http://www.w3.org/2000/svg">
<path fill-rule="evenodd" clip-rule="evenodd" d="M4.75899 40.9084L14.5291 56.3487L19.8516 52.9805L10.0818 37.5402L4.75899 40.9084ZM27.5977 43.4132L37.6782 46.7891C38.092 46.9308 38.53 46.9878 38.9663 46.9567C39.4025 46.9256 39.828 46.807 40.2175 46.608C41.5662 45.9361 42.4419 44.6263 42.3034 43.1304L52.469 37.8633C52.9598 37.6052 53.5299 37.5421 54.0653 37.6867C54.3161 37.7547 54.5509 37.8719 54.7561 38.0314C54.9613 38.1909 55.1328 38.3896 55.2606 38.6159C55.3915 38.8477 55.4753 39.1031 55.5072 39.3674C55.5392 39.6317 55.5186 39.8997 55.4467 40.1561C55.2798 40.7585 54.9631 41.0755 54.4553 41.4042C53.0583 42.2108 37.7197 51.0663 37.7195 51.066C36.6638 51.7712 35.3806 52.0513 34.127 51.8502L21.5977 50.0406C21.4223 50.0153 21.2436 50.0534 21.0938 50.148L20.167 50.6885L13.3991 39.9927L22.2621 36.921C23.3521 36.5239 24.5462 36.5178 25.6402 36.9037L39.4411 41.5254C39.6933 41.6104 39.9262 41.7444 40.1264 41.9196C40.3267 42.0949 40.4904 42.308 40.6081 42.5467C41.1567 43.6482 40.5935 44.7498 39.5508 45.2688C39.3366 45.3792 39.1024 45.4455 38.8621 45.4636C38.6218 45.4817 38.3804 45.4514 38.152 45.3743L28.0713 41.9981C27.8842 41.9376 27.6808 41.9534 27.5053 42.042C27.3298 42.1306 27.1963 42.285 27.1339 42.4714C27.0715 42.6579 27.0852 42.8615 27.172 43.0379C27.2589 43.2143 27.4118 43.3493 27.5977 43.4136V43.4132ZM12.5814 38.6987L21.7777 35.5112C23.178 35.0067 24.7091 34.9984 26.1148 35.4878L39.9148 40.1094C40.7289 40.3813 41.4151 40.9422 41.8436 41.6859L51.7852 36.5359C52.6097 36.1055 53.5664 36.0028 54.4635 36.2482C54.9033 36.3678 55.3151 36.5735 55.6748 36.8535C56.0346 37.1334 56.3352 37.482 56.5591 37.879C57.0124 38.7352 57.1467 39.6115 56.8856 40.5539C56.7633 40.9998 56.5542 41.4171 56.2701 41.7819C55.9861 42.1467 55.6328 42.4518 55.2305 42.6797L38.5291 52.3198C37.1729 53.2236 35.5262 53.5843 33.9163 53.33L21.6434 51.5572L20.9673 51.9517L21.5134 52.8145C21.5656 52.8975 21.601 52.9899 21.6175 53.0866C21.6339 53.1832 21.6312 53.2821 21.6095 53.3777C21.5877 53.4733 21.5473 53.5637 21.4906 53.6436C21.4339 53.7236 21.362 53.7916 21.279 53.8438L14.6953 58.01C14.6124 58.0623 14.5199 58.0976 14.4233 58.1141C14.3266 58.1306 14.2277 58.1279 14.1321 58.1061C14.0365 58.0844 13.9461 58.044 13.8661 57.9873C13.7861 57.9306 13.7181 57.8587 13.6659 57.7757L3.09751 41.0742C2.99211 40.9066 2.95759 40.704 3.00154 40.511C3.0455 40.318 3.16432 40.1503 3.33188 40.0448L9.91618 35.8785C10.0838 35.7731 10.2863 35.7386 10.4793 35.7825C10.6724 35.8265 10.84 35.9453 10.9454 36.1129L12.5818 38.6988L12.5814 38.6987ZM38.0456 11.1234L39.3053 13.8047L42.2481 14.1746C42.3933 14.1923 42.5302 14.2521 42.6418 14.3467C42.7534 14.4413 42.8349 14.5666 42.876 14.707C42.9172 14.8474 42.9162 14.9968 42.8734 15.1367C42.8305 15.2766 42.7476 15.4008 42.6348 15.4941L40.5056 17.4912L41.0633 20.4052C41.09 20.5444 41.0765 20.6884 41.0244 20.8203C40.9722 20.9522 40.8837 21.0665 40.769 21.1499C40.6543 21.2333 40.5182 21.2824 40.3767 21.2913C40.2352 21.3002 40.094 21.2687 39.9697 21.2004L37.37 19.7695L34.7709 21.2004C34.6466 21.2687 34.5054 21.3002 34.3639 21.2912C34.2223 21.2823 34.0862 21.2332 33.9715 21.1497C33.8568 21.0663 33.7683 20.9519 33.7162 20.82C33.6641 20.688 33.6506 20.544 33.6774 20.4047L34.235 17.4912L32.0709 15.4614C31.9267 15.3256 31.8423 15.1382 31.8362 14.9402C31.8302 14.7423 31.903 14.55 32.0387 14.4057C32.0687 14.374 32.4921 14.1752 32.492 14.1746L35.4348 13.8047L36.6945 11.1234C36.7546 10.995 36.85 10.8863 36.9697 10.8102C37.0894 10.7341 37.2282 10.6937 37.37 10.6937C37.5119 10.6937 37.6507 10.7341 37.7704 10.8102C37.89 10.8863 37.9855 10.995 38.0456 11.1234ZM38.1307 14.8123L37.37 13.1931L36.6359 14.7557C36.5882 14.8847 36.506 14.9981 36.3981 15.0833C36.2902 15.1686 36.1609 15.2225 36.0244 15.2391L34.2543 15.4617L35.5362 16.6641C35.635 16.7499 35.7096 16.8601 35.7524 16.9838C35.7952 17.1075 35.8049 17.2403 35.7803 17.3688L35.4443 19.1241L37.0029 18.2659C37.1136 18.2034 37.2385 18.1702 37.3656 18.1695C37.4928 18.1688 37.618 18.2006 37.7295 18.2618L39.2957 19.1241L38.9602 17.3687C38.9365 17.2452 38.9444 17.1178 38.9831 16.9982C39.0219 16.8786 39.0903 16.7707 39.1819 16.6846L40.4856 15.4618L38.7161 15.2368C38.5905 15.2216 38.4709 15.1746 38.3686 15.1004C38.2662 15.0261 38.1844 14.9271 38.1308 14.8125L38.1307 14.8123ZM37.37 1.875C36.5783 1.875 35.9544 2.27707 35.3382 2.67422C34.9894 2.8991 34.6437 3.12199 34.3562 3.18984C34.0642 3.25828 33.6495 3.2066 33.2368 3.15469C32.5365 3.06738 31.8402 2.98066 31.1626 3.31289C30.485 3.64512 30.1289 4.25391 29.7738 4.86012C29.5703 5.20758 29.3672 5.55434 29.1452 5.73246C28.9233 5.91059 28.5407 6.03316 28.1586 6.15527C27.4907 6.36867 26.8227 6.58242 26.3564 7.16309C25.8901 7.74375 25.8251 8.44254 25.7603 9.14215C25.7228 9.54691 25.6852 9.95238 25.5583 10.2111C25.4345 10.4634 25.1387 10.7435 24.8417 11.025C24.3234 11.5158 23.8016 12.01 23.6262 12.7582C23.453 13.4965 23.6917 14.1717 23.9329 14.8547C24.0752 15.2578 24.2189 15.6645 24.2189 15.9927C24.2189 16.3209 24.0752 16.7277 23.9329 17.1306C23.6917 17.8138 23.453 18.49 23.6262 19.2273C23.802 19.9754 24.3234 20.4695 24.8417 20.9605C25.1388 21.2418 25.4345 21.5221 25.5583 21.7743C25.6852 22.033 25.7223 22.4385 25.7603 22.8431C25.8251 23.5429 25.8899 24.2411 26.3564 24.8224C26.6441 25.1634 27.0157 25.4236 27.4345 25.5773L23.9766 31.6426C23.8979 31.7669 23.8577 31.9115 23.8609 32.0585C23.8641 32.2055 23.9105 32.3483 23.9945 32.469C24.0785 32.5897 24.1961 32.683 24.3329 32.7371C24.4696 32.7912 24.6192 32.8039 24.763 32.7734L28.4254 31.9979L29.6183 35.5293C29.662 35.6679 29.7452 35.7907 29.8577 35.8827C29.9702 35.9747 30.1071 36.0319 30.2516 36.0472C30.3962 36.0625 30.542 36.0352 30.6713 35.9688C30.8006 35.9024 30.9076 35.7997 30.9793 35.6733L34.7964 28.9786C34.9707 29.0737 35.1543 29.1919 35.3385 29.3107C35.9547 29.7079 36.5786 30.11 37.3703 30.11C38.162 30.11 38.786 29.7079 39.4021 29.3107C39.5951 29.1862 39.7874 29.0624 39.9692 28.9652L43.7939 35.6733C43.8656 35.7997 43.9727 35.9024 44.102 35.9688C44.2312 36.0352 44.3771 36.0625 44.5216 36.0472C44.6661 36.0319 44.8031 35.9747 44.9156 35.8827C45.0281 35.7907 45.1113 35.6679 45.1549 35.5293L46.3477 31.9979L50.0101 32.7734C50.154 32.8039 50.3036 32.7913 50.4403 32.7372C50.577 32.683 50.6947 32.5898 50.7787 32.469C50.8626 32.3483 50.9091 32.2055 50.9123 32.0585C50.9154 31.9115 50.8751 31.7668 50.7965 31.6426L47.332 25.5662C47.7407 25.4125 48.103 25.1563 48.384 24.8222C48.8506 24.2408 48.9155 23.5426 48.9802 22.8429C49.0177 22.4382 49.0553 22.0328 49.1822 21.774C49.3058 21.5218 49.6016 21.2416 49.8989 20.96C50.417 20.4695 50.939 19.9757 51.1144 19.2271C51.2875 18.4888 51.0488 17.8136 50.8076 17.1304C50.6652 16.7275 50.5216 16.3206 50.5216 15.9925C50.5216 15.6643 50.6652 15.2576 50.8076 14.8545C51.0488 14.1715 51.2875 13.4958 51.1144 12.758C50.9386 12.0096 50.417 11.5158 49.8989 11.0248C49.6016 10.7435 49.3058 10.4632 49.1822 10.2109C49.0553 9.95215 49.0181 9.5468 48.9802 9.14203C48.9155 8.44242 48.8506 7.74422 48.384 7.16285C47.9175 6.58148 47.2498 6.36867 46.5818 6.15504C46.1998 6.03293 45.8176 5.91082 45.5953 5.73223C45.373 5.55363 45.1702 5.20734 44.9667 4.85988C44.6116 4.25344 44.2555 3.64523 43.5775 3.31301C42.8994 2.98078 42.2038 3.06691 41.5033 3.1548C41.0905 3.20613 40.6758 3.25781 40.3838 3.18996C40.0962 3.12258 39.7509 2.8998 39.4017 2.67434C38.7858 2.27707 38.1619 1.875 37.37 1.875ZM45.9024 26.0732L48.6925 30.9666L46.0081 30.3994C45.8288 30.3614 45.6419 30.3906 45.4828 30.4816C45.3238 30.5726 45.2038 30.7189 45.1457 30.8926L44.2678 33.491L41.6186 28.8444C42.28 28.9257 42.937 28.9859 43.5771 28.672C44.2552 28.3395 44.6113 27.7311 44.9664 27.1252C45.1698 26.7776 45.3729 26.4308 45.595 26.2527C45.6896 26.1804 45.7929 26.1202 45.9024 26.0734V26.0732ZM33.1568 28.8398L30.5049 33.4908L29.6271 30.8924C29.569 30.7186 29.4489 30.5723 29.2899 30.4814C29.1308 30.3904 28.9439 30.3611 28.7646 30.3991L26.0803 30.9663L28.8633 26.0851C28.9633 26.1296 29.0577 26.1858 29.1445 26.2525C29.3665 26.4306 29.5696 26.7773 29.7731 27.1249C30.1281 27.7313 30.4845 28.3396 31.1623 28.6718C31.8137 28.9913 32.4827 28.9232 33.1561 28.8398H33.1568ZM38.5943 3.93141C38.1629 3.65355 37.7263 3.37195 37.3696 3.37195C37.0129 3.37195 36.5762 3.6532 36.1449 3.93141C35.6869 4.22672 35.2332 4.5191 34.695 4.64543C34.1407 4.77539 33.5967 4.70754 33.0551 4.64004C32.57 4.57969 32.0876 4.51969 31.8176 4.65176C31.5454 4.78523 31.302 5.20043 31.06 5.6141C30.7858 6.08227 30.5124 6.54938 30.0806 6.8959C29.6463 7.2443 29.1275 7.41012 28.6084 7.57559C28.1583 7.71937 27.7078 7.8634 27.5197 8.09766C27.3317 8.33191 27.2892 8.80242 27.2453 9.27563C27.1951 9.81738 27.1447 10.36 26.897 10.8649C26.6509 11.3663 26.2618 11.735 25.8703 12.1059C25.5142 12.4432 25.1555 12.783 25.0819 13.0962C25.0082 13.4111 25.1741 13.8813 25.342 14.3564C25.528 14.8832 25.7158 15.4145 25.7158 15.9915C25.7158 16.5686 25.5283 17.1 25.342 17.6265C25.1741 18.1018 25.0079 18.572 25.082 18.8869C25.1561 19.2018 25.5142 19.5398 25.8703 19.8772C26.2618 20.248 26.6511 20.6167 26.897 21.1181C27.1447 21.623 27.1951 22.1658 27.2453 22.7075C27.2892 23.1805 27.3329 23.6528 27.5197 23.8855C27.771 24.1984 29.5613 24.6707 30.0806 25.0876C30.5124 25.4343 30.7858 25.9013 31.06 26.3695C31.3023 26.7832 31.5452 27.1982 31.8176 27.3316C32.0871 27.4642 32.57 27.4041 33.0551 27.3434C33.5967 27.276 34.1409 27.2081 34.695 27.3382C35.2332 27.4644 35.6869 27.7569 36.1449 28.0521C36.5762 28.3301 37.0129 28.6117 37.3696 28.6117C37.7263 28.6117 38.1631 28.3304 38.5943 28.0521C39.0523 27.7568 39.5059 27.4643 40.0441 27.3382C40.5982 27.2081 41.1425 27.276 41.6848 27.3434C42.1698 27.4038 42.652 27.4639 42.9223 27.3316C43.1945 27.1982 43.4379 26.7832 43.6798 26.3695C43.954 25.9008 44.2275 25.4343 44.6592 25.0876C45.1697 24.6775 46.9704 24.197 47.22 23.8855C47.4075 23.6525 47.4506 23.1805 47.4945 22.7074C47.5446 22.1658 47.595 21.6231 47.8427 21.1181C48.0888 20.6167 48.4779 20.248 48.8694 19.8772C49.2256 19.5398 49.5843 19.2 49.658 18.8869C49.7317 18.5737 49.5656 18.1017 49.3978 17.6265C49.2118 17.1 49.0241 16.5684 49.0241 15.9915C49.0241 15.4146 49.2116 14.8832 49.3978 14.3564C49.5656 13.8811 49.7316 13.4111 49.658 13.0962C49.5845 12.783 49.2256 12.4432 48.8694 12.1059C48.4779 11.735 48.0885 11.3663 47.8427 10.8649C47.595 10.36 47.5446 9.81738 47.4945 9.27574C47.4506 8.80266 47.4069 8.33039 47.22 8.09766C47.0331 7.86492 46.5815 7.71937 46.1313 7.57559C45.6123 7.40965 45.0934 7.24383 44.6592 6.8959C44.2275 6.54938 43.954 6.08227 43.6798 5.6141C43.4375 5.20043 43.1945 4.78523 42.9223 4.65176C42.652 4.51922 42.1698 4.57945 41.6848 4.64004C41.1431 4.70754 40.5988 4.77539 40.0441 4.64543C39.5059 4.5191 39.0523 4.22672 38.5943 3.93141ZM37.37 7.18512C35.3324 7.18509 33.3578 7.89159 31.7826 9.18425C30.2075 10.4769 29.1293 12.2757 28.7317 14.2742C28.3342 16.2727 28.6419 18.3473 29.6024 20.1443C30.5629 21.9414 32.1169 23.3498 33.9994 24.1296C35.8819 24.9094 37.9766 25.0123 39.9265 24.4208C41.8765 23.8293 43.561 22.58 44.693 20.8858C45.8251 19.1915 46.3347 17.1572 46.135 15.1293C45.9353 13.1015 45.0386 11.2056 43.5977 9.76477C42.7808 8.94573 41.8101 8.29619 40.7413 7.85349C39.6726 7.41079 38.5269 7.18365 37.37 7.18512ZM42.5391 10.8234C41.3432 9.62747 39.7696 8.88316 38.0864 8.71734C36.4033 8.55153 34.7147 8.97446 33.3084 9.91407C31.9021 10.8537 30.8651 12.2518 30.3741 13.8703C29.8831 15.4888 29.9685 17.2274 30.6157 18.79C31.263 20.3526 32.432 21.6424 33.9236 22.4397C35.4152 23.237 37.1371 23.4924 38.7959 23.1624C40.4547 22.8325 41.9478 21.9376 43.0207 20.6302C44.0937 19.3228 44.6801 17.6838 44.6801 15.9925C44.6813 15.0323 44.4928 14.0814 44.1254 13.1943C43.758 12.3072 43.2189 11.5015 42.5391 10.8234Z" fill="white"/>
</svg>
