<svg width="70" height="70" viewBox="0 0 70 70" fill="none" xmlns="http://www.w3.org/2000/svg">
<path d="M64.8334 67.6405H62.8889V5.89887C62.8889 5.58598 62.766 5.28591 62.5472 5.06466C62.3284 4.84342 62.0317 4.71912 61.7223 4.71912H39.9445C39.7913 4.7191 39.6396 4.74961 39.498 4.80889C39.3565 4.86817 39.2278 4.95507 39.1195 5.06462C39.0112 5.17417 38.9252 5.30423 38.8666 5.44738C38.808 5.59052 38.7778 5.74394 38.7778 5.89887V11.0112H36.4446V5.89887C36.4446 5.58598 36.3217 5.28591 36.1029 5.06466C35.8841 4.84342 35.5873 4.71912 35.2779 4.71912H30.2223V1.17975C30.2223 0.528008 29.6999 0 29.0557 0C28.4114 0 27.889 0.528008 27.889 1.17975V4.71912H22.8335C22.6803 4.7191 22.5286 4.74961 22.387 4.80889C22.2455 4.86817 22.1169 4.95507 22.0085 5.06462C21.9002 5.17417 21.8143 5.30423 21.7556 5.44738C21.697 5.59052 21.6668 5.74394 21.6669 5.89887V11.0112H18.1668C18.0136 11.0112 17.8619 11.0417 17.7203 11.101C17.5788 11.1602 17.4502 11.2471 17.3418 11.3567C17.2335 11.4662 17.1476 11.5963 17.0889 11.7394C17.0303 11.8826 17.0002 12.036 17.0002 12.1909V22.0224H7.27798C7.12477 22.0224 6.97306 22.0529 6.83151 22.1121C6.68996 22.1714 6.56134 22.2583 6.45301 22.3679C6.34467 22.4774 6.25874 22.6075 6.20012 22.7506C6.14149 22.8938 6.11133 23.0472 6.11135 23.2021V67.6404H4.16664C3.52228 67.6404 3 68.1684 3 68.8201C3 69.4719 3.52241 70 4.16664 70H64.8334C65.4777 70 66 69.472 66 68.8203C66 68.1685 65.4776 67.6405 64.8334 67.6405ZM24 7.07861H34.111V11.0112H24V7.07861ZM20.1111 67.6405H19.3333V65.6742C19.3333 65.0225 18.8109 64.4945 18.1667 64.4945C17.5225 64.4945 17 65.0225 17 65.6742V67.6405H16.2222V63.7079H20.1111V67.6405ZM27.8889 37.3595V67.6405H22.4444V62.5282C22.4444 62.2153 22.3215 61.9152 22.1027 61.694C21.8839 61.4727 21.5872 61.3484 21.2778 61.3484H15.0556C14.9024 61.3484 14.7507 61.3789 14.6091 61.4382C14.4676 61.4975 14.339 61.5844 14.2306 61.6939C14.1223 61.8035 14.0364 61.9335 13.9777 62.0767C13.9191 62.2198 13.889 62.3732 13.889 62.5282V67.6405H8.44448V24.382H27.8889V37.3595ZM29.0555 22.0225H19.3333V13.3708H38.7777V36.1797H30.2223V32.2472H33.7223C34.3667 32.2472 34.889 31.7192 34.889 31.0674C34.889 30.4157 34.3666 29.8877 33.7223 29.8877H30.2223V25.9551H33.7223C34.3667 25.9551 34.889 25.4271 34.889 24.7754C34.889 24.1236 34.3666 23.5956 33.7223 23.5956H30.2223V23.2024C30.2223 23.0475 30.1921 22.894 30.1335 22.7509C30.0749 22.6077 29.9889 22.4776 29.8806 22.3681C29.7722 22.2585 29.6436 22.1716 29.502 22.1123C29.3605 22.053 29.2087 22.0225 29.0555 22.0225ZM49.6667 67.6405H30.2223V38.5394H49.6667V67.6405ZM60.5555 67.6405H52V35.7864C52 35.1347 51.4775 34.6067 50.8333 34.6067C50.1891 34.6067 49.6667 35.1347 49.6667 35.7864V36.1796H47.3334V35.7864C47.3334 35.1347 46.811 34.6067 46.1668 34.6067C45.5225 34.6067 45.0001 35.1347 45.0001 35.7864V36.1796H41.1113V7.07861H60.5557L60.5555 67.6405Z" fill="#345766"/>
</svg>
