<svg width="100" height="100" viewBox="0 0 100 100" fill="none" xmlns="http://www.w3.org/2000/svg">
<mask id="mask0_41_2678" style="mask-type:luminance" maskUnits="userSpaceOnUse" x="0" y="0" width="100" height="100">
<path d="M99 99V1H1V99H99Z" fill="white" stroke="white" stroke-width="2"/>
</mask>
<g mask="url(#mask0_41_2678)">
<path d="M73.9217 4.47294H80.6365C83.8592 4.47294 86.4724 7.08407 86.4724 10.3089V92.6992C86.4724 95.9219 83.8592 98.5352 80.6365 98.5352H19.3633C16.1406 98.5352 13.5273 95.9219 13.5273 92.6992V10.3089C13.5273 7.08407 16.1406 4.47294 19.3633 4.47294H31.9374" stroke="white" stroke-width="2" stroke-miterlimit="10" stroke-linecap="round" stroke-linejoin="round"/>
<path d="M19.3633 71.6045V11.2816C19.3633 11.0237 19.4658 10.7763 19.6482 10.594C19.8306 10.4116 20.078 10.3092 20.3359 10.3092H31.9257" stroke="white" stroke-width="2" stroke-miterlimit="10" stroke-linecap="round" stroke-linejoin="round"/>
<path d="M68.0741 10.3088H79.6639C79.9218 10.3088 80.1692 10.4113 80.3516 10.5936C80.534 10.776 80.6365 11.0234 80.6365 11.2813V77.4629L65.7342 92.3672H20.3359C20.078 92.3672 19.8306 92.2647 19.6482 92.0823C19.4658 91.8999 19.3633 91.6525 19.3633 91.3945V77.4635" stroke="white" stroke-width="2" stroke-miterlimit="10" stroke-linecap="round" stroke-linejoin="round"/>
<path d="M65.7344 92.3662V83.2991C65.7344 80.0756 68.3471 77.4625 71.5699 77.4625H80.6357L65.7344 92.3662Z" stroke="white" stroke-width="2" stroke-miterlimit="10" stroke-linecap="round" stroke-linejoin="round"/>
<path d="M31.9226 10.3088C30.3113 10.3088 29.0049 11.6153 29.0049 13.227V17.2899C29.0049 18.9014 30.3113 20.208 31.9226 20.208H68.0774C69.6889 20.208 70.9952 18.9014 70.9952 17.2899V13.227C70.9952 11.6153 69.6889 10.3088 68.0774 10.3088" stroke="white" stroke-width="2" stroke-miterlimit="10" stroke-linecap="round" stroke-linejoin="round"/>
<path d="M31.9229 4.77971V10.1549C31.9229 11.9856 33.4068 13.4697 35.2373 13.4697H64.7634C66.5938 13.4697 68.0776 11.9856 68.0776 10.1549V4.77971C68.0776 2.94886 66.5938 1.46468 64.7634 1.46468H35.2373C33.4068 1.46468 31.9229 2.94886 31.9229 4.77971Z" stroke="white" stroke-width="2" stroke-miterlimit="10" stroke-linecap="round" stroke-linejoin="round"/>
<path d="M43.2621 37.9233V41.6299C43.2621 42.0961 43.0769 42.5432 42.7472 42.8728C42.4176 43.2025 41.9705 43.3877 41.5043 43.3877H30.9385C30.7076 43.3877 30.4791 43.3422 30.2658 43.2539C30.0525 43.1656 29.8587 43.0361 29.6955 42.8728C29.5323 42.7096 29.4028 42.5158 29.3145 42.3026C29.2261 42.0893 29.1807 41.8607 29.1807 41.6299V31.0641C29.1807 30.8333 29.2261 30.6047 29.3145 30.3914C29.4028 30.1781 29.5323 29.9844 29.6955 29.8211C29.8587 29.6579 30.0525 29.5284 30.2658 29.4401C30.4791 29.3518 30.7076 29.3063 30.9385 29.3063H35.7131" stroke="white" stroke-width="2" stroke-miterlimit="10" stroke-linecap="round" stroke-linejoin="round"/>
<path d="M43.8625 30.5182L38.3793 36.0402C38.2163 36.2044 38.0225 36.3348 37.809 36.4239C37.5955 36.5131 37.3665 36.5592 37.1351 36.5596C36.9037 36.56 36.6746 36.5147 36.4608 36.4264C36.2469 36.338 36.0526 36.2083 35.8891 36.0447L33.8525 34.008" stroke="white" stroke-width="2" stroke-miterlimit="10" stroke-linecap="round" stroke-linejoin="round"/>
<path d="M49.9268 29.3057H70.8197" stroke="white" stroke-width="2" stroke-miterlimit="10" stroke-linecap="round" stroke-linejoin="round"/>
<path d="M49.9268 35.165H70.8197" stroke="white" stroke-width="2" stroke-miterlimit="10" stroke-linecap="round" stroke-linejoin="round"/>
<path d="M43.2621 57.8637V61.5703C43.2621 62.0365 43.0769 62.4836 42.7472 62.8133C42.4176 63.1429 41.9705 63.3281 41.5043 63.3281H30.9385C29.9678 63.3281 29.1807 62.5408 29.1807 61.5703V51.0045C29.1807 50.7737 29.2261 50.5451 29.3145 50.3318C29.4028 50.1186 29.5323 49.9248 29.6955 49.7616C29.8587 49.5983 30.0525 49.4689 30.2658 49.3805C30.4791 49.2922 30.7076 49.2467 30.9385 49.2467H35.7131" stroke="white" stroke-width="2" stroke-miterlimit="10" stroke-linecap="round" stroke-linejoin="round"/>
<path d="M43.8625 50.4586L38.3793 55.9807C38.2163 56.1449 38.0225 56.2752 37.809 56.3644C37.5955 56.4535 37.3665 56.4996 37.1351 56.5C36.9037 56.5004 36.6746 56.4552 36.4608 56.3668C36.2469 56.2785 36.0526 56.1488 35.8891 55.9852L33.8525 53.9484" stroke="white" stroke-width="2" stroke-miterlimit="10" stroke-linecap="round" stroke-linejoin="round"/>
<path d="M49.9268 49.2471H70.8197" stroke="white" stroke-width="2" stroke-miterlimit="10" stroke-linecap="round" stroke-linejoin="round"/>
<path d="M49.9268 55.1064H62.0306" stroke="white" stroke-width="2" stroke-miterlimit="10" stroke-linecap="round" stroke-linejoin="round"/>
<path d="M43.2621 77.8043V81.5107C43.2621 81.9769 43.0769 82.4241 42.7472 82.7537C42.4176 83.0834 41.9705 83.2686 41.5043 83.2686H30.9385C30.7076 83.2686 30.4791 83.2231 30.2658 83.1347C30.0525 83.0464 29.8587 82.9169 29.6955 82.7537C29.5323 82.5905 29.4028 82.3967 29.3145 82.1834C29.2261 81.9702 29.1807 81.7416 29.1807 81.5107V70.9452C29.1807 70.7143 29.2261 70.4857 29.3145 70.2725C29.4028 70.0592 29.5323 69.8654 29.6955 69.7022C29.8587 69.539 30.0525 69.4095 30.2658 69.3212C30.4791 69.2328 30.7076 69.1873 30.9385 69.1873H35.7131" stroke="white" stroke-width="2" stroke-miterlimit="10" stroke-linecap="round" stroke-linejoin="round"/>
<path d="M43.8625 70.3989L38.3793 75.9212C38.2163 76.0853 38.0225 76.2157 37.809 76.3048C37.5954 76.3939 37.3665 76.44 37.1351 76.4404C36.9037 76.4408 36.6746 76.3956 36.4608 76.3073C36.2469 76.2189 36.0527 76.0892 35.8891 75.9257L33.8525 73.8889" stroke="white" stroke-width="2" stroke-miterlimit="10" stroke-linecap="round" stroke-linejoin="round"/>
<path d="M49.9268 69.1875H70.8197" stroke="white" stroke-width="2" stroke-miterlimit="10" stroke-linecap="round" stroke-linejoin="round"/>
<path d="M49.9268 75.0469H62.0306" stroke="white" stroke-width="2" stroke-miterlimit="10" stroke-linecap="round" stroke-linejoin="round"/>
</g>
</svg>
