<svg width="100" height="100" viewBox="0 0 100 100" fill="none" xmlns="http://www.w3.org/2000/svg">
<path d="M95.8984 2.92969H24.3105C23.6641 2.92969 23.1387 3.45508 23.1387 4.10156V53.4258H7.9668C5.18945 53.4258 2.92969 55.6855 2.92969 58.4629V66.5664C2.92969 69.3438 5.18945 71.6035 7.9668 71.6035H10.7324C12.1758 75.8262 12.1797 79.8906 10.7422 83.9805H9.42773C8.13672 83.9805 7.08789 85.0293 7.08789 86.3203V94.7305C7.08789 96.0215 8.13672 97.0703 9.42773 97.0703H95.8984C96.5449 97.0703 97.0703 96.5449 97.0703 95.8984V4.10156C97.0703 3.45508 96.5449 2.92969 95.8984 2.92969ZM25.4824 5.27344H94.7266V10.6797H25.4824V5.27344ZM94.7266 86.9766H89.2812V13.0234H94.7266V86.9766ZM27.9824 83.9805H22.0098V76.7656H22.7617C25.6758 76.7656 28.0645 74.4766 28.2285 71.6016H35.5469C38 71.6016 40.0469 69.8398 40.4922 67.5156H43.0723C44.5117 67.5156 45.7168 66.5137 46.0391 65.1719H52.5137C54.0742 65.1719 55.3418 63.9023 55.3418 62.3438C55.3418 60.7852 54.0723 59.5156 52.5137 59.5156H46.0957C45.8965 58.0234 44.6191 56.8672 43.0723 56.8672H40.3242C39.6543 54.8691 37.7676 53.4258 35.5469 53.4258H33.2715V13.0234H86.9375V86.9746H30.3223V86.3203C30.3223 85.0312 29.2715 83.9805 27.9824 83.9805ZM25.877 71.6035C25.7207 73.1836 24.3828 74.4238 22.7617 74.4238H22.0098V71.6035H25.877ZM43.0723 59.2109C43.457 59.2109 43.7813 59.5352 43.7813 59.9199V64.4629C43.7813 64.8477 43.457 65.1719 43.0723 65.1719H40.584V59.2109H43.0723ZM46.125 61.8594H52.5137C52.7754 61.8594 52.998 62.082 52.998 62.3438C52.998 62.6055 52.7754 62.8281 52.5137 62.8281H46.125V61.8594ZM25.4824 13.0234H30.9277V53.4258H25.4824V13.0234ZM5.27344 66.5664V58.4629C5.27344 56.9785 6.48242 55.7695 7.9668 55.7695H34.375V62.6406C34.375 63.2871 34.9004 63.8125 35.5469 63.8125C36.1934 63.8125 36.7188 63.2871 36.7188 62.6406V56.041C37.6172 56.4785 38.2402 57.3984 38.2402 58.4629V66.5664C38.2402 67.6309 37.6172 68.5508 36.7188 68.9883V66.4805C36.7188 65.834 36.1934 65.3086 35.5469 65.3086C34.9004 65.3086 34.375 65.834 34.375 66.4805V69.2598H7.9668C6.48242 69.2598 5.27344 68.0508 5.27344 66.5664ZM13.1973 71.6035H19.668V83.9805H13.2109C14.4668 79.9199 14.4629 75.7695 13.1973 71.6035ZM9.43164 94.7305V89.8281H12.3242C12.9707 89.8281 13.4961 89.3027 13.4961 88.6563C13.4961 88.0098 12.9707 87.4844 12.3242 87.4844H9.43359V86.3242L27.9785 86.3203V87.4844H16.1328C15.4863 87.4844 14.9609 88.0098 14.9609 88.6563C14.9609 89.3027 15.4863 89.8281 16.1328 89.8281H27.9805L27.9824 94.7266L9.43164 94.7305ZM94.7266 94.7266H30.3223V89.3203H94.7266V94.7266ZM58.9629 51.375H39.6484C39.002 51.375 38.4766 50.8496 38.4766 50.2031C38.4766 49.5566 39.002 49.0312 39.6484 49.0312H58.9629V19.5391C58.9629 18.8926 59.4883 18.3672 60.1348 18.3672C60.7813 18.3672 61.3066 18.8926 61.3066 19.5391V49.0312H80.6211C81.2676 49.0312 81.793 49.5566 81.793 50.2031C81.793 50.8496 81.2676 51.375 80.6211 51.375H61.3066V80.8672C61.3066 81.5137 60.7813 82.0391 60.1348 82.0391C59.4883 82.0391 58.9629 81.5137 58.9629 80.8672V51.375ZM38.7598 26.3203C38.3027 25.8633 38.3027 25.1211 38.7598 24.6621L45.1191 18.3027C45.5762 17.8457 46.3184 17.8457 46.7754 18.3027C47.2324 18.7598 47.2324 19.502 46.7754 19.9609L40.416 26.3203C40.3073 26.4292 40.1783 26.5156 40.0362 26.5745C39.8941 26.6334 39.7417 26.6638 39.5879 26.6638C39.4341 26.6638 39.2817 26.6334 39.1396 26.5745C38.9975 26.5156 38.8684 26.4292 38.7598 26.3203ZM51.5508 22.8711C51.0938 22.4141 51.0938 21.6719 51.5508 21.2129L52.0098 20.7539C52.4668 20.2969 53.209 20.2969 53.668 20.7539C54.125 21.2109 54.125 21.9531 53.668 22.4121L53.209 22.8711C53.1003 22.98 52.9713 23.0665 52.8292 23.1254C52.6871 23.1844 52.5347 23.2148 52.3809 23.2148C52.0697 23.2142 51.7713 23.0907 51.5508 22.8711ZM39.9434 32.8203L47.7578 25.0059C48.2148 24.5488 48.957 24.5488 49.4141 25.0059C49.8711 25.4629 49.8711 26.2051 49.4141 26.6641L41.6016 34.4766C41.4929 34.5854 41.3638 34.6718 41.2217 34.7307C41.0796 34.7897 40.9273 34.82 40.7734 34.82C40.6196 34.82 40.4673 34.7897 40.3252 34.7307C40.1831 34.6718 40.054 34.5854 39.9453 34.4766C39.8363 34.368 39.7497 34.239 39.6906 34.097C39.6315 33.955 39.601 33.8027 39.6008 33.6488C39.6006 33.495 39.6308 33.3426 39.6896 33.2005C39.7483 33.0583 39.8346 32.9291 39.9434 32.8203ZM6.73828 58.9297C6.73828 58.2832 7.26367 57.7578 7.91016 57.7578H13.1504C13.7969 57.7578 14.3223 58.2832 14.3223 58.9297C14.3223 59.5762 13.7969 60.1016 13.1504 60.1016H7.91016C7.26367 60.1016 6.73828 59.5762 6.73828 58.9297ZM14.3223 62.248C14.3223 62.8945 13.7969 63.4199 13.1504 63.4199H7.91016C7.26367 63.4199 6.73828 62.8945 6.73828 62.248C6.73828 61.6016 7.26367 61.0762 7.91016 61.0762H13.1504C13.7969 61.0762 14.3223 61.6016 14.3223 62.248ZM14.3223 65.5664C14.3223 66.2129 13.7969 66.7383 13.1504 66.7383H7.91016C7.26367 66.7383 6.73828 66.2129 6.73828 65.5664C6.73828 64.9199 7.26367 64.3945 7.91016 64.3945H13.1504C13.7969 64.3945 14.3223 64.9199 14.3223 65.5664Z" fill="white"/>
</svg>
