<svg width="100" height="100" viewBox="0 0 100 100" fill="none" xmlns="http://www.w3.org/2000/svg">
<path d="M0.773707 96.4388C1.019 96.5828 1.29831 96.6587 1.58276 96.6586C1.82759 96.6586 2.0694 96.6005 2.28815 96.4892L34.1166 80.03L64.8901 96.48C65.1053 96.5948 65.3451 96.6559 65.5891 96.658C65.833 96.66 66.0738 96.603 66.2909 96.4918L99.1304 79.6679C99.3832 79.5439 99.5976 79.3536 99.7508 79.1173C99.9039 78.881 99.9901 78.6075 100 78.3261V1.50584C99.9887 1.24408 99.9123 0.989277 99.7776 0.764525C99.643 0.539774 99.4544 0.352188 99.2289 0.218775C99.0032 0.0854471 98.7477 0.0106067 98.4857 0.00104705C98.2237 -0.00851256 97.9635 0.0475114 97.7287 0.164033L65.6259 16.6291L34.8422 0.432568C34.6281 0.320122 34.3902 0.260602 34.1483 0.25899C33.9065 0.257378 33.6678 0.31372 33.4522 0.4233L0.874784 16.9854C0.620748 17.109 0.405129 17.2994 0.251029 17.5362C0.0969286 17.773 0.0101534 18.0472 0 18.3296V95.1496C0.00960853 95.4123 0.0856068 95.6682 0.220903 95.8936C0.356199 96.119 0.546383 96.3064 0.773707 96.4384V96.4388ZM64.0086 92.5543L35.5603 77.4099V4.25498L64.0086 19.1625V92.5543ZM96.9828 77.405L67.0259 92.7548V19.3257L96.9828 3.97589V77.405ZM3.01724 19.2541L32.5431 4.24033V77.4192L3.01724 92.6707V19.2541Z" fill="white"/>
<path d="M73.0507 34.7278C73.2899 34.7278 73.5254 34.6707 73.7386 34.5612L92.0431 25.1694C92.2813 25.0501 92.4836 24.8698 92.6295 24.647C92.7754 24.4241 92.8596 24.1665 92.8736 23.9005C92.8876 23.6345 92.8309 23.3695 92.7093 23.1325C92.5876 22.8955 92.4054 22.695 92.181 22.5513C91.9569 22.4074 91.6986 22.3255 91.4325 22.3138C91.1664 22.3021 90.9019 22.3611 90.666 22.4847L72.3612 31.8774C72.0597 32.0318 71.819 32.2832 71.6779 32.5911C71.5367 32.899 71.5034 33.2454 71.5832 33.5746C71.6628 33.9037 71.8508 34.1965 72.1171 34.4058C72.3833 34.615 72.7122 34.7285 73.0509 34.728L73.0507 34.7278ZM73.0507 45.3632C73.29 45.3628 73.5258 45.3054 73.7386 45.1957L92.0431 35.8039C92.2813 35.6846 92.4837 35.5043 92.6296 35.2814C92.7755 35.0585 92.8598 34.8009 92.8738 34.5349C92.8878 34.2688 92.8311 34.0038 92.7094 33.7668C92.5877 33.5298 92.4054 33.3292 92.181 33.1856C91.9568 33.0417 91.6986 32.9598 91.4324 32.9482C91.1663 32.9365 90.9019 32.9955 90.666 33.1192L72.3612 42.5119C72.0597 42.6662 71.8188 42.9176 71.6776 43.2255C71.5363 43.5333 71.5028 43.8798 71.5825 44.2091C71.6623 44.5383 71.8504 44.8311 72.1167 45.0404C72.383 45.2498 72.7119 45.3634 73.0507 45.3632ZM90.666 43.7552L72.3612 53.147C72.1244 53.267 71.9235 53.4475 71.779 53.6702C71.6344 53.8928 71.5512 54.1498 71.5379 54.4149C71.5243 54.6801 71.581 54.9441 71.7022 55.1803C71.8234 55.4166 72.0049 55.6166 72.2282 55.7602C72.4514 55.904 72.7086 55.9865 72.9738 55.9991C73.239 56.0117 73.5028 55.954 73.7386 55.8319L92.0431 46.439C92.2812 46.3198 92.4835 46.1396 92.6293 45.9168C92.7752 45.6939 92.8593 45.4364 92.8733 45.1705C92.9017 44.6291 92.6375 44.1138 92.1813 43.8209C91.725 43.528 91.1466 43.5026 90.666 43.7552ZM26.1328 48.2214L7.82716 57.614C7.59059 57.7343 7.38991 57.9149 7.24537 58.1375C7.10083 58.3601 7.01754 58.6169 7.00389 58.8819C6.99045 59.1472 7.04719 59.4113 7.16838 59.6476C7.28958 59.884 7.47094 60.0842 7.69419 60.228C7.91766 60.3716 8.17501 60.4537 8.44031 60.4661C8.70561 60.4785 8.9695 60.4208 9.2054 60.2987L27.5101 50.9061C27.7469 50.7859 27.9478 50.6054 28.0925 50.3828C28.2371 50.1601 28.3204 49.9032 28.3339 49.638C28.3474 49.3728 28.2906 49.1088 28.1693 48.8726C28.048 48.6364 27.8665 48.4364 27.6431 48.2929C27.42 48.1491 27.1628 48.0667 26.8976 48.0541C26.6323 48.0416 26.3685 48.0993 26.1328 48.2214ZM26.1328 58.8576L7.82716 68.2494C7.59051 68.3698 7.38978 68.5504 7.24524 68.7731C7.1007 68.9959 7.01745 69.2528 7.00389 69.5179C6.99052 69.7831 7.0473 70.0471 7.16849 70.2833C7.28968 70.5195 7.47101 70.7196 7.69419 70.8634C7.91766 71.0069 8.17501 71.089 8.44031 71.1014C8.70561 71.1138 8.9695 71.0561 9.2054 70.9341L27.5101 61.5414C27.7469 61.4213 27.9478 61.2409 28.0923 61.0182C28.2369 60.7956 28.3201 60.5387 28.3334 60.2735C28.347 60.0084 28.2904 59.7443 28.1691 59.5081C28.0479 59.2718 27.8665 59.0718 27.6431 58.9283C27.4199 58.7844 27.1627 58.702 26.8975 58.6896C26.6322 58.6772 26.3684 58.7351 26.1328 58.8576ZM59.1685 42.9395L42.2375 34.0291C41.8842 33.8514 41.4753 33.8194 41.0987 33.9401C40.7221 34.0607 40.4079 34.3244 40.2237 34.6744C40.0396 35.0244 40.0002 35.4327 40.114 35.8114C40.2278 36.1902 40.4858 36.5091 40.8323 36.6996L57.7634 45.6091C57.9387 45.7013 58.1304 45.7582 58.3277 45.7763C58.5249 45.7945 58.7238 45.7736 58.913 45.7149C59.1022 45.6562 59.278 45.5608 59.4303 45.4342C59.5826 45.3075 59.7085 45.1521 59.8008 44.9769C59.893 44.8016 59.9499 44.6098 59.968 44.4126C59.9862 44.2153 59.9653 44.0164 59.9066 43.8272C59.8479 43.638 59.7525 43.4623 59.6259 43.3099C59.4992 43.1576 59.3438 43.0317 59.1685 42.9395ZM40.8323 23.9369L57.7634 32.8464C57.9979 32.9726 58.2617 33.0344 58.5279 33.0256C58.7942 33.0168 59.0533 32.9377 59.279 32.7962C59.5047 32.6548 59.6889 32.4561 59.8129 32.2204C59.9369 31.9846 59.9963 31.7202 59.9849 31.4541C59.9737 31.1881 59.8923 30.9297 59.7488 30.7054C59.6054 30.481 59.4051 30.2986 59.1683 30.1767L42.2375 21.2666C41.8834 21.0803 41.4698 21.0422 41.0876 21.1609C40.7055 21.2795 40.3861 21.5451 40.1998 21.8992C40.0135 22.2533 39.9754 22.6669 40.094 23.049C40.2127 23.4312 40.4782 23.7505 40.8323 23.9369ZM27.5597 18.4977C27.3435 18.3629 27.0959 18.287 26.8413 18.2774C26.5868 18.2678 26.3341 18.3249 26.1084 18.4429L7.86768 27.8347C7.62863 27.9651 7.43106 28.1601 7.29752 28.3974C7.16399 28.6347 7.09988 28.9047 7.11251 29.1767V41.9395C7.10234 42.1937 7.15873 42.4462 7.2761 42.6719C7.39347 42.8976 7.56775 43.0888 7.78169 43.2265C8.00918 43.3713 8.27325 43.4482 8.5429 43.4481C8.77803 43.4478 9.00964 43.3909 9.21811 43.2821L27.4681 33.8895C27.7085 33.7598 27.9076 33.5653 28.0429 33.3281C28.1782 33.0908 28.2441 32.8203 28.2332 32.5474V19.7849C28.2424 19.5304 28.1851 19.2778 28.067 19.0521C27.9489 18.8263 27.7741 18.6353 27.5597 18.4977ZM25.216 31.6257L10.1298 39.4694V30.0987L25.216 22.2539V31.6257ZM59.1379 57.8287L42.2233 48.9183C42.0001 48.7976 41.749 48.738 41.4954 48.7457C41.2418 48.7534 40.9947 48.828 40.7793 48.9621C40.5613 49.0983 40.3827 49.2892 40.2612 49.5158C40.1397 49.7423 40.0795 49.9967 40.0866 50.2537V65.1438C40.0809 65.416 40.1503 65.6846 40.2872 65.92C40.4242 66.1553 40.6234 66.3484 40.8629 66.4778L57.7776 75.3884C57.9917 75.5021 58.2304 75.5616 58.4729 75.5617C58.737 75.5615 58.9957 75.4862 59.2188 75.3446C59.4371 75.2086 59.6162 75.0178 59.7382 74.7913C59.8601 74.5647 59.9208 74.3103 59.9142 74.053V59.163C59.92 58.8907 59.8506 58.6221 59.7137 58.3868C59.5767 58.1514 59.3775 57.9584 59.1379 57.8289V57.8287ZM56.897 71.5546L43.1039 64.2328V52.7522L56.897 60.074V71.5546Z" fill="white"/>
</svg>
