<svg width="100" height="100" viewBox="0 0 100 100" fill="none" xmlns="http://www.w3.org/2000/svg">
<path d="M19.4375 40.9375C19.25 40.0937 19.8125 39.25 20.625 39.0625C21.4687 38.9062 22.3125 39.4375 22.5 40.2812C22.5411 40.4823 22.5421 40.6896 22.5031 40.8911C22.4641 41.0925 22.3858 41.2844 22.2726 41.4556C22.1594 41.6268 22.0136 41.7741 21.8435 41.8889C21.6734 42.0038 21.4824 42.084 21.2812 42.125C21.1875 42.1562 21.0938 42.1562 20.9688 42.1562C20.25 42.1562 19.5937 41.6563 19.4375 40.9375ZM78.7188 42.0625C78.518 42.0226 78.3274 41.9427 78.1582 41.8276C77.989 41.7125 77.8447 41.5645 77.7339 41.3925C77.6231 41.2205 77.5481 41.0279 77.5132 40.8262C77.4784 40.6246 77.4846 40.418 77.5312 40.2187C77.6875 39.375 78.5312 38.8437 79.375 39C80.2187 39.1875 80.75 40.0312 80.5625 40.875C80.4063 41.5937 79.7813 42.0937 79.0313 42.0937C78.9375 42.0937 78.8438 42.0937 78.7188 42.0625ZM18.75 34.4375C18.75 33.5625 19.4375 32.875 20.3125 32.875C21.1875 32.875 21.875 33.5625 21.875 34.4375C21.875 35.2813 21.1875 36 20.3125 36C19.4687 36 18.75 35.3125 18.75 34.4375ZM78.125 34.375V34.25C78.125 33.4062 78.8125 32.6875 79.6875 32.6875C80.5313 32.6875 81.25 33.375 81.25 34.25V34.375C81.25 35.25 80.5625 35.9375 79.6875 35.9375C78.8125 35.9375 78.125 35.25 78.125 34.375ZM20.625 29.7812C20.2197 29.6969 19.8641 29.4558 19.6358 29.1104C19.4075 28.7651 19.325 28.3434 19.4063 27.9375C19.5938 27.0937 20.4063 26.5625 21.25 26.75C22.0938 26.9062 22.6563 27.75 22.4688 28.5937C22.3125 29.3125 21.6562 29.8125 20.9375 29.8125C20.8437 29.8125 20.7187 29.8125 20.625 29.7812ZM77.5 28.4062C77.3125 27.5625 77.8438 26.75 78.6875 26.5625C79.5313 26.375 80.375 26.9062 80.5625 27.75C80.7188 28.5937 80.1875 29.4375 79.3437 29.625C79.25 29.625 79.125 29.6562 79.0313 29.6562C78.2813 29.6562 77.6562 29.1562 77.5 28.4062ZM22.2188 23.7812C21.8405 23.612 21.5436 23.3013 21.3917 22.9158C21.2398 22.5302 21.2451 22.1005 21.4062 21.7187C21.5762 21.3375 21.8906 21.0394 22.2803 20.8899C22.67 20.7405 23.1031 20.752 23.4844 20.9219C23.8656 21.0918 24.1638 21.4062 24.3132 21.7959C24.4627 22.1856 24.4512 22.6187 24.2812 23C24 23.5625 23.4375 23.9375 22.8437 23.9375C22.625 23.9375 22.4063 23.875 22.2188 23.7812ZM75.6562 22.8437C75.3125 22.0625 75.6562 21.125 76.4375 20.7812C77.2187 20.4062 78.1563 20.75 78.5 21.5625C78.875 22.3437 78.5 23.25 77.7188 23.625C77.3408 23.7882 76.9142 23.798 76.5292 23.6522C76.1443 23.5063 75.8312 23.2164 75.6562 22.8437ZM25.0313 18.25C24.8612 18.132 24.7169 17.9807 24.6069 17.8054C24.497 17.63 24.4238 17.4342 24.3916 17.2297C24.3595 17.0253 24.3692 16.8164 24.42 16.6158C24.4709 16.4152 24.5619 16.227 24.6875 16.0625C25.1875 15.375 26.1563 15.2187 26.8438 15.7187C27.5625 16.2187 27.7187 17.1875 27.1875 17.9062C26.9062 18.3125 26.4063 18.5312 25.9375 18.5312C25.625 18.5312 25.3125 18.4375 25.0313 18.25ZM72.6875 17.75C72.4494 17.4122 72.3521 16.9949 72.4162 16.5866C72.4804 16.1783 72.701 15.811 73.0313 15.5625C73.7188 15.0625 74.7187 15.2187 75.2187 15.9062C75.3847 16.1404 75.484 16.4152 75.5059 16.7014C75.5278 16.9876 75.4716 17.2743 75.3433 17.531C75.2149 17.7877 75.0192 18.0047 74.7772 18.1589C74.5351 18.313 74.2556 18.3985 73.9688 18.4062C73.4688 18.4062 73 18.1875 72.6875 17.75ZM28.9062 13.4062C28.3437 12.7812 28.375 11.7812 29.0312 11.2187C29.6562 10.625 30.6563 10.6875 31.25 11.3125C31.8125 11.9375 31.7813 12.9375 31.125 13.5312C30.8125 13.7812 30.4375 13.9375 30.0625 13.9375C29.6562 13.9375 29.2188 13.75 28.9062 13.4062ZM68.75 13.4062C68.5932 13.2706 68.4653 13.1049 68.3738 12.9189C68.2824 12.7328 68.2292 12.5303 68.2176 12.3233C68.2059 12.1164 68.236 11.9092 68.306 11.7141C68.3759 11.5189 68.4844 11.3399 68.625 11.1875C69.1875 10.5625 70.1875 10.5 70.8438 11.0937C71.4688 11.6562 71.5313 12.625 70.9375 13.2812C70.7955 13.4491 70.6183 13.5837 70.4185 13.6756C70.2187 13.7674 70.0011 13.8141 69.7812 13.8125C69.591 13.8164 69.4019 13.7825 69.2249 13.7128C69.0479 13.643 68.8865 13.5388 68.75 13.4062ZM33.7187 9.5C33.5205 9.13339 33.4716 8.70435 33.5822 8.30253C33.6929 7.9007 33.9545 7.55718 34.3125 7.34375C35.0312 6.90625 36 7.15625 36.4375 7.90625C36.875 8.65625 36.625 9.625 35.875 10.0625C35.625 10.1875 35.3437 10.25 35.0937 10.25C34.5312 10.25 34.0312 10 33.7187 9.5ZM63.9687 9.96875C63.7909 9.86748 63.6351 9.7318 63.5102 9.56963C63.3854 9.40746 63.2942 9.22205 63.2418 9.02422C63.1895 8.8264 63.177 8.62012 63.2053 8.41744C63.2335 8.21476 63.3018 8.01973 63.4063 7.84375C63.8438 7.09375 64.7812 6.8125 65.5312 7.25C66.2812 7.6875 66.5312 8.625 66.125 9.375C65.8125 9.90625 65.2812 10.1562 64.75 10.1562C64.5 10.1562 64.2187 10.0937 63.9687 9.96875ZM39.25 6.65625C39.1218 6.26256 39.1552 5.8341 39.3427 5.46497C39.5302 5.09584 39.8565 4.81621 40.25 4.6875C41.0625 4.40625 41.9688 4.84375 42.2188 5.65625C42.287 5.8531 42.3152 6.06161 42.3017 6.26952C42.2882 6.47742 42.2332 6.68053 42.14 6.86688C42.0468 7.05323 41.9173 7.21906 41.7591 7.35463C41.6009 7.49019 41.4172 7.59274 41.2187 7.65625C41.0625 7.6875 40.9062 7.71875 40.75 7.71875C40.0937 7.71875 39.4688 7.3125 39.25 6.65625ZM58.5938 7.59375C58.2051 7.45823 57.8839 7.17759 57.6975 6.81062C57.5111 6.44364 57.474 6.01878 57.5938 5.625C57.8438 4.8125 58.75 4.34375 59.5625 4.625C60.375 4.875 60.8437 5.75 60.5625 6.59375C60.3437 7.25 59.75 7.65625 59.0937 7.65625C58.9375 7.65625 58.75 7.625 58.5938 7.59375ZM45.25 5.03125C45.1562 4.15625 45.7813 3.40625 46.625 3.3125C47.5 3.21875 48.2813 3.84375 48.3438 4.6875C48.4688 5.5625 47.8437 6.3125 46.9687 6.40625H46.8125C46 6.40625 45.3437 5.8125 45.25 5.03125ZM52.8437 6.375C52.6418 6.35672 52.4455 6.29827 52.2665 6.20307C52.0874 6.10787 51.9292 5.97785 51.8011 5.82064C51.673 5.66343 51.5776 5.48221 51.5205 5.28762C51.4635 5.09303 51.4459 4.88899 51.4687 4.6875C51.5312 3.8125 52.3125 3.1875 53.1563 3.28125C54.0313 3.375 54.6562 4.125 54.5625 5C54.5 5.8125 53.8125 6.40625 53 6.40625C52.9687 6.40625 52.9062 6.40625 52.8437 6.375ZM45.3125 75C44.8981 75 44.5007 74.8354 44.2076 74.5424C43.9146 74.2493 43.75 73.8519 43.75 73.4375V71.9906C43.75 65.4063 39.2031 59.6656 32.6906 58.0281C32.4916 57.9781 32.3044 57.8893 32.1396 57.7669C31.9749 57.6444 31.8359 57.4908 31.7306 57.3146C31.6252 57.1385 31.5556 56.9433 31.5257 56.7403C31.4958 56.5372 31.5062 56.3303 31.5562 56.1312C31.6063 55.9322 31.6951 55.745 31.8175 55.5803C31.9399 55.4155 32.0936 55.2765 32.2698 55.1712C32.4459 55.0659 32.6411 54.9963 32.8441 54.9663C33.0471 54.9364 33.2541 54.9468 33.4531 54.9969C41.3562 56.9844 46.875 63.9719 46.875 71.9906V73.4375C46.875 73.8519 46.7104 74.2493 46.4174 74.5424C46.1243 74.8354 45.7269 75 45.3125 75Z" fill="white"/>
<path d="M27.3821 63.8031C26.9675 63.8032 26.5698 63.6392 26.2758 63.3469L12.5665 49.6594C12.421 49.5142 12.3055 49.3418 12.2267 49.152C12.148 48.9622 12.1074 48.7586 12.1074 48.5531C12.1074 48.3476 12.148 48.1441 12.2267 47.9543C12.3055 47.7644 12.421 47.592 12.5665 47.4469C16.8665 43.1469 22.1633 43.5125 27.0946 48.4469L34.1383 55.4781C34.2878 55.6221 34.407 55.7943 34.4892 55.9848C34.5713 56.1753 34.6147 56.3803 34.6168 56.5877C34.6189 56.7952 34.5796 57.001 34.5014 57.1931C34.4231 57.3853 34.3073 57.5599 34.1608 57.7068C34.0143 57.8537 33.84 57.97 33.6481 58.0488C33.4562 58.1276 33.2505 58.1674 33.0431 58.1659C32.8356 58.1644 32.6305 58.1216 32.4398 58.04C32.249 57.9584 32.0764 57.8396 31.9321 57.6906L24.8852 50.6594C21.679 47.45 18.6852 46.775 15.9727 48.6469L28.479 61.1344C28.6945 61.3535 28.8409 61.6311 28.9001 61.9327C28.9592 62.2343 28.9285 62.5466 28.8116 62.8309C28.6948 63.1152 28.497 63.3588 28.2429 63.5317C27.9887 63.7045 27.6894 63.7989 27.3821 63.8031ZM18.7508 79.9469V87.5H21.8758V81.25H43.7508V87.5H46.8758V79.9469C46.8758 79.0844 46.1102 78.125 45.2477 78.125H20.2477C19.379 78.125 18.7508 79.0875 18.7508 79.9469Z" fill="white"/>
<path d="M15.625 95.3125C15.625 95.7269 15.7896 96.1243 16.0826 96.4173C16.3757 96.7104 16.7731 96.875 17.1875 96.875C17.6019 96.875 17.9993 96.7104 18.2924 96.4173C18.5854 96.1243 18.75 95.7269 18.75 95.3125V87.5H43.75V95.3094C43.75 95.7238 43.9146 96.1212 44.2076 96.4142C44.5007 96.7072 44.8981 96.8719 45.3125 96.8719C45.7269 96.8719 46.1243 96.7072 46.4174 96.4142C46.7104 96.1212 46.875 95.7238 46.875 95.3094V86.1969C46.875 85.3344 46.1094 84.375 45.2469 84.375H17.1219C16.2563 84.375 15.625 85.3344 15.625 86.1969V95.3125ZM54.6875 75C54.2731 75 53.8757 74.8354 53.5826 74.5423C53.2896 74.2493 53.125 73.8519 53.125 73.4375V71.9906C53.125 63.9719 58.6438 56.9844 66.5469 54.9969C66.7459 54.9468 66.9529 54.9364 67.1559 54.9663C67.3589 54.9962 67.5541 55.0659 67.7302 55.1712C67.9064 55.2765 68.0601 55.4155 68.1825 55.5802C68.3049 55.745 68.3937 55.9322 68.4438 56.1312C68.4938 56.3303 68.5042 56.5372 68.4743 56.7403C68.4444 56.9433 68.3748 57.1385 68.2694 57.3146C68.1641 57.4907 68.0251 57.6444 67.8604 57.7668C67.6956 57.8893 67.5084 57.978 67.3094 58.0281C60.7969 59.6656 56.25 65.4062 56.25 71.9906V73.4375C56.25 73.8519 56.0854 74.2493 55.7924 74.5423C55.4993 74.8354 55.1019 75 54.6875 75Z" fill="white"/>
<path d="M72.6188 63.8031C72.3106 63.8007 72.0101 63.7077 71.7545 63.5355C71.4989 63.3634 71.2997 63.1198 71.1817 62.8351C71.0638 62.5505 71.0322 62.2374 71.091 61.935C71.1499 61.6325 71.2964 61.3541 71.5125 61.1344L84.0188 48.6469C81.3031 46.775 78.3156 47.45 75.1094 50.6594L68.0625 57.6906C67.7674 57.9749 67.3725 58.1318 66.9628 58.1277C66.5531 58.1236 66.1614 57.9587 65.8721 57.6686C65.5828 57.3784 65.4191 56.9863 65.4161 56.5766C65.4131 56.1669 65.5712 55.7724 65.8563 55.4781L72.9031 48.4469C77.8406 43.5125 83.1344 43.15 87.4313 47.4469C87.5768 47.592 87.6922 47.7645 87.771 47.9543C87.8498 48.1441 87.8903 48.3476 87.8903 48.5531C87.8903 48.7587 87.8498 48.9622 87.771 49.152C87.6922 49.3418 87.5768 49.5142 87.4313 49.6594L73.7219 63.3469C73.5771 63.4918 73.4051 63.6067 73.2158 63.685C73.0265 63.7633 72.8236 63.8034 72.6188 63.8031ZM28.125 76.4438C28.1247 76.2068 28.0709 75.973 27.9676 75.7598C27.8642 75.5466 27.714 75.3595 27.5281 75.2125L16.4031 66.4938C15.4375 65.725 14.0219 64.0656 13.5656 62.975L6.25 45.9688L6.20625 31.4656C6.37188 31.1719 7.40625 30.525 8.58438 30.6969C10.3844 30.9375 11.2313 32.8656 11.625 34.4344C12.2031 36.7531 12.3375 38.7969 12.4656 40.7281C12.4792 40.9296 12.5333 41.1263 12.6248 41.3064C12.7162 41.4864 12.843 41.6462 12.9977 41.7761C13.1524 41.9059 13.3317 42.0032 13.5248 42.0621C13.718 42.121 13.9211 42.1403 14.1219 42.1188C14.9844 42.0625 15.6313 41.2531 15.575 40.3938C15.4469 38.4594 15.3031 36.2719 14.6594 33.6813C13.4094 28.6938 10.1313 27.2594 7.45625 27.5938C5.32812 27.8563 3.125 29.2875 3.125 31.2313V46.2906C3.125 46.5031 3.16875 46.7125 3.25313 46.9094L10.6906 64.2C11.3781 65.8375 13.1469 67.8969 14.4656 68.9469L25 77.2031V81.25H28.125V76.4438Z" fill="white"/>
<path d="M71.875 76.4438C71.875 75.9625 72.0969 75.5094 72.4719 75.2125L83.5969 66.4938C84.5625 65.725 85.9781 64.0656 86.4344 62.975L93.75 45.9688L93.7937 31.4656C93.6281 31.1719 92.5906 30.525 91.4125 30.6969C89.6125 30.9375 88.7656 32.8625 88.3719 34.4344C87.7937 36.7531 87.6594 38.7969 87.5313 40.7281C87.5177 40.9296 87.4635 41.1263 87.3721 41.3064C87.2807 41.4864 87.1538 41.6462 86.9992 41.7761C86.8445 41.9059 86.6652 42.0032 86.4721 42.0621C86.2789 42.121 86.0758 42.1403 85.875 42.1188C85.0125 42.0625 84.3656 41.2531 84.4219 40.3938C84.55 38.4594 84.6938 36.2719 85.3375 33.6813C86.5844 28.6938 89.8625 27.2594 92.5375 27.5969C94.6719 27.8563 96.875 29.2875 96.875 31.2313V46.2906C96.8747 46.5034 96.8311 46.714 96.7469 46.9094L89.3094 64.2C88.6219 65.8375 86.8531 67.8969 85.5344 68.9469L75 77.2031V81.25H71.875V76.4438Z" fill="white"/>
<path d="M81.25 79.9469V87.5H78.125V81.25H56.25V87.5H53.125V79.9469C53.125 79.0844 53.8906 78.125 54.7531 78.125H79.7531C80.6219 78.125 81.25 79.0875 81.25 79.9469Z" fill="white"/>
<path d="M84.375 95.3125C84.375 95.7269 84.2104 96.1243 83.9174 96.4174C83.6243 96.7104 83.2269 96.875 82.8125 96.875C82.3981 96.875 82.0007 96.7104 81.7076 96.4174C81.4146 96.1243 81.25 95.7269 81.25 95.3125V87.5H56.25V95.3094C56.25 95.7238 56.0854 96.1212 55.7924 96.4142C55.4993 96.7073 55.1019 96.8719 54.6875 96.8719C54.2731 96.8719 53.8757 96.7073 53.5826 96.4142C53.2896 96.1212 53.125 95.7238 53.125 95.3094V86.1969C53.125 85.3344 53.8906 84.375 54.7531 84.375H82.8781C83.7438 84.375 84.375 85.3344 84.375 86.1969V95.3125ZM45.3125 56.25C45.0815 56.2502 44.8533 56.1992 44.6443 56.1007C44.4354 56.0021 44.2509 55.8585 44.1042 55.68C43.9574 55.5016 43.8521 55.2928 43.7957 55.0688C43.7393 54.8448 43.7333 54.611 43.7781 54.3844L46.5313 40.625H39.0625C38.7836 40.625 38.5098 40.5504 38.2694 40.4088C38.0291 40.2672 37.8311 40.0639 37.6959 39.82C37.5607 39.576 37.4932 39.3003 37.5005 39.0215C37.5079 38.7427 37.5897 38.4709 37.7375 38.2344L53.3625 13.2344C53.5587 12.9281 53.8554 12.6998 54.2017 12.5885C54.5479 12.4772 54.9221 12.4899 55.26 12.6245C55.5979 12.759 55.8784 13.007 56.0534 13.3259C56.2283 13.6448 56.2868 14.0146 56.2188 14.3719L53.0938 29.9969C53.0125 30.4034 52.7731 30.761 52.4282 30.9911C52.0834 31.2211 51.6612 31.3047 51.2547 31.2234C50.8482 31.1422 50.4906 30.9028 50.2605 30.5579C50.0305 30.2131 49.9469 29.7909 50.0281 29.3844L51.475 22.15L41.8813 37.5H48.4375C48.6692 37.4996 48.898 37.5507 49.1075 37.6496C49.317 37.7485 49.5019 37.8928 49.6487 38.072C49.7956 38.2511 49.9008 38.4607 49.9567 38.6855C50.0126 38.9104 50.0178 39.1448 49.9719 39.3719L48.525 46.6031L59.6156 28.8594C59.7244 28.6856 59.8663 28.5349 60.0333 28.416C60.2003 28.297 60.389 28.2121 60.5888 28.1661C60.7886 28.1201 60.9955 28.1139 61.1977 28.1479C61.3999 28.1819 61.5934 28.2553 61.7672 28.3641C61.941 28.4728 62.0917 28.6147 62.2106 28.7817C62.3296 28.9487 62.4145 29.1375 62.4604 29.3373C62.5064 29.5371 62.5126 29.744 62.4787 29.9461C62.4447 30.1483 62.3713 30.3418 62.2625 30.5156L46.6375 55.5156C46.4977 55.741 46.3026 55.9268 46.0706 56.0553C45.8387 56.1839 45.5777 56.2509 45.3125 56.25Z" fill="white"/>
</svg>
