<svg width="100" height="100" viewBox="0 0 100 100" fill="none" xmlns="http://www.w3.org/2000/svg">
<path d="M92.5177 58.984L84.8964 45.784C84.7186 45.476 84.441 45.2379 84.1095 45.109L68.0183 38.8523C68.5306 37.1222 68.7903 35.3272 68.7894 33.5229C68.7894 23.1625 60.3607 14.7338 50.0003 14.7338C39.64 14.7338 31.2112 23.1625 31.2112 33.5229C31.2103 35.3272 31.47 37.1222 31.9823 38.8523L15.8911 45.109C15.5596 45.2379 15.282 45.476 15.1042 45.784L7.48293 58.984C7.37022 59.1791 7.30105 59.3962 7.28017 59.6206C7.25928 59.8449 7.28717 60.0711 7.36192 60.2837C7.43667 60.4962 7.55651 60.6901 7.71323 60.852C7.86995 61.0138 8.05983 61.1399 8.26985 61.2215L14.8947 63.7975V85.2975C14.8947 85.6123 14.9898 85.9199 15.1677 86.1797C15.3455 86.4396 15.5976 86.6396 15.8911 86.7537L49.4339 99.7961C49.7981 99.9378 50.2022 99.9378 50.5663 99.7961L84.1091 86.7537C84.4026 86.6396 84.6548 86.4396 84.8326 86.1797C85.0104 85.9199 85.1056 85.6123 85.1056 85.2975V63.7975L91.7304 61.2215C91.9404 61.1399 92.1302 61.0138 92.2869 60.8519C92.4435 60.69 92.5633 60.4961 92.638 60.2836C92.7129 60.0711 92.741 59.8449 92.7202 59.6206C92.6995 59.3963 92.6304 59.1791 92.5177 58.984ZM50.0005 17.8588C58.6378 17.8588 65.6646 24.8857 65.6646 33.5229C65.6646 42.16 58.6376 49.1869 50.0005 49.1869C41.3634 49.1869 34.3364 42.16 34.3364 33.5229C34.3364 24.8857 41.3632 17.8588 50.0005 17.8588ZM50.0005 52.3119C57.4454 52.3119 63.8929 47.9594 66.9319 41.6652L79.263 46.5531L50.0005 57.9313L20.7378 46.5531L33.0689 41.6652C36.1079 47.9594 42.5554 52.3119 50.0005 52.3119ZM11.1003 58.9689L17.1405 48.5072L47.7364 60.4039L41.6962 70.8658L11.1003 58.9689ZM18.02 65.0125L41.8132 74.2641C42.161 74.3992 42.5457 74.4054 42.8977 74.2816C43.2498 74.1578 43.5459 73.9122 43.7325 73.5891L48.438 65.4391V96.0559L18.02 84.2285V65.0125ZM81.981 84.2285L51.563 96.0559V65.4391L56.2685 73.5893C56.4551 73.9124 56.7512 74.1581 57.1032 74.2819C57.4553 74.4057 57.84 74.3994 58.1878 74.2643L81.981 65.0127V84.2285ZM58.3048 70.8658L52.2644 60.4039L82.8605 48.5072L88.9007 58.9689L58.3048 70.8658ZM46.1128 43.6725C47.1945 43.6725 48.2124 43.2502 48.979 42.4836L61.1595 30.3033C62.7421 28.7205 62.7421 26.1451 61.1593 24.5619C60.3927 23.7953 59.3732 23.373 58.289 23.373C57.2048 23.373 56.1853 23.7953 55.4185 24.5619L46.4525 33.5281L44.0595 30.517C43.6806 30.038 43.1979 29.6512 42.6477 29.3859C42.0976 29.1205 41.4945 28.9835 40.8837 28.9852C39.9679 28.9867 39.0794 29.297 38.3618 29.866C36.6118 31.2576 36.32 33.8135 37.7111 35.5633L42.8093 41.9789C43.1861 42.5031 43.6822 42.93 44.2566 43.2245C44.831 43.519 45.4673 43.6725 46.1128 43.6725ZM40.3062 32.3121C40.4699 32.1808 40.6736 32.1095 40.8835 32.11C41.1696 32.11 41.4355 32.2381 41.6128 32.4611L45.0952 36.8436C45.2322 37.0159 45.4041 37.1574 45.5996 37.2587C45.7951 37.36 46.0097 37.4188 46.2296 37.4313C46.4494 37.4439 46.6693 37.4098 46.8751 37.3314C47.0808 37.253 47.2677 37.132 47.4234 36.9764L57.6278 26.7717C57.8042 26.5951 58.039 26.498 58.2888 26.498C58.5386 26.498 58.773 26.5953 58.9493 26.7715C59.1244 26.947 59.2228 27.1847 59.2228 27.4326C59.2228 27.6805 59.1246 27.9182 58.9495 28.0937L46.7693 40.274C46.6837 40.3613 46.5814 40.4305 46.4686 40.4774C46.3558 40.5244 46.2346 40.5482 46.1124 40.5475C45.9607 40.5486 45.8109 40.5126 45.6763 40.4426C45.5416 40.3725 45.4262 40.2706 45.34 40.1457C45.3215 40.1192 45.3022 40.0934 45.2821 40.0682L40.1573 33.6189C40.0042 33.4258 39.9339 33.1797 39.9618 32.9348C39.9897 32.6898 40.1135 32.4659 40.3062 32.3121ZM48.438 8.97832V1.66016C48.438 1.24576 48.6026 0.848328 48.8957 0.555302C49.1887 0.262276 49.5861 0.0976563 50.0005 0.0976562C50.4149 0.0976563 50.8123 0.262276 51.1054 0.555302C51.3984 0.848328 51.563 1.24576 51.563 1.66016V8.97832C51.563 9.39272 51.3984 9.79015 51.1054 10.0832C50.8123 10.3762 50.4149 10.5408 50.0005 10.5408C49.5861 10.5408 49.1887 10.3762 48.8957 10.0832C48.6026 9.79015 48.438 9.39272 48.438 8.97832ZM32.6609 6.50449C32.4537 6.1456 32.3975 5.71909 32.5048 5.3188C32.6121 4.9185 32.8739 4.57722 33.2328 4.37002C33.5917 4.16282 34.0182 4.10668 34.4185 4.21394C34.8188 4.32121 35.1601 4.5831 35.3673 4.94199L39.0263 11.2797C39.2335 11.6386 39.2896 12.0651 39.1824 12.4654C39.0751 12.8657 38.8132 13.207 38.4543 13.4142C38.0954 13.6214 37.6689 13.6775 37.2686 13.5702C36.8683 13.463 36.527 13.2011 36.3198 12.8422L32.6609 6.50449ZM20.8478 16.4541C20.9503 16.2764 21.0869 16.1206 21.2497 15.9957C21.4125 15.8707 21.5983 15.7791 21.7965 15.726C21.9947 15.6729 22.2014 15.6593 22.4049 15.6861C22.6083 15.713 22.8045 15.7796 22.9821 15.8822L29.3198 19.5412C29.6758 19.7499 29.9348 20.0909 30.0402 20.4898C30.1457 20.8887 30.0891 21.3131 29.8828 21.6704C29.6765 22.0277 29.3372 22.289 28.939 22.3971C28.5408 22.5052 28.116 22.4514 27.7573 22.2475L21.4196 18.5885C21.0608 18.3813 20.7989 18.04 20.6917 17.6397C20.5844 17.2395 20.6406 16.813 20.8478 16.4541ZM16.1642 33.1115C16.1642 32.6971 16.3288 32.2997 16.6218 32.0067C16.9149 31.7136 17.3123 31.549 17.7267 31.549H25.0446C25.9077 31.549 26.6071 32.2486 26.6071 33.1115C26.6071 33.9744 25.9077 34.674 25.0446 34.674H17.7267C17.3123 34.674 16.9149 34.5094 16.6218 34.2164C16.3288 33.9234 16.1642 33.5259 16.1642 33.1115ZM60.8646 11.6908L64.5236 5.35313C64.6261 5.1754 64.7627 5.01961 64.9255 4.89468C65.0882 4.76975 65.2741 4.67811 65.4723 4.625C65.6705 4.57189 65.8772 4.55836 66.0806 4.58517C66.2841 4.61198 66.4802 4.67861 66.6579 4.78125C66.8356 4.88383 66.9914 5.02041 67.1163 5.18319C67.2412 5.34597 67.3329 5.53176 67.386 5.72996C67.4391 5.92815 67.4527 6.13487 67.4259 6.33831C67.3992 6.54174 67.3326 6.73792 67.23 6.91563L63.5708 13.2533C63.4683 13.4311 63.3317 13.5869 63.1689 13.7118C63.0061 13.8368 62.8203 13.9284 62.622 13.9815C62.4238 14.0346 62.217 14.0482 62.0136 14.0213C61.8101 13.9945 61.6139 13.9279 61.4362 13.8252C61.0774 13.618 60.8156 13.2767 60.7084 12.8764C60.6012 12.4761 60.6574 12.0497 60.8646 11.6908ZM69.6982 22.3879C69.491 22.029 69.4348 21.6025 69.5421 21.2023C69.6493 20.802 69.9112 20.4607 70.27 20.2535L76.6077 16.5945C76.9664 16.3906 77.3912 16.3368 77.7894 16.4449C78.1876 16.553 78.5269 16.8142 78.7332 17.1716C78.9395 17.5289 78.9961 17.9533 78.8906 18.3522C78.7851 18.7511 78.5262 19.0921 78.1702 19.3008L71.8325 22.9598C71.6549 23.0625 71.4587 23.1291 71.2552 23.156C71.0518 23.1828 70.845 23.1693 70.6468 23.1162C70.4486 23.0631 70.2628 22.9714 70.1 22.8464C69.9372 22.7215 69.8007 22.5657 69.6982 22.3879ZM74.1339 32.3715H81.4519C82.315 32.3715 83.0144 33.0711 83.0144 33.934C83.0144 34.7969 82.315 35.4965 81.4519 35.4965H74.1339C73.7195 35.4965 73.3221 35.3319 73.0291 35.0388C72.736 34.7458 72.5714 34.3484 72.5714 33.934C72.5714 33.5196 72.736 33.1222 73.0291 32.8291C73.3221 32.5361 73.7195 32.3715 74.1339 32.3715Z" fill="white"/>
</svg>
