<svg width="24" height="24" viewBox="0 0 24 24" fill="none" xmlns="http://www.w3.org/2000/svg">
<g clip-path="url(#clip0_15460_16066)">
<path d="M10.4045 1.99997C10.6445 1.99997 10.8045 1.83998 10.8045 1.59998V0.399984C10.8045 0.159984 10.6445 0 10.4045 0C10.1645 0 10.0045 0.159984 10.0045 0.399984V1.59998C10.0045 1.83994 10.1645 1.99997 10.4045 1.99997ZM6.04452 4.79995H7.24452C7.44453 4.79995 7.6445 4.63997 7.6445 4.39997C7.6445 4.15997 7.48452 3.99998 7.24452 3.99998H6.04452C5.80452 3.99998 5.64453 4.15997 5.64453 4.39997C5.64453 4.63997 5.80452 4.79995 6.04452 4.79995ZM12.8045 4.39997C12.8045 4.63997 12.9645 4.79995 13.2045 4.79995H14.4045C14.6045 4.79995 14.8045 4.63997 14.8045 4.39997C14.8045 4.15997 14.6445 3.99998 14.4045 3.99998H13.2045C12.9645 3.99994 12.8045 4.15997 12.8045 4.39997ZM12.4045 2.79994C12.5245 2.79994 12.6045 2.75995 12.6845 2.67994L13.4845 1.87992C13.6445 1.71994 13.6445 1.47994 13.4845 1.31991C13.3245 1.15988 13.0845 1.15992 12.9245 1.31991L12.1245 2.11992C11.9645 2.27991 11.9645 2.51991 12.1245 2.67994C12.2045 2.75995 12.2845 2.79994 12.4045 2.79994ZM7.7645 2.67994C7.84452 2.75995 7.92448 2.79994 8.04448 2.79994C8.1245 2.79994 8.2445 2.75995 8.32447 2.67994C8.48445 2.51995 8.48445 2.27995 8.32447 2.11992L7.5245 1.31995C7.36452 1.15997 7.12452 1.15997 6.96448 1.31995C6.8045 1.47994 6.8045 1.71994 6.96448 1.87997L7.7645 2.67994Z" fill="#161E2D"/>
<path d="M18.6052 10.8007C18.2452 10.8007 17.8852 10.9208 17.6052 11.1208V11.0008C17.6052 10.0008 16.8052 9.20077 15.8052 9.20077C15.4452 9.20077 15.0852 9.32077 14.8052 9.52078V9.40078C14.8052 8.4008 14.0052 7.60078 13.0052 7.60078C12.6452 7.60078 12.2852 7.72078 12.0053 7.9208V4.64077C12.0053 3.64078 11.2052 2.80078 10.2053 2.80078C9.20527 2.80078 8.40525 3.64078 8.40525 4.64077V12.5608C7.56525 11.3208 5.88525 10.6808 4.60524 11.2008C4.40522 11.2808 4.24524 11.4008 4.12524 11.4408C3.56522 11.8408 3.60525 12.2808 3.60525 12.4408C3.56527 12.6808 3.60525 12.7207 4.12524 13.3207C4.72524 14.0407 6.00525 15.5608 6.80522 17.0807C6.8452 17.1207 7.76522 18.6007 8.80523 19.7607V20.8007C8.80523 22.6807 10.2852 24.0007 12.4052 24.0007H15.9653C17.6453 24.0007 18.9653 23.0407 19.2853 21.5608C19.374 21.1466 19.4627 20.9078 19.5353 20.7789C19.5584 20.7475 19.5817 20.7149 19.6053 20.6807C19.9653 20.2808 20.4053 19.2807 20.4053 17.9207V12.6007C20.4052 11.6008 19.6052 10.8007 18.6052 10.8007ZM15.9652 23.2007H12.4052C11.0052 23.2007 9.6052 22.4408 9.6052 20.8007V20.6928C9.71963 20.8144 9.83977 20.9305 9.9652 21.0407C10.0052 21.0807 10.1252 21.1208 10.2052 21.1208C10.3252 21.1208 10.4052 21.0407 10.4852 20.9608C10.6452 20.8008 10.6052 20.5608 10.4452 20.4007C10.1652 20.1607 9.9652 19.8808 9.7252 19.6007C9.68522 19.5207 9.6052 19.4007 9.52519 19.3207C9.49186 19.2763 9.44597 19.2415 9.39394 19.2173C8.42527 18.1073 7.48519 16.6408 7.48519 16.6408C6.64519 15.0808 5.32519 13.5208 4.72519 12.7608C4.60519 12.6408 4.48519 12.4808 4.40517 12.4008C4.40517 12.3208 4.40517 12.2408 4.56516 12.1208L4.88517 11.9608C5.76516 11.6008 7.24519 12.0808 7.88517 13.2008L8.39128 14.0443C8.39785 14.0997 8.41623 14.1531 8.44519 14.2008L8.84517 15.0007C8.92519 15.1207 9.04519 15.2008 9.20517 15.2008C9.28519 15.2008 9.36516 15.2008 9.36516 15.1608C9.56517 15.0808 9.64514 14.8408 9.52514 14.6408L9.20513 14.0008V4.64077C9.20513 4.08075 9.68513 3.60075 10.2051 3.60075C10.7651 3.60075 11.2051 4.08075 11.2051 4.64077V14.4008C11.2051 14.6408 11.3651 14.8008 11.6051 14.8008C11.8451 14.8008 12.0051 14.6408 12.0051 14.4008V9.32077C12.045 8.80078 12.4851 8.40075 13.005 8.40075C13.5651 8.40075 14.005 8.84077 14.005 9.40073V14.0008C14.005 14.2408 14.165 14.4008 14.405 14.4008C14.645 14.4008 14.805 14.2408 14.805 14.0008V11.0008C14.805 10.4408 15.245 10.0008 15.805 10.0008C16.365 10.0008 16.805 10.4408 16.805 11.0008V14.0408C16.805 14.2808 16.965 14.4408 17.205 14.4408C17.445 14.4408 17.6049 14.2808 17.6049 14.0408V12.6007C17.6049 12.0407 18.045 11.6008 18.6049 11.6008C19.1649 11.6008 19.6049 12.0408 19.6049 12.6007V17.8807C19.6049 19.0939 19.2222 19.8855 19.0183 20.144C18.9985 20.1609 18.9806 20.1799 18.9649 20.2007C18.7249 20.5208 18.6449 20.6407 17.8849 20.8407C17.6849 20.8807 17.5649 21.1207 17.6049 21.3207C17.685 21.4807 17.8449 21.6007 18.0049 21.6007C18.0449 21.6007 18.0849 21.6007 18.0849 21.6407C18.2213 21.6035 18.3433 21.5672 18.4533 21.5306C18.122 22.7523 16.9316 23.2007 15.9652 23.2007Z" fill="#161E2D"/>
</g>
<defs>
<clipPath id="clip0_15460_16066">
<rect width="24" height="24" fill="white"/>
</clipPath>
</defs>
</svg>
