<svg width="80" height="80" viewBox="0 0 80 80" fill="none" xmlns="http://www.w3.org/2000/svg">
<path d="M34.0625 48.125H29.632C28.5547 48.125 27.6789 49.0008 27.6789 50.0781V61.6406C27.6789 62.718 28.5547 63.5938 29.632 63.5938H34.0625C35.1398 63.5938 36.0156 62.718 36.0156 61.6406V50.0781C36.0156 49.0008 35.1398 48.125 34.0625 48.125ZM33.6719 61.25H30.0226V50.4688H33.6719V61.25ZM51.875 58.2239C51.5642 58.2239 51.2661 58.3474 51.0463 58.5671C50.8266 58.7869 50.7031 59.085 50.7031 59.3958V61.9573C50.7031 62.605 51.2273 63.1292 51.875 63.1292C52.5226 63.1292 53.0469 62.605 53.0469 61.9573V59.3958C53.0469 59.085 52.9234 58.7869 52.7036 58.5671C52.4839 58.3474 52.1858 58.2239 51.875 58.2239ZM62.0751 37.9059H61.372V28.3594C61.372 27.282 60.4955 26.4062 59.4189 26.4062H50.2751C49.1986 26.4062 48.322 27.282 48.322 28.3594V37.9059H47.6189C46.5423 37.9059 45.6658 38.7817 45.6658 39.8591V41.9531C45.6658 43.0305 46.5423 43.9062 47.6189 43.9062H62.0751C63.1525 43.9062 64.0283 43.0305 64.0283 41.9531V39.8591C64.0283 38.7817 63.1517 37.9059 62.0751 37.9059ZM50.6665 28.75H59.0283V37.9059H50.6665V28.75ZM61.6845 41.5625H48.0095V40.2497H61.6845V41.5625Z" fill="#345766"/>
<path d="M78.8281 69.0625H74.3116V63.7842H78.3459C78.9709 63.7842 79.5142 63.4905 79.7975 62.9992C80.0813 62.508 80.0641 61.8909 79.7509 61.3495L77.2497 57.0172C77.5531 56.8842 77.8058 56.6688 77.9694 56.3848C78.2531 55.8936 78.2361 55.2766 77.923 54.7352L75.8355 51.1188C76.0711 50.9844 76.2677 50.7966 76.4038 50.5609C76.6877 50.0689 76.67 49.4525 76.3575 48.9111L72.8295 42.8002C72.815 42.7752 72.7978 42.7533 72.7827 42.7295V31.4105H77.6123C78.2941 31.4105 78.8434 31.0852 79.0814 30.5395C79.32 29.9945 79.1858 29.3702 78.7231 28.8691L56.2378 4.56547C55.8777 4.17609 55.3706 3.95266 54.8473 3.95266C54.3238 3.95266 53.8166 4.17609 53.4564 4.56547L48.3636 10.0702H30.8594V7.02766C31.9 6.98609 32.7344 6.12859 32.7344 5.07812V1.95312C32.7344 0.875781 31.8586 0 30.7812 0H18.2812C17.2039 0 16.3281 0.875781 16.3281 1.95312V5.07812C16.3281 6.12859 17.1625 6.98594 18.2031 7.02766V10.0702H15.3578C14.5697 10.0702 13.6719 10.4975 13.1744 11.1091L7.27125 18.3709C6.85125 18.8873 6.75109 19.5117 7.00312 20.0422C7.25531 20.5719 7.80328 20.8886 8.46875 20.8886H11.137V33.2447H8.84219C8.05422 33.2447 7.15625 33.6713 6.65891 34.2834L0.755625 41.5455C0.335625 42.0611 0.235625 42.6861 0.487656 43.2166C0.739688 43.7462 1.28781 44.0631 1.95312 44.0631H5.3125V61.1469C4.5325 62.11 4.06375 63.3356 4.06375 64.6686C4.06375 64.9061 4.07953 65.1405 4.10828 65.3698H3.91484C2.83828 65.3698 1.96172 66.2464 1.96172 67.323V69.0625H1.17188C0.861074 69.0625 0.563003 69.186 0.343234 69.4057C0.123465 69.6255 0 69.9236 0 70.2344C0 70.5452 0.123465 70.8432 0.343234 71.063C0.563003 71.2828 0.861074 71.4062 1.17188 71.4062H78.8281C79.1389 71.4062 79.437 71.2828 79.6568 71.063C79.8765 70.8432 80 70.5452 80 70.2344C80 69.9236 79.8765 69.6255 79.6568 69.4057C79.437 69.186 79.1389 69.0625 78.8281 69.0625ZM77.0972 61.4405H65.7514L68.217 57.1692H74.6314L77.0972 61.4405ZM67.5787 54.8255L69.5881 51.3452H73.26L75.2692 54.8255H67.5787ZM73.7038 49.0014H69.1448L71.4239 45.0537L73.7038 49.0014ZM18.6719 2.34375H30.3906V4.6875H18.6719V2.34375ZM28.5156 7.03125V12.5H20.5469V7.03125H28.5156ZM10.1508 18.5444L14.9897 12.5916C15.0561 12.5202 15.2655 12.42 15.3577 12.4139H18.2031V12.8906C18.2031 13.968 19.0789 14.8438 20.1562 14.8438H28.9062C29.9836 14.8438 30.8594 13.968 30.8594 12.8906V12.4141H46.195L40.5231 18.5444H10.1508ZM30.6122 30.5402C30.8508 31.0852 31.4002 31.4105 32.0819 31.4105H36.9116V33.2447H13.4808V31.4062H27.1875C28.2648 31.4062 29.1406 30.5305 29.1406 29.4531V24.2969C29.1406 23.2195 28.2648 22.3438 27.1875 22.3438H13.4808V20.8886H38.3547L30.9713 28.8697C30.508 29.3702 30.3744 29.9945 30.6123 30.5402H30.6122ZM13.4809 29.0625V24.6875H21.5845V29.0625H13.4809ZM23.9289 29.0625V24.6875H26.7969V29.0625H23.9289ZM25.7886 69.0625H4.30547V67.7136H25.7886V69.0625ZM9.46656 65.3698H6.48625C6.43422 65.1397 6.40781 64.9045 6.4075 64.6686C6.4075 62.8692 7.87109 61.4062 9.66984 61.4062C10.1558 61.4062 10.6256 61.518 11.0516 61.7188C10.0781 62.5012 9.45312 63.7006 9.45312 65.0439C9.45312 65.1538 9.45797 65.2625 9.46656 65.3698ZM22.1973 63.3514C22.2321 63.5923 22.341 63.8164 22.5088 63.9926C22.6767 64.1688 22.8953 64.2883 23.1342 64.3347C23.6658 64.4378 24.0717 64.8541 24.178 65.3698H11.8272C11.8077 65.2625 11.7976 65.1536 11.7967 65.0445C11.7967 63.985 12.658 63.1231 13.7162 63.1231C14.0025 63.1231 14.2784 63.1848 14.5359 63.3063C14.6815 63.3754 14.8397 63.4136 15.0008 63.4187C15.1618 63.4237 15.3221 63.3955 15.4717 63.3356C15.6213 63.2758 15.757 63.1858 15.8703 63.0713C15.9836 62.9567 16.0721 62.82 16.1302 62.6697C16.5972 61.4606 17.7806 60.6481 19.0745 60.6481C20.6334 60.6481 21.9756 61.8103 22.197 63.3514H22.1973ZM20.8489 58.6023V50.4688H24.4983V61.25H23.9417C23.2821 60.0086 22.1772 59.0628 20.8491 58.6023H20.8489ZM15.2898 59.8248C14.9683 60.1284 14.6845 60.4696 14.4445 60.8411C14.2041 60.7994 13.9605 60.7786 13.7164 60.7788C13.7097 60.7788 13.7036 60.7794 13.6969 60.7794C13.1184 60.1838 12.4166 59.7222 11.6406 59.4269V50.4688H15.2898V59.8248ZM36.9117 41.7188H26.5625C26.2517 41.7188 25.9536 41.8422 25.7339 42.062C25.5141 42.2818 25.3906 42.5798 25.3906 42.8906C25.3906 43.2014 25.5141 43.4995 25.7339 43.7193C25.9536 43.939 26.2517 44.0625 26.5625 44.0625H36.9116V69.0625H28.1323V67.323C28.1323 66.3703 27.4456 65.5756 26.5411 65.4047C26.494 64.6679 26.2253 63.9626 25.7703 63.3813C26.4056 63.0584 26.8422 62.4005 26.8422 61.6406V50.0781C26.8422 49.0008 25.9662 48.125 24.8891 48.125H20.4584C19.3811 48.125 18.5053 49.0008 18.5053 50.0781V58.3367C18.2086 58.3686 17.9175 58.4228 17.6336 58.5009V50.0781C17.6336 49.0008 16.7578 48.125 15.6805 48.125H11.25C10.1727 48.125 9.29688 49.0008 9.29688 50.0781V59.0766C8.73486 59.1132 8.18166 59.235 7.65625 59.4378V44.0625H20.9375C21.2483 44.0625 21.5464 43.939 21.7661 43.7193C21.9859 43.4995 22.1094 43.2014 22.1094 42.8906C22.1094 42.5798 21.9859 42.2818 21.7661 42.062C21.5464 41.8422 21.2483 41.7188 20.9375 41.7188H3.63469L8.47406 35.7659C8.54063 35.6941 8.75 35.5945 8.84219 35.5884L36.9116 35.5878L36.9117 41.7188ZM62.1531 69.0625V60.5469C62.1531 60.2361 62.0297 59.938 61.8099 59.7182C61.5901 59.4985 61.2921 59.375 60.9812 59.375C60.6704 59.375 60.3724 59.4985 60.1526 59.7182C59.9328 59.938 59.8094 60.2361 59.8094 60.5469V69.0625H49.8852V50.5622H59.8094V55.0781C59.8094 55.3889 59.9328 55.687 60.1526 55.9068C60.3724 56.1265 60.6704 56.25 60.9812 56.25C61.2921 56.25 61.5901 56.1265 61.8099 55.9068C62.0297 55.687 62.1531 55.3889 62.1531 55.0781V50.1716C62.1531 49.0942 61.2773 48.2184 60.2 48.2184H49.4945C48.4172 48.2184 47.5414 49.0942 47.5414 50.1716V69.0625H39.2552V30.5322L54.8473 13.6791L60.3478 19.6247C60.4573 19.7434 60.5903 19.8381 60.7383 19.9028C60.8863 19.9675 61.0461 20.0008 61.2077 20.0006C61.4928 20.0006 61.7778 19.8975 62.0036 19.6888C62.1166 19.5843 62.2079 19.4585 62.2722 19.3187C62.3366 19.1789 62.3728 19.0278 62.3787 18.8741C62.3847 18.7203 62.3603 18.5668 62.3069 18.4225C62.2535 18.2781 62.1722 18.1457 62.0677 18.0328L55.7072 11.1578C55.5975 11.0392 55.4644 10.9445 55.3164 10.8798C55.1683 10.8151 55.0085 10.7816 54.8469 10.7816C54.6853 10.7816 54.5255 10.8151 54.3774 10.8798C54.2293 10.9445 54.0963 11.0392 53.9866 11.1578L37.4184 29.0667H33.9812L54.8473 6.51312L75.713 29.0667H72.2766L65.8258 22.0948C65.7213 21.9818 65.5957 21.8905 65.4559 21.8261C65.3162 21.7617 65.1651 21.7254 65.0113 21.7194C64.8576 21.7134 64.7041 21.7377 64.5598 21.791C64.4154 21.8443 64.283 21.9255 64.17 22.03C64.057 22.1346 63.9657 22.2604 63.9014 22.4002C63.837 22.54 63.8008 22.6912 63.7949 22.845C63.7889 22.9988 63.8133 23.1523 63.8667 23.2967C63.9201 23.4411 64.0014 23.5736 64.1059 23.6866L70.4395 30.5322V42.2998C70.2705 42.4401 70.128 42.6097 70.0189 42.8003L66.4911 48.9113C66.178 49.4525 66.1609 50.0695 66.4447 50.5609C66.5802 50.7966 66.7773 50.9852 67.013 51.1188L64.925 54.7352C64.6125 55.2766 64.5953 55.8936 64.8786 56.3848C65.0427 56.6688 65.2955 56.8842 65.5981 57.0172L63.0969 61.3495C62.7844 61.8914 62.7672 62.508 63.0505 62.9992C63.3344 63.4913 63.877 63.7842 64.5025 63.7842H68.5364V69.0625H62.1531ZM71.9677 69.0625H70.88V63.7842H71.9675L71.9677 69.0625Z" fill="#345766"/>
</svg>
