<svg width="60" height="60" viewBox="0 0 60 60" fill="none" xmlns="http://www.w3.org/2000/svg">
<path d="M39.7819 53.6C39.4182 53.6 39.1182 53.9 39.1182 54.2637V56.1819C39.1182 57.0273 38.4364 57.7091 37.591 57.7091H4.15459C3.30914 57.7091 2.62732 57.0273 2.62732 56.1819V13.5091C2.62732 12.6637 3.30914 11.9819 4.15459 11.9819H10.6273V13.1273C10.6273 13.9182 11.2728 14.5546 12.0546 14.5546H29.691C30.4819 14.5546 31.1182 13.9091 31.1182 13.1273V11.9819H37.591C38.4364 11.9819 39.1182 12.6637 39.1182 13.5091V23.1819C39.1182 23.5455 39.4182 23.8455 39.7819 23.8455C40.1455 23.8455 40.4455 23.5455 40.4455 23.1819V13.5091C40.4455 11.9364 39.1637 10.6546 37.591 10.6546H31.1182V9.29095C31.1182 8.50005 30.4728 7.86368 29.691 7.86368H26.091V6.17277C26.091 3.30004 23.7546 0.95459 20.8728 0.95459C17.991 0.95459 15.6546 3.29095 15.6546 6.17277V7.85459H12.0546C11.2637 7.85459 10.6273 8.50004 10.6273 9.28186V10.6455H4.15459C2.58187 10.6455 1.30005 11.9273 1.30005 13.5V56.1819C1.30005 57.7546 2.58187 59.0364 4.15459 59.0364H37.6C39.1728 59.0364 40.4546 57.7546 40.4546 56.1819V54.2637C40.4515 54.0871 40.3794 53.9187 40.2536 53.7946C40.1278 53.6706 39.9585 53.6007 39.7819 53.6ZM16.991 6.17277C16.991 4.02732 18.7364 2.29095 20.8728 2.29095C23.0091 2.29095 24.7546 4.03641 24.7546 6.17277V7.85459H16.9819V6.17277H16.991ZM11.9546 9.29095C11.9546 9.23641 12 9.19095 12.0546 9.19095H29.6819C29.7364 9.19095 29.7819 9.23641 29.7819 9.29095V13.1273C29.7819 13.1819 29.7364 13.2273 29.6819 13.2273H12.0455C11.991 13.2273 11.9455 13.1819 11.9455 13.1273V9.29095H11.9546Z" fill="url(#paint0_linear_15428_8272)" fill-opacity="0.9"/>
<path d="M7.98193 26.1728H12.491C13.5092 26.1728 14.3365 25.3456 14.3365 24.3365V19.8183C14.3365 18.8001 13.5092 17.9819 12.491 17.9819H7.98193C6.96375 17.9819 6.13647 18.8092 6.13647 19.8183V24.3274C6.14557 25.3456 6.97284 26.1728 7.98193 26.1728ZM7.47284 19.8183C7.47284 19.5365 7.70011 19.3092 7.98193 19.3092H12.491C12.7728 19.3092 13.0001 19.5365 13.0001 19.8183V24.3274C13.0001 24.6092 12.7728 24.8365 12.491 24.8365H7.98193C7.84691 24.8365 7.71742 24.7828 7.62195 24.6874C7.52647 24.5919 7.47284 24.4624 7.47284 24.3274V19.8183ZM35.6001 20.4274C35.6001 20.0638 35.3001 19.7638 34.9365 19.7638H18.9183C18.5547 19.7638 18.2547 20.0638 18.2547 20.4274C18.2547 20.791 18.5547 21.091 18.9183 21.091H34.9365C35.3001 21.1001 35.6001 20.8001 35.6001 20.4274ZM30.9183 23.7183C30.9183 23.3547 30.6183 23.0547 30.2547 23.0547H18.9183C18.5547 23.0547 18.2547 23.3547 18.2547 23.7183C18.2547 24.0819 18.5547 24.3819 18.9183 24.3819H30.2547C30.6183 24.3819 30.9183 24.091 30.9183 23.7183ZM6.14557 35.4183C6.14557 36.4365 6.97284 37.2547 7.99102 37.2547H12.5001C13.5183 37.2547 14.3456 36.4274 14.3456 35.4183V30.9092C14.3456 29.891 13.5183 29.0728 12.5001 29.0728H7.98193C6.96375 29.0728 6.13647 29.9001 6.13647 30.9092V35.4183H6.14557ZM7.47284 30.9092C7.47284 30.6274 7.70011 30.4001 7.98193 30.4001H12.491C12.7728 30.4001 13.0001 30.6274 13.0001 30.9092V35.4183C13.0001 35.7001 12.7728 35.9274 12.491 35.9274H7.98193C7.84691 35.9274 7.71742 35.8738 7.62195 35.7783C7.52647 35.6828 7.47284 35.5533 7.47284 35.4183V30.9092ZM24.1456 31.5183C24.1456 31.1547 23.8456 30.8547 23.4819 30.8547H18.9092C18.5456 30.8547 18.2456 31.1547 18.2456 31.5183C18.2456 31.8819 18.5456 32.1819 18.9092 32.1819H23.4819C23.8547 32.1819 24.1456 31.891 24.1456 31.5183ZM22.1456 35.4728C22.5092 35.4728 22.8092 35.1728 22.8092 34.8092C22.8092 34.4456 22.5092 34.1456 22.1456 34.1456H18.9092C18.5456 34.1456 18.2456 34.4456 18.2456 34.8092C18.2456 35.1728 18.5456 35.4728 18.9092 35.4728H22.1456Z" fill="url(#paint1_linear_15428_8272)" fill-opacity="0.9"/>
<path d="M9.31833 23.1547C9.4329 23.2853 9.59396 23.366 9.76717 23.3796C9.94039 23.3932 10.1121 23.3386 10.2456 23.2274L11.7274 21.9638C12.0092 21.7274 12.0365 21.3092 11.8001 21.0274C11.5638 20.7456 11.1365 20.7183 10.8638 20.9547L9.89105 21.791L9.70014 21.5729C9.64344 21.5066 9.57423 21.4522 9.49649 21.4127C9.41874 21.3731 9.33397 21.3493 9.24703 21.3426C9.07142 21.3289 8.8976 21.3856 8.76378 21.5001C8.62997 21.6147 8.54713 21.7777 8.53349 21.9533C8.51985 22.1289 8.57653 22.3027 8.69105 22.4365L9.31833 23.1547ZM9.31833 34.2274C9.4456 34.382 9.63651 34.4547 9.82742 34.4547C9.98196 34.4547 10.1365 34.4001 10.2547 34.2911L11.7365 33.0274C12.0183 32.7911 12.0456 32.3729 11.8092 32.091C11.5729 31.8092 11.1456 31.782 10.8729 32.0183L9.90014 32.8547L9.70924 32.6365C9.47287 32.3547 9.05469 32.3274 8.77287 32.5638C8.49105 32.8001 8.46378 33.2183 8.70014 33.5001L9.31833 34.2274ZM45.182 32.6183C41.682 29.1183 35.9911 29.1183 32.5001 32.6183C29.0001 36.1183 29.0001 41.8092 32.5001 45.3001C34.2456 47.0456 36.5365 47.9183 38.8365 47.9183C41.1365 47.9183 43.4365 47.0456 45.182 45.2911C48.682 41.8001 48.682 36.1092 45.182 32.6183ZM44.2456 44.3547C41.2729 47.3365 36.4274 47.3365 33.4456 44.3638C30.4638 41.382 30.4638 36.5365 33.4456 33.5638C34.9365 32.0729 36.8911 31.3365 38.8456 31.3365C40.8001 31.3365 42.7638 32.082 44.2456 33.5729C47.2183 36.5365 47.2183 41.3729 44.2456 44.3547Z" fill="url(#paint2_linear_15428_8272)" fill-opacity="0.9"/>
<path d="M57.1546 49.7819C56.191 48.8182 53.2546 46.7091 50.391 45.2182C53.091 40.2364 52.3364 33.8728 48.1364 29.6728C43.0091 24.5455 34.6637 24.5455 29.5455 29.6637C24.4182 34.7909 24.4182 43.1364 29.5455 48.2637C32.1091 50.8273 35.4637 52.1 38.8273 52.1C40.9819 52.1 43.1455 51.5637 45.091 50.5091C46.5819 53.3728 48.7001 56.3091 49.6637 57.2728C50.6588 58.2639 52.0065 58.8197 53.411 58.818C54.8155 58.8163 56.1619 58.2573 57.1546 57.2637C58.1457 56.271 58.7024 54.9255 58.7024 53.5228C58.7024 52.12 58.1457 50.7745 57.1546 49.7819ZM30.491 47.3182C28.2546 45.0819 27.0273 42.1182 27.0273 38.9546C27.0273 35.7909 28.2546 32.8273 30.491 30.5909C32.791 28.2909 35.8182 27.1364 38.8455 27.1364C41.8728 27.1364 44.9001 28.2909 47.2091 30.5909C51.8091 35.1909 51.8091 42.6909 47.2001 47.2909C42.591 51.9182 35.091 51.9182 30.491 47.3182ZM56.2182 56.3273C54.6728 57.8728 52.1546 57.8819 50.6091 56.3364C49.7001 55.4273 47.6637 52.591 46.2364 49.8182C46.9091 49.3637 47.5455 48.8455 48.1455 48.2546C48.7364 47.6637 49.2546 47.0273 49.7091 46.3546C52.4728 47.7819 55.3091 49.8182 56.2273 50.7273C57.7637 52.2637 57.7637 54.7819 56.2182 56.3273ZM6.14551 52.9091C6.14551 53.7455 6.82733 54.4364 7.66369 54.4364H22.0819C22.9182 54.4364 23.6001 53.7546 23.6001 52.9091V48.1182C23.6001 47.2819 22.9182 46.591 22.0819 46.591H7.66369C6.82733 46.591 6.14551 47.2728 6.14551 48.1182V52.9091ZM7.47278 48.1182C7.47278 48.0091 7.56369 47.9273 7.66369 47.9273H22.0819C22.191 47.9273 22.2728 48.0182 22.2728 48.1182V52.9091C22.2728 53.0182 22.1819 53.1 22.0819 53.1H7.66369C7.5546 53.1 7.47278 53.0091 7.47278 52.9091V48.1182Z" fill="url(#paint3_linear_15428_8272)" fill-opacity="0.9"/>
<path d="M44.1546 35.2639C43.8091 34.8639 43.3182 34.6184 42.7818 34.5821C42.2455 34.5366 41.7364 34.7184 41.3182 35.0821L37.6727 38.4821L37.5546 38.3366C37.2091 37.9275 36.7273 37.6821 36.1909 37.6366C35.6637 37.5912 35.1455 37.7548 34.7364 38.1002C34.3273 38.4457 34.0818 38.9275 34.0364 39.4548C33.9909 39.9821 34.1546 40.5002 34.5 40.9093L35.9364 42.6275C36.2818 43.0275 36.7818 43.2821 37.3091 43.3275C37.3546 43.3275 37.4091 43.3366 37.4546 43.3366C37.5818 43.3366 37.7091 43.3275 37.8364 43.3002C38.1727 43.2366 38.4909 43.073 38.7727 42.8366L43.9455 38.0821C44.7909 37.3548 44.8818 36.0912 44.1546 35.2639ZM43.0727 37.0821L37.9 41.8366C37.8101 41.9111 37.7044 41.9639 37.5909 41.9911C37.5273 42.0002 37.4727 42.0093 37.4091 42.0002C37.2341 41.9855 37.0714 41.9042 36.9546 41.773L35.5182 40.0548C35.4 39.9184 35.3455 39.7457 35.3637 39.573C35.3818 39.4002 35.4637 39.2366 35.6 39.1184C35.7182 39.0184 35.8727 38.9639 36.0273 38.9639H36.0818C36.2637 38.9821 36.4182 39.0639 36.5273 39.1912L37.0818 39.873C37.2 40.0184 37.3727 40.1002 37.5546 40.1184C37.7364 40.1275 37.9182 40.0639 38.0546 39.9366L42.2091 36.0639C42.3455 35.9457 42.5182 35.8912 42.6909 35.9002C42.8727 35.9093 43.0273 35.9912 43.1455 36.1275C43.3909 36.4093 43.3637 36.8366 43.0727 37.0821Z" fill="url(#paint4_linear_15428_8272)" fill-opacity="0.9"/>
<defs>
<linearGradient id="paint0_linear_15428_8272" x1="19.409" y1="66.2966" x2="19.409" y2="-1.38742" gradientUnits="userSpaceOnUse">
<stop stop-color="#00D4FF"/>
<stop offset="1" stop-color="#00A3E0"/>
</linearGradient>
<linearGradient id="paint1_linear_15428_8272" x1="19.7634" y1="39.6638" x2="19.7634" y2="17.2048" gradientUnits="userSpaceOnUse">
<stop stop-color="#00D4FF"/>
<stop offset="1" stop-color="#00A3E0"/>
</linearGradient>
<linearGradient id="paint2_linear_15428_8272" x1="26.6964" y1="51.3087" x2="26.6964" y2="19.7012" gradientUnits="userSpaceOnUse">
<stop stop-color="#00D4FF"/>
<stop offset="1" stop-color="#00A3E0"/>
</linearGradient>
<linearGradient id="paint3_linear_15428_8272" x1="30.4531" y1="62.942" x2="30.4531" y2="24.4959" gradientUnits="userSpaceOnUse">
<stop stop-color="#00D4FF"/>
<stop offset="1" stop-color="#00A3E0"/>
</linearGradient>
<linearGradient id="paint4_linear_15428_8272" x1="38.9389" y1="44.4318" x2="38.9389" y2="34.2219" gradientUnits="userSpaceOnUse">
<stop stop-color="#00D4FF"/>
<stop offset="1" stop-color="#00A3E0"/>
</linearGradient>
</defs>
</svg>
