<svg width="70" height="70" viewBox="0 0 70 70" fill="none" xmlns="http://www.w3.org/2000/svg">
<path d="M49.9187 19.7897V63.945M49.9187 63.945H20.0813M49.9187 63.945H53.8954M49.9187 63.945V34.1712M20.0813 63.945V19.7897M20.0813 63.945H5.10672C3.98234 63.945 3.07084 63.0335 3.07084 61.9092V34.1712H20.0813M20.0813 63.945V34.1712M49.9187 34.1712H66.9292V61.9092C66.9292 63.0336 66.0177 63.9451 64.8933 63.9451H58.8342M49.9187 34.1712H68.1103C68.3395 34.1712 68.5594 34.0801 68.7214 33.918C68.8835 33.7559 68.9746 33.5361 68.9746 33.3068V30.9268C68.9746 30.8133 68.9523 30.7009 68.9089 30.5961C68.8654 30.4912 68.8018 30.3959 68.7215 30.3156C68.6412 30.2354 68.5459 30.1717 68.4411 30.1283C68.3362 30.0848 68.2238 30.0625 68.1103 30.0625H49.9187V34.1712ZM20.0813 34.1712H1.88973C1.66049 34.1712 1.44064 34.0801 1.27855 33.918C1.11645 33.7559 1.02539 33.5361 1.02539 33.3068V30.9268C1.02537 30.8133 1.04772 30.7009 1.09115 30.5961C1.13458 30.4912 1.19824 30.3959 1.27851 30.3156C1.35877 30.2354 1.45406 30.1717 1.55894 30.1283C1.66381 30.0848 1.77622 30.0625 1.88973 30.0625H20.0813V34.1712ZM23.4954 19.7897H18.796C18.5882 19.7897 18.389 19.7072 18.2421 19.5603C18.0953 19.4134 18.0127 19.2142 18.0127 19.0065V16.4714C18.0127 16.2637 18.0953 16.0645 18.2421 15.9176C18.389 15.7707 18.5882 15.6882 18.796 15.6882H23.4954" stroke="#345766" stroke-width="2" stroke-miterlimit="10" stroke-linecap="round" stroke-linejoin="round"/>
<path d="M46.5048 15.6882H51.2042C51.4119 15.6883 51.6111 15.7708 51.758 15.9177C51.9049 16.0645 51.9874 16.2638 51.9875 16.4715V19.0065C51.9874 19.2142 51.9049 19.4134 51.758 19.5603C51.6111 19.7072 51.4119 19.7897 51.2042 19.7898H46.5048M42.6038 33.3094V36.0918M35 33.3094V36.0918M27.3963 33.3094V36.0918M42.6038 42.1942V44.9767M35 42.1942V44.9767M27.3963 42.1942V44.9767M61.3191 41.651V43.6881M55.5289 41.651V43.6881M61.3191 48.1554V50.1925M55.5289 48.1554V50.1925M14.4711 41.651V43.6881M8.68097 41.651V43.6881M14.4711 48.1554V50.1925M8.68097 48.1554V50.1925M30.4759 53.6415V51.2236C30.4759 50.4644 31.0914 49.8489 31.8506 49.8489H38.1495C38.9087 49.8489 39.5242 50.4644 39.5242 51.2236V63.945H30.4759V58.4917M41.0389 15.7701H37.5703C37.4914 15.7701 37.4132 15.7546 37.3402 15.7243C37.2673 15.6941 37.201 15.6498 37.1452 15.594C37.0893 15.5382 37.045 15.4719 37.0148 15.3989C36.9846 15.326 36.969 15.2478 36.969 15.1688V11.6446C36.969 10.5572 36.0875 9.6756 35 9.6756C33.9126 9.6756 33.031 10.5572 33.031 11.6446V15.1687C33.031 15.3282 32.9676 15.4811 32.8549 15.5939C32.7421 15.7066 32.5892 15.77 32.4297 15.77H28.9611C27.9009 15.77 26.9887 16.5848 26.9388 17.6438C26.8856 18.7745 27.7866 19.708 28.9055 19.708H32.4297C32.5892 19.708 32.7421 19.7714 32.8549 19.8841C32.9676 19.9969 33.031 20.1498 33.031 20.3093V23.8334C33.031 24.9208 33.9126 25.8024 35 25.8024C36.0875 25.8024 36.969 24.9208 36.969 23.8334V20.3093C36.969 20.2303 36.9846 20.1522 37.0148 20.0792C37.045 20.0063 37.0893 19.94 37.1452 19.8841C37.201 19.8283 37.2673 19.784 37.3402 19.7538C37.4132 19.7236 37.4914 19.708 37.5703 19.708H41.0944C42.2134 19.708 43.1143 18.7746 43.0611 17.6438C43.0113 16.5848 42.099 15.7701 41.0389 15.7701Z" stroke="#345766" stroke-width="2" stroke-miterlimit="10" stroke-linecap="round" stroke-linejoin="round"/>
<path d="M28.7246 7.88142C30.5374 6.72505 32.6904 6.05499 35 6.05499C41.453 6.05499 46.6841 11.2861 46.6841 17.7391C46.6841 24.1921 41.453 29.4231 35 29.4231C28.547 29.4231 23.3159 24.192 23.3159 17.739C23.3159 15.3252 24.0477 13.0825 25.3017 11.2205" stroke="#345766" stroke-width="2" stroke-miterlimit="10" stroke-linecap="round" stroke-linejoin="round"/>
</svg>
