<svg width="100" height="100" viewBox="0 0 100 100" fill="none" xmlns="http://www.w3.org/2000/svg">
<path d="M39.7124 62.7727L40.3336 59.5758C42.273 59.0152 44.1518 58.2424 45.9093 57.2576L48.6063 59.0758C49.1821 59.4697 49.9396 59.394 50.4396 58.894L58.2275 51.1061C58.7124 50.6212 58.7881 49.8485 58.4093 49.2727L56.5911 46.5758C57.576 44.803 58.3487 42.9394 58.9093 41L62.0911 40.3788C62.773 40.2424 63.2578 39.6515 63.2578 38.9546V27.9394C63.2578 27.2576 62.773 26.6515 62.0911 26.5152L58.8942 25.8788C58.3336 23.9243 57.5457 22.0606 56.576 20.2879L58.3942 17.5909C58.773 17.0152 58.7124 16.2576 58.2124 15.7576L50.4548 7.96971C50.2161 7.73421 49.9039 7.58768 49.5703 7.55459C49.2366 7.5215 48.9017 7.60385 48.6215 7.78789L45.9245 9.60607C44.1593 8.62543 42.2888 7.84775 40.3487 7.28789L39.7275 4.10607C39.6627 3.77638 39.4851 3.47957 39.2252 3.26666C38.9652 3.05374 38.6393 2.93803 38.3033 2.9394H27.273C26.576 2.9394 25.9851 3.42425 25.8487 4.10607L25.2275 7.28789C23.2881 7.8485 21.4093 8.62122 19.6518 9.60607L16.9548 7.78789C16.6756 7.60078 16.34 7.5166 16.0055 7.54977C15.671 7.58294 15.3585 7.7314 15.1214 7.96971L7.30327 15.7576C6.81842 16.2424 6.74266 17.0152 7.12145 17.5909L8.93963 20.2879C7.95478 22.0606 7.18206 23.9243 6.62145 25.8788L3.42448 26.5152C2.74266 26.6515 2.25781 27.2424 2.25781 27.9394V38.9546C2.25781 39.6515 2.74266 40.2424 3.42448 40.3788L6.6063 41C7.1669 42.9394 7.93963 44.8182 8.92448 46.5758L7.1063 49.2727C6.72751 49.8485 6.78812 50.6061 7.28812 51.1061L15.076 58.894C15.5608 59.3788 16.3336 59.4546 16.9093 59.0758L19.6063 57.2576C21.379 58.2424 23.2427 59.0152 25.1821 59.5758L25.8033 62.7727C25.9396 63.4546 26.5305 63.9394 27.2275 63.9394H38.2578C38.9851 63.9394 39.576 63.4546 39.7124 62.7727ZM37.6821 58.1515L37.1063 61.0606H28.4548L27.879 58.1515C27.8274 57.883 27.7002 57.6348 27.5123 57.4362C27.3244 57.2375 27.0837 57.0967 26.8184 57.0303C24.5305 56.4546 22.3336 55.5455 20.3184 54.3333C20.0836 54.1919 19.813 54.1209 19.539 54.129C19.265 54.137 18.9991 54.2238 18.773 54.3788L16.3184 56.0303L10.2124 49.9243L11.8639 47.4697C12.1821 47 12.1972 46.394 11.9093 45.9243C10.6972 43.894 9.78812 41.7121 9.21236 39.4243C9.14595 39.159 9.00514 38.9183 8.8065 38.7304C8.60786 38.5425 8.35967 38.4152 8.09115 38.3636L5.18206 37.7879V29.1515L8.09115 28.5758C8.6366 28.4697 9.076 28.0606 9.21236 27.5152C9.78812 25.2273 10.6972 23.0303 11.9093 21.0152C12.1972 20.5303 12.1821 19.9243 11.8639 19.4697L10.1972 16.9697L16.3033 10.8636L18.773 12.5152C19.2427 12.8333 19.8336 12.8485 20.3184 12.5606C22.3336 11.3485 24.5154 10.4394 26.8184 9.86365C27.3639 9.72728 27.773 9.28789 27.879 8.74243L28.4548 5.83334H37.1063L37.6821 8.74243C37.7881 9.28789 38.1972 9.72728 38.7427 9.86365C41.0305 10.4394 43.2275 11.3485 45.2427 12.5606C45.7275 12.8485 46.3184 12.8333 46.7881 12.5152L49.2578 10.8636L55.3639 16.9697L53.7124 19.4394C53.3942 19.9091 53.379 20.5152 53.6669 20.9849C54.879 23 55.7881 25.1818 56.3639 27.4849C56.5002 28.0303 56.9396 28.4394 57.4851 28.5455L60.3942 29.1212V37.7576L57.4851 38.3333C56.9396 38.4394 56.5002 38.8636 56.3639 39.394C55.7881 41.6818 54.879 43.8636 53.6669 45.894C53.379 46.3788 53.3942 46.9849 53.7124 47.4394L55.3639 49.9091L49.2578 56.0152L46.8033 54.3637C46.5772 54.2086 46.3113 54.1219 46.0372 54.1138C45.7632 54.1058 45.4926 54.1767 45.2578 54.3182C43.2427 55.5303 41.0608 56.4394 38.7578 57.0152C38.4897 57.084 38.2464 57.2272 38.0561 57.4283C37.8658 57.6293 37.7361 57.88 37.6821 58.1515Z" fill="white"/>
<path d="M52.4857 33.4394C52.4857 22.5758 43.6373 13.7273 32.7736 13.7273C21.91 13.7273 13.0918 22.5758 13.0918 33.4394C13.0918 44.3031 21.9251 53.1212 32.7736 53.1212C43.6373 53.1364 52.4857 44.3031 52.4857 33.4394ZM32.7736 50.2424C23.516 50.2424 15.9706 42.7121 15.9706 33.4394C15.9706 24.1667 23.5009 16.6212 32.7736 16.6212C42.0463 16.6212 49.5918 24.1667 49.5918 33.4394C49.5918 42.7121 42.0463 50.2424 32.7736 50.2424ZM97.0009 41.197C96.9286 40.9612 96.7952 40.7486 96.6143 40.581C96.4333 40.4134 96.2113 40.2966 95.9706 40.2424C95.7298 40.1846 95.4783 40.189 95.2397 40.2552C95.0011 40.3215 94.7834 40.4475 94.607 40.6212L89.2433 45.9849L84.6373 43.8182L82.4706 39.2121L87.8342 33.8485C88.1827 33.5 88.3342 32.9697 88.213 32.4849C88.0918 32 87.7282 31.6061 87.2585 31.4546C84.6174 30.5987 81.7909 30.4911 79.0923 31.1437C76.3938 31.7963 73.9288 33.1835 71.9706 35.1515C68.0918 39.0303 66.6373 44.5758 68.0918 49.8031L50.4554 67.4243C47.8889 66.7101 45.1784 66.693 42.6031 67.3747C40.0278 68.0565 37.6808 69.4125 35.8039 71.3031C33.8359 73.2613 32.4487 75.7263 31.7961 78.4248C31.1435 81.1233 31.2511 83.9498 32.1069 86.5909C32.2585 87.0758 32.6524 87.4394 33.1373 87.5606C33.6221 87.6818 34.1373 87.5303 34.5009 87.1818L39.8645 81.8182L44.4706 83.9849L46.6373 88.5909L41.2736 93.9394C41.0997 94.1154 40.9738 94.3331 40.9081 94.5717C40.8423 94.8103 40.839 95.0617 40.8983 95.302C40.9576 95.5422 41.0776 95.7632 41.2467 95.9438C41.4159 96.1244 41.6286 96.2585 41.8645 96.3334C43.3948 96.8182 44.9554 97.0606 46.5009 97.0606C50.4403 97.0606 54.2585 95.5152 57.1524 92.6364C58.9509 90.8354 60.2649 88.6088 60.9722 86.1638C61.6795 83.7188 61.7571 81.1346 61.1979 78.6515L79.3191 60.5303C84.3342 61.6667 89.6373 60.1515 93.3039 56.4849C95.272 54.5267 96.6592 52.0616 97.3118 49.3631C97.9643 46.6646 97.8567 43.8381 97.0009 41.197ZM91.2585 54.4394C89.7185 55.9776 87.7956 57.0766 85.6885 57.6226C83.5815 58.1687 81.3669 58.1421 79.2736 57.5455C78.7736 57.394 78.2282 57.5455 77.8494 57.9091L58.5615 77.197C58.1827 77.5758 58.0463 78.1061 58.1979 78.6212C59.4251 82.8788 58.2282 87.4697 55.0918 90.6061C53.8096 91.8934 52.2555 92.8773 50.5434 93.4856C48.8314 94.0939 47.0048 94.311 45.1979 94.1212L49.41 89.9091C49.8494 89.4697 49.9554 88.8182 49.6979 88.2727L46.8645 82.2879C46.7185 81.9829 46.4726 81.7369 46.1676 81.5909L40.1827 78.7576C39.6221 78.5 38.9706 78.6061 38.5463 79.0455L34.3342 83.2576C33.9403 79.6364 35.1979 76 37.8494 73.3637C41.1676 70.0455 45.9706 68.9243 50.3948 70.4394C50.91 70.6212 51.5009 70.4849 51.8797 70.0909L70.7282 51.2424C71.1221 50.8485 71.2585 50.2728 71.0767 49.7576C69.5615 45.3334 70.6827 40.5303 74.0009 37.2121C75.2832 35.9205 76.8396 34.934 78.5549 34.3255C80.2702 33.717 82.1004 33.5022 83.91 33.697L79.6979 37.9091C79.2585 38.3485 79.1524 39 79.41 39.5455L82.2433 45.5303C82.3797 45.8334 82.6373 46.0758 82.9403 46.2273L88.9251 49.0606C89.4857 49.3182 90.1373 49.2121 90.5615 48.7727L94.7736 44.5606C94.9646 46.3654 94.7479 48.19 94.1395 49.8998C93.5311 51.6096 92.5466 53.161 91.2585 54.4394Z" fill="white"/>
<path d="M40.318 29.3788H37.4998L40.6513 22.0303C40.8483 21.5909 40.8029 21.0757 40.5301 20.6667C40.2574 20.2576 39.8029 20.0151 39.318 20.0151H31.3332C30.7725 20.0151 30.2725 20.3333 30.0301 20.8485L23.7271 34.1363C23.515 34.5909 23.5453 35.106 23.818 35.5303C24.0756 35.9545 24.5453 36.197 25.0453 36.197H27.7877L25.6665 45.8333C25.5301 46.4848 25.8332 47.1363 26.4241 47.4394C26.7121 47.5825 27.0395 47.626 27.3548 47.5629C27.6702 47.4998 27.9557 47.3338 28.1665 47.0909L41.3938 31.7727C41.7574 31.3485 41.8483 30.7424 41.621 30.2273C41.3938 29.7121 40.8786 29.3788 40.318 29.3788ZM29.7271 40.8788L30.9998 35.0606C31.0449 34.8499 31.0425 34.6317 30.9927 34.422C30.9429 34.2124 30.847 34.0164 30.7119 33.8485C30.5792 33.6779 30.4091 33.54 30.2147 33.4455C30.0204 33.3509 29.8069 33.3022 29.5907 33.303H27.3332L32.2725 22.9091H37.1362L33.9847 30.2576C33.7877 30.697 33.8332 31.2121 34.1059 31.6212C34.3786 32.0303 34.8332 32.2727 35.318 32.2727H37.1665L29.7271 40.8788Z" fill="white"/>
</svg>
