<svg width="94" height="94" viewBox="0 0 94 94" fill="none" xmlns="http://www.w3.org/2000/svg">
<g filter="url(#filter0_d_15811_30843)">
<rect x="10" width="74" height="74" rx="37" fill="white"/>
</g>

<!-- Quote/Document Icon -->
<mask id="mask0_15811_30843" style="mask-type:luminance" maskUnits="userSpaceOnUse" x="24" y="14" width="46" height="46">
<path d="M26 16H67.9998V57.9998H26V16Z" fill="white" stroke="white" stroke-width="2.5"/>
</mask>
<g mask="url(#mask0_15811_30843)">
  <!-- Document Rectangle -->
  <rect x="32" y="22" width="30" height="38" rx="2.5" fill="none" stroke="url(#paint_document)" stroke-width="2.5" stroke-linejoin="round"/>
  
  <!-- Document Lines -->
  <line x1="37" y1="30" x2="52" y2="30" stroke="url(#paint_line1)" stroke-width="2.5" stroke-linecap="round"/>
  <line x1="37" y1="37" x2="57" y2="37" stroke="url(#paint_line2)" stroke-width="2.5" stroke-linecap="round"/>
  <line x1="37" y1="44" x2="50" y2="44" stroke="url(#paint_line3)" stroke-width="2.5" stroke-linecap="round"/>
  <line x1="37" y1="51" x2="55" y2="51" stroke="url(#paint_line4)" stroke-width="2.5" stroke-linecap="round"/>
  
  <!-- Pencil -->
  <g transform="translate(56, 52) rotate(45)">
    <!-- Pencil body -->
    <rect x="0" y="0" width="18" height="6" rx="1" fill="url(#paint_pencil)"/>
    <!-- Pencil tip -->
    <polygon points="0,0 0,6 -5,3" fill="url(#paint_pencil_tip)"/>
    <!-- Pencil eraser -->
    <rect x="15" y="0.8" width="4" height="4.4" rx="1" fill="#87CEEB"/>
    <!-- Eraser band -->
    <rect x="14" y="0.8" width="1.5" height="4.4" fill="url(#paint_band)"/>
  </g>
</g>

<defs>
<filter id="filter0_d_15811_30843" x="0" y="0" width="94" height="94" filterUnits="userSpaceOnUse" color-interpolation-filters="sRGB">
<feFlood flood-opacity="0" result="BackgroundImageFix"/>
<feColorMatrix in="SourceAlpha" type="matrix" values="0 0 0 0 0 0 0 0 0 0 0 0 0 0 0 0 0 0 127 0" result="hardAlpha"/>
<feOffset dy="10"/>
<feGaussianBlur stdDeviation="5"/>
<feComposite in2="hardAlpha" operator="out"/>
<feColorMatrix type="matrix" values="0 0 0 0 0 0 0 0 0 0 0 0 0 0 0 0 0 0 0.1 0"/>
<feBlend mode="normal" in2="BackgroundImageFix" result="effect1_dropShadow_15811_30843"/>
<feBlend mode="normal" in="SourceGraphic" in2="effect1_dropShadow_15811_30843" result="shape"/>
</filter>

<linearGradient id="paint_document" x1="47" y1="20" x2="47" y2="62" gradientUnits="userSpaceOnUse">
<stop stop-color="#00D4FF"/>
<stop offset="1" stop-color="#00A3E0"/>
</linearGradient>

<linearGradient id="paint_line1" x1="44.5" y1="29" x2="44.5" y2="31" gradientUnits="userSpaceOnUse">
<stop stop-color="#00D4FF"/>
<stop offset="1" stop-color="#00A3E0"/>
</linearGradient>

<linearGradient id="paint_line2" x1="47" y1="36" x2="47" y2="38" gradientUnits="userSpaceOnUse">
<stop stop-color="#00D4FF"/>
<stop offset="1" stop-color="#00A3E0"/>
</linearGradient>

<linearGradient id="paint_line3" x1="43.5" y1="43" x2="43.5" y2="45" gradientUnits="userSpaceOnUse">
<stop stop-color="#00D4FF"/>
<stop offset="1" stop-color="#00A3E0"/>
</linearGradient>

<linearGradient id="paint_line4" x1="46" y1="50" x2="46" y2="52" gradientUnits="userSpaceOnUse">
<stop stop-color="#00D4FF"/>
<stop offset="1" stop-color="#00A3E0"/>
</linearGradient>

<linearGradient id="paint_pencil" x1="9" y1="0" x2="9" y2="6" gradientUnits="userSpaceOnUse">
<stop stop-color="#00D4FF"/>
<stop offset="1" stop-color="#00A3E0"/>
</linearGradient>

<linearGradient id="paint_pencil_tip" x1="-2.5" y1="0" x2="-2.5" y2="6" gradientUnits="userSpaceOnUse">
<stop stop-color="#00D4FF"/>
<stop offset="1" stop-color="#00A3E0"/>
</linearGradient>

<linearGradient id="paint_band" x1="14.75" y1="0.8" x2="14.75" y2="5.2" gradientUnits="userSpaceOnUse">
<stop stop-color="#00D4FF"/>
<stop offset="1" stop-color="#00A3E0"/>
</linearGradient>
</defs>
</svg>