<svg width="100" height="100" viewBox="0 0 100 100" fill="none" xmlns="http://www.w3.org/2000/svg">
<g clip-path="url(#clip0_31_1872)">
<path d="M63.4996 66.82C64.2921 66.5917 64.9983 66.1321 65.528 65.5L65.5396 65.4833C65.8993 65.059 66.1711 64.5676 66.3393 64.0374C66.5075 63.5073 66.5688 62.949 66.5196 62.395C66.288 59.855 65.2413 51.2567 61.5196 47.1633C58.978 44.3617 55.4596 43.3683 48.4546 41.3883L47.408 41.0917C44.861 40.5093 42.5073 39.2797 40.5746 37.5217L40.5613 37.5083C40.2328 37.1797 39.8225 36.9448 39.3728 36.828C38.923 36.7113 38.4503 36.7168 38.0034 36.8441C37.5565 36.9714 37.1518 37.2159 36.8312 37.5521C36.5105 37.8884 36.2856 38.3043 36.1796 38.7567C35.203 42.9583 33.4263 53.5117 37.9796 60.7317C41.7046 66.6383 47.693 68.3467 53.3696 68.3467C56.7997 68.2968 60.2072 67.7832 63.4996 66.82ZM40.798 58.95C37.278 53.37 38.2863 45.0567 39.1596 40.7283C41.3364 42.4074 43.8346 43.6219 46.4996 44.2967L47.5463 44.5917C54.1396 46.455 57.1496 47.305 59.0463 49.4017C61.123 51.69 62.3963 56.61 62.968 60.7967C54.5346 53.2617 48.9846 51.7817 48.7313 51.7167C48.5191 51.6627 48.2983 51.6511 48.0817 51.6824C47.865 51.7138 47.6566 51.7875 47.4684 51.8994C47.0883 52.1254 46.8136 52.4931 46.7046 52.9217C46.6507 53.1339 46.639 53.3546 46.6704 53.5713C46.7018 53.788 46.7755 53.9964 46.8874 54.1846C46.9993 54.3728 47.1471 54.5371 47.3225 54.6681C47.4979 54.7992 47.6974 54.8944 47.9096 54.9483C47.9663 54.9617 53.3046 56.435 61.4546 63.9133C55.333 65.4617 45.533 66.4633 40.798 58.95Z" fill="white"/>
<path d="M74.9144 57.975L87.066 76.6317H71.666V74.2417C71.6763 73.4057 71.4386 72.5855 70.9829 71.8845C70.5273 71.1835 69.8742 70.6333 69.106 70.3033C68.3593 69.971 67.5307 69.8677 66.7252 70.0065C65.9196 70.1454 65.1734 70.5201 64.581 71.0833L53.0327 81.8167C52.6016 82.2219 52.258 82.7111 52.0232 83.2541C51.7884 83.7971 51.6672 84.3825 51.6672 84.9742C51.6672 85.5658 51.7884 86.1512 52.0232 86.6942C52.258 87.2373 52.6016 87.7265 53.0327 88.1317L64.5827 98.865C65.3503 99.5901 66.3651 99.9959 67.421 100C67.9816 99.9969 68.536 99.8835 69.0527 99.6662C69.5694 99.4488 70.0382 99.1319 70.4324 98.7333C70.8266 98.3348 71.1384 97.8626 71.3501 97.3435C71.5618 96.8245 71.6691 96.2689 71.666 95.7083V93.26L79.956 92.9667C83.6422 92.8283 87.2255 91.7136 90.3398 89.7367C93.454 87.7597 95.9875 84.9914 97.6814 81.7145C99.3752 78.4377 100.169 74.7699 99.9806 71.0859C99.7926 67.402 98.6298 63.834 96.611 60.7467L88.8794 48.8667C88.5221 48.3135 88.0591 47.8364 87.5169 47.4627C86.9747 47.089 86.3641 46.8261 85.72 46.689C85.0759 46.552 84.4111 46.5435 83.7638 46.6641C83.1164 46.7847 82.4992 47.0319 81.9477 47.3917L76.366 51.045C75.2602 51.7762 74.4875 52.9141 74.2157 54.2116C73.9439 55.5091 74.195 56.8615 74.9144 57.975ZM88.4777 84.9067C88.1036 85.8062 87.5483 86.619 86.8463 87.2946C86.1444 87.9701 85.3109 88.4939 84.3977 88.8333C84.3827 88.8333 84.3744 88.85 84.361 88.855C82.9054 89.3561 81.3787 89.62 79.8394 89.6367L69.941 89.9867C69.5092 90.0018 69.1001 90.184 68.8001 90.495C68.5 90.8059 68.3324 91.2212 68.3327 91.6533V95.71C68.3402 95.8965 68.2909 96.0809 68.1911 96.2386C68.0914 96.3964 67.9461 96.5201 67.7744 96.5933C67.6219 96.6644 67.4511 96.6866 67.2854 96.6568C67.1198 96.6269 66.9675 96.5465 66.8494 96.4267L55.2994 85.6917C55.2031 85.5993 55.1266 85.4884 55.0743 85.3657C55.022 85.2429 54.995 85.1109 54.995 84.9775C54.995 84.8441 55.022 84.7121 55.0743 84.5893C55.1266 84.4666 55.2031 84.3557 55.2994 84.2633L66.8477 73.5283C66.9656 73.408 67.1179 73.3273 67.2836 73.2975C67.4494 73.2676 67.6203 73.29 67.7727 73.3617C67.9445 73.4347 68.09 73.5584 68.1898 73.7162C68.2895 73.874 68.3388 74.0585 68.331 74.245V78.3017C68.331 78.7437 68.5066 79.1676 68.8192 79.4802C69.1318 79.7927 69.5557 79.9683 69.9977 79.9683H88.7827C89.2401 81.6018 89.1326 83.3419 88.4777 84.9067ZM78.191 53.8333L83.771 50.1767C84.0389 50.0026 84.3516 49.91 84.671 49.91C84.7909 49.9105 84.9105 49.9233 85.0277 49.9483C85.2428 49.9938 85.4468 50.0816 85.6276 50.2066C85.8084 50.3316 85.9626 50.4914 86.081 50.6767L93.8144 62.5633C95.598 65.2872 96.5856 68.4551 96.666 71.71C96.7345 74.9677 95.9059 78.1814 94.271 81C93.6931 81.9917 93.0188 82.924 92.2577 83.7833C92.6146 81.7096 92.3604 79.5768 91.526 77.645C91.2831 77.0856 90.9926 76.5481 90.6577 76.0383L77.7127 56.1667C77.4678 55.7935 77.3807 55.3385 77.4703 54.9013C77.5599 54.464 77.8191 54.08 78.191 53.8333ZM26.4644 30.305L32.3427 33.4367C33.0603 33.8215 33.8618 34.023 34.676 34.0233C35.5866 34.0215 36.4798 33.7739 37.2613 33.3066C38.0428 32.8393 38.6836 32.1696 39.116 31.3683L49.576 11.7633L56.9994 25.25L54.911 26.4C54.1745 26.7931 53.5709 27.3957 53.1767 28.1317C52.7824 28.8677 52.6152 29.704 52.696 30.535C52.7658 31.3496 53.075 32.1254 53.5849 32.7645C54.0947 33.4037 54.7823 33.8776 55.561 34.1267L70.5144 39.08C70.9476 39.2239 71.4012 39.297 71.8577 39.2967C72.8183 39.2966 73.7515 38.9763 74.5097 38.3865C75.2679 37.7967 75.8079 36.971 76.0444 36.04L79.8677 20.7583C80.0749 19.9674 80.043 19.1328 79.776 18.3601C79.5091 17.5873 79.019 16.911 78.3677 16.4167C77.7096 15.902 76.9134 15.5944 76.0801 15.533C75.2469 15.4716 74.4142 15.659 73.6877 16.0717L71.5494 17.2467L67.2944 10.125C66.3232 8.51917 65.1435 7.04915 63.786 5.75333C60.0721 2.17835 55.1529 0.125513 49.9994 -3.11435e-06C46.1316 -0.09924 42.3126 0.880554 38.9703 2.82959C35.628 4.77862 32.8945 7.61988 31.076 11.035L24.4194 23.5183C24.1047 24.092 23.9076 24.7227 23.8395 25.3734C23.7714 26.0241 23.8337 26.6819 24.0227 27.3083C24.2096 27.9453 24.5219 28.5385 24.9412 29.053C25.3604 29.5676 25.8783 29.9933 26.4644 30.305ZM61.5077 8.19166C62.6223 9.28609 63.6035 10.5085 64.431 11.8333L69.5094 20.3333C69.7309 20.7037 70.0874 20.9737 70.504 21.0865C70.9205 21.1994 71.3646 21.1462 71.7427 20.9383L75.291 18.9883C75.4504 18.8923 75.6352 18.8469 75.8209 18.8582C76.0066 18.8695 76.1845 18.937 76.331 19.0517C76.4661 19.1519 76.5673 19.291 76.6209 19.4504C76.6746 19.6098 76.6781 19.7819 76.631 19.9433L72.7977 35.2317C72.763 35.3596 72.7028 35.4791 72.6207 35.5832C72.5387 35.6873 72.4365 35.7737 72.3202 35.8374C72.204 35.901 72.0761 35.9405 71.9442 35.9536C71.8123 35.9666 71.6792 35.9529 71.5527 35.9133L56.5944 30.9583C56.4325 30.9117 56.2888 30.8166 56.1827 30.6857C56.0766 30.5549 56.0132 30.3947 56.001 30.2267C55.9828 30.0422 56.0209 29.8566 56.1101 29.6942C56.1993 29.5318 56.3356 29.4002 56.501 29.3167L60.051 27.365C60.2436 27.2603 60.4136 27.1187 60.5514 26.9483C60.6891 26.7778 60.7919 26.5818 60.8538 26.3716C60.9157 26.1614 60.9356 25.941 60.9122 25.7231C60.8889 25.5052 60.8228 25.294 60.7177 25.1017L51.666 8.64C52.878 7.45446 54.4537 6.71124 56.1394 6.53C57.1001 6.42797 58.0716 6.52269 58.9945 6.80837C59.9175 7.09405 60.7726 7.56472 61.5077 8.19166ZM27.3527 25.1033L34.0194 12.6033C35.5426 9.73051 37.8414 7.34277 40.6544 5.71166C43.3665 4.14302 46.4463 3.32231 49.5794 3.33333H49.9127C51.0589 3.36499 52.1993 3.50845 53.3177 3.76166C51.3221 4.45562 49.5712 5.71442 48.2777 7.385C47.9144 7.86018 47.5947 8.36724 47.3227 8.9L36.181 29.7917C35.9724 30.1842 35.6171 30.4783 35.1925 30.6101C34.768 30.7418 34.3086 30.7005 33.9144 30.495L28.0344 27.365C27.8386 27.261 27.6655 27.119 27.5253 26.9473C27.385 26.7756 27.2805 26.5776 27.2177 26.365C27.1538 26.1565 27.1328 25.9372 27.156 25.7203C27.1792 25.5035 27.2461 25.2936 27.3527 25.1033ZM9.92438 90.2367C13.1898 92.2468 16.9481 93.3135 20.7827 93.3183H34.9994C36.3255 93.3183 37.5972 92.7915 38.5349 91.8539C39.4726 90.9162 39.9994 89.6444 39.9994 88.3183L39.981 81.6517C39.981 80.3256 39.4543 79.0538 38.5166 78.1161C37.5789 77.1784 36.3071 76.6517 34.981 76.6517L12.7727 76.6667L21.1494 63.715L23.1494 65.0083C23.8477 65.4683 24.6656 65.7135 25.5019 65.7135C26.3381 65.7135 27.156 65.4683 27.8544 65.0083C28.5367 64.5628 29.0715 63.9247 29.3907 63.1749C29.71 62.4251 29.7994 61.5974 29.6477 60.7967L26.951 45.2483C26.8496 44.665 26.6292 44.1088 26.3037 43.6143C25.9781 43.1197 25.5544 42.6974 25.0588 42.3735C24.5631 42.0497 24.0062 41.8312 23.4225 41.7317C22.8389 41.6321 22.241 41.6537 21.666 41.795L6.38771 45.65C5.59187 45.8425 4.87098 46.2667 4.31622 46.869C3.76146 47.4712 3.39774 48.2244 3.27104 49.0333C3.13073 49.8571 3.23776 50.704 3.57861 51.467C3.91946 52.23 4.47884 52.8748 5.18604 53.32L7.22438 54.6533L2.95271 61.7783C2.1168 63.1959 1.44896 64.7061 0.96271 66.2783C-0.676547 71.428 -0.222098 77.0161 2.22771 81.8333C3.96971 85.2903 6.63334 88.1985 9.92438 90.2367ZM34.9827 79.965C35.2023 79.965 35.4197 80.0084 35.6224 80.0927C35.8252 80.1769 36.0093 80.3004 36.1642 80.4561C36.3191 80.6117 36.4416 80.7965 36.5249 80.9996C36.6082 81.2028 36.6505 81.4204 36.6494 81.64L36.666 88.3167C36.666 88.7587 36.4904 89.1826 36.1779 89.4952C35.8653 89.8077 35.4414 89.9833 34.9994 89.9833H20.7894C17.5679 89.9808 14.41 89.0861 11.666 87.3983C7.89571 85.0606 5.14147 81.3914 3.94938 77.1183C5.49928 78.5466 7.43313 79.4904 9.51271 79.8333C10.1069 79.9399 10.7091 79.9956 11.3127 80L34.9827 79.965ZM4.14938 67.265C4.55739 65.9492 5.11668 64.6852 5.81604 63.4983L10.9094 54.9833C11.1304 54.6134 11.1995 54.1722 11.1023 53.7524C11.005 53.3326 10.7489 52.9667 10.3877 52.7317L6.99938 50.5233C6.83796 50.4288 6.70941 50.287 6.63103 50.1172C6.55266 49.9473 6.52823 49.7575 6.56104 49.5733C6.58325 49.4057 6.65715 49.2492 6.77245 49.1255C6.88775 49.0019 7.03873 48.9172 7.20438 48.8833L22.476 45.0267C22.6058 44.9962 22.7404 44.993 22.8715 45.0171C23.0026 45.0411 23.1273 45.0921 23.2377 45.1667C23.3484 45.2367 23.4432 45.329 23.5161 45.4378C23.589 45.5466 23.6384 45.6694 23.661 45.7983L26.361 61.3667C26.3978 61.5284 26.3834 61.6975 26.3198 61.8507C26.2562 62.0039 26.1465 62.1335 26.006 62.2217C25.8508 62.3248 25.6681 62.3789 25.4817 62.3768C25.2954 62.3748 25.1139 62.3166 24.961 62.21L21.5627 60C21.3798 59.8798 21.1747 59.7973 20.9594 59.7576C20.7442 59.7178 20.5232 59.7214 20.3094 59.7683C20.095 59.8141 19.8918 59.9017 19.7113 60.0261C19.5309 60.1505 19.3767 60.3093 19.2577 60.4933L9.05438 76.2717C7.3427 75.7443 5.87681 74.6208 4.92271 73.105C4.37823 72.2458 4.02654 71.2788 3.89188 70.2706C3.75723 69.2624 3.8428 68.2369 4.14271 67.265H4.14938Z" fill="white"/>
</g>
<defs>
<clipPath id="clip0_31_1872">
<rect width="100" height="100" fill="white"/>
</clipPath>
</defs>
</svg>
