<svg width="30" height="30" viewBox="0 0 30 30" fill="none" xmlns="http://www.w3.org/2000/svg">
<rect width="30" height="30" rx="8" fill="#F7F7F7"/>
<path d="M10 5C9.3125 5 8.75 5.5625 8.75 6.25V23.75C8.75 24.4375 9.3125 25 10 25H22.5C23.1875 25 23.75 24.4375 23.75 23.75V10L18.75 5H10Z" fill="#E4E4E4"/>
<path d="M20 10H23.75L18.75 5V8.75C18.75 9.4375 19.3125 10 20 10Z" fill="#A3ABB0"/>
<path opacity="0.3" d="M23.75 13.75L20 10H23.75V13.75Z" fill="#A3ABB0"/>
<path d="M21 21.375C21 21.7188 20.7188 22 20.375 22H6.625C6.28125 22 6 21.7188 6 21.375V15.125C6 14.7812 6.28125 14.5 6.625 14.5H20.375C20.7188 14.5 21 14.7812 21 15.125V21.375Z" fill="#50BEE8"/>
<path d="M7.85 20V16.4H9.3375C9.3725 16.4 9.4175 16.4017 9.4725 16.405C9.5275 16.4067 9.57833 16.4117 9.625 16.42C9.83333 16.4517 10.005 16.5208 10.14 16.6275C10.2767 16.7342 10.3775 16.8692 10.4425 17.0325C10.5092 17.1942 10.5425 17.3742 10.5425 17.5725C10.5425 17.8658 10.4683 18.1183 10.32 18.33C10.1717 18.54 9.94417 18.67 9.6375 18.72L9.38 18.7425H8.4525V20H7.85ZM9.9175 20L9.2075 18.535L9.82 18.4L10.6 20H9.9175ZM8.4525 18.18H9.3125C9.34583 18.18 9.38333 18.1783 9.425 18.175C9.46667 18.1717 9.505 18.165 9.54 18.155C9.64 18.13 9.71833 18.0858 9.775 18.0225C9.83333 17.9592 9.87417 17.8875 9.8975 17.8075C9.9225 17.7275 9.935 17.6492 9.935 17.5725C9.935 17.4958 9.9225 17.4175 9.8975 17.3375C9.87417 17.2558 9.83333 17.1833 9.775 17.12C9.71833 17.0567 9.64 17.0125 9.54 16.9875C9.505 16.9775 9.46667 16.9717 9.425 16.97C9.38333 16.9667 9.34583 16.965 9.3125 16.965H8.4525V18.18ZM11.9608 20L10.8258 16.4H11.4458L12.3958 19.415L13.3583 16.4H13.9783L12.8433 20H11.9608ZM15.2189 20V16.965H14.0539V16.4H16.9864V16.965H15.8214V20H15.2189Z" fill="white"/>
<path opacity="0.3" d="M20.625 21.875H8.75V22.5H20.625C20.9688 22.5 21.25 22.2188 21.25 21.875V21.25C21.25 21.5938 20.9688 21.875 20.625 21.875Z" fill="#A3ABB0"/>
</svg>
