<svg width="100" height="100" viewBox="0 0 100 100" fill="none" xmlns="http://www.w3.org/2000/svg">
<path d="M86.7813 11.0703H13.2188C10.5426 11.0732 7.97691 12.1376 6.08459 14.0299C4.19227 15.9222 3.1279 18.4879 3.125 21.1641V64.7578C3.1279 67.434 4.19227 69.9997 6.08459 71.892C7.97691 73.7843 10.5426 74.8487 13.2188 74.8516H59.0469V87.3672C59.0469 87.6628 59.1307 87.9523 59.2886 88.2021C59.4466 88.452 59.6721 88.6519 59.9391 88.7787C60.2061 88.9055 60.5036 88.9539 60.797 88.9184C61.0905 88.8829 61.3678 88.7649 61.5969 88.5781L69.5156 82.1188L77.4328 88.5781C77.6622 88.7636 77.9394 88.8805 78.2324 88.9154C78.5254 88.9502 78.8223 88.9015 79.0888 88.7749C79.3553 88.6484 79.5807 88.4491 79.7388 88.2C79.897 87.9509 79.9816 87.6622 79.9828 87.3672V74.8516H86.7813C89.4574 74.8487 92.0231 73.7843 93.9154 71.892C95.8077 69.9997 96.8721 67.434 96.875 64.7578V21.1641C96.8721 18.4879 95.8077 15.9222 93.9154 14.0299C92.0231 12.1376 89.4574 11.0732 86.7813 11.0703ZM77.4984 64.0594C75.1703 65.7625 72.4094 66.6641 69.5172 66.6641C66.625 66.6641 63.8625 65.7625 61.5297 64.0562C59.8075 62.799 58.4065 61.1531 57.4404 59.2523C56.4744 57.3514 55.9707 55.2494 55.9703 53.1172C55.9703 45.6469 62.0484 39.5703 69.5172 39.5703C76.9859 39.5703 83.0641 45.6469 83.0641 53.1172C83.0632 55.2504 82.5587 57.3533 81.5915 59.2547C80.6244 61.1562 79.222 62.8024 77.4984 64.0594ZM76.8594 84.0766L70.5047 78.8922C70.2258 78.6648 69.877 78.5406 69.5172 78.5406C69.1574 78.5406 68.8085 78.6648 68.5297 78.8922L62.1734 84.0766V68.0891C62.2422 68.1234 62.3156 68.1453 62.3844 68.1781C62.8406 68.3953 63.3047 68.5891 63.7766 68.7625C63.8531 68.7906 63.9281 68.8203 64.0047 68.8469C67.5743 70.1021 71.4655 70.101 75.0344 68.8438C75.1031 68.8203 75.1719 68.7922 75.2406 68.7672C75.7219 68.5906 76.1938 68.3938 76.6578 68.1719C76.7234 68.1406 76.7937 68.1188 76.8594 68.0875V84.0766ZM93.7516 64.7578C93.7495 66.6054 93.0146 68.3767 91.7082 69.6832C90.4017 70.9896 88.6304 71.7245 86.7828 71.7266H79.9844V66.0563C81.9163 64.4975 83.4758 62.5272 84.5493 60.2889C85.6227 58.0507 86.1829 55.6011 86.1891 53.1187C86.1891 43.9266 78.7109 36.4469 69.5172 36.4469C60.3234 36.4469 52.8453 43.9266 52.8453 53.1187C52.8453 58.1594 55.1641 62.9234 59.0484 66.0578V71.7281H13.2188C9.37656 71.7281 6.25 68.6031 6.25 64.7594V21.1641C6.25207 19.3165 6.98694 17.5451 8.29338 16.2387C9.59983 14.9322 11.3712 14.1974 13.2188 14.1953H86.7813C90.6234 14.1953 93.75 17.3203 93.75 21.1641L93.7516 64.7578Z" fill="white"/>
<path d="M35.6191 21.9248H19.1238C17.7161 21.926 16.3663 22.4858 15.3709 23.4813C14.3755 24.4767 13.8157 25.8264 13.8145 27.2342V55.0811C13.8157 56.4888 14.3755 57.8385 15.3709 58.834C16.3663 59.8294 17.7161 60.3892 19.1238 60.3904H35.6191C37.0266 60.3888 38.376 59.8288 39.3711 58.8334C40.3662 57.838 40.9257 56.4885 40.927 55.0811V27.2342C40.9257 25.8267 40.3662 24.4772 39.3711 23.4818C38.376 22.4864 37.0266 21.9265 35.6191 21.9248ZM37.802 55.0811C37.8011 55.6599 37.5709 56.2148 37.1618 56.6242C36.7527 57.0336 36.1979 57.2642 35.6191 57.2654H19.1238C18.5448 57.2646 17.9896 57.0342 17.5802 56.6247C17.1707 56.2153 16.9403 55.6601 16.9395 55.0811V27.2342C16.9403 26.6551 17.1707 26.1 17.5802 25.6905C17.9896 25.281 18.5448 25.0506 19.1238 25.0498H35.6191C36.8238 25.0498 37.802 26.0295 37.802 27.2342V55.0811ZM84.6254 23.117H60.8441C60.4297 23.117 60.0323 23.2816 59.7393 23.5746C59.4463 23.8677 59.2816 24.2651 59.2816 24.6795C59.2816 25.0939 59.4463 25.4913 59.7393 25.7843C60.0323 26.0774 60.4297 26.242 60.8441 26.242H84.6254C85.0398 26.242 85.4372 26.0774 85.7302 25.7843C86.0233 25.4913 86.1879 25.0939 86.1879 24.6795C86.1879 24.2651 86.0233 23.8677 85.7302 23.5746C85.4372 23.2816 85.0398 23.117 84.6254 23.117ZM48.266 26.242H53.377C53.7914 26.242 54.1888 26.0774 54.4818 25.7843C54.7748 25.4913 54.9395 25.0939 54.9395 24.6795C54.9395 24.2651 54.7748 23.8677 54.4818 23.5746C54.1888 23.2816 53.7914 23.117 53.377 23.117H48.266C47.8516 23.117 47.4542 23.2816 47.1612 23.5746C46.8681 23.8677 46.7035 24.2651 46.7035 24.6795C46.7035 25.0939 46.8681 25.4913 47.1612 25.7843C47.4542 26.0774 47.8516 26.242 48.266 26.242ZM84.6254 30.1576H79.9848C79.5704 30.1576 79.1729 30.3222 78.8799 30.6153C78.5869 30.9083 78.4223 31.3057 78.4223 31.7201C78.4223 32.1345 78.5869 32.5319 78.8799 32.825C79.1729 33.118 79.5704 33.2826 79.9848 33.2826H84.6254C85.0398 33.2826 85.4372 33.118 85.7302 32.825C86.0233 32.5319 86.1879 32.1345 86.1879 31.7201C86.1879 31.3057 86.0233 30.9083 85.7302 30.6153C85.4372 30.3222 85.0398 30.1576 84.6254 30.1576ZM72.5316 30.1576H48.266C47.8516 30.1576 47.4542 30.3222 47.1612 30.6153C46.8681 30.9083 46.7035 31.3057 46.7035 31.7201C46.7035 32.1345 46.8681 32.5319 47.1612 32.825C47.4542 33.118 47.8516 33.2826 48.266 33.2826H72.5316C72.946 33.2826 73.3435 33.118 73.6365 32.825C73.9295 32.5319 74.0941 32.1345 74.0941 31.7201C74.0941 31.3057 73.9295 30.9083 73.6365 30.6153C73.3435 30.3222 72.946 30.1576 72.5316 30.1576ZM69.516 44.0295C67.1068 44.0324 64.797 44.9907 63.0934 46.6944C61.3898 48.398 60.4314 50.7077 60.4285 53.117C60.4285 56.0154 61.8254 58.7607 64.1582 60.4561C65.7223 61.5998 67.5754 62.2045 69.5176 62.2045C71.4598 62.2045 73.3129 61.5998 74.8723 60.4592C76.0281 59.6152 76.9685 58.5104 77.6171 57.2347C78.2657 55.9589 78.6042 54.5482 78.6051 53.117C78.6026 50.7079 77.6446 48.3981 75.9412 46.6945C74.2379 44.9908 71.9283 44.0324 69.5191 44.0295H69.516ZM73.0285 57.9342C70.9801 59.4342 68.0551 59.4373 65.9988 57.9311C64.9829 57.189 64.2278 56.1446 63.8414 54.9473C63.4551 53.75 63.4573 52.4612 63.8479 51.2652C64.2385 50.0693 64.9973 49.0276 66.0158 48.2891C67.0344 47.5506 68.2604 47.1532 69.5185 47.1538C70.7765 47.1543 72.0022 47.5528 73.0201 48.2922C74.038 49.0316 74.7959 50.074 75.1854 51.2703C75.5749 52.4666 75.576 53.7554 75.1886 54.9523C74.8012 56.1493 74.0451 57.193 73.0285 57.9342Z" fill="white"/>
</svg>
