<svg width="40" height="40" viewBox="0 0 40 40" fill="none" xmlns="http://www.w3.org/2000/svg">
<path d="M10 0C8.625 0 7.5 1.125 7.5 2.5V37.5C7.5 38.875 8.625 40 10 40H35C36.375 40 37.5 38.875 37.5 37.5V10L27.5 0H10Z" fill="#E4E4E4"/>
<path d="M30 10H37.5L27.5 0V7.5C27.5 8.875 28.625 10 30 10Z" fill="#A3ABB0"/>
<path opacity="0.3" d="M37.5 17.5L30 10H37.5V17.5Z" fill="#A3ABB0"/>
<path d="M33 32.75C33 33.4375 32.4375 34 31.75 34H4.25C3.5625 34 3 33.4375 3 32.75V20.25C3 19.5625 3.5625 19 4.25 19H31.75C32.4375 19 33 19.5625 33 20.25V32.75Z" fill="url(#paint0_linear_16002_16559)" fill-opacity="0.9"/>
<path d="M6.08 30L8.032 27.088L6.136 24.24H7.316L8.628 26.268L9.928 24.24H11.116L9.22 27.088L11.164 30H9.984L8.628 27.908L7.268 30H6.08ZM11.8822 30V24.24H12.8462V29.096H15.3902V30H11.8822ZM18.1998 30.12C17.7785 30.12 17.3985 30.0467 17.0598 29.9C16.7238 29.7533 16.4465 29.544 16.2278 29.272C16.0118 28.9973 15.8745 28.672 15.8158 28.296L16.8158 28.144C16.9011 28.4853 17.0758 28.7493 17.3398 28.936C17.6065 29.1227 17.9131 29.216 18.2598 29.216C18.4651 29.216 18.6585 29.184 18.8398 29.12C19.0211 29.056 19.1678 28.9627 19.2798 28.84C19.3945 28.7173 19.4518 28.5667 19.4518 28.388C19.4518 28.308 19.4385 28.2347 19.4118 28.168C19.3851 28.0987 19.3451 28.0373 19.2918 27.984C19.2411 27.9307 19.1745 27.8827 19.0918 27.84C19.0118 27.7947 18.9185 27.756 18.8118 27.724L17.3238 27.284C17.1958 27.2467 17.0571 27.1973 16.9078 27.136C16.7611 27.072 16.6211 26.9853 16.4878 26.876C16.3571 26.764 16.2491 26.6227 16.1638 26.452C16.0811 26.2787 16.0398 26.0653 16.0398 25.812C16.0398 25.4413 16.1331 25.1307 16.3198 24.88C16.5091 24.6267 16.7625 24.4373 17.0798 24.312C17.3998 24.1867 17.7545 24.1253 18.1438 24.128C18.5385 24.1307 18.8905 24.1987 19.1998 24.332C19.5091 24.4627 19.7678 24.6533 19.9758 24.904C20.1838 25.1547 20.3305 25.4573 20.4158 25.812L19.3798 25.992C19.3371 25.7893 19.2545 25.6173 19.1318 25.476C19.0118 25.332 18.8638 25.2227 18.6878 25.148C18.5145 25.0733 18.3291 25.0333 18.1318 25.028C17.9398 25.0253 17.7611 25.0547 17.5958 25.116C17.4331 25.1747 17.3011 25.26 17.1998 25.372C17.1011 25.484 17.0518 25.6147 17.0518 25.764C17.0518 25.9053 17.0945 26.0213 17.1798 26.112C17.2651 26.2 17.3705 26.2707 17.4958 26.324C17.6238 26.3747 17.7531 26.4173 17.8838 26.452L18.9158 26.74C19.0571 26.7773 19.2158 26.828 19.3918 26.892C19.5678 26.956 19.7371 27.0453 19.8998 27.16C20.0625 27.2747 20.1958 27.4253 20.2998 27.612C20.4065 27.7987 20.4598 28.036 20.4598 28.324C20.4598 28.6227 20.3971 28.8853 20.2718 29.112C20.1491 29.336 19.9825 29.5227 19.7718 29.672C19.5611 29.8213 19.3198 29.9333 19.0478 30.008C18.7785 30.0827 18.4958 30.12 18.1998 30.12Z" fill="white"/>
<path opacity="0.3" d="M31.25 33.75H7.5V35H31.25C31.9375 35 32.5 34.4375 32.5 33.75V32.5C32.5 33.1875 31.9375 33.75 31.25 33.75Z" fill="#A3ABB0"/>
<defs>
<linearGradient id="paint0_linear_16002_16559" x1="16.875" y1="35.875" x2="16.875" y2="18.3952" gradientUnits="userSpaceOnUse">
<stop stop-color="#00D4FF"/>
<stop offset="1" stop-color="#00A3E0"/>
</linearGradient>
</defs>
</svg>
