<svg width="60" height="60" viewBox="0 0 60 60" fill="none" xmlns="http://www.w3.org/2000/svg">
<path d="M55.0231 32.9528H4.97694C3.38956 32.9528 2.09814 31.6614 2.09814 30.074C2.09814 28.4866 3.38945 27.1953 4.97694 27.1953H55.0231C56.6105 27.1953 57.902 28.4867 57.902 30.0741C57.902 31.6615 56.6105 32.9528 55.0231 32.9528ZM4.97694 28.5044C4.11142 28.5044 3.40723 29.2086 3.40723 30.0741C3.40723 30.9396 4.11142 31.6438 4.97694 31.6438H55.0231C55.8887 31.6438 56.5929 30.9396 56.5929 30.0741C56.5929 29.2086 55.8887 28.5044 55.0231 28.5044H4.97694ZM30 24.0558C21.4318 24.0558 12.7377 22.7153 4.1592 20.0717C3.40909 19.8405 2.79545 19.3299 2.43153 18.6337C2.06738 17.9372 1.99811 17.1413 2.23647 16.3926C2.72018 14.8738 4.35458 14.0195 5.88 14.4883C21.8849 19.4063 38.1152 19.4063 54.12 14.4883C55.6459 14.0195 57.2799 14.8738 57.7635 16.3926C58.002 17.1413 57.9327 17.9373 57.5686 18.6337C57.2045 19.3299 56.591 19.8405 55.8408 20.0718C47.2622 22.7154 38.5682 24.0558 30 24.0558ZM5.02396 15.6685C4.33953 15.6685 3.70113 16.1075 3.48393 16.7897C3.41862 16.9927 3.39451 17.2068 3.413 17.4192C3.43149 17.6317 3.49221 17.8384 3.5916 18.0271C3.68968 18.2161 3.8245 18.3837 3.98817 18.5199C4.15183 18.6561 4.34105 18.7583 4.54473 18.8205C12.9982 21.4257 21.5626 22.7466 30 22.7466C38.4374 22.7466 47.0018 21.4257 55.4553 18.8205C55.659 18.7583 55.8482 18.6561 56.0119 18.5198C56.1756 18.3836 56.3104 18.216 56.4085 18.027C56.5079 17.8383 56.5686 17.6316 56.5871 17.4192C56.6056 17.2067 56.5815 16.9927 56.5162 16.7897C56.2492 15.9517 55.3469 15.4809 54.5045 15.7395C38.2444 20.7359 21.7555 20.7359 5.49545 15.7395C5.33891 15.6915 5.18018 15.6685 5.02396 15.6685ZM54.973 45.7883C54.6839 45.7884 54.3964 45.7451 54.1201 45.6599C38.1149 40.7419 21.8849 40.7419 5.88 45.6599C4.35425 46.1287 2.72007 45.2742 2.23647 43.7555C1.998 43.0069 2.06727 42.211 2.43142 41.5145C2.79534 40.8184 3.40887 40.3076 4.15909 40.0764C12.7379 37.4327 21.432 36.0923 30 36.0923C38.568 36.0923 47.2621 37.4327 55.8407 40.0764C56.591 40.3077 57.2047 40.8185 57.5686 41.5147C57.9327 42.2112 58.002 43.0071 57.7635 43.7557C57.3697 44.9922 56.2126 45.7883 54.973 45.7883ZM30 40.6613C38.1883 40.6613 46.3736 41.91 54.5045 44.4087C55.3465 44.6673 56.2493 44.1964 56.5162 43.3583C56.5814 43.1553 56.6055 42.9413 56.587 42.7289C56.5685 42.5164 56.5078 42.3098 56.4085 42.1211C56.3104 41.9321 56.1755 41.7645 56.0118 41.6282C55.8481 41.492 55.6589 41.3897 55.4552 41.3275C47.0016 38.7224 38.4372 37.4015 30 37.4015C21.5628 37.4015 12.9984 38.7224 4.54473 41.3276C4.34103 41.3898 4.15179 41.492 3.98811 41.6283C3.82442 41.7645 3.68958 41.9321 3.59149 42.1211C3.49213 42.3098 3.43143 42.5164 3.41294 42.7289C3.39445 42.9413 3.41855 43.1553 3.48382 43.3583C3.75065 44.1963 4.65294 44.6673 5.49545 44.4087C13.6246 41.9107 21.8137 40.6613 30 40.6613Z" fill="#345766"/>
<path d="M30 14.4546C29.9 14.4546 29.8014 14.4317 29.7116 14.3876C29.6219 14.3436 29.5434 14.2796 29.4823 14.2005L24.4777 7.72997C24.4029 7.63316 24.3567 7.51731 24.3444 7.39559C24.3321 7.27386 24.3542 7.15112 24.4081 7.04128C24.462 6.93145 24.5456 6.83892 24.6494 6.77419C24.7532 6.70946 24.8731 6.67512 24.9955 6.67506H27.2222V2.82666C27.2222 2.65307 27.2912 2.48658 27.4139 2.36383C27.5367 2.24108 27.7032 2.17212 27.8768 2.17212H32.1233C32.2969 2.17212 32.4634 2.24108 32.5862 2.36383C32.7089 2.48658 32.7779 2.65307 32.7779 2.82666V6.67496H35.0047C35.127 6.67493 35.247 6.70922 35.3509 6.77393C35.4547 6.83864 35.5384 6.93119 35.5923 7.04105C35.6462 7.15092 35.6683 7.2737 35.6559 7.39546C35.6435 7.51722 35.5973 7.63307 35.5224 7.72986L30.5177 14.2004C30.4566 14.2795 30.3781 14.3435 30.2884 14.3876C30.1986 14.4316 30.1 14.4545 30 14.4546ZM26.3292 7.98416L30 12.7302L33.6708 7.98416H32.1232C31.9496 7.98416 31.7832 7.91519 31.6604 7.79244C31.5377 7.66969 31.4687 7.50321 31.4687 7.32961V3.48121H28.5312V7.3295C28.5312 7.5031 28.4622 7.66958 28.3395 7.79233C28.2167 7.91509 28.0503 7.98405 27.8767 7.98405H26.3292V7.98416ZM32.1233 57.8279H27.8768C27.7032 57.8279 27.5367 57.7589 27.4139 57.6362C27.2912 57.5134 27.2222 57.3469 27.2222 57.1734V53.3251H24.9955C24.8731 53.325 24.7532 53.2907 24.6493 53.226C24.5455 53.1613 24.4619 53.0688 24.4079 52.9589C24.354 52.8491 24.332 52.7263 24.3443 52.6046C24.3567 52.4828 24.4029 52.367 24.4777 52.2702L29.4823 45.7996C29.5434 45.7206 29.6219 45.6566 29.7116 45.6125C29.8014 45.5685 29.9 45.5456 30 45.5456C30.1 45.5456 30.1986 45.5685 30.2884 45.6125C30.3781 45.6566 30.4566 45.7206 30.5177 45.7996L35.5224 52.2702C35.5973 52.367 35.6435 52.4828 35.6558 52.6046C35.6681 52.7263 35.6461 52.8491 35.5922 52.9589C35.5383 53.0688 35.4546 53.1613 35.3508 53.226C35.2469 53.2907 35.127 53.325 35.0047 53.3251H32.7779V57.1734C32.7779 57.3469 32.7089 57.5134 32.5862 57.6362C32.4634 57.7589 32.2969 57.8279 32.1233 57.8279ZM28.5313 56.5188H31.4688V52.6705C31.4688 52.4969 31.5378 52.3304 31.6605 52.2077C31.7833 52.0849 31.9498 52.016 32.1233 52.016H33.6709L30 47.2699L26.3292 52.016H27.8768C28.0504 52.016 28.2168 52.0849 28.3396 52.2077C28.4624 52.3304 28.5313 52.4969 28.5313 52.6705V56.5188Z" fill="#345766"/>
</svg>
