<svg width="24" height="24" viewBox="0 0 24 24" fill="none" xmlns="http://www.w3.org/2000/svg">
<path d="M6.25043 17.2232L4.90643 17.5224C4.19399 17.677 3.55628 18.0716 3.10008 18.6403C2.64387 19.2089 2.39687 19.917 2.40043 20.646V21.2932C2.40104 21.7316 2.54537 22.1578 2.81131 22.5064C3.07725 22.855 3.45013 23.1068 3.87283 23.2232C5.17083 23.5772 7.63443 24 12.0004 24C16.3664 24 18.83 23.5772 20.128 23.2232C20.5507 23.1068 20.9236 22.855 21.1895 22.5064C21.4555 22.1578 21.5998 21.7316 21.6004 21.2932V20.646C21.604 19.917 21.357 19.2089 20.9008 18.6403C20.4446 18.0716 19.8069 17.677 19.0944 17.5224L17.7504 17.2232L15.9168 16.1236L15.1796 14.4036L15.4196 14.1272L15.6 14.1756C15.7888 14.2255 15.9832 14.2509 16.1784 14.2512C16.7683 14.2499 17.3335 14.0147 17.7501 13.5971C18.1666 13.1796 18.4005 12.6138 18.4004 12.024V11.544C18.743 11.4555 19.0466 11.256 19.2638 10.9767C19.4809 10.6973 19.5993 10.3538 19.6004 10V8.4C19.5991 8.04631 19.4806 7.70304 19.2635 7.42383C19.0464 7.14462 18.7429 6.94522 18.4004 6.8568V6.4C18.4004 4.70261 17.7261 3.07475 16.5259 1.87452C15.3257 0.674284 13.6978 0 12.0004 0C10.303 0 8.67518 0.674284 7.47494 1.87452C6.27471 3.07475 5.60043 4.70261 5.60043 6.4V6.8568C5.25797 6.94522 4.95446 7.14462 4.73735 7.42383C4.52023 7.70304 4.40175 8.04631 4.40043 8.4V10C4.40043 10.4243 4.569 10.8313 4.86906 11.1314C5.16912 11.4314 5.57608 11.6 6.00043 11.6H6.80043C6.937 11.5987 7.07233 11.5738 7.20043 11.5264V11.6644C7.2002 12.2355 7.40745 12.7871 7.78363 13.2168L8.82363 14.4028L8.08603 16.1228L6.25043 17.2232ZM8.28683 16.9348C9.01033 17.8881 10.001 18.6048 11.1328 18.9936C10.7471 19.3713 10.4266 19.8103 10.1844 20.2928C8.92524 19.705 7.82725 18.8209 6.98443 17.716L8.28683 16.9348ZM20.8004 20.646V21.2932C20.8006 21.5566 20.7143 21.8128 20.5547 22.0223C20.3951 22.2319 20.1712 22.3833 19.9172 22.4532C18.6664 22.7928 16.2776 23.2 12.0004 23.2C7.72323 23.2 5.33443 22.7928 4.08363 22.4512C3.83001 22.3814 3.60629 22.2303 3.44676 22.0211C3.28724 21.812 3.2007 21.5563 3.20043 21.2932V20.646C3.19769 20.0992 3.38298 19.568 3.72525 19.1416C4.06752 18.7151 4.54598 18.4193 5.08043 18.3036L6.23003 18.048C6.68083 18.6532 8.04763 20.3144 9.98283 21.0736C10.1484 21.1372 10.332 21.1357 10.4965 21.0694C10.661 21.003 10.7942 20.8767 10.8692 20.716C11.1316 20.1608 11.5188 19.6737 12.0004 19.2928C12.4822 19.6736 12.8696 20.1605 13.1324 20.7156C13.1891 20.8364 13.279 20.9385 13.3915 21.0101C13.5041 21.0817 13.6346 21.1198 13.768 21.12C13.854 21.1201 13.9392 21.104 14.0192 21.0724C15.954 20.3124 17.3208 18.652 17.7716 18.0468L18.9212 18.3024C19.4557 18.4183 19.9342 18.7144 20.2763 19.1411C20.6184 19.5677 20.8035 20.0991 20.8004 20.646ZM13.8164 20.2928C13.5744 19.8102 13.2539 19.3712 12.868 18.9936C13.9999 18.6048 14.9905 17.8881 15.714 16.9348L17.0164 17.716C16.1735 18.8208 15.0756 19.7049 13.8164 20.2928ZM17.0444 13.154C16.7543 13.3749 16.39 13.4752 16.0276 13.434L16.2172 13.2172C16.5934 12.7874 16.8006 12.2356 16.8004 11.6644V11.5264C16.9285 11.5738 17.0639 11.5987 17.2004 11.6H17.6004V12.024C17.6012 12.2425 17.5514 12.4582 17.455 12.6542C17.3585 12.8503 17.218 13.0213 17.0444 13.154ZM16.0004 6.794C12.3256 6.6836 11.5768 5.0632 11.572 5.0516C11.5424 4.97731 11.4911 4.91363 11.4248 4.86878C11.3586 4.82393 11.2804 4.79997 11.2004 4.8C10.0366 4.80183 8.91703 5.24596 8.06843 6.0424C8.42643 4.0572 10.1396 2.4 12.0004 2.4C13.0609 2.40116 14.0777 2.82297 14.8276 3.57286C15.5775 4.32275 15.9993 5.33949 16.0004 6.4V6.794ZM18.8004 8.4V10C18.8004 10.2122 18.7161 10.4157 18.5661 10.5657C18.4161 10.7157 18.2126 10.8 18.0004 10.8H17.2004C17.0943 10.8 16.9926 10.7579 16.9176 10.6828C16.8426 10.6078 16.8004 10.5061 16.8004 10.4V8C16.8004 7.89391 16.8426 7.79217 16.9176 7.71716C16.9926 7.64214 17.0943 7.6 17.2004 7.6H18.0004C18.2126 7.6 18.4161 7.68429 18.5661 7.83431C18.7161 7.98434 18.8004 8.18783 18.8004 8.4ZM12.0004 0.8C13.4852 0.801588 14.9086 1.3921 15.9585 2.44196C17.0083 3.49182 17.5988 4.91528 17.6004 6.4V6.8H17.2004C17.0639 6.80133 16.9285 6.82622 16.8004 6.8736V6.4C16.7991 5.12738 16.2929 3.90728 15.393 3.00741C14.4931 2.10753 13.273 1.60138 12.0004 1.6C9.44323 1.6 7.20043 4.03 7.20043 6.8V6.8736C7.07233 6.82622 6.937 6.80133 6.80043 6.8H6.40043V6.4C6.40202 4.91528 6.99253 3.49182 8.04238 2.44196C9.09224 1.3921 10.5157 0.801588 12.0004 0.8ZM6.80043 10.8H6.00043C5.78826 10.8 5.58477 10.7157 5.43474 10.5657C5.28471 10.4157 5.20043 10.2122 5.20043 10V8.4C5.20043 8.18783 5.28471 7.98434 5.43474 7.83431C5.58477 7.68429 5.78826 7.6 6.00043 7.6H6.80043C6.90652 7.6 7.00826 7.64214 7.08327 7.71716C7.15829 7.79217 7.20043 7.89391 7.20043 8V10.4C7.20043 10.5061 7.15829 10.6078 7.08327 10.6828C7.00826 10.7579 6.90652 10.8 6.80043 10.8ZM8.00043 11.6644V7.32C8.33762 6.83202 8.77918 6.4252 9.29308 6.12901C9.80699 5.83284 10.3804 5.65473 10.9716 5.6076C11.3492 6.1792 12.5924 7.4936 16.0004 7.5912V11.6644C16.0005 12.0418 15.8635 12.4064 15.6148 12.6904L15.1468 13.2252L14.0268 12.926L14.0388 12.8764C14.0633 12.7742 14.0674 12.6681 14.0508 12.5643C14.0343 12.4605 13.9975 12.361 13.9425 12.2714C13.8875 12.1819 13.8153 12.104 13.7302 12.0424C13.6451 11.9807 13.5487 11.9364 13.4464 11.912L12.2796 11.632C11.97 11.5578 11.6435 11.6097 11.3721 11.7763C11.1007 11.9428 10.9066 12.2103 10.8324 12.52C10.7583 12.8297 10.8102 13.1561 10.9767 13.4275C11.1432 13.6989 11.4108 13.893 11.7204 13.9672L12.8872 14.2472C12.9488 14.262 13.0119 14.2695 13.0752 14.2696C13.2459 14.2697 13.4121 14.2147 13.549 14.1128C13.6859 14.0109 13.7863 13.8675 13.8352 13.704L14.5588 13.8976L13.9604 14.58C13.7902 14.7747 13.5802 14.9308 13.3447 15.0377C13.1092 15.1446 12.8535 15.2 12.5948 15.2H11.406C11.1474 15.1998 10.8918 15.1444 10.6563 15.0375C10.4207 14.9306 10.2108 14.7746 10.0404 14.58L8.38683 12.69C8.13791 12.4063 8.00058 12.0418 8.00043 11.6644ZM13.2604 12.6904L13.0748 13.468L11.9076 13.188C11.8559 13.1764 11.807 13.1546 11.7638 13.124C11.7206 13.0933 11.6839 13.0543 11.6559 13.0094C11.6278 12.9644 11.609 12.9143 11.6005 12.862C11.592 12.8097 11.5939 12.7563 11.6063 12.7047C11.6186 12.6532 11.641 12.6046 11.6723 12.5618C11.7035 12.519 11.743 12.4829 11.7883 12.4554C11.8337 12.428 11.884 12.4099 11.9364 12.4021C11.9888 12.3943 12.0423 12.397 12.0936 12.41L13.2604 12.6904ZM9.43723 15.1068C9.68272 15.3875 9.98541 15.6124 10.325 15.7664C10.6645 15.9205 11.0331 16.0001 11.406 16H12.5948C12.9677 16.0001 13.3363 15.9205 13.6759 15.7664C14.0154 15.6124 14.3181 15.3875 14.5636 15.1068L14.5956 15.0704L15.1464 16.3564C14.3875 17.4031 13.2659 18.1295 12.0004 18.394C10.7349 18.1295 9.61333 17.4031 8.85443 16.3564L9.40563 15.0704L9.43723 15.1068Z" fill="#161E2D"/>
</svg>
