<svg width="50" height="50" viewBox="0 0 50 50" fill="none" xmlns="http://www.w3.org/2000/svg">
<path d="M8.3335 39.5833V10.4167C8.3335 9.3116 8.77248 8.25179 9.55388 7.47039C10.3353 6.68899 11.3951 6.25 12.5002 6.25H40.4168C40.7483 6.25 41.0663 6.3817 41.3007 6.61612C41.5351 6.85054 41.6668 7.16848 41.6668 7.5V34.8208M12.5002 35.4167H41.6668M12.5002 43.75H41.6668" stroke="white" stroke-width="2.5" stroke-linecap="round"/>
<path d="M12.5002 43.7501C11.3951 43.7501 10.3353 43.3111 9.55388 42.5297C8.77248 41.7483 8.3335 40.6885 8.3335 39.5834C8.3335 38.4783 8.77248 37.4185 9.55388 36.6371C10.3353 35.8557 11.3951 35.4167 12.5002 35.4167" stroke="white" stroke-width="2.5" stroke-linecap="round" stroke-linejoin="round"/>
<path d="M18.75 14.5833H31.25" stroke="white" stroke-width="2.5" stroke-linecap="round"/>
</svg>
