<svg width="60" height="60" viewBox="0 0 60 60" fill="none" xmlns="http://www.w3.org/2000/svg">
<path d="M9.79219 16.8703V13.5023C9.79219 13.1144 10.1074 12.7992 10.4953 12.7992C10.8832 12.7992 11.1984 13.1144 11.1984 13.5023V16.8703C11.1984 17.2582 10.8832 17.5734 10.4953 17.5734C10.1074 17.5734 9.79219 17.2582 9.79219 16.8703ZM10.4953 24.6808C10.8832 24.6808 11.1984 24.3656 11.1984 23.9777V20.6097C11.1984 20.2218 10.8832 19.9066 10.4953 19.9066C10.1074 19.9066 9.79219 20.2218 9.79219 20.6097V23.9777C9.79219 24.3667 10.1074 24.6808 10.4953 24.6808ZM13.9758 24.6808C14.3637 24.6808 14.6789 24.3656 14.6789 23.9777V20.6097C14.6789 20.2218 14.3637 19.9066 13.9758 19.9066C13.5879 19.9066 13.2727 20.2218 13.2727 20.6097V23.9777C13.2727 24.3667 13.5879 24.6808 13.9758 24.6808ZM13.9758 17.5734C14.3637 17.5734 14.6789 17.2582 14.6789 16.8703V13.5023C14.6789 13.1144 14.3637 12.7992 13.9758 12.7992C13.5879 12.7992 13.2727 13.1144 13.2727 13.5023V16.8703C13.2727 17.2582 13.5879 17.5734 13.9758 17.5734ZM36.7406 19.7964V17.8289C36.7406 16.9968 37.418 16.3195 38.25 16.3195H40.2176C41.0496 16.3195 41.727 16.9968 41.727 17.8289V19.7964C41.727 20.6285 41.0496 21.3058 40.2176 21.3058H38.25C37.4168 21.3058 36.7406 20.6285 36.7406 19.7964ZM38.1469 19.7964C38.1469 19.8515 38.1949 19.8996 38.25 19.8996H40.2176C40.2727 19.8996 40.3207 19.8515 40.3207 19.7964V17.8289C40.3207 17.7738 40.2727 17.7257 40.2176 17.7257H38.25C38.1949 17.7257 38.1469 17.7738 38.1469 17.8289V19.7964ZM43.5984 19.7964V17.8289C43.5984 16.9968 44.2758 16.3195 45.1078 16.3195H47.0754C47.9074 16.3195 48.5848 16.9968 48.5848 17.8289V19.7964C48.5848 20.6285 47.9074 21.3058 47.0754 21.3058H45.1078C44.2746 21.3058 43.5984 20.6285 43.5984 19.7964ZM45.0047 19.7964C45.0047 19.8515 45.0527 19.8996 45.1078 19.8996H47.0754C47.1305 19.8996 47.1785 19.8515 47.1785 19.7964V17.8289C47.1785 17.7738 47.1305 17.7257 47.0754 17.7257H45.1078C45.0527 17.7257 45.0047 17.7738 45.0047 17.8289V19.7964ZM36.7406 26.4398V24.4722C36.7406 23.6402 37.418 22.9628 38.25 22.9628H40.2176C41.0496 22.9628 41.727 23.6402 41.727 24.4722V26.4398C41.727 27.2718 41.0496 27.9492 40.2176 27.9492H38.25C37.4168 27.948 36.7406 27.2718 36.7406 26.4398ZM38.1469 26.4398C38.1469 26.4949 38.1949 26.5429 38.25 26.5429H40.2176C40.2727 26.5429 40.3207 26.4949 40.3207 26.4398V24.4722C40.3207 24.4171 40.2727 24.3691 40.2176 24.3691H38.25C38.1949 24.3691 38.1469 24.4171 38.1469 24.4722V26.4398ZM58.2422 33.7605C58.2422 34.1484 57.927 34.4636 57.5391 34.4636H53.6391V36.3972C53.6391 37.6488 52.6207 38.6671 51.3691 38.6671H47.5664C47.1809 38.6671 46.8656 38.8945 46.7461 39.2613C46.4719 40.098 46.1297 40.9207 45.7301 41.7093C45.5555 42.0539 45.6164 42.4371 45.8895 42.7101L48.5801 45.4007C49.0078 45.8285 49.2434 46.3992 49.2434 47.0062C49.2434 47.6132 49.0078 48.1839 48.5801 48.6117L44.8512 52.3406C44.4234 52.7683 43.8527 53.0039 43.2457 53.0039C42.6387 53.0039 42.068 52.7683 41.6402 52.3406L38.9496 49.6499C38.6766 49.3769 38.2934 49.316 37.9488 49.4906C37.1594 49.89 36.341 50.2296 35.5008 50.5066C35.134 50.6273 34.9066 50.9414 34.9066 51.3269V55.1308C34.9066 56.3824 33.8883 57.4007 32.6367 57.4007H27.3633C26.1117 57.4007 25.0934 56.3824 25.0934 55.1308V51.3269C25.0934 50.9414 24.866 50.6261 24.4992 50.5066C23.6625 50.2312 22.8387 49.8902 22.0512 49.4917C21.7066 49.3171 21.3234 49.3781 21.0504 49.6511L18.3598 52.3417C17.932 52.7695 17.3613 53.005 16.7543 53.005C16.1473 53.005 15.5766 52.7695 15.1488 52.3417L11.4199 48.6128C10.9922 48.1851 10.7566 47.6144 10.7566 47.0074C10.7566 46.4003 10.9922 45.8296 11.4199 45.4019L14.1105 42.7113C14.3836 42.4382 14.4445 42.055 14.2699 41.7105C13.8704 40.9211 13.5308 40.1027 13.2539 39.2625C13.1332 38.8957 12.8191 38.6683 12.4336 38.6683H8.63086C7.3793 38.6683 6.36094 37.65 6.36094 36.3984V34.4648H2.46094C2.07305 34.4648 1.75781 34.1496 1.75781 33.7617C1.75781 33.3738 2.07305 33.0585 2.46094 33.0585H6.36094V11.9472C6.36094 10.5656 7.48477 9.44175 8.86641 9.44175H15.607C16.9887 9.44175 18.1125 10.5656 18.1125 11.9472V20.9203C18.6621 19.8949 19.316 19.2292 20.0449 18.9691V5.00855C20.0449 3.68081 21.1254 2.60034 22.4531 2.60034H32.4047C33.7324 2.60034 34.8129 3.68081 34.8129 5.00855V12.8941H37.0711C36.7207 12.0304 36.8602 11.0554 36.9551 10.616C37.4531 8.298 38.1914 7.17065 39.2109 7.16948H39.2133C40.2281 7.16948 40.9652 8.28979 41.468 10.596C41.5652 11.0414 41.7094 12.0257 41.366 12.8953H43.9711C43.6207 12.0316 43.7602 11.0566 43.8551 10.6171C44.3531 8.29917 45.0914 7.17183 46.1109 7.17065H46.1121C47.127 7.17065 47.8641 8.29097 48.3668 10.5972C48.4641 11.0425 48.6082 12.0269 48.2648 12.8964H50.3438C51.2133 12.8964 51.9211 13.6042 51.9211 14.4738V24.941C52.5773 25.8656 53.1082 27.2039 53.4691 28.8972C53.6812 29.8898 53.8781 31.732 52.8727 33.0609H57.5391C57.927 33.0574 58.2422 33.3726 58.2422 33.7605ZM47.1773 24.4722C47.1773 24.4171 47.1293 24.3691 47.0742 24.3691H45.1066C45.0516 24.3691 45.0035 24.4171 45.0035 24.4722V26.4398C45.0035 26.4949 45.0516 26.5429 45.1066 26.5429H46.2668C46.534 25.8785 46.8398 25.3125 47.1773 24.8554V24.4722ZM52.091 29.1878C51.4535 26.2031 50.3391 24.8671 49.5176 24.8671C48.6961 24.8671 47.5816 26.2031 46.9441 29.1878C46.6641 30.5003 46.8012 31.6218 47.3227 32.2628C47.6484 32.6636 48.1477 32.9144 48.8109 33.0117V30.1722C48.8109 29.7843 49.1262 29.4691 49.5141 29.4691C49.902 29.4691 50.2172 29.7843 50.2172 30.1722V33.0117C50.8828 32.9144 51.3832 32.6625 51.7102 32.2605C52.2316 31.6171 52.3711 30.4968 52.091 29.1878ZM46.132 12.8941C46.5516 12.8941 46.7215 12.7429 46.8129 12.6281C47.0777 12.2988 47.148 11.6179 46.9898 10.8937C46.6359 9.26831 46.2516 8.75386 46.1098 8.61206C45.9668 8.75503 45.5801 9.27183 45.2273 10.9101C45.075 11.6167 45.1488 12.2847 45.4137 12.614C45.5121 12.7335 45.6914 12.8941 46.132 12.8941ZM39.2332 12.8941C39.6527 12.8941 39.8227 12.7429 39.9141 12.6281C40.1789 12.2988 40.2492 11.6179 40.091 10.8937C39.7371 9.26831 39.3527 8.75386 39.2109 8.61206C39.068 8.75503 38.6813 9.27183 38.3285 10.9101C38.1762 11.6167 38.25 12.2847 38.5148 12.614C38.6121 12.7335 38.7926 12.8941 39.2332 12.8941ZM34.8117 14.3003V33.0585H46.1602C45.1582 31.732 45.3563 29.8898 45.5684 28.8949C45.6387 28.5656 45.7148 28.2503 45.798 27.9492H45.1066C44.2746 27.9492 43.5973 27.2718 43.5973 26.4398V24.4722C43.5973 23.6402 44.2746 22.9628 45.1066 22.9628H47.0742C47.6438 22.9628 48.1395 23.2792 48.3961 23.7457C48.7512 23.5582 49.1262 23.4609 49.5176 23.4609C49.8621 23.4609 50.1949 23.5371 50.5113 23.6835V14.4703C50.5113 14.3777 50.4328 14.2992 50.3402 14.2992H34.8117V14.3003ZM18.1102 33.0574H20.0426V30.9152C19.2773 30.8226 18.6305 30.5683 18.1102 30.1546V33.0574ZM33.4055 7.55268H21.4488V9.52026H33.4043V7.55268H33.4055ZM21.4488 10.9265V12.8941H33.4043V10.9265H21.4488ZM33.4055 33.0574V24.4195H24.573C24.6035 24.5625 24.6328 24.7078 24.6609 24.8566C24.7512 25.3347 24.8367 25.9792 24.8273 26.6718C24.9105 26.6578 24.9949 26.6496 25.0816 26.6496H29.7738C30.6387 26.6496 31.3418 27.3527 31.3418 28.2175V33.0574H33.4055ZM29.9344 28.2175C29.9344 28.1296 29.8605 28.0558 29.7727 28.0558H25.0805C24.9926 28.0558 24.9188 28.1296 24.9188 28.2175V33.0574H29.9332V28.2175H29.9344ZM21.4488 14.3003V16.2679H33.4043V14.3003H21.4488ZM21.4488 17.673V18.9656C21.8098 19.0921 22.1531 19.3195 22.4742 19.6406H33.4043V17.673H21.4488ZM23.4574 21.0468C23.7434 21.6046 23.9988 22.2632 24.2203 23.0144H33.4043V21.0468H23.4574ZM23.5137 30.0457C22.9711 30.5238 22.2797 30.8156 21.4488 30.9152V33.0574H23.5137V30.0457ZM20.3016 34.4636C20.6637 39.5003 24.873 43.4871 30 43.4871C35.127 43.4871 39.3375 39.4992 39.6984 34.4636H20.3016ZM21.4488 5.00855V6.14761H33.4043V5.00855C33.4043 4.45542 32.9543 4.00659 32.4023 4.00659H22.4508C21.8988 4.00542 21.4488 4.45542 21.4488 5.00855ZM18.2215 25.1179C17.9191 26.714 18.0949 28.0476 18.702 28.7777C19.0195 29.1597 19.4625 29.3964 20.0426 29.4949V26.7433C20.0426 26.3554 20.3578 26.0402 20.7457 26.0402C21.1336 26.0402 21.4488 26.3554 21.4488 26.7433V29.4949C22.0312 29.3953 22.4754 29.1585 22.7941 28.7753C23.4035 28.0441 23.5793 26.7105 23.2781 25.1191C22.6453 21.7746 21.5238 20.2511 20.7492 20.2511C19.9758 20.2511 18.8543 21.7734 18.2215 25.1179ZM7.76719 33.0574H9.81797V30.4769C9.81797 29.1433 10.9031 28.0582 12.2367 28.0582C13.5703 28.0582 14.6555 29.1433 14.6555 30.4769V33.0574H16.7062V27.246C16.6594 26.7574 16.6687 26.2781 16.7062 25.8433V11.9449C16.7062 11.339 16.2129 10.8457 15.607 10.8457H8.86523C8.25938 10.8457 7.76602 11.339 7.76602 11.9449V33.0574H7.76719ZM13.248 30.4769C13.248 29.9191 12.7934 29.4644 12.2355 29.4644C11.6777 29.4644 11.223 29.9191 11.223 30.4769V33.0574H13.2469V30.4769H13.248ZM52.2328 34.4636H41.1082C40.7438 40.2761 35.9004 44.8933 29.9977 44.8933C24.0949 44.8933 19.2516 40.2761 18.8871 34.4636H7.76719V36.3972C7.76719 36.873 8.15508 37.2609 8.63086 37.2609H12.4348C13.4332 37.2609 14.2805 37.8738 14.591 38.823C14.843 39.5917 15.1582 40.3488 15.525 41.0742C15.9762 41.966 15.8121 42.9984 15.1055 43.705L12.4148 46.3957C12.252 46.5585 12.1629 46.7753 12.1629 47.0062C12.1629 47.2371 12.252 47.455 12.4148 47.6167L16.1437 51.3457C16.3066 51.5085 16.5234 51.5976 16.7543 51.5976C16.9852 51.5976 17.2031 51.5085 17.3648 51.3457L20.0555 48.655C20.7621 47.9484 21.7945 47.7832 22.6863 48.2355C23.4105 48.6023 24.1688 48.9164 24.9375 49.1695C25.8855 49.4812 26.4984 50.3273 26.4984 51.3257V55.1296C26.4984 55.6054 26.8863 55.9933 27.3621 55.9933H32.6355C33.1125 55.9933 33.4992 55.6054 33.4992 55.1296V51.3257C33.4992 50.3273 34.1121 49.4812 35.0613 49.1695C35.8301 48.9164 36.5883 48.6023 37.3125 48.2355C38.2043 47.7843 39.2367 47.9484 39.9434 48.655L42.634 51.3457C42.714 51.4259 42.8092 51.4896 42.914 51.5328C43.0188 51.5761 43.1312 51.5981 43.2445 51.5976C43.4766 51.5976 43.6934 51.5085 43.8551 51.3457L47.584 47.6167C47.6643 47.5367 47.7279 47.4415 47.7711 47.3367C47.8144 47.2319 47.8364 47.1196 47.8359 47.0062C47.8359 46.7742 47.7469 46.5574 47.584 46.3957L44.8934 43.705C44.1867 42.9984 44.0215 41.966 44.4738 41.0742C44.8406 40.35 45.1547 39.5917 45.4078 38.823C45.7195 37.875 46.5656 37.2609 47.5641 37.2609H51.368C51.8449 37.2609 52.2316 36.873 52.2316 36.3972V34.4636H52.2328Z" fill="white"/>
</svg>
