<svg width="60" height="60" viewBox="0 0 60 60" fill="none" xmlns="http://www.w3.org/2000/svg">
<path d="M27.5365 16.3999C26.7547 16.3999 25.9911 16.4544 25.2729 16.5635C17.4729 17.6635 11.5911 24.4454 11.5911 32.3454C11.5911 41.1363 18.7456 48.2908 27.5365 48.2908C36.3274 48.2908 43.482 41.1363 43.482 32.3454C43.482 24.7454 38.082 18.1726 30.6365 16.709C29.6274 16.509 28.582 16.3999 27.5365 16.3999ZM41.9274 32.3454C41.9274 40.2817 35.4729 46.7363 27.5365 46.7363C19.6002 46.7363 13.1456 40.2817 13.1456 32.3454C13.1456 25.2181 18.4547 19.0908 25.5002 18.0999C26.1456 17.9999 26.8274 17.9544 27.5365 17.9544C28.482 17.9544 29.4274 18.0454 30.3365 18.2272C37.0547 19.5454 41.9274 25.4908 41.9274 32.3454Z" fill="url(#paint0_linear_15428_8284)" fill-opacity="0.9"/>
<path d="M27.5364 21.8547C27.9636 21.8547 28.3091 21.5092 28.3091 21.082V20.182C28.3091 19.977 28.2277 19.7805 28.0828 19.6356C27.9378 19.4906 27.7413 19.4092 27.5364 19.4092C27.3314 19.4092 27.1349 19.4906 26.99 19.6356C26.845 19.7805 26.7636 19.977 26.7636 20.182V21.082C26.7636 21.5092 27.1091 21.8547 27.5364 21.8547ZM27.5364 43.0456C27.3314 43.0456 27.1349 43.127 26.99 43.2719C26.845 43.4168 26.7636 43.6134 26.7636 43.8183V44.7183C26.7636 44.9233 26.845 45.1198 26.99 45.2647C27.1349 45.4096 27.3314 45.4911 27.5364 45.4911C27.7413 45.4911 27.9378 45.4096 28.0828 45.2647C28.2277 45.1198 28.3091 44.9233 28.3091 44.7183V43.8183C28.3091 43.6134 28.2277 43.4168 28.0828 43.2719C27.9378 43.127 27.7413 43.0456 27.5364 43.0456ZM19.4091 23.2274C19.1091 22.9274 18.6182 22.9274 18.3182 23.2274C18.0182 23.5274 18.0182 24.0183 18.3182 24.3183L18.9545 24.9547C19.1091 25.1092 19.3 25.182 19.5 25.182C19.7 25.182 19.9 25.1092 20.0455 24.9547C20.3455 24.6547 20.3455 24.1638 20.0455 23.8638L19.4091 23.2274ZM35.6636 41.6729C35.8182 41.8274 36.0091 41.9001 36.2091 41.9001C36.4091 41.9001 36.6091 41.8274 36.7545 41.6729C37.0545 41.3729 37.0545 40.882 36.7545 40.582L36.1182 39.9456C35.8182 39.6456 35.3273 39.6456 35.0273 39.9456C34.7273 40.2456 34.7273 40.7365 35.0273 41.0365L35.6636 41.6729ZM16.1636 31.6729H15.2727C15.0678 31.6729 14.8712 31.7543 14.7263 31.8992C14.5814 32.0441 14.5 32.2407 14.5 32.4456C14.5 32.6505 14.5814 32.8471 14.7263 32.992C14.8712 33.1369 15.0678 33.2183 15.2727 33.2183H16.1727C16.6 33.2183 16.9455 32.8729 16.9455 32.4456C16.9455 32.0183 16.5909 31.6729 16.1636 31.6729ZM38.9091 33.2274H39.8091C40.014 33.2274 40.2106 33.146 40.3555 33.0011C40.5004 32.8562 40.5818 32.6596 40.5818 32.4547C40.5818 32.2497 40.5004 32.0532 40.3555 31.9083C40.2106 31.7634 40.014 31.682 39.8091 31.682H38.9091C38.7042 31.682 38.5076 31.7634 38.3627 31.9083C38.2178 32.0532 38.1364 32.2497 38.1364 32.4547C38.1273 32.882 38.4818 33.2274 38.9091 33.2274ZM18.9455 39.9456L18.3091 40.582C18.2018 40.6902 18.1289 40.8277 18.0995 40.9772C18.0701 41.1267 18.0855 41.2815 18.1438 41.4223C18.202 41.5631 18.3005 41.6836 18.427 41.7686C18.5534 41.8536 18.7022 41.8993 18.8545 41.9001C19.0545 41.9001 19.2545 41.8274 19.4 41.6729L20.0364 41.0365C20.3364 40.7365 20.3364 40.2456 20.0364 39.9456C19.9657 39.8722 19.881 39.8139 19.7873 39.774C19.6936 39.7342 19.5928 39.7136 19.4909 39.7136C19.3891 39.7136 19.2883 39.7342 19.1945 39.774C19.1008 39.8139 19.0161 39.8722 18.9455 39.9456ZM35.5727 25.182C35.7727 25.182 35.9727 25.1092 36.1182 24.9547L36.7545 24.3183C37.0545 24.0183 37.0545 23.5274 36.7545 23.2274C36.4545 22.9274 35.9636 22.9274 35.6636 23.2274L35.0273 23.8638C34.92 23.972 34.8471 24.1095 34.8177 24.259C34.7883 24.4085 34.8037 24.5633 34.8619 24.7041C34.9202 24.8449 35.0187 24.9654 35.1452 25.0504C35.2716 25.1354 35.4204 25.1812 35.5727 25.182ZM28.3091 29.2911V24.5547C28.3091 24.3497 28.2277 24.1532 28.0828 24.0083C27.9378 23.8634 27.7413 23.782 27.5364 23.782C27.3314 23.782 27.1349 23.8634 26.99 24.0083C26.845 24.1532 26.7636 24.3497 26.7636 24.5547V29.2911C25.4 29.6365 24.3818 30.8729 24.3818 32.3456C24.3818 33.8183 25.4 35.0547 26.7636 35.4001V36.482C26.7636 36.6869 26.845 36.8834 26.99 37.0284C27.1349 37.1733 27.3314 37.2547 27.5364 37.2547C27.7413 37.2547 27.9378 37.1733 28.0828 37.0284C28.2277 36.8834 28.3091 36.6869 28.3091 36.482V35.4001C29.6818 35.0547 30.7 33.8183 30.7 32.3456C30.7 30.8729 29.6818 29.6365 28.3091 29.2911ZM27.5364 33.9547C27.1189 33.9419 26.7227 33.7673 26.4315 33.4679C26.1404 33.1685 25.9769 32.7677 25.9757 32.35C25.9746 31.9323 26.1357 31.5306 26.4252 31.2295C26.7147 30.9284 27.1099 30.7517 27.5273 30.7365H27.5455C28.4273 30.7365 29.1545 31.4638 29.1545 32.3456C29.1455 33.2365 28.4273 33.9547 27.5364 33.9547ZM48.1273 1.05469C42.1 1.05469 37.2 5.95469 37.2 11.982C37.2 18.0092 42.1 22.9092 48.1273 22.9092C54.1545 22.9092 59.0545 18.0092 59.0545 11.982C59.0545 5.95469 54.1545 1.05469 48.1273 1.05469ZM48.1273 21.3638C42.9545 21.3638 38.7455 17.1547 38.7455 11.982C38.7455 6.80923 42.9545 2.60923 48.1273 2.60923C53.3 2.60923 57.5091 6.81832 57.5091 11.9911C57.5091 17.1638 53.3 21.3638 48.1273 21.3638Z" fill="url(#paint1_linear_15428_8284)" fill-opacity="0.9"/>
<path d="M51.4819 8.58185L46.3182 13.7455L44.7637 12.1909C44.4637 11.8909 43.9728 11.8909 43.6728 12.1909C43.3728 12.4909 43.3728 12.9819 43.6728 13.2819L45.7728 15.3819C45.9273 15.5364 46.1182 15.6091 46.3182 15.6091C46.5182 15.6091 46.7182 15.5364 46.8637 15.3819L52.5728 9.67276C52.8728 9.37276 52.8728 8.88185 52.5728 8.58185C52.2819 8.28185 51.791 8.28185 51.4819 8.58185ZM52.3819 27.0909L49.5364 26.5182C49.4201 26.4931 49.3128 26.4367 49.2262 26.3549C49.1397 26.2732 49.0772 26.1693 49.0455 26.0546C48.9273 25.6455 48.491 25.4091 48.0819 25.5273C47.6728 25.6455 47.4364 26.0819 47.5546 26.4909C47.791 27.2819 48.4273 27.8819 49.2273 28.0455L52.0819 28.6182C52.3819 28.6728 52.6 28.9546 52.591 29.2546L52.4091 36.4546C52.4 36.7637 52.1819 37.0182 51.8819 37.0637L48.9637 37.5182C48.1637 37.6546 47.5 38.2182 47.2455 38.9909C46.8455 40.1546 46.3455 41.2728 45.7728 42.3091C45.3637 43.0364 45.3819 43.9091 45.8364 44.6L47.4546 47.0364C47.6273 47.2909 47.5819 47.6364 47.3637 47.8455L41.7728 53.1909L38.991 51.1546C38.3455 50.6819 37.4819 50.6091 36.7091 50.9728C35.6182 51.5091 34.4728 51.9637 33.3091 52.3C32.5091 52.5182 31.9091 53.1546 31.7455 53.9637L31.1546 56.8819C31.091 57.1819 30.8364 57.3909 30.5364 57.3909H23.3546C23.0455 57.3909 22.7728 57.1637 22.7273 56.8546L22.2728 53.8182C22.1546 53.0091 21.591 52.3273 20.791 52.0546C19.6364 51.6637 18.5182 51.1728 17.4819 50.5909C16.7455 50.1728 15.8637 50.2 15.1819 50.6637L12.7364 52.3C12.4819 52.4728 12.1364 52.4364 11.9273 52.2091L6.96368 47.0091C6.7455 46.8091 6.72732 46.4546 6.90914 46.2182L8.65459 43.8546C9.13641 43.1909 9.20914 42.3273 8.83641 41.5909C8.30005 40.4728 7.85459 39.3364 7.53641 38.2C7.31823 37.3909 6.65459 36.7728 5.85459 36.6273L3.00005 36.0637C2.85273 36.0333 2.72087 35.9519 2.62773 35.8338C2.53459 35.7157 2.48615 35.5685 2.49095 35.4182L2.66368 28.2273C2.67277 27.9273 2.90005 27.6637 3.20005 27.6182L6.10005 27.1637C6.90914 27.0455 7.58186 26.4728 7.8455 25.6819C8.10005 24.9273 8.38186 24.2273 8.70005 23.5637C8.90914 23.1364 9.11823 22.7091 9.35459 22.2909C9.73641 21.5909 9.70005 20.7364 9.25459 20.0455L7.6455 17.6182C7.56304 17.4936 7.5278 17.3435 7.54614 17.1952C7.56447 17.0469 7.63517 16.91 7.7455 16.8091L12.9546 11.8364C13.1728 11.6273 13.5182 11.6 13.7637 11.7819L16.1091 13.5091C16.7637 13.9909 17.6364 14.0637 18.3819 13.6909C19.4546 13.1637 20.6 12.7273 21.7728 12.3728C21.9 12.3364 22.0182 12.2637 22.1091 12.1728L22.7637 11.4909L23.1546 11.0819C23.2546 10.9728 23.3273 10.8455 23.3546 10.7L23.9364 7.81822C24 7.51822 24.2637 7.30004 24.5637 7.30004H31.7546C32.0637 7.30004 32.3364 7.52731 32.3819 7.84549L32.8273 10.8728C32.9364 11.6182 33.4364 12.2455 34.1546 12.5546C34.3427 12.6366 34.5556 12.6405 34.7465 12.5655C34.9375 12.4904 35.0908 12.3426 35.1728 12.1546C35.2547 11.9665 35.2587 11.7536 35.1836 11.5626C35.1086 11.3717 34.9608 11.2184 34.7728 11.1364C34.5455 11.0364 34.391 10.8546 34.3637 10.6546L33.9182 7.6364C33.8424 7.11819 33.5833 6.64433 33.188 6.30075C32.7927 5.95717 32.2874 5.76663 31.7637 5.76367H24.5455C23.5273 5.76367 22.6273 6.50004 22.4091 7.51822L21.8728 10.1909L21.6273 10.4455L21.1364 10.9637C19.9455 11.3273 18.791 11.7819 17.691 12.3182C17.4546 12.4364 17.2091 12.4182 17.0182 12.2819L14.6728 10.5546C14.2603 10.2509 13.7534 10.1034 13.2423 10.1383C12.7313 10.1733 12.2492 10.3884 11.8819 10.7455L6.67277 15.7182C5.90914 16.4546 5.77277 17.6273 6.36368 18.5L7.95459 20.9091C8.08186 21.1091 8.10005 21.3637 8.00005 21.5455C7.75459 21.9819 7.52732 22.4455 7.30005 22.9091C6.96368 23.6273 6.65459 24.3909 6.38186 25.2C6.30005 25.4364 6.10914 25.6091 5.87277 25.6455L2.97277 26.1C1.92732 26.2637 1.15459 27.1455 1.12732 28.2L0.954591 35.3909C0.927318 36.4637 1.66368 37.3909 2.70914 37.6L5.57277 38.1546C5.79095 38.1819 5.97277 38.3637 6.0455 38.6182C6.40005 39.8455 6.87277 41.0728 7.45459 42.2728C7.56368 42.4909 7.5455 42.7455 7.40914 42.9364L5.66368 45.3C5.02732 46.1546 5.10005 47.3364 5.83641 48.1L10.8 53.2909C11.5364 54.0728 12.7091 54.1909 13.6 53.6L16.0455 51.9637C16.2364 51.8364 16.491 51.8273 16.7182 51.9546C17.8455 52.5819 19.0455 53.1182 20.291 53.5364C20.5364 53.6273 20.7091 53.8091 20.7455 54.0546L21.191 57.0819C21.2668 57.6001 21.5259 58.0739 21.9212 58.4175C22.3165 58.7611 22.8218 58.9516 23.3455 58.9546H30.5273C31.5637 58.9546 32.4637 58.2182 32.6637 57.2L33.2546 54.2909C33.3 54.0546 33.4728 53.8819 33.7182 53.8091C34.9819 53.4364 36.2182 52.9637 37.3728 52.3819C37.6091 52.2728 37.8728 52.2819 38.0637 52.4182L41.3637 54.8364C41.6637 55.0546 42.0819 55.0273 42.3546 54.7728L48.4182 48.9728C49.1728 48.2455 49.3091 47.0728 48.7273 46.1909L47.1091 43.7455C46.9819 43.5546 46.9819 43.2909 47.1 43.0728C47.7273 41.9546 48.2546 40.7455 48.691 39.4909C48.7728 39.2546 48.9637 39.0819 49.191 39.0455L52.1091 38.5909C52.6125 38.5109 53.0719 38.257 53.4074 37.8733C53.7429 37.4896 53.9333 37.0005 53.9455 36.4909L54.1273 29.2909C54.1637 28.2273 53.4182 27.3 52.3819 27.0909Z" fill="url(#paint2_linear_15428_8284)" fill-opacity="0.9"/>
<defs>
<linearGradient id="paint0_linear_15428_8284" x1="26.3406" y1="52.2772" x2="26.3406" y2="15.114" gradientUnits="userSpaceOnUse">
<stop stop-color="#00D4FF"/>
<stop offset="1" stop-color="#00A3E0"/>
</linearGradient>
<linearGradient id="paint1_linear_15428_8284" x1="35.1065" y1="51.0456" x2="35.1065" y2="-0.737101" gradientUnits="userSpaceOnUse">
<stop stop-color="#00D4FF"/>
<stop offset="1" stop-color="#00A3E0"/>
</linearGradient>
<linearGradient id="paint2_linear_15428_8284" x1="25.5472" y1="65.6034" x2="25.5472" y2="3.61888" gradientUnits="userSpaceOnUse">
<stop stop-color="#00D4FF"/>
<stop offset="1" stop-color="#00A3E0"/>
</linearGradient>
</defs>
</svg>
