<svg width="41" height="40" viewBox="0 0 41 40" fill="none" xmlns="http://www.w3.org/2000/svg">
<path d="M10.5 0C9.125 0 8 1.125 8 2.5V37.5C8 38.875 9.125 40 10.5 40H35.5C36.875 40 38 38.875 38 37.5V10L28 0H10.5Z" fill="#E4E4E4"/>
<path d="M30.5 10H38L28 0V7.5C28 8.875 29.125 10 30.5 10Z" fill="#A3ABB0"/>
<path opacity="0.3" d="M38 17.5L30.5 10H38V17.5Z" fill="#A3ABB0"/>
<path d="M32.5 32.75C32.5 33.4375 31.9375 34 31.25 34H3.75C3.0625 34 2.5 33.4375 2.5 32.75V20.25C2.5 19.5625 3.0625 19 3.75 19H31.25C31.9375 19 32.5 19.5625 32.5 20.25V32.75Z" fill="#50BEE8"/>
<path d="M6.2 31V23.8H8.495C8.555 23.8 8.67333 23.8017 8.85 23.805C9.03 23.8083 9.20333 23.82 9.37 23.84C9.94 23.9133 10.4217 24.1167 10.815 24.45C11.2117 24.78 11.5117 25.2017 11.715 25.715C11.9183 26.2283 12.02 26.79 12.02 27.4C12.02 28.01 11.9183 28.5717 11.715 29.085C11.5117 29.5983 11.2117 30.0217 10.815 30.355C10.4217 30.685 9.94 30.8867 9.37 30.96C9.20667 30.98 9.035 30.9917 8.855 30.995C8.675 30.9983 8.555 31 8.495 31H6.2ZM7.425 29.865H8.495C8.595 29.865 8.72167 29.8617 8.875 29.855C9.03167 29.8483 9.17 29.8333 9.29 29.81C9.63 29.7467 9.90667 29.595 10.12 29.355C10.3333 29.115 10.49 28.8233 10.59 28.48C10.6933 28.1367 10.745 27.7767 10.745 27.4C10.745 27.01 10.6933 26.6433 10.59 26.3C10.4867 25.9567 10.3267 25.6683 10.11 25.435C9.89667 25.2017 9.62333 25.0533 9.29 24.99C9.17 24.9633 9.03167 24.9483 8.875 24.945C8.72167 24.9383 8.595 24.935 8.495 24.935H7.425V29.865ZM14.4192 31L12.3142 23.8H13.5792L15.0142 29L16.4442 23.81L17.7092 23.8L19.1442 29L20.5742 23.8H21.8392L19.7392 31H18.5492L17.0742 25.88L15.6092 31H14.4192ZM25.4298 31.15C24.9631 31.15 24.5248 31.0683 24.1148 30.905C23.7081 30.7383 23.3498 30.495 23.0398 30.175C22.7331 29.855 22.4931 29.4633 22.3198 29C22.1464 28.5333 22.0598 28 22.0598 27.4C22.0598 26.6133 22.2064 25.9417 22.4998 25.385C22.7931 24.825 23.1948 24.3967 23.7048 24.1C24.2148 23.8 24.7898 23.65 25.4298 23.65C26.3164 23.65 27.0181 23.8567 27.5348 24.27C28.0548 24.68 28.4064 25.2567 28.5898 26L27.3598 26.195C27.2231 25.7683 26.9998 25.4283 26.6898 25.175C26.3798 24.9183 25.9848 24.79 25.5048 24.79C25.0214 24.7833 24.6198 24.8883 24.2998 25.105C23.9798 25.3217 23.7381 25.6267 23.5748 26.02C23.4148 26.4133 23.3348 26.8733 23.3348 27.4C23.3348 27.9267 23.4148 28.385 23.5748 28.775C23.7348 29.1617 23.9748 29.4633 24.2948 29.68C24.6181 29.8967 25.0214 30.0083 25.5048 30.015C25.8681 30.0183 26.1864 29.9533 26.4598 29.82C26.7331 29.6833 26.9564 29.4783 27.1298 29.205C27.3031 28.9283 27.4198 28.5833 27.4798 28.17H26.2098V27.225H28.7598C28.7664 27.2783 28.7714 27.3567 28.7748 27.46C28.7781 27.5633 28.7798 27.625 28.7798 27.645C28.7798 28.325 28.6448 28.93 28.3748 29.46C28.1081 29.9867 27.7248 30.4 27.2248 30.7C26.7248 31 26.1264 31.15 25.4298 31.15Z" fill="white"/>
<path opacity="0.3" d="M31.75 33.75H8V35H31.75C32.4375 35 33 34.4375 33 33.75V32.5C33 33.1875 32.4375 33.75 31.75 33.75Z" fill="#A3ABB0"/>
</svg>
