<svg width="100" height="100" viewBox="0 0 100 100" fill="none" xmlns="http://www.w3.org/2000/svg">
<path d="M74.103 20.2819H64.7495V19.3027C64.7485 18.3622 64.3745 17.4605 63.7095 16.7954C63.0444 16.1304 62.1427 15.7563 61.2021 15.7554H58.2724C57.6343 14.0641 56.4961 12.6072 55.0093 11.579C53.5225 10.5508 51.7576 10 49.9499 10C48.1422 10 46.3774 10.5508 44.8906 11.579C43.4037 12.6072 42.2655 14.0641 41.6275 15.7554H38.6986C37.758 15.7563 36.8561 16.1303 36.1909 16.7954C35.5257 17.4604 35.1515 18.3621 35.1504 19.3027V20.2819H25.7977C24.2606 20.2837 22.787 20.8951 21.7001 21.982C20.6132 23.0689 20.0018 24.5425 20 26.0796V84.2023C20.0018 85.7394 20.6132 87.213 21.7001 88.2999C22.787 89.3868 24.2606 89.9982 25.7977 90H74.103C75.6401 89.9982 77.1137 89.3868 78.2006 88.2999C79.2875 87.213 79.8989 85.7394 79.9007 84.2023V26.0796C79.8989 24.5425 79.2875 23.0689 78.2006 21.982C77.1137 20.8951 75.6401 20.2837 74.103 20.2819ZM38.1566 19.3027C38.1568 19.1592 38.214 19.0215 38.3156 18.9201C38.4173 18.8186 38.555 18.7616 38.6986 18.7616H42.7441C43.0848 18.762 43.4156 18.6464 43.6819 18.4338C43.9483 18.2211 44.1343 17.9242 44.2094 17.5918C44.5048 16.29 45.2339 15.1273 46.2771 14.2944C47.3202 13.4615 48.6155 13.0078 49.9504 13.0078C51.2852 13.0078 52.5805 13.4615 53.6236 14.2944C54.6668 15.1273 55.3959 16.29 55.6913 17.5918C55.7664 17.9242 55.9524 18.2211 56.2188 18.4338C56.4851 18.6464 56.8159 18.762 57.1566 18.7616H61.2021C61.3456 18.7619 61.4831 18.8189 61.5845 18.9204C61.6859 19.0218 61.743 19.1593 61.7432 19.3027V26.028C61.7439 26.0993 61.7304 26.17 61.7035 26.2359C61.6765 26.3019 61.6367 26.3618 61.5863 26.4122C61.5359 26.4626 61.476 26.5024 61.41 26.5294C61.3441 26.5563 61.2734 26.5699 61.2021 26.5692H38.6986C38.6272 26.57 38.5565 26.5565 38.4904 26.5296C38.4244 26.5027 38.3643 26.4629 38.3139 26.4125C38.2634 26.3621 38.2235 26.3022 38.1965 26.2361C38.1695 26.1701 38.1559 26.0994 38.1566 26.028V19.3027ZM76.8936 84.2023C76.8927 84.9424 76.5983 85.6519 76.075 86.1752C75.5517 86.6985 74.8422 86.9929 74.1022 86.9938H25.7977C25.0576 86.9929 24.3481 86.6985 23.8248 86.1752C23.3015 85.6519 23.0071 84.9424 23.0062 84.2023V26.0796C23.0071 25.3395 23.3015 24.63 23.8248 24.1067C24.3481 23.5834 25.0576 23.289 25.7977 23.2881H35.1504V26.028C35.1518 26.9686 35.526 27.8702 36.1912 28.5352C36.8563 29.2002 37.758 29.5742 38.6986 29.5754H61.2021C62.1426 29.5742 63.0442 29.2001 63.7092 28.5351C64.3742 27.8701 64.7483 26.9685 64.7495 26.028V23.2881H74.103C74.8431 23.289 75.5526 23.5834 76.0759 24.1067C76.5992 24.63 76.8936 25.3395 76.8945 26.0796L76.8936 84.2023Z" fill="white"/>
<path d="M41.2535 35.1411H32.3156C32.1182 35.141 31.9227 35.1798 31.7403 35.2553C31.5578 35.3308 31.3921 35.4415 31.2525 35.5811C31.1129 35.7207 31.0022 35.8865 30.9267 36.0689C30.8512 36.2513 30.8124 36.4468 30.8125 36.6442V45.5821C30.8124 45.7795 30.8512 45.975 30.9267 46.1574C31.0022 46.3398 31.1129 46.5056 31.2525 46.6452C31.3921 46.7848 31.5578 46.8955 31.7403 46.971C31.9227 47.0465 32.1182 47.0853 32.3156 47.0852H41.2535C41.4509 47.0853 41.6464 47.0465 41.8288 46.971C42.0112 46.8955 42.177 46.7848 42.3166 46.6452C42.4562 46.5056 42.5669 46.3398 42.6424 46.1574C42.7179 45.975 42.7567 45.7795 42.7566 45.5821V36.6434C42.7566 36.446 42.7177 36.2506 42.6421 36.0683C42.5666 35.886 42.4559 35.7203 42.3163 35.5808C42.1767 35.4413 42.011 35.3307 41.8286 35.2552C41.6463 35.1798 41.4508 35.141 41.2535 35.1411ZM39.7504 44.0798H33.8187V38.1473H39.7504V44.0798ZM67.5878 35.9219H49.0138C48.6151 35.9219 48.2328 36.0802 47.9509 36.3621C47.669 36.644 47.5107 37.0263 47.5107 37.425C47.5107 37.8236 47.669 38.2059 47.9509 38.4878C48.2328 38.7697 48.6151 38.9281 49.0138 38.9281H67.5878C67.9864 38.9281 68.3688 38.7697 68.6506 38.4878C68.9325 38.2059 69.0909 37.8236 69.0909 37.425C69.0909 37.0263 68.9325 36.644 68.6506 36.3621C68.3688 36.0802 67.9864 35.9219 67.5878 35.9219ZM67.5878 43.3008H49.0138C48.6151 43.3008 48.2328 43.4592 47.9509 43.741C47.669 44.0229 47.5107 44.4053 47.5107 44.8039C47.5107 45.2025 47.669 45.5849 47.9509 45.8668C48.2328 46.1486 48.6151 46.307 49.0138 46.307H67.5878C67.9864 46.307 68.3688 46.1486 68.6506 45.8668C68.9325 45.5849 69.0909 45.2025 69.0909 44.8039C69.0909 44.4053 68.9325 44.0229 68.6506 43.741C68.3688 43.4592 67.9864 43.3008 67.5878 43.3008ZM41.2535 50.8859H32.3156C31.917 50.8859 31.5346 51.0442 31.2528 51.3261C30.9709 51.608 30.8125 51.9903 30.8125 52.389V61.3286C30.8125 61.7272 30.9709 62.1095 31.2528 62.3914C31.5346 62.6733 31.917 62.8317 32.3156 62.8317H41.2535C41.6521 62.8317 42.0344 62.6733 42.3163 62.3914C42.5982 62.1095 42.7566 61.7272 42.7566 61.3286V52.389C42.7566 51.9903 42.5982 51.608 42.3163 51.3261C42.0344 51.0442 41.6521 50.8859 41.2535 50.8859ZM39.7504 59.8255H33.8187V53.8921H39.7504V59.8255ZM67.5878 51.6675H49.0138C48.6151 51.6675 48.2328 51.8258 47.9509 52.1077C47.669 52.3896 47.5107 52.7719 47.5107 53.1706C47.5107 53.5692 47.669 53.9516 47.9509 54.2334C48.2328 54.5153 48.6151 54.6737 49.0138 54.6737H67.5878C67.9864 54.6737 68.3688 54.5153 68.6506 54.2334C68.9325 53.9516 69.0909 53.5692 69.0909 53.1706C69.0909 52.7719 68.9325 52.3896 68.6506 52.1077C68.3688 51.8258 67.9864 51.6675 67.5878 51.6675ZM67.5878 59.043H49.0138C48.6151 59.043 48.2328 59.2013 47.9509 59.4832C47.669 59.7651 47.5107 60.1474 47.5107 60.5461C47.5107 60.9447 47.669 61.327 47.9509 61.6089C48.2328 61.8908 48.6151 62.0492 49.0138 62.0492H67.5878C67.9864 62.0492 68.3688 61.8908 68.6506 61.6089C68.9325 61.327 69.0909 60.9447 69.0909 60.5461C69.0909 60.1474 68.9325 59.7651 68.6506 59.4832C68.3688 59.2013 67.9864 59.043 67.5878 59.043ZM41.2535 66.6324H32.3156C32.1182 66.6322 31.9227 66.671 31.7403 66.7465C31.5578 66.822 31.3921 66.9327 31.2525 67.0723C31.1129 67.2119 31.0022 67.3777 30.9267 67.5601C30.8512 67.7425 30.8124 67.938 30.8125 68.1355V77.0742C30.8125 77.4728 30.9709 77.8551 31.2528 78.137C31.5346 78.4189 31.917 78.5773 32.3156 78.5773H41.2535C41.6521 78.5773 42.0344 78.4189 42.3163 78.137C42.5982 77.8551 42.7566 77.4728 42.7566 77.0742V68.1355C42.7567 67.938 42.7179 67.7425 42.6424 67.5601C42.5669 67.3777 42.4562 67.2119 42.3166 67.0723C42.177 66.9327 42.0112 66.822 41.8288 66.7465C41.6464 66.671 41.4509 66.6322 41.2535 66.6324ZM39.7504 75.5711H33.8187V69.6386H39.7504V75.5711ZM67.5878 67.414H49.0138C48.6151 67.414 48.2328 67.5723 47.9509 67.8542C47.669 68.1361 47.5107 68.5184 47.5107 68.9171C47.5107 69.3157 47.669 69.698 47.9509 69.9799C48.2328 70.2618 48.6151 70.4202 49.0138 70.4202H67.5878C67.9864 70.4202 68.3688 70.2618 68.6506 69.9799C68.9325 69.698 69.0909 69.3157 69.0909 68.9171C69.0909 68.5184 68.9325 68.1361 68.6506 67.8542C68.3688 67.5723 67.9864 67.414 67.5878 67.414ZM67.5878 74.7886H49.0138C48.6151 74.7886 48.2328 74.947 47.9509 75.2289C47.669 75.5107 47.5107 75.8931 47.5107 76.2917C47.5107 76.6904 47.669 77.0727 47.9509 77.3546C48.2328 77.6364 48.6151 77.7948 49.0138 77.7948H67.5878C67.9864 77.7948 68.3688 77.6364 68.6506 77.3546C68.9325 77.0727 69.0909 76.6904 69.0909 76.2917C69.0909 75.8931 68.9325 75.5107 68.6506 75.2289C68.3688 74.947 67.9864 74.7886 67.5878 74.7886Z" fill="white"/>
</svg>
