<svg width="100" height="100" viewBox="0 0 100 100" fill="none" xmlns="http://www.w3.org/2000/svg">
<path d="M87.5742 1.5625H38.2455C33.2408 1.5625 29.1691 5.63418 29.1691 10.6389V22.5896L24.3461 25.09C23.4156 22.7576 21.7123 20.848 19.5803 19.6408C21.925 17.9668 23.4578 15.2258 23.4578 12.1318C23.4578 7.04609 19.3203 2.90859 14.2346 2.90859C9.14883 2.90859 5.01133 7.04609 5.01133 12.1318C5.01133 15.2252 6.54355 17.9656 8.8873 19.6396C5.58457 21.5109 3.34961 25.0559 3.34961 29.115V52.4949C3.34961 54.5443 5.01699 56.2117 7.06641 56.2117H21.4029C23.4525 56.2117 25.1199 54.5443 25.1199 52.4949V36.376L29.1691 34.2766V36.1012C29.1691 41.1059 33.2408 45.1775 38.2455 45.1775H87.574C92.5787 45.1775 96.6504 41.1059 96.6504 36.1012V10.6389C96.6504 5.63418 92.5787 1.5625 87.574 1.5625H87.5742ZM8.13633 12.1318C8.13633 8.76934 10.8721 6.03359 14.2348 6.03359C17.5975 6.03359 20.333 8.76934 20.333 12.1318C20.333 15.4943 17.5973 18.2301 14.2348 18.2301C10.8723 18.2301 8.13633 15.4943 8.13633 12.1318ZM21.4029 53.0867H7.0666C6.7457 53.0867 6.4748 52.8156 6.4748 52.4949V29.115C6.4748 24.8361 9.95586 21.3551 14.2348 21.3551C17.9422 21.3551 21.1465 24.0002 21.8535 27.6449L22.2514 29.6963L31.4734 24.915L31.4777 24.9129L32.2936 24.49C34.0465 23.5818 34.9607 25.2244 35.0594 25.4146C35.2156 25.7158 35.9076 27.2633 34.1926 28.1525L21.9951 34.4764L18.1932 36.4475C17.7127 36.6965 17.1281 36.7385 16.5887 36.5631C16.067 36.3934 15.6529 36.0465 15.4227 35.5861C15.1961 35.1328 15.1299 34.6477 15.2311 34.183C15.3192 33.7781 15.243 33.3548 15.0191 33.0061C14.7952 32.6574 14.442 32.4119 14.0371 32.3236C13.1943 32.1406 12.3615 32.6744 12.1777 33.5176C11.9268 34.6699 12.0863 35.9008 12.6277 36.9834C13.235 38.1982 14.2986 39.1041 15.6223 39.5346C16.1501 39.706 16.7017 39.7933 17.2566 39.7932C18.0818 39.7932 18.9004 39.6006 19.6314 39.2215L21.9951 37.9961V52.4949C21.9951 52.8158 21.7238 53.0867 21.4029 53.0867ZM93.5256 36.101C93.5256 39.3826 90.8559 42.0523 87.5742 42.0523H38.2455C34.9639 42.0523 32.2941 39.3826 32.2941 36.101V32.6562L35.6307 30.9264C38.0549 29.6695 38.7684 27.3971 38.3342 25.3711L48.3576 13.6514C48.491 13.4954 48.5923 13.3148 48.6559 13.1196C48.7194 12.9245 48.7439 12.7188 48.7279 12.5143C48.7119 12.3097 48.6558 12.1103 48.5627 11.9274C48.4697 11.7445 48.3415 11.5818 48.1855 11.4484C47.5303 10.8875 46.5438 10.9645 45.9826 11.6203L36.6938 22.4812C35.5736 21.4404 34.0008 20.848 32.2943 21.1988V10.6389C32.2943 7.35723 34.9641 4.6875 38.2457 4.6875H87.5742C90.8559 4.6875 93.5256 7.35723 93.5256 10.6389V36.101ZM51.7215 10.5611C51.7215 10.1467 51.8861 9.7493 52.1791 9.45628C52.4722 9.16325 52.8696 8.99863 53.284 8.99863H67.5176C67.932 8.99863 68.3294 9.16325 68.6224 9.45628C68.9155 9.7493 69.0801 10.1467 69.0801 10.5611C69.0801 10.9755 68.9155 11.373 68.6224 11.666C68.3294 11.959 67.932 12.1236 67.5176 12.1236H53.284C52.8696 12.1236 52.4722 11.959 52.1791 11.666C51.8861 11.373 51.7215 10.9755 51.7215 10.5611ZM82.3727 10.5609C82.3727 10.9753 82.208 11.3728 81.915 11.6658C81.622 11.9588 81.2246 12.1234 80.8102 12.1234H74.6127C74.1983 12.1234 73.8009 11.9588 73.5078 11.6658C73.2148 11.3728 73.0502 10.9753 73.0502 10.5609C73.0502 10.1465 73.2148 9.74911 73.5078 9.45608C73.8009 9.16306 74.1983 8.99844 74.6127 8.99844H80.8102C81.2246 8.99844 81.622 9.16306 81.915 9.45608C82.208 9.74911 82.3727 10.1465 82.3727 10.5609ZM50.8596 19.1004C50.8596 18.686 51.0242 18.2886 51.3172 17.9955C51.6102 17.7025 52.0077 17.5379 52.4221 17.5379H80.6367C81.0511 17.5379 81.4485 17.7025 81.7416 17.9955C82.0346 18.2886 82.1992 18.686 82.1992 19.1004C82.1992 19.5148 82.0346 19.9122 81.7416 20.2052C81.4485 20.4983 81.0511 20.6629 80.6367 20.6629H52.4221C52.0077 20.6629 51.6102 20.4983 51.3172 20.2052C51.0242 19.9122 50.8596 19.5148 50.8596 19.1004ZM48.7285 27.6398C48.7285 27.2254 48.8931 26.828 49.1862 26.535C49.4792 26.242 49.8766 26.0773 50.291 26.0773H68.3967C68.8111 26.0773 69.2085 26.242 69.5015 26.535C69.7946 26.828 69.9592 27.2254 69.9592 27.6398C69.9592 28.0542 69.7946 28.4517 69.5015 28.7447C69.2085 29.0377 68.8111 29.2023 68.3967 29.2023H50.291C49.8766 29.2023 49.4792 29.0377 49.1862 28.7447C48.8931 28.4517 48.7285 28.0542 48.7285 27.6398ZM82.1992 27.6396C82.1992 28.054 82.0346 28.4515 81.7416 28.7445C81.4485 29.0375 81.0511 29.2021 80.6367 29.2021H74.9297C74.5153 29.2021 74.1179 29.0375 73.8248 28.7445C73.5318 28.4515 73.3672 28.054 73.3672 27.6396C73.3672 27.2252 73.5318 26.8278 73.8248 26.5348C74.1179 26.2418 74.5153 26.0771 74.9297 26.0771H80.6367C81.0511 26.0771 81.4485 26.2418 81.7416 26.5348C82.0346 26.8278 82.1992 27.2252 82.1992 27.6396ZM82.3727 36.1793C82.3727 36.5937 82.208 36.9911 81.915 37.2842C81.622 37.5772 81.2246 37.7418 80.8102 37.7418H58.9344C58.52 37.7418 58.1225 37.5772 57.8295 37.2842C57.5365 36.9911 57.3719 36.5937 57.3719 36.1793C57.3719 35.7649 57.5365 35.3675 57.8295 35.0744C58.1225 34.7814 58.52 34.6168 58.9344 34.6168H80.8102C81.2246 34.6168 81.622 34.7814 81.915 35.0744C82.208 35.3675 82.3727 35.7649 82.3727 36.1793ZM53.6012 36.1791C53.6012 36.5935 53.4366 36.9909 53.1435 37.284C52.8505 37.577 52.4531 37.7416 52.0387 37.7416H46.015C45.6006 37.7416 45.2032 37.577 44.9102 37.284C44.6172 36.9909 44.4525 36.5935 44.4525 36.1791C44.4525 35.7647 44.6172 35.3673 44.9102 35.0742C45.2032 34.7812 45.6006 34.6166 46.015 34.6166H52.0387C52.4531 34.6166 52.8505 34.7812 53.1435 35.0742C53.4366 35.3673 53.6012 35.7647 53.6012 36.1791ZM91.8078 85.665H89.3689C87.9424 80.557 84.1617 76.524 79.3654 74.6633C81.7816 72.843 83.3471 69.951 83.3471 66.6996C83.3471 61.2043 78.8764 56.7336 73.3813 56.7336C67.8861 56.7336 63.4152 61.2043 63.4152 66.6996C63.4152 69.9508 64.9807 72.8428 67.3969 74.6631C65.8682 75.2564 64.4355 76.072 63.1449 77.0836C61.2709 74.6455 58.8022 72.8133 56.0018 71.7348C58.4082 69.9137 59.9664 67.0279 59.9664 63.7844C59.9664 58.2891 55.4955 53.8184 50.0004 53.8184C44.5053 53.8184 40.0346 58.2891 40.0346 63.7844C40.0346 67.0277 41.5926 69.9135 43.9988 71.7344C41.1951 72.8141 38.724 74.6492 36.849 77.0918C35.5583 76.0796 34.1252 75.2635 32.5961 74.6697C35.0109 72.8502 36.5754 69.9594 36.5754 66.7098C36.5754 61.2164 32.1062 56.7473 26.6129 56.7473C21.1195 56.7473 16.6506 61.2164 16.6506 66.7098C16.6506 69.9594 18.215 72.85 20.6297 74.6695C15.8361 76.5295 12.0576 80.56 10.6314 85.665H8.19238C5.52207 85.665 3.3498 87.8375 3.3498 90.5074V95.5717C3.3498 97.1521 4.63574 98.4379 6.21621 98.4379H93.7842C95.3646 98.4379 96.6506 97.1521 96.6506 95.5717V90.5074C96.6506 87.8373 94.4783 85.665 91.808 85.665H91.8078ZM66.54 66.6996C66.54 62.9275 69.609 59.8586 73.3811 59.8586C77.1531 59.8586 80.2219 62.9275 80.2219 66.6996C80.2219 70.4717 77.1563 73.5373 73.3869 73.5404H73.375C69.6057 73.5371 66.54 70.4697 66.54 66.6996ZM73.3811 76.6656H73.3869C79.157 76.6682 84.2266 80.3549 86.0947 85.6652H60.6666C62.535 80.3547 67.6047 76.6682 73.3748 76.6656H73.3809H73.3811ZM43.1592 63.7846C43.1592 60.0125 46.2279 56.9436 50 56.9436C53.7721 56.9436 56.841 60.0123 56.841 63.7846C56.841 67.5568 53.777 70.6205 50.0092 70.6254H49.9906C46.2227 70.6203 43.159 67.5535 43.159 63.7846H43.1592ZM49.9908 73.7504L50.0002 73.7506L50.0094 73.7504C54.351 73.7533 58.3258 75.7871 60.8605 79.2455C59.24 81.0998 58.0552 83.2933 57.393 85.6652H42.5941C41.9327 83.2972 40.7501 81.1071 39.133 79.2551C41.6672 75.7908 45.6449 73.7535 49.9912 73.7506L49.9908 73.7504ZM19.7754 66.7098C19.7754 62.9396 22.8426 59.8723 26.6127 59.8723C30.3828 59.8723 33.4502 62.9396 33.4502 66.7098C33.4502 70.4799 30.3861 73.5437 26.6187 73.5469H26.6068C22.8396 73.5436 19.7754 70.4777 19.7754 66.7098ZM26.6066 76.6719H26.6186C32.385 76.6744 37.4516 80.3584 39.3195 85.665H13.9055C15.7734 80.3584 20.8402 76.6744 26.6066 76.6719ZM93.5256 95.3129H6.47441V90.5074C6.47441 89.5604 7.24492 88.79 8.19199 88.79H11.8576L11.8635 88.7902L11.8699 88.79H88.1301L88.1365 88.7902L88.1424 88.79H91.8078C92.7549 88.79 93.5254 89.5605 93.5254 90.5074V95.3129H93.5256Z" fill="white"/>
</svg>
