<svg width="60" height="60" viewBox="0 0 60 60" fill="none" xmlns="http://www.w3.org/2000/svg">
<g clip-path="url(#clip0_12_185)">
<path d="M45.1021 34.7357H39.8102C39.5927 34.7357 39.384 34.8221 39.2302 34.9759C39.0763 35.1298 38.9899 35.3384 38.9899 35.556V39.5127C38.9899 39.7302 39.0763 39.9389 39.2302 40.0927C39.384 40.2466 39.5927 40.333 39.8102 40.333H45.1021C45.3196 40.333 45.5283 40.2466 45.6821 40.0927C45.8359 39.9389 45.9224 39.7302 45.9224 39.5127V35.556C45.9224 35.3384 45.8359 35.1298 45.6821 34.9759C45.5283 34.8221 45.3196 34.7357 45.1021 34.7357ZM44.2817 38.6924H40.6305V36.3763H44.2817V38.6924ZM45.9224 15.2221V11.2653C45.9224 11.0478 45.8359 10.8391 45.6821 10.6853C45.5283 10.5314 45.3196 10.445 45.1021 10.445H30.4559C30.2383 10.445 30.0296 10.5314 29.8758 10.6853C29.722 10.8391 29.6355 11.0478 29.6355 11.2653V15.2221C29.6355 15.4396 29.722 15.6483 29.8758 15.8021C30.0296 15.9559 30.2383 16.0424 30.4559 16.0424H45.1021C45.3196 16.0424 45.5283 15.9559 45.6821 15.8021C45.8359 15.6483 45.9224 15.4396 45.9224 15.2221ZM44.2817 14.4017H31.2762V12.0856H44.2817V14.4017ZM58.9704 53.8685H58.6724V6.05553H58.8115C59.029 6.05553 59.2377 5.9691 59.3915 5.81527C59.5454 5.66143 59.6318 5.45278 59.6318 5.23522V1.51276C59.6318 1.2952 59.5454 1.08655 59.3915 0.932708C59.2377 0.778869 59.029 0.692444 58.8115 0.692444H26.5514C26.3338 0.692444 26.1252 0.778869 25.9713 0.932708C25.8175 1.08655 25.7311 1.2952 25.7311 1.51276V5.23522C25.7311 5.39788 25.7795 5.55686 25.8701 5.69195C25.9607 5.82704 26.0894 5.93214 26.2399 5.99389V8.74311L1.9146 15.7919C1.74388 15.8414 1.59385 15.945 1.48708 16.0871C1.38031 16.2292 1.32258 16.4022 1.32257 16.5799V53.8685H1.0296C0.812042 53.8685 0.603392 53.9549 0.449553 54.1088C0.295715 54.2626 0.20929 54.4713 0.20929 54.6888V58.4872C0.20929 58.7048 0.295715 58.9134 0.449553 59.0673C0.603392 59.2211 0.812042 59.3075 1.0296 59.3075H58.9704C59.1879 59.3075 59.3966 59.2211 59.5504 59.0673C59.7043 58.9134 59.7907 58.7048 59.7907 58.4872V54.6888C59.7907 54.4713 59.7043 54.2626 59.5504 54.1088C59.3966 53.9549 59.1879 53.8685 58.9704 53.8685ZM27.3717 2.33307H57.991V4.4149H27.3717V2.33307ZM37.577 32.1547L37.5642 32.1431L27.8805 23.6776V6.05553H57.0317V53.8685H35.9721V36.5767C35.9973 36.5775 36.0226 36.5784 36.0478 36.5784C36.7541 36.5784 37.4058 36.2607 37.8567 35.7663C38.6872 34.8556 38.8577 33.3226 37.577 32.1547ZM36.4772 33.3721C36.7861 33.6562 36.9137 33.9689 36.8462 34.2767C36.7832 34.5643 36.5611 34.8078 36.2805 34.897C35.9782 34.993 35.6531 34.8929 35.3392 34.6066L23.8445 24.1543C23.688 24.0119 23.4905 23.9409 23.2926 23.9409C23.0948 23.9409 22.8975 24.0119 22.7412 24.154L11.2528 34.5888C10.9126 34.8573 10.5714 34.9454 10.2896 34.8368C10.1782 34.7936 10.08 34.7219 10.0049 34.6289C9.92975 34.5358 9.88038 34.4247 9.86167 34.3066C9.81421 34.0036 9.97839 33.6831 10.3242 33.4039C10.3349 33.3954 10.3453 33.3865 10.3556 33.3772L21.876 23.0843C22.6784 22.3674 23.8917 22.3632 24.7015 23.0776L36.4772 33.3721ZM25.3693 42.7929H21.1984C19.7911 42.7929 18.6463 43.9378 18.6463 45.345V53.8684H12.2365V35.9006C12.2577 35.8842 12.2792 35.8689 12.3003 35.8519C12.3128 35.8418 12.3248 35.8315 12.3367 35.8207L23.2924 25.8696L34.2347 35.8195C34.2668 35.8488 34.2991 35.8768 34.3315 35.9042V53.8684H27.9217V45.345C27.9217 43.9377 26.7765 42.7929 25.3693 42.7929ZM26.281 45.345V53.8595H20.287V45.345C20.287 44.8424 20.6959 44.4335 21.1985 44.4335H25.3694C25.8721 44.4335 26.281 44.8424 26.281 45.345ZM10.5959 36.5216V38.6924H7.99148V36.3763H9.72445C10.0029 36.4801 10.2988 36.5294 10.5959 36.5216ZM7.99148 29.8963V27.5803H11.6426V29.8963H7.99148ZM20.0692 22.4985H17.3459V20.1825H20.9971V21.6842C20.9242 21.7404 20.8523 21.7986 20.7827 21.8608L20.0692 22.4983V22.4985ZM2.9632 17.1962L26.2399 10.4514V22.2433L25.7839 21.8448C24.8972 21.0627 23.7332 20.7689 22.6377 20.9613V19.3622C22.6377 19.1446 22.5513 18.936 22.3974 18.7821C22.2436 18.6283 22.0349 18.5419 21.8174 18.5419H16.5255C16.308 18.5419 16.0993 18.6283 15.9455 18.7821C15.7917 18.936 15.7052 19.1446 15.7052 19.3622V23.3188C15.7052 23.5363 15.7917 23.745 15.9455 23.8988C16.0993 24.0527 16.308 24.1391 16.5255 24.1391H18.2328L13.2832 28.5614V26.76C13.2832 26.6523 13.262 26.5456 13.2208 26.4461C13.1795 26.3465 13.1191 26.2561 13.0429 26.1799C12.9668 26.1038 12.8763 26.0433 12.7768 26.0021C12.6773 25.9609 12.5706 25.9397 12.4629 25.9397H7.17116C6.9536 25.9397 6.74495 26.0261 6.59112 26.1799C6.43728 26.3338 6.35085 26.5424 6.35085 26.76V30.7166C6.35085 30.9341 6.43728 31.1428 6.59112 31.2966C6.74495 31.4505 6.9536 31.5369 7.17116 31.5369H9.95296L9.27679 32.141C8.47921 32.7928 8.10187 33.6735 8.24085 34.5606C8.25011 34.6196 8.2623 34.6779 8.27601 34.7355H7.17128C6.95372 34.7355 6.74507 34.822 6.59123 34.9758C6.43739 35.1296 6.35097 35.3383 6.35097 35.5558V39.5126C6.35097 39.7301 6.43739 39.9388 6.59123 40.0926C6.74507 40.2465 6.95372 40.3329 7.17128 40.3329H10.596V42.8324H7.17128C6.95372 42.8324 6.74507 42.9188 6.59123 43.0726C6.43739 43.2265 6.35097 43.4351 6.35097 43.6527V47.6094C6.35097 47.827 6.43739 48.0356 6.59123 48.1894C6.74507 48.3433 6.95372 48.4297 7.17128 48.4297H10.596V53.8684H2.9632V17.1962ZM10.5959 44.4731V46.7892H7.99148V44.4731H10.5959ZM58.1501 57.6669H1.84991V55.5091H58.1501V57.6669ZM45.1021 26.6387H39.8102C39.5927 26.6387 39.384 26.7251 39.2302 26.879C39.0763 27.0328 38.9899 27.2414 38.9899 27.459V31.4157C38.9899 31.6333 39.0763 31.8419 39.2302 31.9958C39.384 32.1496 39.5927 32.236 39.8102 32.236H45.1021C45.3196 32.236 45.5283 32.1496 45.6821 31.9958C45.8359 31.8419 45.9224 31.6333 45.9224 31.4157V27.459C45.9224 27.2414 45.8359 27.0328 45.6821 26.879C45.5283 26.7251 45.3196 26.6387 45.1021 26.6387ZM44.2817 30.5954H40.6305V28.2793H44.2817V30.5954ZM45.1021 42.8325H39.8102C39.5927 42.8325 39.384 42.9189 39.2302 43.0728C39.0763 43.2266 38.9899 43.4352 38.9899 43.6528V47.6095C38.9899 47.8271 39.0763 48.0357 39.2302 48.1896C39.384 48.3434 39.5927 48.4298 39.8102 48.4298H45.1021C45.3196 48.4298 45.5283 48.3434 45.6821 48.1896C45.8359 48.0357 45.9224 47.8271 45.9224 47.6095V43.6528C45.9224 43.4352 45.8359 43.2266 45.6821 43.0728C45.5283 42.9189 45.3196 42.8325 45.1021 42.8325ZM44.2817 46.7892H40.6305V44.4731H44.2817V46.7892ZM25.8248 34.8061H20.5638C20.3463 34.8061 20.1376 34.8925 19.9838 35.0463C19.8299 35.2002 19.7435 35.4088 19.7435 35.6264V40.0195C19.7435 40.2371 19.8299 40.4457 19.9838 40.5996C20.1376 40.7534 20.3463 40.8398 20.5638 40.8398H25.8248C26.0424 40.8398 26.251 40.7534 26.4049 40.5996C26.5587 40.4457 26.6451 40.2371 26.6451 40.0195V35.6264C26.6451 35.4088 26.5587 35.2002 26.4049 35.0463C26.251 34.8925 26.0424 34.8061 25.8248 34.8061ZM25.0045 39.1992H21.3841V36.4467H25.0045V39.1992ZM49.1647 24.1391H54.4564C54.674 24.1391 54.8826 24.0527 55.0365 23.8988C55.1903 23.745 55.2767 23.5363 55.2767 23.3188V19.3622C55.2767 19.1446 55.1903 18.936 55.0365 18.7821C54.8826 18.6283 54.674 18.5419 54.4564 18.5419H49.1647C48.9472 18.5419 48.7385 18.6283 48.5847 18.7821C48.4308 18.936 48.3444 19.1446 48.3444 19.3622V23.3188C48.3444 23.5363 48.4308 23.745 48.5847 23.8988C48.7385 24.0527 48.9472 24.1391 49.1647 24.1391ZM49.985 20.1826H53.6361V22.4986H49.985V20.1826ZM35.7477 18.542H30.4559C30.2383 18.542 30.0296 18.6284 29.8758 18.7822C29.722 18.9361 29.6355 19.1447 29.6355 19.3623V23.3189C29.6355 23.5365 29.722 23.7451 29.8758 23.8989C30.0296 24.0528 30.2383 24.1392 30.4559 24.1392H35.7477C35.9652 24.1392 36.1739 24.0528 36.3277 23.8989C36.4816 23.7451 36.568 23.5365 36.568 23.3189V19.3623C36.568 19.1447 36.4816 18.9361 36.3277 18.7822C36.1739 18.6284 35.9652 18.542 35.7477 18.542ZM34.9274 22.4985H31.2762V20.1825H34.9274V22.4985ZM49.1647 40.333H54.4564C54.674 40.333 54.8826 40.2466 55.0365 40.0927C55.1903 39.9389 55.2767 39.7302 55.2767 39.5127V35.556C55.2767 35.3384 55.1903 35.1298 55.0365 34.9759C54.8826 34.8221 54.674 34.7357 54.4564 34.7357H49.1647C48.9472 34.7357 48.7385 34.8221 48.5847 34.9759C48.4308 35.1298 48.3444 35.3384 48.3444 35.556V39.5127C48.3444 39.7302 48.4308 39.9389 48.5847 40.0927C48.7385 40.2466 48.9472 40.333 49.1647 40.333ZM49.985 36.3763H53.6361V38.6924H49.985V36.3763ZM49.1647 32.236H54.4564C54.674 32.236 54.8826 32.1496 55.0365 31.9958C55.1903 31.8419 55.2767 31.6333 55.2767 31.4157V27.459C55.2767 27.2414 55.1903 27.0328 55.0365 26.879C54.8826 26.7251 54.674 26.6387 54.4564 26.6387H49.1647C48.9472 26.6387 48.7385 26.7251 48.5847 26.879C48.4308 27.0328 48.3444 27.2414 48.3444 27.459V31.4157C48.3444 31.6333 48.4308 31.8419 48.5847 31.9958C48.7385 32.1496 48.9472 32.236 49.1647 32.236ZM49.985 28.2793H53.6361V30.5954H49.985V28.2793ZM49.1647 48.4298H54.4564C54.674 48.4298 54.8826 48.3434 55.0365 48.1896C55.1903 48.0357 55.2767 47.8271 55.2767 47.6095V43.6528C55.2767 43.4352 55.1903 43.2266 55.0365 43.0728C54.8826 42.9189 54.674 42.8325 54.4564 42.8325H49.1647C48.9472 42.8325 48.7385 42.9189 48.5847 43.0728C48.4308 43.2266 48.3444 43.4352 48.3444 43.6528V47.6095C48.3444 47.8271 48.4308 48.0357 48.5847 48.1896C48.7385 48.3434 48.9472 48.4298 49.1647 48.4298ZM49.985 44.4731H53.6361V46.7892H49.985V44.4731ZM45.1021 18.542H39.8102C39.5927 18.542 39.384 18.6284 39.2302 18.7822C39.0763 18.9361 38.9899 19.1447 38.9899 19.3623V23.3189C38.9899 23.5365 39.0763 23.7451 39.2302 23.8989C39.384 24.0528 39.5927 24.1392 39.8102 24.1392H45.1021C45.3196 24.1392 45.5283 24.0528 45.6821 23.8989C45.8359 23.7451 45.9224 23.5365 45.9224 23.3189V19.3623C45.9224 19.1447 45.8359 18.9361 45.6821 18.7822C45.5283 18.6284 45.3196 18.542 45.1021 18.542ZM44.2817 22.4985H40.6305V20.1825H44.2817V22.4985ZM7.17116 24.1391H12.4629C12.6804 24.1391 12.8891 24.0527 13.0429 23.8988C13.1968 23.745 13.2832 23.5363 13.2832 23.3188V19.3622C13.2832 19.1446 13.1968 18.936 13.0429 18.7821C12.8891 18.6283 12.6804 18.5419 12.4629 18.5419H7.17116C6.9536 18.5419 6.74495 18.6283 6.59112 18.7821C6.43728 18.936 6.35085 19.1446 6.35085 19.3622V23.3188C6.35085 23.5363 6.43728 23.745 6.59112 23.8988C6.74495 24.0527 6.9536 24.1391 7.17116 24.1391ZM7.99148 20.1826H11.6426V22.4986H7.99148V20.1826ZM49.1647 16.0424H54.4564C54.674 16.0424 54.8826 15.9559 55.0365 15.8021C55.1903 15.6483 55.2767 15.4396 55.2767 15.2221V11.2653C55.2767 11.0478 55.1903 10.8391 55.0365 10.6853C54.8826 10.5314 54.674 10.445 54.4564 10.445H49.1647C48.9472 10.445 48.7385 10.5314 48.5847 10.6853C48.4308 10.8391 48.3444 11.0478 48.3444 11.2653V15.2221C48.3444 15.4396 48.4308 15.6483 48.5847 15.8021C48.7385 15.9559 48.9472 16.0424 49.1647 16.0424ZM49.985 12.0856H53.6361V14.4017H49.985V12.0856Z" fill="#345766"/>
</g>
<defs>
<clipPath id="clip0_12_185">
<rect width="60" height="60" fill="white"/>
</clipPath>
</defs>
</svg>
