<svg width="24" height="24" viewBox="0 0 24 24" fill="none" xmlns="http://www.w3.org/2000/svg">
<path d="M18.3574 10.2065V6.40577C18.3676 4.68603 17.6807 3.03244 16.4545 1.82658C15.269 0.646173 13.7172 0 12.0738 0H11.9924C8.48676 0.00508798 5.63749 2.87471 5.63749 6.40577V10.2065C4.31462 10.3642 3.3479 11.4734 3.3479 12.8166V21.3542C3.3479 22.8043 4.50796 24 5.95803 24H18.042C19.4921 24 20.6521 22.8043 20.6521 21.3542V12.8166C20.647 11.4785 19.6803 10.3642 18.3574 10.2065ZM6.65 6.40577H6.65509C6.65509 3.43439 9.05153 1.00233 11.9975 1.00233H12.0026C13.4017 0.997244 14.745 1.55183 15.7371 2.5389C16.77 3.56159 17.3449 4.95569 17.3348 6.40577V10.2116H16.2154V6.40577C16.2256 5.25079 15.7677 4.14162 14.9485 3.32754C14.1751 2.55417 13.127 2.1166 12.0331 2.1166H12.0026C9.66208 2.1166 7.76935 4.03986 7.76935 6.40068V10.2116H6.65V6.40577ZM15.2029 6.40577V10.2116H8.79204V6.40577C8.79204 4.60462 10.2268 3.13928 12.0076 3.13928H12.0382C12.8624 3.13928 13.6561 3.47 14.2413 4.05512C14.862 4.67585 15.2131 5.52555 15.2029 6.40577ZM19.6803 21.3695C19.6803 22.2599 18.9578 22.9824 18.0674 22.9824H5.97839C5.08799 22.9824 4.3655 22.2599 4.3655 21.3695V12.8421C4.3655 11.9517 5.08799 11.2292 5.97839 11.2292H18.0674C18.9578 11.2292 19.6803 11.9517 19.6803 12.8421V21.3695Z" fill="#161E2D"/>
<path d="M13.7576 16.7909C13.5337 16.0022 12.8163 15.4629 11.9972 15.4629C10.9847 15.4629 10.1604 16.2821 10.1604 17.2997C10.1604 18.1188 10.6997 18.8362 11.4884 19.0601V20.4847C11.4884 20.7646 11.7173 20.9935 11.9972 20.9935C12.277 20.9935 12.506 20.7646 12.506 20.4847V19.0601C13.4778 18.7803 14.0425 17.7627 13.7576 16.7909ZM11.9972 18.1137C11.5443 18.1137 11.178 17.7474 11.178 17.2946C11.178 16.8417 11.5443 16.4754 11.9972 16.4754C12.45 16.4754 12.8163 16.8417 12.8163 17.2946C12.8163 17.7474 12.45 18.1137 11.9972 18.1137Z" fill="#161E2D"/>
</svg>
