<svg width="70" height="70" viewBox="0 0 70 70" fill="none" xmlns="http://www.w3.org/2000/svg">
<g clip-path="url(#clip0_12_154)">
<path d="M69.8163 68.2995C69.6206 68.006 64.8469 61.0437 49.601 55.3567C49.3292 55.2554 49.0283 55.2661 48.7644 55.3866C48.5006 55.5071 48.2954 55.7275 48.194 55.9993C48.0926 56.271 48.1033 56.572 48.2238 56.8358C48.3443 57.0997 48.5647 57.3049 48.8365 57.4063C63.3347 62.8143 67.9535 69.4499 67.9962 69.513C68.1579 69.7527 68.4078 69.9186 68.6914 69.9745C68.9751 70.0304 69.2693 69.9718 69.5098 69.8114C69.7503 69.6511 69.9175 69.402 69.975 69.1187C70.0324 68.8354 69.9753 68.5409 69.8163 68.2995ZM1.09375 59.0625C24.4453 59.0625 36.488 61.581 37.2559 61.581C38.5897 61.581 38.7531 59.6216 37.4292 59.4072C27.0413 57.727 14.8163 56.875 1.09375 56.875C0.803669 56.875 0.52547 56.9902 0.320352 57.1954C0.115234 57.4005 0 57.6787 0 57.9688C0 58.2588 0.115234 58.537 0.320352 58.7422C0.52547 58.9473 0.803669 59.0625 1.09375 59.0625ZM64.1378 68.0661C63.9506 67.91 59.3996 64.2085 46.0891 61.101C45.8066 61.035 45.5095 61.084 45.2631 61.2371C45.0168 61.3902 44.8413 61.6349 44.7753 61.9174C44.7094 62.1999 44.7583 62.497 44.9114 62.7434C45.0645 62.9898 45.3093 63.1652 45.5917 63.2312C63.0741 67.3127 62.7621 71.4252 64.2776 69.6065C64.4634 69.3837 64.5529 69.0962 64.5267 68.8074C64.5005 68.5185 64.3606 68.2519 64.1378 68.0661ZM1.09375 64.5313C8.19355 64.5313 11.4297 64.6734 12.0345 64.6734C13.4617 64.6734 13.4917 62.5248 12.0634 62.4859C8.53822 62.3917 4.8475 62.3438 1.09375 62.3438C0.803669 62.3438 0.52547 62.459 0.320352 62.6641C0.115234 62.8692 0 63.1474 0 63.4375C0 63.7276 0.115234 64.0058 0.320352 64.2109C0.52547 64.416 0.803669 64.5313 1.09375 64.5313ZM56.1739 67.8854C55.7799 67.7338 46.2299 64.1573 20.8111 62.8279C20.5221 62.814 20.2394 62.9151 20.0249 63.1092C19.8103 63.3032 19.6814 63.5743 19.6663 63.8632C19.6512 64.1521 19.7511 64.4352 19.9442 64.6506C20.1374 64.8659 20.4079 64.996 20.6968 65.0124C54.3288 66.7714 55.86 71.7474 56.8021 69.2989C56.8537 69.1649 56.8784 69.0219 56.8747 68.8784C56.871 68.7348 56.8391 68.5933 56.7808 68.462C56.7224 68.3308 56.6388 68.2123 56.5347 68.1133C56.4306 68.0144 56.308 67.9369 56.1739 67.8854ZM31.7188 67.8125H1.09375C0.803669 67.8125 0.52547 67.9277 0.320352 68.1329C0.115234 68.338 0 68.6162 0 68.9063C0 69.1963 0.115234 69.4745 0.320352 69.6797C0.52547 69.8848 0.803669 70 1.09375 70H31.7188C32.0088 70 32.287 69.8848 32.4921 69.6797C32.6973 69.4745 32.8125 69.1963 32.8125 68.9063C32.8125 68.6162 32.6973 68.338 32.4921 68.1329C32.287 67.9277 32.0088 67.8125 31.7188 67.8125ZM68.9062 48.125C67.7595 48.125 66.6658 48.1539 65.625 48.2117V45.9375C65.625 45.6474 65.5098 45.3692 65.3046 45.1641C65.0995 44.959 64.8213 44.8438 64.5312 44.8438C64.2412 44.8438 63.963 44.959 63.7579 45.1641C63.5527 45.3692 63.4375 45.6474 63.4375 45.9375V48.3727C61.8439 48.5231 60.3887 48.7353 59.0625 48.988V46.9219C60.297 46.6681 61.4062 45.9965 62.2031 45.0203C63.0001 44.044 63.436 42.8228 63.4375 41.5625V37.1875C63.4375 35.7371 62.8613 34.3461 61.8357 33.3205C60.8102 32.2949 59.4192 31.7188 57.9688 31.7188C56.5183 31.7188 55.1273 32.2949 54.1018 33.3205C53.0762 34.3461 52.5 35.7371 52.5 37.1875V41.5625C52.5015 42.8228 52.9374 44.044 53.7344 45.0203C54.5313 45.9965 55.6405 46.6681 56.875 46.9219V49.4691C54.8214 49.9641 52.8262 50.6757 50.9229 51.5921C50.7941 51.6555 50.679 51.7438 50.5842 51.8517C50.4895 51.9597 50.4169 52.0852 50.3707 52.2212C50.3244 52.3572 50.3054 52.501 50.3148 52.6443C50.3241 52.7876 50.3616 52.9277 50.425 53.0566C50.4885 53.1855 50.5767 53.3005 50.6847 53.3953C50.7926 53.4901 50.9182 53.5626 51.0542 53.6089C51.1902 53.6551 51.3339 53.6741 51.4773 53.6648C51.6206 53.6555 51.7607 53.618 51.8896 53.5545C54.8915 52.0751 60.2804 50.3125 68.9062 50.3125C69.1963 50.3125 69.4745 50.1973 69.6796 49.9922C69.8848 49.787 70 49.5088 70 49.2188C70 48.9287 69.8848 48.6505 69.6796 48.4454C69.4745 48.2402 69.1963 48.125 68.9062 48.125ZM57.9688 38.2813C57.6787 38.2813 57.4005 38.3965 57.1954 38.6016C56.9902 38.8067 56.875 39.0849 56.875 39.375V44.6556C56.2358 44.4288 55.6824 44.0098 55.2907 43.456C54.8991 42.9022 54.6884 42.2408 54.6875 41.5625V37.1875C54.6875 36.3173 55.0332 35.4827 55.6486 34.8673C56.2639 34.252 57.0985 33.9063 57.9688 33.9063C58.839 33.9063 59.6736 34.252 60.2889 34.8673C60.9043 35.4827 61.25 36.3173 61.25 37.1875V41.5625C61.2491 42.2408 61.0384 42.9022 60.6468 43.456C60.2551 44.0098 59.7017 44.4288 59.0625 44.6556V39.375C59.0625 39.0849 58.9473 38.8067 58.7421 38.6016C58.537 38.3965 58.2588 38.2813 57.9688 38.2813ZM68.9062 53.5938C64.75 53.5938 61.041 53.8509 57.8815 54.3582C57.7397 54.3809 57.6037 54.4314 57.4814 54.5067C57.3591 54.582 57.2528 54.6807 57.1686 54.7971C57.0844 54.9135 57.0239 55.0453 56.9907 55.1851C56.9574 55.3248 56.952 55.4698 56.9748 55.6116C56.9976 55.7534 57.048 55.8894 57.1234 56.0117C57.1987 56.1341 57.2973 56.2403 57.4137 56.3245C57.5301 56.4087 57.662 56.4692 57.8017 56.5024C57.9415 56.5357 58.0864 56.5411 58.2282 56.5183C61.2734 56.0291 64.8661 55.7813 68.9062 55.7813C69.1963 55.7813 69.4745 55.666 69.6796 55.4609C69.8848 55.2558 70 54.9776 70 54.6875C70 54.3974 69.8848 54.1192 69.6796 53.9141C69.4745 53.709 69.1963 53.5938 68.9062 53.5938ZM68.9062 57.9688C67.4337 57.9688 65.9531 58.0234 64.5039 58.1304C64.2162 58.1538 63.9493 58.29 63.7616 58.5093C63.5739 58.7286 63.4805 59.0133 63.5018 59.3012C63.5231 59.5891 63.6573 59.8569 63.8753 60.0462C64.0932 60.2356 64.3772 60.331 64.6652 60.3118C66.0765 60.208 67.4911 60.1561 68.9062 60.1563C69.1963 60.1563 69.4745 60.041 69.6796 59.8359C69.8848 59.6308 70 59.3526 70 59.0625C70 58.7724 69.8848 58.4942 69.6796 58.2891C69.4745 58.084 69.1963 57.9688 68.9062 57.9688ZM12.1525 36.6885C11.9662 37.0508 12.0369 35.9229 12.0312 53.5938C12.0312 53.8838 12.1465 54.162 12.3516 54.3672C12.5567 54.5723 12.8349 54.6875 13.125 54.6875H44.8438C45.1338 54.6875 45.412 54.5723 45.6171 54.3672C45.8223 54.162 45.9375 53.8838 45.9375 53.5938C45.8601 36.5967 46.1308 37.0807 45.7187 36.5313C42.2364 31.939 42.452 32.0606 42.1051 31.8629C33.9345 27.1946 34.3212 27.3438 33.9062 27.3438C23.6459 27.3937 23.993 27.2174 23.5199 27.4879L15.8636 31.8629C15.5904 32.0195 12.2437 36.5117 12.1525 36.6885ZM21.875 52.5H14.2188V38.2813H21.875V52.5ZM32.3596 47.0313L28.4375 50.9533V43.1092L32.3596 47.0313ZM29.9842 41.5625H37.8283L33.9062 45.4846L29.9842 41.5625ZM29.9842 52.5L33.9062 48.578L37.8283 52.5H29.9842ZM39.375 50.9533L35.4529 47.0313L39.375 43.1092V50.9533ZM40.8233 33.6499L43.75 37.5521V52.5H41.5625C41.5604 39.6107 41.7463 40.0645 41.1265 39.5964C40.9369 39.4536 40.7061 39.3759 40.4688 39.375C26.3174 39.375 26.8736 39.2042 26.434 39.8617C26.0948 40.369 26.3181 40.0797 26.25 52.5H24.0625V37.5521L26.9892 33.6499L33.9062 29.6972L40.8233 33.6499ZM24.353 29.5313H29.7877C25.5291 31.9994 25.6141 31.8374 25.375 32.1563L22.4219 36.0938H15.3125L17.1455 33.6499L24.353 29.5313Z" fill="#345766"/>
<path d="M31.7188 37.1875C32.3228 37.1875 32.8125 36.6978 32.8125 36.0938C32.8125 35.4897 32.3228 35 31.7188 35C31.1147 35 30.625 35.4897 30.625 36.0938C30.625 36.6978 31.1147 37.1875 31.7188 37.1875Z" fill="#345766"/>
<path d="M41.5625 62.3438C42.1666 62.3438 42.6562 61.8541 42.6562 61.25C42.6562 60.6459 42.1666 60.1562 41.5625 60.1562C40.9584 60.1562 40.4688 60.6459 40.4688 61.25C40.4688 61.8541 40.9584 62.3438 41.5625 62.3438Z" fill="#345766"/>
<path d="M16.4062 64.5312C17.0103 64.5312 17.5 64.0416 17.5 63.4375C17.5 62.8334 17.0103 62.3438 16.4062 62.3438C15.8022 62.3438 15.3125 62.8334 15.3125 63.4375C15.3125 64.0416 15.8022 64.5312 16.4062 64.5312Z" fill="#345766"/>
<path d="M13.125 14.2188C13.7291 14.2188 14.2188 13.7291 14.2188 13.125C14.2188 12.5209 13.7291 12.0312 13.125 12.0312C12.5209 12.0312 12.0312 12.5209 12.0312 13.125C12.0312 13.7291 12.5209 14.2188 13.125 14.2188Z" fill="#345766"/>
<path d="M36.0938 37.1875C36.6978 37.1875 37.1875 36.6978 37.1875 36.0938C37.1875 35.4897 36.6978 35 36.0938 35C35.4897 35 35 35.4897 35 36.0938C35 36.6978 35.4897 37.1875 36.0938 37.1875Z" fill="#345766"/>
<path d="M63.6368 29.6047C63.3521 29.6534 63.0983 29.8129 62.9307 30.0481C62.7631 30.2834 62.6954 30.5754 62.7423 30.8605C62.7893 31.1455 62.947 31.4004 63.1812 31.5695C63.4154 31.7386 63.707 31.8082 63.9923 31.7631C64.4624 31.6845 64.9439 31.7094 65.4034 31.836C65.8629 31.9625 66.2893 32.1877 66.6529 32.4958C67.0166 32.8039 67.3087 33.1875 67.5089 33.62C67.7092 34.0525 67.8128 34.5234 67.8125 35V39.375C67.8135 39.9752 67.6495 40.5641 67.3384 41.0775C67.0274 41.5908 66.5813 42.0088 66.0488 42.2857C65.9198 42.3513 65.8051 42.4417 65.7113 42.5519C65.6175 42.6621 65.5465 42.7898 65.5024 42.9276C65.4583 43.0654 65.4419 43.2106 65.4544 43.3548C65.4668 43.4989 65.5077 43.6392 65.5747 43.7675C65.6417 43.8957 65.7335 44.0094 65.8447 44.1019C65.956 44.1944 66.0845 44.2639 66.2228 44.3065C66.3611 44.349 66.5065 44.3636 66.6505 44.3495C66.7945 44.3354 66.9343 44.2929 67.0618 44.2244C67.949 43.7631 68.6923 43.0667 69.2105 42.2115C69.7286 41.3562 70.0018 40.375 70 39.375V35C69.9998 34.2062 69.8269 33.422 69.4932 32.7017C69.1595 31.9815 68.673 31.3425 68.0676 30.8291C67.4621 30.3158 66.7522 29.9403 65.9871 29.7289C65.2219 29.5174 64.42 29.4751 63.6368 29.6047ZM54.6875 21.875C56.4181 21.875 58.1098 21.3618 59.5487 20.4004C60.9877 19.4389 62.1092 18.0723 62.7714 16.4735C63.4337 14.8746 63.607 13.1153 63.2694 11.418C62.9318 9.72063 62.0984 8.16153 60.8747 6.93782C59.651 5.71411 58.0919 4.88075 56.3945 4.54313C54.6972 4.20551 52.9379 4.37879 51.339 5.04106C49.7402 5.70332 48.3736 6.82483 47.4121 8.26376C46.4507 9.70269 45.9375 11.3944 45.9375 13.125C45.9401 15.4448 46.8628 17.6689 48.5032 19.3093C50.1436 20.9497 52.3677 21.8724 54.6875 21.875ZM54.6875 6.5625C55.9854 6.5625 57.2542 6.94739 58.3334 7.66848C59.4126 8.38958 60.2538 9.4145 60.7505 10.6136C61.2472 11.8128 61.3771 13.1323 61.1239 14.4053C60.8707 15.6783 60.2457 16.8476 59.3279 17.7654C58.4101 18.6832 57.2408 19.3082 55.9678 19.5614C54.6948 19.8146 53.3753 19.6847 52.1761 19.188C50.977 18.6913 49.9521 17.8501 49.231 16.7709C48.5099 15.6917 48.125 14.4229 48.125 13.125C48.127 11.3851 48.819 9.71709 50.0493 8.48681C51.2796 7.25654 52.9476 6.56449 54.6875 6.5625Z" fill="#345766"/>
<path d="M54.6875 2.1875C55.2916 2.1875 55.7812 1.69781 55.7812 1.09375C55.7812 0.489689 55.2916 0 54.6875 0C54.0834 0 53.5938 0.489689 53.5938 1.09375C53.5938 1.69781 54.0834 2.1875 54.6875 2.1875Z" fill="#345766"/>
<path d="M44.8438 6.5625C45.4478 6.5625 45.9375 6.07281 45.9375 5.46875C45.9375 4.86469 45.4478 4.375 44.8438 4.375C44.2397 4.375 43.75 4.86469 43.75 5.46875C43.75 6.07281 44.2397 6.5625 44.8438 6.5625Z" fill="#345766"/>
<path d="M64.5312 24.0625C65.1353 24.0625 65.625 23.5728 65.625 22.9688C65.625 22.3647 65.1353 21.875 64.5312 21.875C63.9272 21.875 63.4375 22.3647 63.4375 22.9688C63.4375 23.5728 63.9272 24.0625 64.5312 24.0625Z" fill="#345766"/>
<path d="M63.4375 5.46875C64.0416 5.46875 64.5312 4.97906 64.5312 4.375C64.5312 3.77094 64.0416 3.28125 63.4375 3.28125C62.8334 3.28125 62.3438 3.77094 62.3438 4.375C62.3438 4.97906 62.8334 5.46875 63.4375 5.46875Z" fill="#345766"/>
<path d="M45.9375 22.9688C46.5416 22.9688 47.0312 22.4791 47.0312 21.875C47.0312 21.2709 46.5416 20.7812 45.9375 20.7812C45.3334 20.7812 44.8438 21.2709 44.8438 21.875C44.8438 22.4791 45.3334 22.9688 45.9375 22.9688Z" fill="#345766"/>
<path d="M66.7188 14.2188C67.3228 14.2188 67.8125 13.7291 67.8125 13.125C67.8125 12.5209 67.3228 12.0312 66.7188 12.0312C66.1147 12.0312 65.625 12.5209 65.625 13.125C65.625 13.7291 66.1147 14.2188 66.7188 14.2188Z" fill="#345766"/>
<path d="M42.6562 14.2188C43.2603 14.2188 43.75 13.7291 43.75 13.125C43.75 12.5209 43.2603 12.0312 42.6562 12.0312C42.0522 12.0312 41.5625 12.5209 41.5625 13.125C41.5625 13.7291 42.0522 14.2188 42.6562 14.2188Z" fill="#345766"/>
<path d="M54.6875 26.25C55.2916 26.25 55.7812 25.7603 55.7812 25.1562C55.7812 24.5522 55.2916 24.0625 54.6875 24.0625C54.0834 24.0625 53.5938 24.5522 53.5938 25.1562C53.5938 25.7603 54.0834 26.25 54.6875 26.25Z" fill="#345766"/>
<path d="M1.09375 48.125C0.803669 48.125 0.52547 48.2402 0.320352 48.4453C0.115234 48.6505 0 48.9287 0 49.2187C0 49.5088 0.115234 49.787 0.320352 49.9921C0.52547 50.1973 0.803669 50.3125 1.09375 50.3125H8.75C9.04008 50.3125 9.31828 50.1973 9.5234 49.9921C9.72852 49.787 9.84375 49.5088 9.84375 49.2187C9.84375 48.9287 9.72852 48.6505 9.5234 48.4453C9.31828 48.2402 9.04008 48.125 8.75 48.125H4.375V20.7812H15.3125V27.3437C15.3125 27.6338 15.4277 27.912 15.6329 28.1171C15.838 28.3223 16.1162 28.4375 16.4062 28.4375C16.6963 28.4375 16.9745 28.3223 17.1796 28.1171C17.3848 27.912 17.5 27.6338 17.5 27.3437V20.7812H18.5938C18.8838 20.7812 19.162 20.666 19.3671 20.4609C19.5723 20.2558 19.6875 19.9776 19.6875 19.6875C19.6875 19.3974 19.5723 19.1192 19.3671 18.9141C19.162 18.709 18.8838 18.5937 18.5938 18.5937H17.5C17.5011 17.7198 17.3521 16.8521 17.0594 16.0286C16.9621 15.7553 16.7603 15.5317 16.4983 15.4072C16.2363 15.2827 15.9355 15.2673 15.6622 15.3645C15.3888 15.4617 15.1653 15.6635 15.0407 15.9256C14.9162 16.1876 14.9008 16.4884 14.998 16.7617C15.207 17.3499 15.3134 17.9696 15.3125 18.5937H4.375C4.38054 17.2855 4.85243 16.0221 5.70588 15.0306C6.55933 14.0391 7.7384 13.3844 9.03123 13.1842C9.1733 13.163 9.30981 13.1141 9.43297 13.0402C9.55613 12.9663 9.66353 12.8688 9.74903 12.7534C9.83452 12.638 9.89645 12.5068 9.93127 12.3675C9.96609 12.2281 9.97312 12.0833 9.95196 11.9412C9.9308 11.7991 9.88187 11.6626 9.80795 11.5395C9.73404 11.4163 9.63658 11.3089 9.52116 11.2234C9.40574 11.1379 9.27461 11.076 9.13526 11.0412C8.9959 11.0063 8.85106 10.9993 8.70898 11.0205C6.89867 11.3005 5.24752 12.2168 4.0522 13.6049C2.85687 14.9931 2.19571 16.7619 2.1875 18.5937H1.09375C0.803669 18.5937 0.52547 18.709 0.320352 18.9141C0.115234 19.1192 0 19.3974 0 19.6875C0 19.9776 0.115234 20.2558 0.320352 20.4609C0.52547 20.666 0.803669 20.7812 1.09375 20.7812H2.1875V48.125H1.09375Z" fill="#345766"/>
</g>
<defs>
<clipPath id="clip0_12_154">
<rect width="70" height="70" fill="white"/>
</clipPath>
</defs>
</svg>
