<svg width="60" height="60" viewBox="0 0 60 60" fill="none" xmlns="http://www.w3.org/2000/svg">
<path d="M27.2919 37.4211H9.92105C9.62094 37.4211 9.33312 37.3019 9.12091 37.0897C8.90869 36.8774 8.78947 36.5896 8.78947 36.2895C8.78947 35.9894 8.90869 35.7016 9.12091 35.4894C9.33312 35.2771 9.62094 35.1579 9.92105 35.1579H27.2919C27.592 35.1579 27.8799 35.2771 28.0921 35.4894C28.3043 35.7016 28.4235 35.9894 28.4235 36.2895C28.4235 36.5896 28.3043 36.8774 28.0921 37.0897C27.8799 37.3019 27.592 37.4211 27.2919 37.4211ZM27.2919 23.8421H9.92105C9.62094 23.8421 9.33312 23.7229 9.12091 23.5107C8.90869 23.2985 8.78947 23.0107 8.78947 22.7106C8.78947 22.4104 8.90869 22.1226 9.12091 21.9104C9.33312 21.6982 9.62094 21.579 9.92105 21.579H27.2919C27.592 21.579 27.8799 21.6982 28.0921 21.9104C28.3043 22.1226 28.4235 22.4104 28.4235 22.7106C28.4235 23.0107 28.3043 23.2985 28.0921 23.5107C27.8799 23.7229 27.592 23.8421 27.2919 23.8421ZM25.7632 30.6316H3.13158C2.83147 30.6316 2.54364 30.5124 2.33143 30.3002C2.11922 30.088 2 29.8001 2 29.5C2 29.1999 2.11922 28.9121 2.33143 28.6999C2.54364 28.4877 2.83147 28.3685 3.13158 28.3685H25.7632C26.0633 28.3685 26.3511 28.4877 26.5633 28.6999C26.7755 28.9121 26.8947 29.1999 26.8947 29.5C26.8947 29.8001 26.7755 30.088 26.5633 30.3002C26.3511 30.5124 26.0633 30.6316 25.7632 30.6316ZM37.079 33.9155C34.8305 33.9155 32.5526 32.3991 32.5526 29.5C32.5526 26.6009 34.8305 25.0846 37.079 25.0846C39.3274 25.0846 41.6053 26.6009 41.6053 29.5C41.6053 32.3991 39.3274 33.9155 37.079 33.9155ZM37.079 27.3478C36.0345 27.3478 34.8158 27.9113 34.8158 29.5C34.8158 31.0888 36.0345 31.6523 37.079 31.6523C38.1234 31.6523 39.3421 31.0888 39.3421 29.5C39.3421 27.9113 38.1234 27.3478 37.079 27.3478Z" fill="#345766"/>
<path d="M39.479 28.2315C39.255 28.232 39.0359 28.1659 38.8495 28.0417C38.6631 27.9174 38.5178 27.7406 38.4321 27.5336C38.3464 27.3267 38.3241 27.0989 38.3681 26.8792C38.412 26.6596 38.5202 26.4579 38.679 26.2999L45.0803 19.8986C45.1854 19.7935 45.3101 19.7102 45.4474 19.6533C45.5847 19.5964 45.7318 19.5672 45.8804 19.5672C46.029 19.5672 46.1761 19.5964 46.3133 19.6533C46.4506 19.7102 46.5753 19.7935 46.6804 19.8986C46.7855 20.0036 46.8688 20.1283 46.9257 20.2656C46.9825 20.4029 47.0118 20.55 47.0118 20.6986C47.0118 20.8472 46.9825 20.9943 46.9257 21.1316C46.8688 21.2688 46.7855 21.3935 46.6804 21.4986L40.2791 27.8999C40.1741 28.0052 40.0494 28.0886 39.9121 28.1455C39.7748 28.2024 39.6276 28.2317 39.479 28.2315ZM33.0788 34.6328C32.8548 34.6333 32.6357 34.5673 32.4493 34.443C32.2629 34.3188 32.1176 34.1419 32.0319 33.935C31.9462 33.728 31.9239 33.5002 31.9679 33.2806C32.0118 33.0609 32.12 32.8593 32.2788 32.7012L33.8788 31.1001C33.9839 30.995 34.1086 30.9117 34.2459 30.8548C34.3832 30.7979 34.5303 30.7687 34.6789 30.7687C34.8275 30.7687 34.9746 30.7979 35.1118 30.8548C35.2491 30.9117 35.3738 30.995 35.4789 31.1001C35.584 31.2051 35.6673 31.3298 35.7242 31.4671C35.781 31.6044 35.8103 31.7515 35.8103 31.9001C35.8103 32.0487 35.781 32.1958 35.7242 32.3331C35.6673 32.4703 35.584 32.595 35.4789 32.7001L33.8788 34.3013C33.7739 34.4065 33.6492 34.49 33.5119 34.5469C33.3746 34.6038 33.2274 34.633 33.0788 34.6328ZM37.079 51C36.7788 51 36.491 50.8808 36.2788 50.6686C36.0666 50.4564 35.9474 50.1685 35.9474 49.8684V46.4737C35.9474 46.1736 36.0666 45.8858 36.2788 45.6735C36.491 45.4613 36.7788 45.3421 37.079 45.3421C37.3791 45.3421 37.6669 45.4613 37.8791 45.6735C38.0913 45.8858 38.2105 46.1736 38.2105 46.4737V49.8684C38.2105 50.1685 38.0913 50.4564 37.8791 50.6686C37.6669 50.8808 37.3791 51 37.079 51ZM51.4817 45.0343C51.3331 45.0345 51.1859 45.0053 51.0486 44.9484C50.9113 44.8915 50.7866 44.808 50.6817 44.7028L48.2816 42.3016C48.1765 42.1965 48.0932 42.0718 48.0363 41.9345C47.9795 41.7972 47.9502 41.6501 47.9502 41.5015C47.9502 41.3529 47.9795 41.2058 48.0363 41.0686C48.0932 40.9313 48.1765 40.8066 48.2816 40.7015C48.3866 40.5964 48.5114 40.5131 48.6486 40.4562C48.7859 40.3994 48.933 40.3701 49.0816 40.3701C49.2302 40.3701 49.3773 40.3994 49.5146 40.4562C49.6518 40.5131 49.7766 40.5964 49.8816 40.7015L52.2817 43.1027C52.4405 43.2608 52.5487 43.4624 52.5927 43.6821C52.6366 43.9017 52.6143 44.1295 52.5286 44.3364C52.4429 44.5434 52.2976 44.7202 52.1112 44.8445C51.9248 44.9687 51.7057 45.0348 51.4817 45.0343ZM49.0805 18.6301C48.8565 18.6305 48.6374 18.5645 48.451 18.4402C48.2646 18.316 48.1193 18.1391 48.0336 17.9322C47.9478 17.7252 47.9256 17.4975 47.9695 17.2778C48.0135 17.0581 48.1217 16.8565 48.2804 16.6984L50.6805 14.2972C50.7856 14.1922 50.9103 14.1088 51.0476 14.052C51.1849 13.9951 51.332 13.9659 51.4806 13.9659C51.6291 13.9659 51.7763 13.9951 51.9135 14.052C52.0508 14.1088 52.1755 14.1922 52.2806 14.2972C52.3856 14.4023 52.469 14.527 52.5258 14.6643C52.5827 14.8016 52.612 14.9487 52.612 15.0973C52.612 15.2458 52.5827 15.393 52.5258 15.5302C52.469 15.6675 52.3856 15.7922 52.2806 15.8973L49.8805 18.2985C49.7756 18.4037 49.6509 18.4872 49.5136 18.5441C49.3763 18.601 49.2291 18.6302 49.0805 18.6301ZM37.079 13.6579C36.7788 13.6579 36.491 13.5387 36.2788 13.3265C36.0666 13.1143 35.9474 12.8264 35.9474 12.5263V9.13158C35.9474 8.83147 36.0666 8.54364 36.2788 8.33143C36.491 8.11922 36.7788 8 37.079 8C37.3791 8 37.6669 8.11922 37.8791 8.33143C38.0913 8.54364 38.2105 8.83147 38.2105 9.13158V12.5263C38.2105 12.8264 38.0913 13.1143 37.8791 13.3265C37.6669 13.5387 37.3791 13.6579 37.079 13.6579ZM57.4474 30.6316H54.0526C53.7525 30.6316 53.4647 30.5124 53.2525 30.3001C53.0403 30.0879 52.9211 29.8001 52.9211 29.5C52.9211 29.1999 53.0403 28.9121 53.2525 28.6999C53.4647 28.4876 53.7525 28.3684 54.0526 28.3684H57.4474C57.7475 28.3684 58.0353 28.4876 58.2475 28.6999C58.4597 28.9121 58.579 29.1999 58.579 29.5C58.579 29.8001 58.4597 30.0879 58.2475 30.3001C58.0353 30.5124 57.7475 30.6316 57.4474 30.6316ZM28.9191 17.0526H16.7105C16.4104 17.0526 16.1226 16.9334 15.9104 16.7212C15.6982 16.509 15.5789 16.2212 15.5789 15.9211C15.5789 15.6209 15.6982 15.3331 15.9104 15.1209C16.1226 14.9087 16.4104 14.7895 16.7105 14.7895H28.9191C29.2192 14.7895 29.5071 14.9087 29.7193 15.1209C29.9315 15.3331 30.0507 15.6209 30.0507 15.9211C30.0507 16.2212 29.9315 16.509 29.7193 16.7212C29.5071 16.9334 29.2192 17.0526 28.9191 17.0526ZM28.9191 44.2105H16.7105C16.4104 44.2105 16.1226 44.0913 15.9104 43.8791C15.6982 43.6669 15.5789 43.3791 15.5789 43.079C15.5789 42.7788 15.6982 42.491 15.9104 42.2788C16.1226 42.0666 16.4104 41.9474 16.7105 41.9474H28.9191C29.2192 41.9474 29.5071 42.0666 29.7193 42.2788C29.9315 42.491 30.0507 42.7788 30.0507 43.079C30.0507 43.3791 29.9315 43.6669 29.7193 43.8791C29.5071 44.0913 29.2192 44.2105 28.9191 44.2105Z" fill="#345766"/>
<path d="M37.009 50.9785C33.6924 50.9785 30.3418 50.2147 27.2299 48.6113C26.9631 48.4738 26.7619 48.236 26.6704 47.9502C26.5789 47.6643 26.6048 47.3538 26.7422 47.087C26.8797 46.8202 27.1175 46.619 27.4033 46.5275C27.6892 46.436 27.9997 46.4619 28.2665 46.5993C37.1426 51.1732 48.1992 48.1089 53.4384 39.6231C58.6924 31.1125 56.4937 19.8431 48.4335 13.9669C42.5956 9.71212 34.6791 9.09654 28.2665 12.3996C28.1343 12.4677 27.9901 12.509 27.842 12.5214C27.6939 12.5337 27.5449 12.5167 27.4033 12.4714C27.2618 12.4262 27.1306 12.3534 27.0171 12.2574C26.9037 12.1614 26.8103 12.044 26.7422 11.9119C26.6742 11.7798 26.6328 11.6356 26.6205 11.4875C26.6081 11.3394 26.6251 11.1903 26.6704 11.0488C26.7157 10.9072 26.7884 10.776 26.8844 10.6626C26.9804 10.5491 27.0978 10.4557 27.2299 10.3877C34.3962 6.69419 43.2406 7.38106 49.7665 12.1371C58.7761 18.7048 61.235 31.3004 55.3632 40.8113C51.345 47.3224 44.2625 50.9785 37.009 50.9785Z" fill="#345766"/>
</svg>
