<svg width="50" height="50" viewBox="0 0 50 50" fill="none" xmlns="http://www.w3.org/2000/svg">
<path d="M18.1084 23.4021V15.6209C18.1084 15.157 18.2723 14.7612 18.6001 14.4334C18.9265 14.1056 19.3237 13.9417 19.7918 13.9417C20.2598 13.9417 20.657 14.1056 20.9834 14.4334C21.3112 14.7612 21.4751 15.157 21.4751 15.6209V23.4021C21.4751 23.866 21.3112 24.2619 20.9834 24.5896C20.6557 24.9174 20.2584 25.0813 19.7918 25.0813C19.3251 25.0813 18.9279 24.9174 18.6001 24.5896C18.2723 24.2619 18.1084 23.866 18.1084 23.4021ZM27.1647 26.1334V7.29173C27.1647 6.82507 27.3279 6.42784 27.6543 6.10007C27.982 5.77229 28.3793 5.6084 28.8459 5.6084C29.314 5.6084 29.7112 5.77229 30.0376 6.10007C30.3654 6.42784 30.5293 6.82507 30.5293 7.29173V26.1334C30.5293 26.6945 30.357 27.1153 30.0126 27.3959C29.6668 27.6765 29.28 27.8167 28.8522 27.8167C28.4244 27.8167 28.0355 27.6765 27.6855 27.3959C27.3355 27.1153 27.1619 26.6945 27.1647 26.1334ZM8.9751 30.5959V23.9584C8.9751 23.4917 9.13829 23.0945 9.46468 22.7667C9.79246 22.439 10.1904 22.2751 10.6584 22.2751C11.1265 22.2751 11.5237 22.439 11.8501 22.7667C12.1765 23.0945 12.3397 23.4917 12.3397 23.9584V30.598C12.3397 31.1591 12.1675 31.5792 11.823 31.8584C11.4786 32.139 11.0918 32.2792 10.6626 32.2792C10.2348 32.2792 9.84593 32.139 9.49593 31.8584C9.14871 31.5792 8.9751 31.1591 8.9751 30.598M11.2355 42.8126C10.7702 42.8126 10.4487 42.6008 10.2709 42.1771C10.0932 41.7549 10.1737 41.3737 10.5126 41.0334L18.6543 32.8938C18.9557 32.591 19.3272 32.4223 19.7688 32.3876C20.2105 32.3528 20.6029 32.4869 20.9459 32.7896L27.1647 38.1334L41.2334 24.0626H37.5001C37.2043 24.0626 36.957 23.9626 36.7584 23.7626C36.5598 23.5626 36.4598 23.3146 36.4584 23.0188C36.457 22.723 36.557 22.4758 36.7584 22.2771C36.9598 22.0785 37.207 21.9792 37.5001 21.9792H43.1084C43.5862 21.9792 43.9862 22.1403 44.3084 22.4626C44.6306 22.7848 44.7918 23.1848 44.7918 23.6626V29.2709C44.7918 29.5667 44.6918 29.814 44.4918 30.0126C44.2918 30.2112 44.0438 30.3112 43.748 30.3126C43.4522 30.314 43.205 30.214 43.0063 30.0126C42.8077 29.8112 42.7084 29.564 42.7084 29.2709V25.5376L28.3251 39.9209C28.0237 40.2223 27.6522 40.3903 27.2105 40.4251C26.7688 40.4598 26.3765 40.3258 26.0334 40.023L19.8147 34.6792L11.9876 42.5084C11.8987 42.5917 11.7869 42.6633 11.6522 42.723C11.5175 42.7827 11.3786 42.8126 11.2355 42.8126Z" fill="white"/>
</svg>
