<svg width="100" height="100" viewBox="0 0 100 100" fill="none" xmlns="http://www.w3.org/2000/svg">
<mask id="path-1-outside-1_35_2182" maskUnits="userSpaceOnUse" x="1.15625" y="-0.424072" width="98" height="100" fill="black">
<rect fill="white" x="1.15625" y="-0.424072" width="98" height="100"/>
<path d="M2.95312 98.4375H90.0312C90.4687 98.4375 90.8281 98.0781 90.8281 97.6406V65.9375C100.297 56.375 100.203 40.4844 90.5469 25.2969C90.4611 25.1573 90.333 25.0487 90.1813 24.9869C90.0295 24.9251 89.862 24.9132 89.7031 24.9531C89.375 25.0312 89.125 25.2969 89.0781 25.625C89.0781 25.6562 88.5937 29.0312 86.0781 31.5937C85 20.25 79.2031 10.4844 68.3906 1.74999C68.125 1.54687 67.7656 1.51562 67.4844 1.68749C67.2031 1.85937 67.0469 2.18749 67.1094 2.51562C67.125 2.62499 69.0156 14.2187 56.25 28.9531C53.7812 31.8125 51.9688 35.1406 50.8438 38.8281H2.95312C2.51562 38.8281 2.15625 39.1875 2.15625 39.625V97.6562C2.15625 98.0937 2.51562 98.4531 2.95312 98.4531V98.4375ZM31.9687 54.9062H45.6875V67.8281H18.2656V54.9062H31.9687ZM50.3906 54.9062C50.5 55.3437 50.625 55.7656 50.7656 56.1875C50.8125 56.3594 50.8594 56.5312 50.9219 56.7031C51.1406 57.4062 51.4063 58.0937 51.6719 58.7656L51.8594 59.1875C52.1726 59.9385 52.5327 60.6691 52.9375 61.375C53.1563 61.7812 53.3906 62.1875 53.6406 62.5781C53.7813 62.7969 53.9219 63.0312 54.0781 63.25C54.3281 63.625 54.5937 63.9844 54.8594 64.3437L55.3281 64.9531C55.6406 65.3437 55.9687 65.7031 56.2969 66.0781C56.4219 66.2187 56.5469 66.375 56.6875 66.5156C57.1406 66.9844 57.6094 67.4375 58.0937 67.8594H47.3281V54.9375H50.4375L50.3906 54.9062ZM76.0625 34.8906C76.375 37.7812 77.5469 43.7812 82.0937 48.1562C87.3906 53.2969 88.1719 63.7969 83.7031 69.1094C83.6586 69.1238 83.6164 69.1449 83.5781 69.1719C82.8125 69.5469 82.0156 69.8594 81.2031 70.1406C81.1094 70.1719 81 70.2031 80.9062 70.2344C80.2187 70.4531 79.5312 70.6562 78.8125 70.8125C78.6094 70.8594 78.4062 70.9062 78.1875 70.9531C77.4062 71.1094 76.6094 71.2344 75.7969 71.3281L75.2344 71.375C74.3594 71.4531 73.4844 71.5156 72.5781 71.5156C71.8906 71.5156 71.2344 71.4844 70.5625 71.4219C70.4062 71.4219 70.2344 71.3906 70.0781 71.375C69.5312 71.3125 69 71.2344 68.4687 71.1406C68.3437 71.125 68.2188 71.1094 68.0938 71.0781C67.5313 70.9687 66.9844 70.8125 66.4375 70.6562C66.1719 70.5781 65.9219 70.5 65.6562 70.4062C65.3437 70.2969 65.0312 70.1875 64.7344 70.0625C64.5312 69.9844 64.3281 69.9062 64.125 69.8125C58.1875 61.0312 60.8594 53.1875 62.6719 49.7031C63.6875 53.8906 67.2188 56.5 67.3906 56.625C67.6406 56.8125 67.9844 56.8281 68.2656 56.6719C68.5312 56.5156 68.6875 56.2031 68.6562 55.8906C67.375 44.7187 73.4219 37.4531 76.0469 34.875L76.0625 34.8906ZM46.4844 82.3594H32.7656V69.4375H60.1094C60.1094 69.4375 60.1719 69.4687 60.2031 69.5V82.375H46.4844V82.3594ZM17.4688 82.3594H3.73438V69.4375H31.1719V82.3594H17.4688ZM61.7969 70.4531C61.7969 70.4531 61.8281 70.4531 61.8438 70.4687C62.3125 70.7187 62.7969 70.9687 63.2812 71.1875L63.3125 71.2187C63.4531 71.2812 63.6094 71.3281 63.75 71.3906C63.8437 71.4375 63.9531 71.4687 64.0469 71.5156C64.1719 71.5625 64.2969 71.625 64.4219 71.6719C64.6406 71.75 64.875 71.8437 65.0937 71.9219C65.3281 72 65.5625 72.0781 65.8125 72.1562C66.1094 72.25 66.4062 72.3281 66.7031 72.4062C66.8437 72.4375 67 72.4844 67.1406 72.5156C67.2969 72.5469 67.4375 72.5937 67.5937 72.625L67.8437 72.6719C68.4062 72.7812 68.9844 72.875 69.5625 72.9531C69.6719 72.9531 69.7812 72.9687 69.8906 72.9844L70.375 73.0312C71.1094 73.0937 71.8437 73.1406 72.5937 73.1406C73.2344 73.1406 73.875 73.125 74.5156 73.0781C74.7187 73.0781 74.9063 73.0312 75.0938 73.0156C75.2188 73.0156 75.3437 73 75.4531 72.9844L76 72.9375C76.125 72.9375 76.25 72.9219 76.3906 72.9062C76.6406 72.875 76.875 72.8281 77.1094 72.7969C77.4844 72.7344 77.8594 72.6875 78.2188 72.6094C78.3438 72.5781 78.4531 72.5469 78.5781 72.5312C78.7969 72.4844 79.0156 72.4375 79.2344 72.375C79.5 72.3125 79.75 72.2656 80.0156 72.1875C80.2656 72.125 80.5156 72.0312 80.7812 71.9531C81.0937 71.8594 81.4219 71.7656 81.7344 71.6562C81.7656 71.6562 81.7812 71.6406 81.8125 71.625C82.0469 71.5469 82.2813 71.4375 82.5156 71.3594C82.8281 71.25 83.125 71.125 83.4375 71C83.6875 70.8906 83.9219 70.7812 84.1562 70.6562C84.2656 70.6094 84.375 70.5469 84.5 70.5C84.5 70.5 84.5312 70.5 84.5469 70.4844C84.7031 70.4062 84.875 70.3281 85.0312 70.25C85.2656 70.125 85.4844 70 85.7031 69.875C85.9531 69.7344 86.2188 69.6094 86.4531 69.4531H89.2344V82.375H61.7969V70.4687V70.4531ZM89.2344 67.8437H88.75C88.9219 67.7187 89.0781 67.5781 89.2344 67.4531V67.8437ZM16.6719 67.8437H3.73438V54.9219H16.6719V67.8437ZM3.73438 83.9531H16.6719V96.8594H3.73438V83.9531ZM18.25 83.9531H45.6875V96.8594H18.2656V83.9531H18.25ZM47.2656 83.9531H74.6875V96.8594H47.25V83.9531H47.2656ZM76.2812 96.8594V83.9531H89.2187V96.8594H76.2812ZM57.4219 29.9844C67.7656 18.0469 68.8594 8.20312 68.7969 4.17187C78.7969 12.7031 83.9687 22.2344 84.5937 33.2656C84.5937 33.5625 84.7812 33.8125 85.0469 33.9375C85.3125 34.0625 85.625 34.0312 85.8594 33.8594C88.375 32.0312 89.5937 29.4844 90.1719 27.7656C98.5156 41.9219 98.2969 56.4219 89.4687 65.0781C88.625 65.9219 87.6719 66.6719 86.6406 67.375C89.6094 61.1094 88.3125 51.9844 83.1875 47.0156C77.625 41.6406 77.5469 33.2969 77.5469 33.2031C77.5472 33.0567 77.5063 32.9131 77.429 32.7888C77.3516 32.6645 77.2409 32.5644 77.1094 32.5C76.9786 32.4312 76.8307 32.402 76.6837 32.4159C76.5366 32.4298 76.3968 32.4861 76.2812 32.5781C76.1719 32.6562 66.3437 40.2969 66.9375 54.0469C65.6562 52.6719 63.9687 50.2812 64.0312 47.3281C64.0344 47.1612 63.9848 46.9976 63.8896 46.8605C63.7944 46.7234 63.6584 46.6198 63.501 46.5644C63.3435 46.509 63.1726 46.5047 63.0125 46.5521C62.8525 46.5994 62.7114 46.696 62.6094 46.8281C62.5312 46.9375 55.5469 56.4687 61.2031 67.8594C61.1406 67.8594 61.0938 67.8281 61.0313 67.8281H60.6406C59.5924 67.0799 58.6144 66.2379 57.7187 65.3125C54.875 62.3281 52.8125 58.4062 51.7969 53.9375C51.5313 52.7812 51.3281 51.5937 51.2187 50.4219C51.0937 49.2344 51.0469 48.0469 51.0781 46.8594C51.1406 44.4844 51.5 42.125 52.1562 39.8281C53.2188 36.125 54.9844 32.8125 57.4375 29.9844H57.4219ZM50.2969 40.6406C50.0781 41.5625 49.8906 42.5 49.7656 43.4375C49.75 43.5937 49.7344 43.75 49.7031 43.8906C49.5781 44.875 49.5 45.8437 49.4688 46.8281V46.875C49.4531 47.8437 49.4688 48.8125 49.5625 49.7812C49.5625 49.9375 49.5781 50.0937 49.5938 50.25C49.6719 51.1875 49.8125 52.1094 49.9844 53.0312C50 53.125 50 53.2187 50.0156 53.3125H32.75V40.4062H50.3438L50.2969 40.6406ZM3.73438 40.4062H31.1719V53.3125H3.73438V40.4062Z"/>
</mask>
<path d="M2.95312 98.4375H90.0312C90.4687 98.4375 90.8281 98.0781 90.8281 97.6406V65.9375C100.297 56.375 100.203 40.4844 90.5469 25.2969C90.4611 25.1573 90.333 25.0487 90.1813 24.9869C90.0295 24.9251 89.862 24.9132 89.7031 24.9531C89.375 25.0312 89.125 25.2969 89.0781 25.625C89.0781 25.6562 88.5937 29.0312 86.0781 31.5937C85 20.25 79.2031 10.4844 68.3906 1.74999C68.125 1.54687 67.7656 1.51562 67.4844 1.68749C67.2031 1.85937 67.0469 2.18749 67.1094 2.51562C67.125 2.62499 69.0156 14.2187 56.25 28.9531C53.7812 31.8125 51.9688 35.1406 50.8438 38.8281H2.95312C2.51562 38.8281 2.15625 39.1875 2.15625 39.625V97.6562C2.15625 98.0937 2.51562 98.4531 2.95312 98.4531V98.4375ZM31.9687 54.9062H45.6875V67.8281H18.2656V54.9062H31.9687ZM50.3906 54.9062C50.5 55.3437 50.625 55.7656 50.7656 56.1875C50.8125 56.3594 50.8594 56.5312 50.9219 56.7031C51.1406 57.4062 51.4063 58.0937 51.6719 58.7656L51.8594 59.1875C52.1726 59.9385 52.5327 60.6691 52.9375 61.375C53.1563 61.7812 53.3906 62.1875 53.6406 62.5781C53.7813 62.7969 53.9219 63.0312 54.0781 63.25C54.3281 63.625 54.5937 63.9844 54.8594 64.3437L55.3281 64.9531C55.6406 65.3437 55.9687 65.7031 56.2969 66.0781C56.4219 66.2187 56.5469 66.375 56.6875 66.5156C57.1406 66.9844 57.6094 67.4375 58.0937 67.8594H47.3281V54.9375H50.4375L50.3906 54.9062ZM76.0625 34.8906C76.375 37.7812 77.5469 43.7812 82.0937 48.1562C87.3906 53.2969 88.1719 63.7969 83.7031 69.1094C83.6586 69.1238 83.6164 69.1449 83.5781 69.1719C82.8125 69.5469 82.0156 69.8594 81.2031 70.1406C81.1094 70.1719 81 70.2031 80.9062 70.2344C80.2187 70.4531 79.5312 70.6562 78.8125 70.8125C78.6094 70.8594 78.4062 70.9062 78.1875 70.9531C77.4062 71.1094 76.6094 71.2344 75.7969 71.3281L75.2344 71.375C74.3594 71.4531 73.4844 71.5156 72.5781 71.5156C71.8906 71.5156 71.2344 71.4844 70.5625 71.4219C70.4062 71.4219 70.2344 71.3906 70.0781 71.375C69.5312 71.3125 69 71.2344 68.4687 71.1406C68.3437 71.125 68.2188 71.1094 68.0938 71.0781C67.5313 70.9687 66.9844 70.8125 66.4375 70.6562C66.1719 70.5781 65.9219 70.5 65.6562 70.4062C65.3437 70.2969 65.0312 70.1875 64.7344 70.0625C64.5312 69.9844 64.3281 69.9062 64.125 69.8125C58.1875 61.0312 60.8594 53.1875 62.6719 49.7031C63.6875 53.8906 67.2188 56.5 67.3906 56.625C67.6406 56.8125 67.9844 56.8281 68.2656 56.6719C68.5312 56.5156 68.6875 56.2031 68.6562 55.8906C67.375 44.7187 73.4219 37.4531 76.0469 34.875L76.0625 34.8906ZM46.4844 82.3594H32.7656V69.4375H60.1094C60.1094 69.4375 60.1719 69.4687 60.2031 69.5V82.375H46.4844V82.3594ZM17.4688 82.3594H3.73438V69.4375H31.1719V82.3594H17.4688ZM61.7969 70.4531C61.7969 70.4531 61.8281 70.4531 61.8438 70.4687C62.3125 70.7187 62.7969 70.9687 63.2812 71.1875L63.3125 71.2187C63.4531 71.2812 63.6094 71.3281 63.75 71.3906C63.8437 71.4375 63.9531 71.4687 64.0469 71.5156C64.1719 71.5625 64.2969 71.625 64.4219 71.6719C64.6406 71.75 64.875 71.8437 65.0937 71.9219C65.3281 72 65.5625 72.0781 65.8125 72.1562C66.1094 72.25 66.4062 72.3281 66.7031 72.4062C66.8437 72.4375 67 72.4844 67.1406 72.5156C67.2969 72.5469 67.4375 72.5937 67.5937 72.625L67.8437 72.6719C68.4062 72.7812 68.9844 72.875 69.5625 72.9531C69.6719 72.9531 69.7812 72.9687 69.8906 72.9844L70.375 73.0312C71.1094 73.0937 71.8437 73.1406 72.5937 73.1406C73.2344 73.1406 73.875 73.125 74.5156 73.0781C74.7187 73.0781 74.9063 73.0312 75.0938 73.0156C75.2188 73.0156 75.3437 73 75.4531 72.9844L76 72.9375C76.125 72.9375 76.25 72.9219 76.3906 72.9062C76.6406 72.875 76.875 72.8281 77.1094 72.7969C77.4844 72.7344 77.8594 72.6875 78.2188 72.6094C78.3438 72.5781 78.4531 72.5469 78.5781 72.5312C78.7969 72.4844 79.0156 72.4375 79.2344 72.375C79.5 72.3125 79.75 72.2656 80.0156 72.1875C80.2656 72.125 80.5156 72.0312 80.7812 71.9531C81.0937 71.8594 81.4219 71.7656 81.7344 71.6562C81.7656 71.6562 81.7812 71.6406 81.8125 71.625C82.0469 71.5469 82.2813 71.4375 82.5156 71.3594C82.8281 71.25 83.125 71.125 83.4375 71C83.6875 70.8906 83.9219 70.7812 84.1562 70.6562C84.2656 70.6094 84.375 70.5469 84.5 70.5C84.5 70.5 84.5312 70.5 84.5469 70.4844C84.7031 70.4062 84.875 70.3281 85.0312 70.25C85.2656 70.125 85.4844 70 85.7031 69.875C85.9531 69.7344 86.2188 69.6094 86.4531 69.4531H89.2344V82.375H61.7969V70.4687V70.4531ZM89.2344 67.8437H88.75C88.9219 67.7187 89.0781 67.5781 89.2344 67.4531V67.8437ZM16.6719 67.8437H3.73438V54.9219H16.6719V67.8437ZM3.73438 83.9531H16.6719V96.8594H3.73438V83.9531ZM18.25 83.9531H45.6875V96.8594H18.2656V83.9531H18.25ZM47.2656 83.9531H74.6875V96.8594H47.25V83.9531H47.2656ZM76.2812 96.8594V83.9531H89.2187V96.8594H76.2812ZM57.4219 29.9844C67.7656 18.0469 68.8594 8.20312 68.7969 4.17187C78.7969 12.7031 83.9687 22.2344 84.5937 33.2656C84.5937 33.5625 84.7812 33.8125 85.0469 33.9375C85.3125 34.0625 85.625 34.0312 85.8594 33.8594C88.375 32.0312 89.5937 29.4844 90.1719 27.7656C98.5156 41.9219 98.2969 56.4219 89.4687 65.0781C88.625 65.9219 87.6719 66.6719 86.6406 67.375C89.6094 61.1094 88.3125 51.9844 83.1875 47.0156C77.625 41.6406 77.5469 33.2969 77.5469 33.2031C77.5472 33.0567 77.5063 32.9131 77.429 32.7888C77.3516 32.6645 77.2409 32.5644 77.1094 32.5C76.9786 32.4312 76.8307 32.402 76.6837 32.4159C76.5366 32.4298 76.3968 32.4861 76.2812 32.5781C76.1719 32.6562 66.3437 40.2969 66.9375 54.0469C65.6562 52.6719 63.9687 50.2812 64.0312 47.3281C64.0344 47.1612 63.9848 46.9976 63.8896 46.8605C63.7944 46.7234 63.6584 46.6198 63.501 46.5644C63.3435 46.509 63.1726 46.5047 63.0125 46.5521C62.8525 46.5994 62.7114 46.696 62.6094 46.8281C62.5312 46.9375 55.5469 56.4687 61.2031 67.8594C61.1406 67.8594 61.0938 67.8281 61.0313 67.8281H60.6406C59.5924 67.0799 58.6144 66.2379 57.7187 65.3125C54.875 62.3281 52.8125 58.4062 51.7969 53.9375C51.5313 52.7812 51.3281 51.5937 51.2187 50.4219C51.0937 49.2344 51.0469 48.0469 51.0781 46.8594C51.1406 44.4844 51.5 42.125 52.1562 39.8281C53.2188 36.125 54.9844 32.8125 57.4375 29.9844H57.4219ZM50.2969 40.6406C50.0781 41.5625 49.8906 42.5 49.7656 43.4375C49.75 43.5937 49.7344 43.75 49.7031 43.8906C49.5781 44.875 49.5 45.8437 49.4688 46.8281V46.875C49.4531 47.8437 49.4688 48.8125 49.5625 49.7812C49.5625 49.9375 49.5781 50.0937 49.5938 50.25C49.6719 51.1875 49.8125 52.1094 49.9844 53.0312C50 53.125 50 53.2187 50.0156 53.3125H32.75V40.4062H50.3438L50.2969 40.6406ZM3.73438 40.4062H31.1719V53.3125H3.73438V40.4062Z" fill="white"/>
<path d="M2.95312 98.4375H90.0312C90.4687 98.4375 90.8281 98.0781 90.8281 97.6406V65.9375C100.297 56.375 100.203 40.4844 90.5469 25.2969C90.4611 25.1573 90.333 25.0487 90.1813 24.9869C90.0295 24.9251 89.862 24.9132 89.7031 24.9531C89.375 25.0312 89.125 25.2969 89.0781 25.625C89.0781 25.6562 88.5937 29.0312 86.0781 31.5937C85 20.25 79.2031 10.4844 68.3906 1.74999C68.125 1.54687 67.7656 1.51562 67.4844 1.68749C67.2031 1.85937 67.0469 2.18749 67.1094 2.51562C67.125 2.62499 69.0156 14.2187 56.25 28.9531C53.7812 31.8125 51.9688 35.1406 50.8438 38.8281H2.95312C2.51562 38.8281 2.15625 39.1875 2.15625 39.625V97.6562C2.15625 98.0937 2.51562 98.4531 2.95312 98.4531V98.4375ZM31.9687 54.9062H45.6875V67.8281H18.2656V54.9062H31.9687ZM50.3906 54.9062C50.5 55.3437 50.625 55.7656 50.7656 56.1875C50.8125 56.3594 50.8594 56.5312 50.9219 56.7031C51.1406 57.4062 51.4063 58.0937 51.6719 58.7656L51.8594 59.1875C52.1726 59.9385 52.5327 60.6691 52.9375 61.375C53.1563 61.7812 53.3906 62.1875 53.6406 62.5781C53.7813 62.7969 53.9219 63.0312 54.0781 63.25C54.3281 63.625 54.5937 63.9844 54.8594 64.3437L55.3281 64.9531C55.6406 65.3437 55.9687 65.7031 56.2969 66.0781C56.4219 66.2187 56.5469 66.375 56.6875 66.5156C57.1406 66.9844 57.6094 67.4375 58.0937 67.8594H47.3281V54.9375H50.4375L50.3906 54.9062ZM76.0625 34.8906C76.375 37.7812 77.5469 43.7812 82.0937 48.1562C87.3906 53.2969 88.1719 63.7969 83.7031 69.1094C83.6586 69.1238 83.6164 69.1449 83.5781 69.1719C82.8125 69.5469 82.0156 69.8594 81.2031 70.1406C81.1094 70.1719 81 70.2031 80.9062 70.2344C80.2187 70.4531 79.5312 70.6562 78.8125 70.8125C78.6094 70.8594 78.4062 70.9062 78.1875 70.9531C77.4062 71.1094 76.6094 71.2344 75.7969 71.3281L75.2344 71.375C74.3594 71.4531 73.4844 71.5156 72.5781 71.5156C71.8906 71.5156 71.2344 71.4844 70.5625 71.4219C70.4062 71.4219 70.2344 71.3906 70.0781 71.375C69.5312 71.3125 69 71.2344 68.4687 71.1406C68.3437 71.125 68.2188 71.1094 68.0938 71.0781C67.5313 70.9687 66.9844 70.8125 66.4375 70.6562C66.1719 70.5781 65.9219 70.5 65.6562 70.4062C65.3437 70.2969 65.0312 70.1875 64.7344 70.0625C64.5312 69.9844 64.3281 69.9062 64.125 69.8125C58.1875 61.0312 60.8594 53.1875 62.6719 49.7031C63.6875 53.8906 67.2188 56.5 67.3906 56.625C67.6406 56.8125 67.9844 56.8281 68.2656 56.6719C68.5312 56.5156 68.6875 56.2031 68.6562 55.8906C67.375 44.7187 73.4219 37.4531 76.0469 34.875L76.0625 34.8906ZM46.4844 82.3594H32.7656V69.4375H60.1094C60.1094 69.4375 60.1719 69.4687 60.2031 69.5V82.375H46.4844V82.3594ZM17.4688 82.3594H3.73438V69.4375H31.1719V82.3594H17.4688ZM61.7969 70.4531C61.7969 70.4531 61.8281 70.4531 61.8438 70.4687C62.3125 70.7187 62.7969 70.9687 63.2812 71.1875L63.3125 71.2187C63.4531 71.2812 63.6094 71.3281 63.75 71.3906C63.8437 71.4375 63.9531 71.4687 64.0469 71.5156C64.1719 71.5625 64.2969 71.625 64.4219 71.6719C64.6406 71.75 64.875 71.8437 65.0937 71.9219C65.3281 72 65.5625 72.0781 65.8125 72.1562C66.1094 72.25 66.4062 72.3281 66.7031 72.4062C66.8437 72.4375 67 72.4844 67.1406 72.5156C67.2969 72.5469 67.4375 72.5937 67.5937 72.625L67.8437 72.6719C68.4062 72.7812 68.9844 72.875 69.5625 72.9531C69.6719 72.9531 69.7812 72.9687 69.8906 72.9844L70.375 73.0312C71.1094 73.0937 71.8437 73.1406 72.5937 73.1406C73.2344 73.1406 73.875 73.125 74.5156 73.0781C74.7187 73.0781 74.9063 73.0312 75.0938 73.0156C75.2188 73.0156 75.3437 73 75.4531 72.9844L76 72.9375C76.125 72.9375 76.25 72.9219 76.3906 72.9062C76.6406 72.875 76.875 72.8281 77.1094 72.7969C77.4844 72.7344 77.8594 72.6875 78.2188 72.6094C78.3438 72.5781 78.4531 72.5469 78.5781 72.5312C78.7969 72.4844 79.0156 72.4375 79.2344 72.375C79.5 72.3125 79.75 72.2656 80.0156 72.1875C80.2656 72.125 80.5156 72.0312 80.7812 71.9531C81.0937 71.8594 81.4219 71.7656 81.7344 71.6562C81.7656 71.6562 81.7812 71.6406 81.8125 71.625C82.0469 71.5469 82.2813 71.4375 82.5156 71.3594C82.8281 71.25 83.125 71.125 83.4375 71C83.6875 70.8906 83.9219 70.7812 84.1562 70.6562C84.2656 70.6094 84.375 70.5469 84.5 70.5C84.5 70.5 84.5312 70.5 84.5469 70.4844C84.7031 70.4062 84.875 70.3281 85.0312 70.25C85.2656 70.125 85.4844 70 85.7031 69.875C85.9531 69.7344 86.2188 69.6094 86.4531 69.4531H89.2344V82.375H61.7969V70.4687V70.4531ZM89.2344 67.8437H88.75C88.9219 67.7187 89.0781 67.5781 89.2344 67.4531V67.8437ZM16.6719 67.8437H3.73438V54.9219H16.6719V67.8437ZM3.73438 83.9531H16.6719V96.8594H3.73438V83.9531ZM18.25 83.9531H45.6875V96.8594H18.2656V83.9531H18.25ZM47.2656 83.9531H74.6875V96.8594H47.25V83.9531H47.2656ZM76.2812 96.8594V83.9531H89.2187V96.8594H76.2812ZM57.4219 29.9844C67.7656 18.0469 68.8594 8.20312 68.7969 4.17187C78.7969 12.7031 83.9687 22.2344 84.5937 33.2656C84.5937 33.5625 84.7812 33.8125 85.0469 33.9375C85.3125 34.0625 85.625 34.0312 85.8594 33.8594C88.375 32.0312 89.5937 29.4844 90.1719 27.7656C98.5156 41.9219 98.2969 56.4219 89.4687 65.0781C88.625 65.9219 87.6719 66.6719 86.6406 67.375C89.6094 61.1094 88.3125 51.9844 83.1875 47.0156C77.625 41.6406 77.5469 33.2969 77.5469 33.2031C77.5472 33.0567 77.5063 32.9131 77.429 32.7888C77.3516 32.6645 77.2409 32.5644 77.1094 32.5C76.9786 32.4312 76.8307 32.402 76.6837 32.4159C76.5366 32.4298 76.3968 32.4861 76.2812 32.5781C76.1719 32.6562 66.3437 40.2969 66.9375 54.0469C65.6562 52.6719 63.9687 50.2812 64.0312 47.3281C64.0344 47.1612 63.9848 46.9976 63.8896 46.8605C63.7944 46.7234 63.6584 46.6198 63.501 46.5644C63.3435 46.509 63.1726 46.5047 63.0125 46.5521C62.8525 46.5994 62.7114 46.696 62.6094 46.8281C62.5312 46.9375 55.5469 56.4687 61.2031 67.8594C61.1406 67.8594 61.0938 67.8281 61.0313 67.8281H60.6406C59.5924 67.0799 58.6144 66.2379 57.7187 65.3125C54.875 62.3281 52.8125 58.4062 51.7969 53.9375C51.5313 52.7812 51.3281 51.5937 51.2187 50.4219C51.0937 49.2344 51.0469 48.0469 51.0781 46.8594C51.1406 44.4844 51.5 42.125 52.1562 39.8281C53.2188 36.125 54.9844 32.8125 57.4375 29.9844H57.4219ZM50.2969 40.6406C50.0781 41.5625 49.8906 42.5 49.7656 43.4375C49.75 43.5937 49.7344 43.75 49.7031 43.8906C49.5781 44.875 49.5 45.8437 49.4688 46.8281V46.875C49.4531 47.8437 49.4688 48.8125 49.5625 49.7812C49.5625 49.9375 49.5781 50.0937 49.5938 50.25C49.6719 51.1875 49.8125 52.1094 49.9844 53.0312C50 53.125 50 53.2187 50.0156 53.3125H32.75V40.4062H50.3438L50.2969 40.6406ZM3.73438 40.4062H31.1719V53.3125H3.73438V40.4062Z" stroke="white" stroke-width="2" mask="url(#path-1-outside-1_35_2182)"/>
</svg>
