<svg width="100" height="100" viewBox="0 0 100 100" fill="none" xmlns="http://www.w3.org/2000/svg">
<path d="M9.14375 63.7363C9.00254 63.7257 8.86098 63.7205 8.71938 63.7206C5.63438 63.7206 3.125 66.2213 3.125 69.295C3.125 72.3681 5.635 74.8688 8.71938 74.8688H15.9844V70.4938H8.71938C8.04688 70.4938 7.5 69.9556 7.5 69.295C7.5 68.6338 8.04688 68.0956 8.71938 68.0956C8.965 68.0956 9.195 68.165 9.4025 68.3025C9.71535 68.5092 10.0761 68.6319 10.45 68.659C10.824 68.686 11.1986 68.6165 11.538 68.457C11.8773 68.2975 12.1699 68.0535 12.3878 67.7483C12.6056 67.4432 12.7413 67.0871 12.7819 66.7144C12.9625 65.0619 14.3231 63.8113 15.9844 63.7113V59.3244C12.9819 59.4031 10.3756 61.16 9.14375 63.7363ZM12.9081 49.3781C13.5903 49.3785 14.257 49.1748 14.8225 48.7931L51.2075 24.3325L86.9694 48.18C87.7279 48.6859 88.6563 48.8698 89.5504 48.6911C90.4445 48.5125 91.231 47.986 91.7369 47.2275C92.2428 46.469 92.4266 45.5406 92.248 44.6465C92.0694 43.7524 91.5429 42.9659 90.7844 42.46L76.4356 32.8919V19.1438C76.4356 18.5636 76.2052 18.0072 75.7949 17.597C75.3847 17.1867 74.8283 16.9563 74.2481 16.9563H66.1963C65.6161 16.9563 65.0597 17.1867 64.6495 17.597C64.2392 18.0072 64.0088 18.5636 64.0088 19.1438V24.605L53.1075 17.3356C52.5409 16.958 51.8749 16.7571 51.194 16.7583C50.513 16.7595 49.8478 16.9629 49.2825 17.3425L10.9875 43.0875C10.3758 43.4986 9.91243 44.0953 9.66569 44.7898C9.41895 45.4842 9.40193 46.2396 9.61713 46.9444C9.83233 47.6493 10.2684 48.2663 10.8609 48.7045C11.4535 49.1427 12.1712 49.3788 12.9081 49.3781ZM68.3838 21.3313H72.0606V29.9738L68.3838 27.5219V21.3313Z" fill="white"/>
<path d="M84.4027 63.3338V49.0975L80.0277 46.18V65.8325C81.2797 64.6814 82.7751 63.8273 84.4027 63.3338ZM87.7239 65.0238C83.9726 65.0238 80.7158 67.2638 79.3114 70.5338C79.0313 70.4967 78.749 70.4781 78.4664 70.4781C74.9339 70.4781 72.0595 73.3413 72.0595 76.86C72.0595 80.3788 74.9339 83.2419 78.4664 83.2419H87.7239C92.7695 83.2419 96.8745 79.1556 96.8745 74.1325C96.8745 69.11 92.7702 65.0238 87.7239 65.0238ZM87.7239 78.8669H78.4664C77.3458 78.8669 76.4345 77.9669 76.4345 76.86C76.4345 75.7531 77.3458 74.8531 78.4664 74.8531C78.8689 74.8531 79.2608 74.9713 79.5995 75.195C79.9124 75.4013 80.273 75.5238 80.6469 75.5507C81.0207 75.5776 81.3951 75.508 81.7343 75.3485C82.0735 75.1891 82.366 74.9452 82.5838 74.6402C82.8017 74.3353 82.9375 73.9794 82.9783 73.6069C83.2402 71.2081 85.2802 69.3988 87.7233 69.3988C90.3564 69.3988 92.4989 71.5225 92.4989 74.1325C92.4995 76.7431 90.357 78.8669 87.7239 78.8669ZM40.6483 71.4694C39.9627 68.0425 41.0402 64.5175 43.7814 60.895C43.7814 61.2869 43.7814 61.6781 43.8795 62.07C44.0752 63.245 45.0545 65.9863 45.9358 66.6719C46.1314 66.77 46.2295 66.77 46.4252 66.77C46.9145 66.6719 46.9145 66.0844 46.9145 65.7906V65.6925C46.4252 55.9013 51.2227 49.4388 52.9852 47.3825C52.4958 49.3406 52.1039 54.3344 57.6851 63.2444C58.9583 65.2025 59.7414 67.2588 59.937 69.4131C60.3108 72.5531 59.5277 74.9056 58.4127 76.6175H62.622C64.1664 75.2763 65.552 73.5331 66.3995 71.2738C67.5745 68.1406 67.1827 64.42 65.2245 61.4825C63.5602 58.9369 63.8539 56.2931 63.8539 55.9013V55.6075L63.5602 55.8031C61.9933 57.0763 61.112 58.545 61.112 60.2094C60.8183 58.4469 59.937 53.845 57.9789 50.0263C57.2933 48.5575 56.8039 47.1869 56.5102 45.8163C55.9227 42.4875 56.902 40.6269 57.2933 39.6475C57.3902 39.4544 57.4864 38.8819 57.4889 38.8669L57.4895 38.8644L57.487 38.865L57.4845 38.8656L57.1952 38.9619C45.9558 40.8994 43.0027 49.5831 42.2108 54.1394C42.0622 54.981 41.9654 55.8309 41.9208 56.6844C41.3539 56.4638 41.022 56.02 40.8302 55.52C40.4245 54.4656 40.6483 53.1594 40.6483 53.1594L40.7464 52.5719L40.3545 52.9638C40.2714 53.0469 36.9027 56.2894 35.3902 60.9606C35.1024 61.8318 34.8959 62.7277 34.7733 63.6369C34.3889 69.8206 36.162 73.7681 38.462 76.29C38.5652 76.4031 38.6702 76.51 38.7745 76.6181H42.977C41.9358 75.2338 41.0052 73.5031 40.6483 71.4694Z" fill="white"/>
<path d="M70.105 78.805H22.5469V46.2362L18.1719 49.1775V80.9925C18.1719 81.5726 18.4023 82.129 18.8126 82.5393C19.2228 82.9495 19.7792 83.18 20.3594 83.18H72.6838C71.4012 82.0163 70.5019 80.4907 70.105 78.805Z" fill="white"/>
</svg>
