<svg width="100" height="100" viewBox="0 0 100 100" fill="none" xmlns="http://www.w3.org/2000/svg">
<path d="M85.058 65.2864C83.3427 65.2855 81.6911 65.9362 80.4375 67.1069L71.3275 61.8481V40.6885L78.6224 36.4768C79.7204 37.7396 81.2477 38.5501 82.9089 38.7514C84.57 38.9528 86.2468 38.5307 87.6146 37.5669C88.9825 36.6031 89.9441 35.166 90.3133 33.534C90.6826 31.9019 90.4332 30.1909 89.6135 28.7322C88.7938 27.2734 87.462 26.1706 85.8759 25.6373C84.2899 25.104 82.5624 25.1781 81.0278 25.8452C79.4933 26.5124 78.2608 27.7251 77.5689 29.2487C76.8771 30.7723 76.7752 32.4984 77.2828 34.0928L69.9603 38.3204L51.6355 27.7407V15.2016C53.2832 14.863 54.7465 13.9249 55.742 12.5691C56.7376 11.2132 57.1945 9.53618 57.0243 7.86273C56.8541 6.18929 56.0689 4.63857 54.8208 3.51094C53.5726 2.38331 51.9504 1.75903 50.2683 1.75903C48.5863 1.75903 46.964 2.38331 45.7159 3.51094C44.4678 4.63857 43.6826 6.18929 43.5124 7.86273C43.3422 9.53618 43.7991 11.2132 44.7946 12.5691C45.7902 13.9249 47.2535 14.863 48.9011 15.2016V27.7407L30.5763 38.3204L21.2013 32.9083C21.8596 31.3531 21.9173 29.6089 21.3632 28.0136C20.809 26.4183 19.6825 25.0855 18.2018 24.2733C16.7211 23.4611 14.9917 23.2274 13.3486 23.6174C11.7054 24.0074 10.2655 24.9934 9.30782 26.3844C8.35009 27.7753 7.9427 29.4723 8.16459 31.1464C8.38647 32.8206 9.22182 34.3528 10.5088 35.4462C11.7958 36.5397 13.4428 37.1166 15.1309 37.0651C16.8189 37.0136 18.4277 36.3375 19.6457 35.1676L29.2086 40.6885V61.8479L21.7945 66.1286C20.6259 64.9249 19.0523 64.1977 17.3783 64.0876C15.7043 63.9776 14.049 64.4926 12.733 65.5329C11.4169 66.5732 10.5336 68.0649 10.2542 69.7191C9.97474 71.3732 10.319 73.0722 11.2203 74.4871C12.1217 75.9021 13.5159 76.9322 15.1332 77.3781C16.7505 77.8241 18.4756 77.6541 19.9747 76.9011C21.4739 76.148 22.6402 74.8656 23.2481 73.3019C23.8559 71.7383 23.8619 70.0048 23.265 68.437L30.5757 64.2161L48.9006 74.796V84.7991C47.2529 85.1377 45.7896 86.0758 44.7941 87.4317C43.7985 88.7875 43.3416 90.4645 43.5118 92.138C43.682 93.8114 44.4672 95.3621 45.7153 96.4898C46.9634 97.6174 48.5857 98.2417 50.2677 98.2417C51.9498 98.2417 53.572 97.6174 54.8202 96.4898C56.0683 95.3621 56.8535 93.8114 57.0237 92.138C57.1939 90.4645 56.737 88.7875 55.7414 87.4317C54.7459 86.0758 53.2826 85.1377 51.6349 84.7991V74.796L69.9603 64.2163L78.8427 69.3442C78.2542 70.6834 78.1139 72.1768 78.4428 73.6022C78.7716 75.0275 79.552 76.3086 80.6678 77.2545C81.7835 78.2005 83.175 78.7608 84.6349 78.8521C86.0949 78.9433 87.5453 78.5606 88.7701 77.7609C89.995 76.9612 90.9288 75.7873 91.4326 74.414C91.9363 73.0407 91.9831 71.5414 91.5659 70.1394C91.1487 68.7373 90.2898 67.5075 89.1171 66.6331C87.9445 65.7586 86.5208 65.2863 85.058 65.2864ZM83.7558 27.9817C84.5581 27.9817 85.3423 28.2196 86.0094 28.6653C86.6764 29.111 87.1963 29.7445 87.5033 30.4857C87.8103 31.2269 87.8907 32.0425 87.7341 32.8294C87.5776 33.6162 87.1913 34.339 86.624 34.9062C86.0567 35.4735 85.3339 35.8598 84.547 36.0163C83.7602 36.1728 82.9446 36.0924 82.2034 35.7854C81.4623 35.4783 80.8288 34.9584 80.3831 34.2913C79.9374 33.6243 79.6995 32.84 79.6996 32.0378C79.7009 30.9626 80.1285 29.9318 80.8887 29.1714C81.6489 28.411 82.6797 27.9832 83.7549 27.9817H83.7558ZM16.9183 74.9034C16.116 74.9034 15.3317 74.6655 14.6646 74.2198C13.9975 73.7741 13.4776 73.1406 13.1705 72.3994C12.8635 71.6582 12.7831 70.8426 12.9396 70.0557C13.0961 69.2688 13.4824 68.546 14.0497 67.9787C14.617 67.4113 15.3398 67.025 16.1267 66.8684C16.9136 66.7119 17.7292 66.7922 18.4704 67.0992C19.2117 67.4063 19.8452 67.9262 20.2909 68.5933C20.7367 69.2604 20.9746 70.0446 20.9746 70.8469C20.9734 71.9224 20.5457 72.9534 19.7852 73.7139C19.0248 74.4744 17.9938 74.9021 16.9183 74.9034ZM50.2683 49.6895L33.3105 39.8989L50.2683 30.1085L67.226 39.8989L50.2683 49.6895ZM46.2119 8.54869C46.2118 7.7464 46.4497 6.9621 46.8954 6.295C47.3411 5.6279 47.9746 5.10794 48.7159 4.80089C49.4571 4.49383 50.2727 4.41348 51.0596 4.56997C51.8465 4.72647 52.5693 5.11279 53.1366 5.68009C53.7039 6.24739 54.0903 6.97017 54.2468 7.75705C54.4034 8.54393 54.323 9.35956 54.016 10.1008C53.709 10.842 53.1891 11.4756 52.522 11.9213C51.8549 12.367 51.0706 12.6049 50.2683 12.6049C49.1929 12.6038 48.1618 12.176 47.4014 11.4156C46.6409 10.6552 46.2131 9.62413 46.2119 8.54869ZM14.9418 34.3337C14.1395 34.3337 13.3552 34.0958 12.6881 33.6501C12.0209 33.2044 11.501 32.5709 11.1939 31.8296C10.8869 31.0884 10.8065 30.2728 10.9631 29.4859C11.1196 28.699 11.5059 27.9762 12.0732 27.4089C12.6405 26.8416 13.3634 26.4552 14.1502 26.2987C14.9371 26.1422 15.7528 26.2225 16.494 26.5296C17.2352 26.8366 17.8688 27.3566 18.3145 28.0237C18.7602 28.6908 18.9981 29.4751 18.998 30.2774C18.9968 31.3528 18.569 32.3838 17.8086 33.1442C17.0482 33.9047 16.0172 34.3324 14.9418 34.3337ZM31.9435 42.2672L48.9011 52.0575V71.6385L31.9435 61.8481V42.2672ZM54.3248 91.4514C54.3248 92.2537 54.0869 93.038 53.6412 93.7051C53.1955 94.3722 52.562 94.8922 51.8208 95.1992C51.0796 95.5063 50.264 95.5866 49.4771 95.4301C48.6902 95.2736 47.9674 94.8873 47.4001 94.32C46.8327 93.7527 46.4464 93.0299 46.2898 92.2431C46.1333 91.4562 46.2136 90.6406 46.5206 89.8993C46.8277 89.1581 47.3476 88.5246 48.0147 88.0788C48.6818 87.6331 49.466 87.3952 50.2683 87.3952C51.3438 87.3964 52.3748 87.8241 53.1353 88.5845C53.8958 89.345 54.3235 90.376 54.3248 91.4514ZM51.6355 71.6385V52.0575L68.5931 42.2671V61.8481L51.6355 71.6385ZM85.058 76.1329C84.2557 76.1329 83.4714 75.895 82.8043 75.4492C82.1373 75.0035 81.6173 74.37 81.3103 73.6288C81.0033 72.8875 80.923 72.0719 81.0795 71.285C81.236 70.4982 81.6223 69.7754 82.1896 69.2081C82.7569 68.6408 83.4797 68.2544 84.2666 68.0979C85.0535 67.9414 85.8691 68.0217 86.6103 68.3288C87.3515 68.6358 87.9851 69.1557 88.4308 69.8228C88.8765 70.4899 89.1144 71.2741 89.1144 72.0764C89.1132 73.1519 88.6855 74.183 87.925 74.9435C87.1645 75.7039 86.1335 76.1317 85.058 76.1329Z" fill="white"/>
</svg>
