<svg width="20" height="21" viewBox="0 0 20 21" fill="none" xmlns="http://www.w3.org/2000/svg">
<g clip-path="url(#clip0_16169_28151)">
<path d="M4.43242 12.5863L3.73625 15.1852L1.19176 15.239C0.431328 13.8286 0 12.2149 0 10.5C0 8.84179 0.403281 7.27804 1.11812 5.90112H1.11867L3.38398 6.31644L4.37633 8.56815C4.16863 9.17366 4.05543 9.82366 4.05543 10.5C4.05551 11.2341 4.18848 11.9374 4.43242 12.5863Z" fill="#FBBB00"/>
<path d="M19.8252 8.6319C19.94 9.23682 19.9999 9.86155 19.9999 10.5C19.9999 11.216 19.9246 11.9143 19.7812 12.588C19.2944 14.8803 18.0224 16.8819 16.2604 18.2984L16.2598 18.2978L13.4065 18.1522L13.0027 15.6314C14.1719 14.9456 15.0857 13.8726 15.567 12.588H10.2197V8.6319H19.8252Z" fill="#518EF8"/>
<path d="M16.26 18.2978L16.2606 18.2984C14.5469 19.6758 12.3699 20.5 10.0001 20.5C6.19189 20.5 2.88092 18.3715 1.19189 15.239L4.43256 12.5863C5.27705 14.8401 7.45123 16.4445 10.0001 16.4445C11.0957 16.4445 12.1221 16.1484 13.0029 15.6313L16.26 18.2978Z" fill="#28B446"/>
<path d="M16.383 2.80219L13.1434 5.45437C12.2319 4.88461 11.1544 4.55547 10 4.55547C7.39344 4.55547 5.17859 6.23348 4.37641 8.56812L1.11871 5.90109H1.11816C2.78246 2.6923 6.1352 0.5 10 0.5C12.4264 0.5 14.6511 1.3643 16.383 2.80219Z" fill="#F14336"/>
</g>
<defs>
<clipPath id="clip0_16169_28151">
<rect width="20" height="20" fill="white" transform="translate(0 0.5)"/>
</clipPath>
</defs>
</svg>
