<svg width="100" height="100" viewBox="0 0 100 100" fill="none" xmlns="http://www.w3.org/2000/svg">
<path d="M79.3935 87.5757C78.4844 87.5757 77.8783 86.9697 77.8783 86.0606V9.09089C77.8783 6.51514 75.9086 4.54544 73.3329 4.54544H26.0601C23.4844 4.54544 21.5147 6.51514 21.5147 9.09089V30.1515C21.5147 31.0606 20.9086 31.6667 19.9995 31.6667C19.0904 31.6667 18.4844 31.0606 18.4844 30.1515V9.09089C18.4844 4.84847 21.8177 1.51514 26.0601 1.51514H73.3329C77.5753 1.51514 80.9086 4.84847 80.9086 9.09089V86.0606C80.9086 86.8182 80.3026 87.5757 79.3935 87.5757ZM88.1813 98.4848H26.0601C21.8177 98.4848 18.4844 95.1515 18.4844 90.9091V47.4242C18.4844 46.5151 19.0904 45.9091 19.9995 45.9091C20.9086 45.9091 21.5147 46.5151 21.5147 47.4242V90.9091C21.5147 93.4848 23.4844 95.4545 26.0601 95.4545H88.1813C89.0904 95.4545 89.6965 96.0606 89.6965 96.9697C89.6965 97.8788 89.0904 98.4848 88.1813 98.4848Z" fill="white"/>
<path d="M88.4847 98.4848H87.8787C82.4241 98.4848 77.8787 93.9394 77.8787 88.4848V29.5454C77.8787 28.6363 78.4847 28.0303 79.3938 28.0303H96.9696C97.8787 28.0303 98.4847 28.6363 98.4847 29.5454V88.4848C98.4847 93.9394 93.9393 98.4848 88.4847 98.4848ZM80.909 31.0606V88.4848C80.909 92.2727 84.0908 95.4545 87.8787 95.4545H88.4847C92.2726 95.4545 95.4544 92.2727 95.4544 88.4848V31.0606H80.909ZM35.6059 67.2727C35.3029 67.2727 34.9999 67.1212 34.6969 66.9697L26.3635 61.0606C25.6059 60.606 25.4544 59.6969 26.0605 58.9394C26.515 58.1818 27.4241 58.0303 28.1817 58.6363L33.9393 62.7272L33.3332 55.7575C33.3332 55 33.9393 54.2424 34.6969 54.0909C35.6059 54.0909 36.212 54.6969 36.3635 55.4545L37.2726 65.606C37.2726 66.2121 36.9696 66.8182 36.515 67.1212C36.0605 67.1212 35.909 67.2727 35.6059 67.2727Z" fill="white"/>
<path d="M27.1208 61.3637C26.6663 61.3637 26.0602 61.0607 25.7572 60.6062L2.1208 19.394C1.36323 18.0304 1.51474 16.3637 2.42383 15.1516C3.93898 13.3334 5.90868 12.1213 8.33292 11.8183C9.84807 11.5152 11.3632 12.2728 12.2723 13.6365L36.0602 54.8486C36.2117 55.1516 36.3632 55.6062 36.2117 56.0607C36.0602 56.5152 35.9087 56.8183 35.4541 56.9698L28.0299 61.3637C27.7269 61.2122 27.4238 61.3637 27.1208 61.3637ZM8.93898 14.6971C7.1208 15.0001 5.90868 15.7577 4.84807 16.9698C4.69656 17.2728 4.69656 17.5759 4.84807 17.8789L27.8784 57.7274L32.7269 54.8486L9.54504 15.0001C9.39353 14.8486 9.0905 14.6971 8.93898 14.6971Z" fill="white"/>
<path d="M5.45416 23.6361C4.99961 23.6361 4.39355 23.3331 4.09052 22.8786C3.63597 22.121 3.939 21.2119 4.69658 20.7573L12.1208 16.3634C12.8784 15.9089 13.7875 16.2119 14.242 16.9695C14.6966 17.727 14.3936 18.6361 13.636 19.0907L6.21173 23.4846C5.9087 23.4846 5.60567 23.6361 5.45416 23.6361ZM55.4542 42.8786H44.6966C43.7875 42.8786 43.1814 42.2725 43.1814 41.3634V40.4543C43.1814 37.5755 41.9693 34.6967 39.6966 32.424C36.9693 29.6967 35.4542 25.9089 35.6057 22.121C35.7572 14.5452 41.9693 8.18158 49.5451 7.87855C53.4845 7.72704 57.2723 9.09067 60.1511 11.9695C63.0299 14.6967 64.5451 18.4846 64.5451 22.424C64.5451 26.3634 63.0299 29.9998 60.3026 32.727C58.1814 34.8483 56.9693 37.424 56.9693 40.1513V41.5149C56.9693 42.2725 56.2117 42.8786 55.4542 42.8786ZM46.0602 39.8483H53.939C53.939 36.3634 55.4542 33.0301 58.1814 30.4543C60.3026 28.3331 61.5148 25.4543 61.5148 22.2725C61.5148 19.0907 60.3026 16.2119 58.0299 13.9392C55.7572 11.8179 52.7269 10.6058 49.5451 10.7573C43.636 11.0604 38.636 16.0604 38.4845 21.9695C38.4845 24.9998 39.5451 28.0301 41.6663 30.1513C44.3936 33.0301 45.9087 36.3634 46.0602 39.8483Z" fill="white"/>
<path d="M49.9995 42.2726C49.0904 42.2726 48.4844 41.6666 48.4844 40.7575V32.1211C48.4844 31.212 49.0904 30.606 49.9995 30.606C50.9086 30.606 51.5147 31.212 51.5147 32.1211V40.7575C51.5147 41.6666 50.7571 42.2726 49.9995 42.2726Z" fill="white"/>
<path d="M58.9386 42.8789H41.0598C40.1507 42.8789 39.5447 42.2728 39.5447 41.3637C39.5447 40.4546 40.1507 39.8486 41.0598 39.8486H59.0901C59.9992 39.8486 60.6053 40.4546 60.6053 41.3637C60.6053 42.2728 59.8477 42.8789 58.9386 42.8789ZM70.7568 59.091H42.878C41.9689 59.091 41.3628 58.4849 41.3628 57.5758C41.3628 56.6668 41.9689 56.0607 42.878 56.0607H70.7568C71.6659 56.0607 72.2719 56.6668 72.2719 57.5758C72.2719 58.4849 71.5144 59.091 70.7568 59.091ZM70.7568 51.5152H40.9083C39.9992 51.5152 39.3931 50.9092 39.3931 50.0001C39.3931 49.091 39.9992 48.4849 40.9083 48.4849H70.6053C71.5144 48.4849 72.1204 49.091 72.1204 50.0001C72.1204 50.9092 71.5144 51.5152 70.7568 51.5152ZM70.7568 66.5152H42.4234C41.5144 66.5152 40.9083 65.9092 40.9083 65.0001C40.9083 64.091 41.5144 63.4849 42.4234 63.4849H70.6053C71.5144 63.4849 72.1204 64.091 72.1204 65.0001C72.1204 65.9092 71.5144 66.5152 70.7568 66.5152ZM70.7568 74.091H47.4234C46.5144 74.091 45.9083 73.4849 45.9083 72.5758C45.9083 71.6668 46.5144 71.0607 47.4234 71.0607H70.6053C71.5144 71.0607 72.1204 71.6668 72.1204 72.5758C72.1204 73.4849 71.5144 74.091 70.7568 74.091ZM40.3022 74.091H28.3325C27.4234 74.091 26.8174 73.4849 26.8174 72.5758C26.8174 71.6668 27.4234 71.0607 28.3325 71.0607H40.3022C41.2113 71.0607 41.8174 71.6668 41.8174 72.5758C41.8174 73.4849 41.2113 74.091 40.3022 74.091ZM70.7568 81.5152H59.3931C58.4841 81.5152 57.878 80.9092 57.878 80.0001C57.878 79.091 58.4841 78.4849 59.3931 78.4849H70.7568C71.6659 78.4849 72.2719 79.091 72.2719 80.0001C72.2719 80.9092 71.5144 81.5152 70.7568 81.5152ZM52.1204 81.5152H28.484C27.575 81.5152 26.9689 80.9092 26.9689 80.0001C26.9689 79.091 27.575 78.4849 28.484 78.4849H52.2719C53.181 78.4849 53.7871 79.091 53.7871 80.0001C53.7871 80.9092 53.0295 81.5152 52.1204 81.5152ZM70.7568 89.091H42.7265C41.8174 89.091 41.2113 88.4849 41.2113 87.5758C41.2113 86.6668 41.8174 86.0607 42.7265 86.0607H70.6053C71.5144 86.0607 72.1204 86.6668 72.1204 87.5758C72.1204 88.4849 71.5144 89.091 70.7568 89.091ZM35.4537 89.091H28.484C27.575 89.091 26.9689 88.4849 26.9689 87.5758C26.9689 86.6668 27.575 86.0607 28.484 86.0607H35.4537C36.3628 86.0607 36.9689 86.6668 36.9689 87.5758C36.9689 88.4849 36.2113 89.091 35.4537 89.091ZM49.9992 33.3334C46.6659 33.3334 43.7871 30.6061 43.7871 27.1213C43.7871 23.6365 46.5144 20.9092 49.9992 20.9092C53.4841 20.9092 56.2113 23.6365 56.2113 27.1213C56.2113 30.6061 53.3325 33.3334 49.9992 33.3334ZM49.9992 24.091C48.3325 24.091 46.8174 25.4546 46.8174 27.2728C46.8174 28.9395 48.181 30.4546 49.9992 30.4546C51.8174 30.4546 53.0295 28.788 53.0295 27.1213C53.0295 25.4546 51.6659 24.091 49.9992 24.091Z" fill="white"/>
</svg>
