<svg width="100" height="100" viewBox="0 0 100 100" fill="none" xmlns="http://www.w3.org/2000/svg">
<path fill-rule="evenodd" clip-rule="evenodd" d="M18.3309 44.2406L6.52543 39.4814C6.27165 39.379 6.05426 39.2031 5.90117 38.9762C5.74809 38.7494 5.6663 38.482 5.6663 38.2083C5.6663 37.9347 5.74809 37.6672 5.90117 37.4404C6.05426 37.2136 6.27165 37.0377 6.52543 36.9353L27.5617 28.4549V17.6021L19.0433 22.1063C18.7214 22.2762 18.3453 22.3115 17.9975 22.2043C17.6497 22.0971 17.3586 21.8562 17.1884 21.5345C17.0184 21.2127 16.9831 20.8365 17.0903 20.4887C17.1975 20.1409 17.4385 19.8499 17.7601 19.6796L28.2927 14.1106C28.4888 14.0066 28.7082 13.9513 28.9343 13.9513C29.1603 13.9513 29.3797 14.0066 29.5758 14.1106L40.1086 19.6796C40.4302 19.8499 40.6712 20.1409 40.7784 20.4887C40.8856 20.8365 40.8503 21.2127 40.6803 21.5345C40.5101 21.8562 40.219 22.0971 39.8712 22.2043C39.5234 22.3115 39.1473 22.2762 38.8254 22.1063L30.3068 17.6021V27.3482L48.627 19.9629V9.71958L40.1086 14.2235C39.7867 14.3936 39.4105 14.4288 39.0627 14.3216C38.7148 14.2144 38.4237 13.9735 38.2535 13.6517C38.0836 13.3299 38.0483 12.9537 38.1556 12.6059C38.2628 12.2581 38.5038 11.9671 38.8254 11.7968L49.358 6.22782C49.5541 6.1239 49.7735 6.0686 49.9995 6.0686C50.2256 6.0686 50.445 6.1239 50.6411 6.22782L61.1737 11.7968C61.4953 11.9671 61.7363 12.2581 61.8435 12.6059C61.9507 12.9537 61.9155 13.3299 61.7456 13.6517C61.5753 13.9735 61.2843 14.2144 60.9364 14.3216C60.5886 14.4288 60.2124 14.3936 59.8905 14.2235L51.3721 9.71958V19.9629L69.6923 27.3482V17.6021L61.1737 22.1063C60.8518 22.2762 60.4757 22.3115 60.1279 22.2043C59.7801 22.0971 59.489 21.8562 59.3188 21.5345C59.1488 21.2127 59.1135 20.8365 59.2207 20.4887C59.3279 20.1409 59.5689 19.8499 59.8905 19.6796L70.4233 14.1106C70.6194 14.0066 70.8388 13.9513 71.0648 13.9513C71.2909 13.9513 71.5103 14.0066 71.7064 14.1106L82.239 19.6796C82.5606 19.8499 82.8015 20.1409 82.9088 20.4887C83.016 20.8365 82.9807 21.2127 82.8107 21.5345C82.6404 21.8562 82.3494 22.0971 82.0016 22.2043C81.6538 22.3115 81.2777 22.2762 80.9558 22.1063L72.4374 17.6021V28.4549L93.4737 36.9353C93.7274 37.0377 93.9447 37.2137 94.0977 37.4405C94.2507 37.6673 94.3325 37.9347 94.3325 38.2083C94.3325 38.4819 94.2507 38.7493 94.0977 38.9761C93.9447 39.203 93.7274 39.3789 93.4737 39.4814L81.6682 44.2406L93.4737 48.9996C93.7275 49.1019 93.945 49.2778 94.0981 49.5047C94.2513 49.7315 94.3331 49.999 94.3331 50.2727V61.8274C94.333 62.1011 94.2512 62.3685 94.0981 62.5953C93.9449 62.8222 93.7275 62.998 93.4737 63.1004L79.996 68.5335L93.4737 73.9668C93.7274 74.0692 93.9448 74.2451 94.0979 74.472C94.251 74.6988 94.3328 74.9662 94.3328 75.2399C94.3328 75.5135 94.251 75.781 94.0979 76.0078C93.9448 76.2346 93.7274 76.4105 93.4737 76.5129L50.5127 93.8317C50.1835 93.9645 49.8156 93.9645 49.4864 93.8317L6.52543 76.5129C6.27172 76.4105 6.05442 76.2345 5.9014 76.0077C5.74838 75.7809 5.66662 75.5135 5.66662 75.2399C5.66662 74.9663 5.74838 74.6989 5.9014 74.4721C6.05442 74.2452 6.27172 74.0693 6.52543 73.9668L20.0031 68.5335L6.52543 63.1004C6.27161 62.998 6.05417 62.8222 5.90104 62.5953C5.7479 62.3685 5.66606 62.1011 5.66602 61.8274V50.2727C5.66599 49.999 5.74781 49.7315 5.90095 49.5047C6.05409 49.2778 6.27156 49.1019 6.52543 48.9996L18.3309 44.2406ZM27.5617 31.4147L10.7095 38.2084L49.9995 54.0472L89.2895 38.2084L72.4374 31.4147V33.4668C72.4374 34.2245 71.8223 34.8394 71.0648 34.8394C70.3072 34.8394 69.6923 34.2245 69.6923 33.4668V30.308L54.0329 23.9953L51.3721 22.9227V34.3376C51.3721 35.0953 50.757 35.7102 49.9995 35.7102C49.2421 35.7102 48.627 35.0953 48.627 34.3376V22.9227L45.9662 23.9953L30.3068 30.308V33.4668C30.3068 34.2245 29.6919 34.8394 28.9343 34.8394C28.1768 34.8394 27.5617 34.2245 27.5617 33.4668V31.4147ZM77.9972 45.7204L50.5127 56.8002C50.1835 56.9329 49.8156 56.9329 49.4864 56.8002L22.0019 45.7204L10.7095 50.2727L49.9995 66.1117L89.2895 50.2727L77.9972 45.7204ZM91.588 52.3059L88.1354 53.6976L88.0639 62.3213C89.2386 61.8478 90.4133 61.3743 91.588 60.9008V52.3059ZM85.3811 54.808L80.7817 56.6621L80.7101 65.2859L85.3094 63.4317L85.3811 54.808ZM78.0274 57.7725L73.4286 59.6264L73.357 68.2502L77.9556 66.3963L78.0274 57.7725ZM70.6741 60.7368L66.0737 62.5915L66.0019 71.2153L70.6025 69.3606L70.6741 60.7368ZM63.3192 63.7019L58.7176 65.5568L58.646 74.1808L63.2476 72.3257L63.3192 63.7019ZM55.9631 66.6672L51.3721 68.518V77.1129L55.8915 75.2912L55.9631 66.6672ZM76.325 70.0135L50.5127 80.4192C50.1835 80.5519 49.8156 80.5519 49.4864 80.4192L23.6741 70.0135L10.7095 75.2398L49.9995 91.0788L89.2895 75.2398L76.325 70.0135ZM8.41111 52.3059V60.9008L12.6256 62.5998L12.6968 54.0335L8.41111 52.3059ZM15.3615 63.7027L19.988 65.5678L20.0592 57.0015L15.4327 55.1365L15.3615 63.7027ZM48.627 68.518L44.8503 66.9957L44.7792 75.5619L48.627 77.1129V68.518ZM42.1143 65.8927L37.5001 64.0325L37.429 72.5986L42.0433 74.4588L42.1143 65.8927ZM34.7641 62.9296L30.1484 61.0688L30.0772 69.6351L34.6929 71.4957L34.7641 62.9296ZM27.4123 59.9659L22.7952 58.1045L22.7241 66.6708L27.3411 68.5319L27.4123 59.9659Z" fill="white"/>
</svg>
