<svg width="100" height="100" viewBox="0 0 100 100" fill="none" xmlns="http://www.w3.org/2000/svg">
<g clip-path="url(#clip0_31_1836)">
<path d="M93.4886 61.9995L91.6202 60.1312C91.2539 59.7649 90.7571 59.5592 90.2392 59.5592C89.7212 59.5592 89.2244 59.7649 88.8581 60.1312L82.2288 66.7605C81.4661 67.5234 81.4661 68.7601 82.2288 69.5228L84.0972 71.3911C85.7909 73.0849 86.7237 75.3409 86.7237 77.7443C86.7237 80.1474 85.7909 82.4034 84.0972 84.0974C82.4036 85.7911 80.1474 86.7237 77.7442 86.7237C75.3411 86.7237 73.0851 85.7911 71.3911 84.0974L48.4651 61.1712C47.7026 60.4085 46.4657 60.4087 45.703 61.1712C44.9401 61.9341 44.9401 63.1708 45.703 63.9335L68.6294 86.8595C71.0608 89.2909 74.298 90.63 77.7446 90.63C81.1911 90.63 84.4282 89.2909 86.8597 86.8595C89.2913 84.428 90.6304 81.1909 90.6304 77.7443C90.6304 74.2978 89.2913 71.0605 86.8599 68.629L86.3726 68.1417L90.2396 64.2747L90.7269 64.762C97.8853 71.9206 97.8853 83.5683 90.7269 90.7265C83.5683 97.8849 71.9204 97.8849 64.7624 90.7265L48.4653 74.4298C47.7028 73.6669 46.4659 73.6671 45.7032 74.4298C44.9403 75.1925 44.9403 76.4292 45.7032 77.1919L62.0001 93.4886C66.3407 97.8292 72.0427 99.9997 77.7444 99.9997C83.4462 99.9997 89.1481 97.8296 93.4886 93.4882C102.17 84.8068 102.17 70.681 93.4886 61.9995Z" fill="white"/>
<path d="M93.4886 6.51089C84.8072 -2.17036 70.6812 -2.17056 61.9998 6.51089L60.1314 8.37925C59.7652 8.74555 59.5594 9.24232 59.5594 9.7603C59.5594 10.2783 59.7652 10.7751 60.1314 11.1414L66.7609 17.7707C67.5234 18.5334 68.7603 18.5334 69.523 17.7707L71.3912 15.9023C73.0849 14.2085 75.341 13.2757 77.7443 13.2757C80.1474 13.2757 82.4035 14.2085 84.0974 15.9023C85.791 17.5959 86.7238 19.8521 86.7238 22.2552C86.7238 24.6582 85.791 26.9144 84.0972 28.6084L61.1712 51.5341C60.4086 52.297 60.4086 53.5337 61.1712 54.2964C61.9341 55.0591 63.1709 55.0591 63.9335 54.2964L86.8595 31.3705C89.291 28.939 90.63 25.7019 90.63 22.2552C90.63 18.8087 89.291 15.5716 86.8595 13.1402C84.4281 10.7085 81.191 9.36948 77.7443 9.36948C74.2978 9.36948 71.0605 10.7085 68.6291 13.14L68.1418 13.6273L64.2748 9.7603L64.7623 9.273C71.9209 2.1148 83.5685 2.1148 90.7267 9.273C97.8851 16.4316 97.8851 28.0792 90.7267 35.2375L67.8005 58.1636C67.0378 58.9265 67.0378 60.1632 67.8005 60.9259C67.9817 61.1076 68.1969 61.2516 68.434 61.3498C68.671 61.448 68.9251 61.4984 69.1816 61.498C69.4381 61.4984 69.6922 61.448 69.9291 61.3498C70.1661 61.2517 70.3814 61.1076 70.5625 60.9259L93.4886 37.9998C102.17 29.3183 102.17 15.1925 93.4886 6.51089ZM35.2378 9.27358L52.4841 26.5199C53.247 27.2826 54.4837 27.2826 55.2464 26.5199C56.0091 25.757 56.0091 24.5203 55.2464 23.7576L38.0001 6.51108C29.3185 -2.17036 15.1929 -2.17056 6.51108 6.51108C-2.17036 15.1927 -2.17036 29.3185 6.51108 38L8.37944 39.8683C8.74573 40.2346 9.24253 40.4404 9.76056 40.4405C10.2786 40.4405 10.7754 40.2348 11.1417 39.8685L17.771 33.2392C18.5337 32.4763 18.5337 31.2396 17.771 30.4769L15.9027 28.6085C14.2089 26.9148 13.2761 24.6587 13.2761 22.2554C13.2761 19.8523 14.2089 17.5962 15.9027 15.9023C17.5964 14.2085 19.8527 13.2759 22.2558 13.2759C24.6587 13.2759 26.915 14.2085 28.6089 15.9023L51.5347 38.8287C52.2972 39.5914 53.5341 39.5912 54.2968 38.8287C55.0597 38.0658 55.0597 36.8291 54.2968 36.0664L31.3708 13.1406C28.9394 10.7091 25.7023 9.37007 22.2556 9.37007C18.8091 9.37007 15.572 10.7091 13.1406 13.1406C10.7089 15.572 9.36987 18.8091 9.36987 22.2558C9.36987 25.7023 10.7089 28.9396 13.1404 31.371L13.6277 31.8584L9.76069 35.7253L9.27339 35.238C2.11499 28.0794 2.11499 16.4318 9.27339 9.27358C16.4318 2.11519 28.0798 2.11519 35.2378 9.27358Z" fill="white"/>
<path d="M39.8683 88.8581L33.2388 82.2288C32.4763 81.4661 31.2394 81.4661 30.4767 82.2288L28.6085 84.0971C26.9147 85.7909 24.6587 86.7237 22.2554 86.7237C19.852 86.7237 17.5962 85.7909 15.9022 84.0971C14.2087 82.4036 13.2759 80.1473 13.2759 77.7442C13.2759 75.3411 14.2087 73.085 15.9024 71.3911L38.829 48.4653C39.5917 47.7024 39.5917 46.4657 38.829 45.703C38.0661 44.9403 36.8294 44.9403 36.0667 45.703L13.1407 68.6293C10.7093 71.0608 9.37022 74.2979 9.37022 77.7446C9.37022 81.1913 10.7093 84.4282 13.1407 86.8596C15.5722 89.2913 18.8095 90.6303 22.256 90.6303C25.7024 90.6303 28.9397 89.2913 31.3712 86.8598L31.8585 86.3725L35.7255 90.2395L35.238 90.7268C28.0794 97.885 16.4317 97.885 9.27354 90.7268C2.11514 83.5682 2.11514 71.9205 9.27354 64.7623L32.1997 41.836C32.9624 41.0731 32.9624 39.8364 32.1997 39.0737C31.4368 38.311 30.2001 38.311 29.4374 39.0737L6.51123 61.9998C-2.17041 70.6813 -2.17041 84.8071 6.51123 93.4887C10.8524 97.8299 16.553 100 22.2556 99.9998C27.9567 99.9995 33.6597 97.8291 37.9997 93.4885L39.8681 91.6202C40.2343 91.2539 40.4401 90.7571 40.4401 90.2391C40.4402 89.7212 40.2345 89.2244 39.8683 88.8581ZM60.9257 29.4369C60.5624 29.0737 60.0585 28.8647 59.5448 28.8647C59.0312 28.8647 58.5272 29.0737 58.164 29.4369C57.8007 29.8002 57.5917 30.3041 57.5917 30.8178C57.5917 31.3315 57.8007 31.8354 58.164 32.1987C58.5272 32.5619 59.0312 32.7709 59.5448 32.7709C60.0585 32.7709 60.5624 32.5619 60.9257 32.1987C61.289 31.8354 61.498 31.3315 61.498 30.8178C61.498 30.3041 61.2892 29.8002 60.9257 29.4369Z" fill="white"/>
<path d="M42.0898 68.0538L41.8363 67.8003C41.0734 67.0376 39.8367 67.0376 39.074 67.8003C38.3113 68.5632 38.3113 69.7999 39.074 70.5626L39.3275 70.8161C39.5086 70.9978 39.7239 71.1418 39.9609 71.24C40.1979 71.3382 40.452 71.3885 40.7085 71.3882C40.9651 71.3885 41.2192 71.3382 41.4563 71.24C41.6933 71.1418 41.9086 70.9978 42.0898 70.8161C42.8525 70.0532 42.8525 68.8165 42.0898 68.0538Z" fill="white"/>
</g>
<defs>
<clipPath id="clip0_31_1836">
<rect width="100" height="100" fill="white"/>
</clipPath>
</defs>
</svg>
