<svg width="100" height="100" viewBox="0 0 100 100" fill="none" xmlns="http://www.w3.org/2000/svg">
<g clip-path="url(#clip0_31_1849)">
<path d="M82.675 37.9119C82.5612 37.7208 82.4102 37.5544 82.231 37.4225C82.0518 37.2907 81.848 37.196 81.6317 37.1441C81.4154 37.0923 81.1908 37.0842 80.9713 37.1205C80.7518 37.1568 80.5418 37.2366 80.3536 37.3554C80.1655 37.4741 80.003 37.6293 79.8758 37.8118C79.7485 37.9943 79.6591 38.2004 79.6128 38.418C79.5665 38.6356 79.5642 38.8603 79.6061 39.0788C79.648 39.2973 79.7332 39.5052 79.8567 39.6902L95.3084 64.1686H4.69163L15.8766 46.4418C16.0447 46.1943 16.1431 45.9061 16.1614 45.6074C16.1798 45.3088 16.1174 45.0107 15.9808 44.7445C15.8443 44.4783 15.6385 44.2537 15.3853 44.0944C15.132 43.9351 14.8405 43.8469 14.5414 43.8391C14.2423 43.8313 13.9466 43.9043 13.6853 44.0502C13.4241 44.1962 13.2069 44.4097 13.0567 44.6686L1.29671 63.3019C0.44577 64.636 -0.00428436 66.1862 3.07407e-05 67.7686V85.8352C3.07407e-05 88.5965 2.2387 90.8352 5.00003 90.8352H95C97.7614 90.8352 100 88.5965 100 85.8352V67.7686C100.005 66.1902 99.5571 64.6436 98.71 63.3119L82.675 37.9119ZM95 87.502H5.00003C4.55802 87.502 4.13411 87.3264 3.82157 87.0138C3.50902 86.7013 3.33343 86.2774 3.33343 85.8353V74.1687H11.6668C12.1088 74.1687 12.5327 73.9932 12.8453 73.6806C13.1578 73.3681 13.3334 72.9442 13.3334 72.5021C13.3334 72.0601 13.1578 71.6362 12.8453 71.3237C12.5327 71.0111 12.1088 70.8355 11.6668 70.8355H3.33343V67.7689C3.33343 67.6789 3.34671 67.5922 3.35179 67.5023H96.6485C96.6485 67.5924 96.6668 67.6791 96.6668 67.7689V70.8355H20C19.558 70.8355 19.1341 71.0111 18.8216 71.3237C18.509 71.6362 18.3334 72.0601 18.3334 72.5021C18.3334 72.9442 18.509 73.3681 18.8216 73.6806C19.1341 73.9932 19.558 74.1687 20 74.1687H96.6666V85.8353C96.6667 86.0542 96.6236 86.2709 96.5398 86.4732C96.4561 86.6754 96.3333 86.8591 96.1786 87.0139C96.0238 87.1686 95.8401 87.2914 95.6378 87.3751C95.4356 87.4589 95.2189 87.502 95 87.502Z" fill="white"/>
<path d="M41.6666 50.8352C42.587 50.8352 43.3332 50.089 43.3332 49.1686C43.3332 48.2481 42.587 47.502 41.6666 47.502C40.7462 47.502 40 48.2481 40 49.1686C40 50.089 40.7462 50.8352 41.6666 50.8352Z" fill="white"/>
<path d="M40.0006 59.1686C40.921 59.1686 41.6672 58.4224 41.6672 57.502C41.6672 56.5815 40.921 55.8354 40.0006 55.8354C39.0801 55.8354 38.334 56.5815 38.334 57.502C38.334 58.4224 39.0801 59.1686 40.0006 59.1686Z" fill="white"/>
<path d="M25.0006 50.8352C25.921 50.8352 26.6672 50.089 26.6672 49.1686C26.6672 48.2481 25.921 47.502 25.0006 47.502C24.0801 47.502 23.334 48.2481 23.334 49.1686C23.334 50.089 24.0801 50.8352 25.0006 50.8352Z" fill="white"/>
<path d="M21.6666 59.1686C22.587 59.1686 23.3332 58.4224 23.3332 57.502C23.3332 56.5815 22.587 55.8354 21.6666 55.8354C20.7462 55.8354 20 56.5815 20 57.502C20 58.4224 20.7462 59.1686 21.6666 59.1686Z" fill="white"/>
<path d="M58.3346 50.8352C59.255 50.8352 60.0012 50.089 60.0012 49.1686C60.0012 48.2481 59.255 47.502 58.3346 47.502C57.4141 47.502 56.668 48.2481 56.668 49.1686C56.668 50.089 57.4141 50.8352 58.3346 50.8352Z" fill="white"/>
<path d="M60.0006 59.1686C60.921 59.1686 61.6672 58.4224 61.6672 57.502C61.6672 56.5815 60.921 55.8354 60.0006 55.8354C59.0802 55.8354 58.334 56.5815 58.334 57.502C58.334 58.4224 59.0802 59.1686 60.0006 59.1686Z" fill="white"/>
<path d="M75.0006 50.8352C75.921 50.8352 76.6672 50.089 76.6672 49.1686C76.6672 48.2481 75.921 47.502 75.0006 47.502C74.0801 47.502 73.334 48.2481 73.334 49.1686C73.334 50.089 74.0801 50.8352 75.0006 50.8352Z" fill="white"/>
<path d="M78.3346 59.1686C79.255 59.1686 80.0012 58.4224 80.0012 57.502C80.0012 56.5815 79.255 55.8354 78.3346 55.8354C77.4141 55.8354 76.668 56.5815 76.668 57.502C76.668 58.4224 77.4141 59.1686 78.3346 59.1686Z" fill="white"/>
<path fill-rule="evenodd" clip-rule="evenodd" d="M68.0807 33.3854C68.1981 33.1993 68.2775 32.9919 68.3145 32.775C68.3514 32.5582 68.3452 32.3361 68.296 32.1217C68.2469 31.9073 68.1559 31.7047 68.0282 31.5255C67.9005 31.3464 67.7387 31.1943 67.552 31.0779C67.3653 30.9615 67.1575 30.8831 66.9404 30.8473C66.7234 30.8115 66.5014 30.8189 66.2872 30.8692C66.073 30.9195 65.8709 31.0116 65.6924 31.1402C65.514 31.2688 65.3627 31.4315 65.2473 31.6188C57.5705 43.9037 42.1741 42.5338 34.1856 37.7404C29.5973 35.0178 24.1611 34.0971 18.9323 35.157C20.596 29.2504 24.2395 24.0951 29.2522 20.5553C38.0672 14.6752 48.8039 23.677 48.9188 23.7686C49.2561 24.043 49.6873 24.1747 50.1203 24.1356C50.5534 24.0966 50.9541 23.8898 51.2368 23.5594C51.5195 23.2291 51.6619 22.8013 51.6337 22.3674C51.6054 21.9335 51.4086 21.5278 51.0854 21.2369C50.5688 20.7953 38.3336 10.502 27.4086 17.7818C20.8768 22.3942 16.4248 29.394 15.017 37.2652C14.9754 37.5545 15.0105 37.8496 15.1189 38.121C15.2272 38.3924 15.4051 38.6305 15.6345 38.8115C15.8639 38.9925 16.1369 39.11 16.4261 39.1522C16.7153 39.1944 17.0105 39.1598 17.2821 39.052C19.7798 38.2205 22.4255 37.9283 25.0445 38.1946C27.6634 38.4609 30.1962 39.2797 32.4754 40.5969C36.999 43.1838 42.1228 44.5367 47.3338 44.5201C55.7422 44.7815 63.6508 40.5367 68.0807 33.3854Z" fill="white"/>
<path fill-rule="evenodd" clip-rule="evenodd" d="M47.7357 12.6119C47.4625 12.717 47.2218 12.8921 47.0377 13.1197C46.8536 13.3473 46.7326 13.6193 46.6869 13.9084C46.6413 14.1975 46.6725 14.4936 46.7774 14.7668C46.8824 15.04 47.0574 15.2809 47.2849 15.465C47.5125 15.6492 47.7845 15.7701 48.0737 15.8158C48.3628 15.8615 48.6589 15.8302 48.9322 15.7252C49.1271 15.6484 67.7105 8.65683 77.3638 17.2119C60.8039 27.0035 48.3488 29.1236 42.0722 27.5453C37.9427 26.4496 33.5973 26.4617 29.474 27.5803C29.0541 27.72 28.7068 28.0207 28.5087 28.4164C28.3105 28.8121 28.2776 29.2703 28.4173 29.6902C28.557 30.1102 28.8578 30.4574 29.2535 30.6555C29.6492 30.8537 30.1074 30.8866 30.5273 30.7469C34.0483 29.8293 37.7473 29.8414 41.2623 30.7818C42.9483 31.1803 44.6766 31.3717 46.4089 31.3518C54.1322 31.3518 65.5222 28.1852 79.6023 19.7568C80.1257 20.5114 80.4913 21.3639 80.6772 22.2632C80.8631 23.1624 80.8653 24.09 80.6839 24.9902C79.1439 32.6369 66.0539 39.2752 65.9207 39.342C65.0972 39.7562 64.7656 40.7594 65.1798 41.5828C65.5941 42.4063 66.5972 42.7379 67.4207 42.3236C68.0189 42.0236 82.0873 34.8902 83.9589 25.657C84.2267 24.3457 84.2306 22.9942 83.9705 21.6813C83.7104 20.3684 83.1914 19.1205 82.4439 18.0103C85.2039 16.2621 88.0472 14.3437 90.9939 12.177C91.3477 11.9146 91.5833 11.5229 91.6493 11.0874C91.7153 10.6519 91.6062 10.208 91.346 9.85265C91.0857 9.49729 90.6954 9.25937 90.2603 9.19084C89.8252 9.12231 89.3807 9.22875 89.0238 9.48691C86.1975 11.5619 83.2974 13.5343 80.329 15.4004C69.3808 4.47207 48.639 12.267 47.7357 12.6119Z" fill="white"/>
</g>
<defs>
<clipPath id="clip0_31_1849">
<rect width="100" height="100" fill="white"/>
</clipPath>
</defs>
</svg>
