<svg width="70" height="70" viewBox="0 0 70 70" fill="none" xmlns="http://www.w3.org/2000/svg">
<g clip-path="url(#clip0_12_195)">
<path d="M4.83588 15.304C5.75271 16.9053 7.26578 17.8946 9.0501 18.089L11.234 21.8876C12.2622 23.6759 14.0349 24.7015 16.0978 24.7015H20.2552C23.0314 30.018 28.5984 33.6558 34.9999 33.6558C41.4013 33.6558 46.9685 30.018 49.7447 24.7015H53.9021C55.965 24.7015 57.7378 23.6759 58.7658 21.8876L60.9496 18.089C62.7338 17.8944 64.247 16.9053 65.1637 15.3042L67.6274 11.0015C67.7226 10.8352 67.7725 10.6467 67.772 10.4551C67.7714 10.2634 67.7206 10.0753 67.6245 9.90948C67.5283 9.74367 67.3903 9.60603 67.2243 9.51035C67.0582 9.41466 66.8699 9.36429 66.6783 9.36428H49.7447C46.9686 4.04797 41.4014 0.410156 35 0.410156C28.5986 0.410156 23.0315 4.04797 20.2553 9.36428H3.32145C3.12979 9.36429 2.94151 9.41466 2.77545 9.51035C2.60939 9.60603 2.4714 9.74367 2.37528 9.90948C2.27916 10.0753 2.22829 10.2634 2.22778 10.4551C2.22726 10.6467 2.27712 10.8352 2.37234 11.0015L4.83588 15.304ZM16.0978 22.514C14.8206 22.514 13.7669 21.9044 13.1305 20.7972L11.595 18.1266H18.4141C18.5111 19.6228 18.8114 21.0989 19.3069 22.514H16.0978ZM56.8695 20.7972C56.2331 21.9044 55.1793 22.514 53.9022 22.514H50.6933C51.1887 21.0989 51.4891 19.6228 51.586 18.1266H58.4049L56.8695 20.7972ZM64.7918 11.5516L63.2656 14.217C62.6299 15.3275 61.575 15.9391 60.2953 15.9391H51.5859C51.4889 14.4429 51.1886 12.9669 50.6931 11.5518H64.7917L64.7918 11.5516ZM35 2.59766C42.9598 2.59766 49.4354 9.07334 49.4354 17.0328C49.4354 24.9923 42.9598 31.4683 35 31.4683C27.0402 31.4683 20.5647 24.9926 20.5647 17.0328C20.5647 9.07307 27.0402 2.59766 35 2.59766ZM19.3069 11.5518C18.8114 12.9669 18.5111 14.4429 18.4141 15.9391H9.70443C8.42488 15.9391 7.36996 15.3275 6.73408 14.2171L5.20789 11.5516H19.3067L19.3069 11.5518ZM68.3885 49.6675H63.9116V45.1907C63.9116 44.9007 63.7964 44.6225 63.5913 44.4173C63.3862 44.2122 63.108 44.097 62.8179 44.097H47.243C42.7245 44.097 38.4155 45.7013 35 48.6348C31.5848 45.7013 27.2757 44.097 22.757 44.097H7.18211C6.89203 44.097 6.61383 44.2122 6.40871 44.4173C6.20359 44.6225 6.08836 44.9007 6.08836 45.1907V49.6675H1.6115C1.32142 49.6675 1.04322 49.7827 0.838106 49.9878C0.632988 50.1929 0.517754 50.4711 0.517754 50.7612V60.7655C0.517754 61.0555 0.632988 61.3337 0.838106 61.5389C1.04322 61.744 1.32142 61.8592 1.6115 61.8592H22.757C25.9623 61.8592 28.7771 64.2451 29.3043 67.409C29.4042 68.0191 29.7181 68.5737 30.1898 68.9733C30.6615 69.373 31.2601 69.5915 31.8783 69.5898H38.1217C38.7399 69.5915 39.3385 69.3729 39.8101 68.9733C40.2818 68.5737 40.5958 68.0192 40.6958 67.4092C41.2228 64.2451 44.0375 61.8592 47.243 61.8592H68.3885C68.6786 61.8592 68.9568 61.744 69.1619 61.5389C69.367 61.3337 69.4822 61.0555 69.4822 60.7655V50.7612C69.4822 50.4711 69.367 50.1929 69.1619 49.9878C68.9568 49.7827 68.6786 49.6675 68.3885 49.6675ZM8.27586 46.2845H22.757C27.0499 46.2845 31.1295 47.924 34.2442 50.9012C34.4556 51.1033 34.7277 51.2043 34.9999 51.2043C35.2721 51.2043 35.5441 51.1033 35.7555 50.9012C38.8702 47.9242 42.9499 46.2845 47.2428 46.2845H61.7239V49.6675H50.2745C46.9479 49.6675 43.6749 50.5526 40.8096 52.2268C38.5269 53.5608 36.5436 55.3666 34.9997 57.5049C33.4559 55.3664 31.4725 53.5607 29.1899 52.2268C26.3245 50.5526 23.0517 49.6675 19.725 49.6675H8.27586V46.2845ZM67.2947 59.6717H47.243C45.1475 59.6717 43.1129 60.4263 41.514 61.7963C39.9336 63.1501 38.8769 65.0159 38.5381 67.0496C38.5029 67.2606 38.3357 67.4023 38.1217 67.4023H31.8783C31.6645 67.4023 31.4973 67.2607 31.4621 67.0497C31.1232 65.0159 30.0664 63.1503 28.486 61.7962C26.8871 60.4261 24.8525 59.6717 22.757 59.6717H2.70525V51.855H19.7252C25.5735 51.855 31.0658 54.9973 34.0587 60.0559C34.1554 60.2195 34.2931 60.3551 34.4581 60.4492C34.6232 60.5434 34.81 60.5929 35 60.5929C35.19 60.5929 35.3768 60.5434 35.5419 60.4492C35.7069 60.3551 35.8446 60.2195 35.9413 60.0559C38.9342 54.9973 44.4263 51.855 50.2748 51.855H67.2947V59.6717ZM35.1876 28.7036C41.7262 28.7036 47.0457 23.384 47.0457 16.8454C47.0457 10.3068 41.7262 4.98736 35.1876 4.98736C28.649 4.98736 23.3294 10.307 23.3294 16.8454C23.3294 23.3838 28.649 28.7036 35.1876 28.7036ZM35.1876 7.17473C40.52 7.17473 44.8582 11.5129 44.8582 16.8453C44.8582 22.1776 40.52 26.5159 35.1876 26.5159C29.8551 26.5159 25.5169 22.1777 25.5169 16.8453C25.5169 11.5128 29.8551 7.17473 35.1876 7.17473ZM26.8264 15.4674L30.2574 18.6182L29.3337 23.1839C29.2921 23.3894 29.3104 23.6025 29.3865 23.7978C29.4626 23.9931 29.5932 24.1624 29.7629 24.2856C29.9324 24.4089 30.1338 24.4809 30.3431 24.4929C30.5524 24.5049 30.7608 24.4564 30.9433 24.3533L35.0001 22.0641L39.057 24.3533C39.2395 24.4564 39.4478 24.5049 39.6572 24.4929C39.8665 24.4809 40.0679 24.4089 40.2374 24.2856C40.407 24.1624 40.5376 23.9931 40.6137 23.7978C40.6898 23.6025 40.7082 23.3894 40.6666 23.1839L39.7429 18.6182L43.1739 15.4674C43.3283 15.3256 43.4388 15.1425 43.4921 14.9397C43.5454 14.7369 43.5393 14.5231 43.4745 14.3237C43.4097 14.1244 43.289 13.9478 43.1267 13.8151C42.9644 13.6824 42.7673 13.5991 42.559 13.5752L37.9314 13.0427L35.995 8.80606C35.9079 8.61541 35.7678 8.45382 35.5915 8.34052C35.4151 8.22722 35.2099 8.16698 35.0003 8.16698C34.7907 8.16698 34.5855 8.22722 34.4091 8.34052C34.2327 8.45382 34.0926 8.61541 34.0055 8.80606L32.0692 13.0427L27.4415 13.5752C27.2332 13.5991 27.0362 13.6824 26.8739 13.8151C26.7116 13.9478 26.5909 14.1244 26.5261 14.3237C26.4613 14.5231 26.4552 14.7369 26.5085 14.9397C26.5618 15.1425 26.6722 15.3256 26.8267 15.4674H26.8264ZM32.932 15.1454C33.1191 15.1239 33.2975 15.0544 33.4499 14.9437C33.6023 14.833 33.7235 14.6848 33.8018 14.5135L35 11.8919L36.1982 14.5135C36.2765 14.6848 36.3977 14.833 36.5501 14.9437C36.7025 15.0544 36.8809 15.1239 37.068 15.1454L39.9314 15.4749L37.8085 17.4245C37.6698 17.552 37.5663 17.713 37.5081 17.8922C37.4499 18.0713 37.4389 18.2624 37.4763 18.4471L38.0479 21.2722L35.5376 19.8558C35.3735 19.7632 35.1884 19.7146 35 19.7146C34.8116 19.7146 34.6265 19.7632 34.4624 19.8558L31.9521 21.2722L32.5237 18.4471C32.5611 18.2624 32.5502 18.0713 32.4919 17.8922C32.4337 17.713 32.3303 17.5519 32.1915 17.4245L30.0686 15.4749L32.932 15.1454Z" fill="#345766"/>
</g>
<defs>
<clipPath id="clip0_12_195">
<rect width="70" height="70" fill="white"/>
</clipPath>
</defs>
</svg>
