<svg width="100" height="100" viewBox="0 0 100 100" fill="none" xmlns="http://www.w3.org/2000/svg">
<g clip-path="url(#clip0_31_1833)">
<path d="M82.1702 35.4624C81.5785 34.9938 80.7398 34.9199 80.0741 35.2652C79.3837 35.6105 78.9643 36.3009 78.9643 37.0654V40.3947H78.0025C71.4921 40.3947 65.2035 42.0716 59.6055 45.2037V23.2308H62.9348C63.6993 23.2308 64.3897 22.7869 64.735 22.121C65.0803 21.4306 65.0062 20.6167 64.5378 20.0249L51.5907 3.00871C51.2207 2.51555 50.6289 2.21948 49.9877 2.21948C49.3465 2.21948 48.7793 2.51538 48.3848 3.00871L35.4377 20.0247C34.9691 20.6165 34.8952 21.455 35.2404 22.1209C35.5857 22.8113 36.2762 23.2307 37.0407 23.2307H40.37V45.2035C34.92 42.1455 28.6561 40.37 21.973 40.37H21.0112V37.0407C21.0112 36.2762 20.5673 35.5857 19.9014 35.2405C19.2109 34.8952 18.397 34.9938 17.8052 35.4377L0.789226 48.3848C0.295897 48.7546 0 49.3465 0 49.9877C0 50.6042 0.295897 51.1962 0.789226 51.5907L17.8052 64.5378C18.397 65.0064 19.2355 65.0803 19.9014 64.735C20.5918 64.3897 21.0112 63.6993 21.0112 62.9348V59.6055H23.4032C32.7498 59.6055 40.37 67.2257 40.37 76.5722V95.7832C40.3689 96.0458 40.4198 96.306 40.5198 96.5489C40.6198 96.7917 40.7669 97.0123 40.9526 97.198C41.1383 97.3837 41.359 97.5308 41.6018 97.6308C41.8447 97.7308 42.1049 97.7818 42.3675 97.7807H57.6327C57.8953 97.7818 58.1555 97.7308 58.3984 97.6308C58.6412 97.5308 58.8618 97.3837 59.0475 97.198C59.2332 97.0123 59.3803 96.7917 59.4803 96.5489C59.5803 96.306 59.6313 96.0458 59.6302 95.7832V76.5722C59.6302 67.2257 67.2504 59.6055 76.5969 59.6055H78.989V62.9348C78.989 63.6993 79.4329 64.3897 80.0988 64.735C80.7892 65.0803 81.6032 64.9817 82.195 64.5378L99.2109 51.5907C99.7041 51.2209 100 50.6289 100 49.9877C100 49.3712 99.7043 48.7793 99.2109 48.3848L82.1702 35.4624ZM42.3181 19.2355H41.0357L49.963 7.5216L58.8904 19.2355H57.608C57.3453 19.2344 57.0851 19.2853 56.8423 19.3853C56.5994 19.4853 56.3788 19.6324 56.1931 19.8181C56.0074 20.0038 55.8603 20.2245 55.7603 20.4673C55.6603 20.7101 55.6094 20.9704 55.6104 21.233V61.2577C52.947 55.9556 49.0753 51.3686 44.3403 47.8422V21.233C44.3403 20.1233 43.4279 19.2355 42.3181 19.2355ZM55.5857 93.8102H44.3156V76.5968C44.3156 65.0307 34.9199 55.635 23.3538 55.635H18.9641C18.7015 55.6339 18.4413 55.6848 18.1984 55.7848C17.9556 55.8848 17.7349 56.0319 17.5492 56.2176C17.3635 56.4033 17.2164 56.624 17.1164 56.8668C17.0164 57.1096 16.9655 57.3699 16.9666 57.6325V58.9149L5.25271 50.0123L16.9666 41.085V42.3673C16.9655 42.63 17.0164 42.8902 17.1164 43.133C17.2164 43.3759 17.3635 43.5965 17.5492 43.7822C17.7349 43.9679 17.9556 44.115 18.1984 44.215C18.4413 44.315 18.7015 44.3659 18.9641 44.3649H21.9234C40.4932 44.3649 55.5856 59.4573 55.5856 78.027L55.5857 93.8102ZM82.9593 58.9396V57.6572C82.9604 57.3946 82.9095 57.1343 82.8095 56.8915C82.7095 56.6487 82.5624 56.428 82.3767 56.2423C82.191 56.0566 81.9703 55.9095 81.7275 55.8095C81.4847 55.7095 81.2244 55.6586 80.9618 55.6597H76.5721C69.593 55.6597 63.4278 59.0876 59.6053 64.365V49.8891C65.08 46.3133 71.4178 44.3897 78.0023 44.3897H80.9616C81.2243 44.3908 81.4845 44.3399 81.7273 44.2399C81.9702 44.1399 82.1908 43.9928 82.3765 43.8071C82.5622 43.6214 82.7093 43.4007 82.8093 43.1579C82.9093 42.9151 82.9602 42.6548 82.9591 42.3922V41.1098L94.673 50.0124L82.9593 58.9396Z" fill="white"/>
</g>
<defs>
<clipPath id="clip0_31_1833">
<rect width="100" height="100" fill="white"/>
</clipPath>
</defs>
</svg>
