<svg width="70" height="70" viewBox="0 0 70 70" fill="none" xmlns="http://www.w3.org/2000/svg">
<g clip-path="url(#clip0_12_173)">
<path d="M25.9023 54.4959H23.7955C23.7078 54.2759 23.6023 54.0633 23.4801 53.8603C23.2782 53.5262 23.0323 53.2208 22.7489 52.9524V43.5958C22.7489 43.3405 22.9627 43.1248 23.2159 43.1248H30.3335C30.5886 43.1248 30.8042 43.3405 30.8042 43.5958V49.3817C30.8042 49.9082 31.2311 50.335 31.7577 50.335C32.2844 50.335 32.7112 49.9082 32.7112 49.3817V43.5958C32.7112 42.2846 31.6446 41.2181 30.3337 41.2181H23.2161C21.9073 41.2181 20.8422 42.2846 20.8422 43.5958V51.9021C20.829 51.8987 20.8161 51.8946 20.8029 51.8913C19.6744 51.6123 18.5072 51.7884 17.5176 52.386L16.3851 53.0674C15.4139 51.8018 14.153 50.8321 12.7255 50.227C14.05 49.1769 14.9021 47.5555 14.9021 45.738C14.9021 43.1272 13.1455 40.9203 10.7527 40.233V31.4397L25.686 19.7527C26.3386 19.2437 27.2133 19.2431 27.8623 19.7517L42.8009 31.4427V37.5744C42.8009 38.1009 43.2277 38.5277 43.7544 38.5277C44.281 38.5277 44.7079 38.1009 44.7079 37.5744V32.9243C45.6498 33.5509 46.9208 33.44 47.7396 32.6332L49.43 30.9658C49.9339 30.4745 50.1905 29.8149 50.1521 29.101C50.1082 28.393 49.779 27.7666 49.2286 27.34L29.0376 11.5381C27.6869 10.4804 25.8687 10.4799 24.5119 11.5381L4.32852 27.3373C3.76797 27.7718 3.43861 28.401 3.40088 29.109C3.36328 29.8115 3.61703 30.4695 4.11646 30.9628L5.81191 32.6311C6.26304 33.0788 6.87314 33.3296 7.50873 33.3286C7.97412 33.3286 8.44047 33.1939 8.84584 32.9225V40.02C5.83967 40.1908 3.446 42.6897 3.446 45.7379C3.446 47.5566 4.29912 49.1789 5.62516 50.2289C2.36236 51.6146 0.0683594 54.8498 0.0683594 58.6106V68.9049C0.0683594 69.0301 0.0930228 69.1541 0.140941 69.2697C0.188859 69.3854 0.259094 69.4905 0.347634 69.579C0.436175 69.6676 0.541286 69.7378 0.656967 69.7857C0.772647 69.8336 0.89663 69.8582 1.02184 69.8582H17.322C17.4472 69.8582 17.5712 69.8336 17.6869 69.7857C17.8025 69.7378 17.9077 69.6676 17.9962 69.579C18.0847 69.4905 18.155 69.3854 18.2029 69.2697C18.2508 69.1541 18.2755 69.0301 18.2755 68.9049V62.0745L22.0027 59.8282C22.9935 59.23 23.6934 58.2787 23.9734 57.1496C24.0349 56.9018 24.073 56.6521 24.0911 56.4029H25.9025C26.0277 56.4029 26.1517 56.3782 26.2673 56.3303C26.383 56.2824 26.4881 56.2121 26.5767 56.1236C26.6652 56.035 26.7354 55.9299 26.7833 55.8142C26.8312 55.6985 26.8559 55.5746 26.8559 55.4493C26.8559 55.3241 26.8312 55.2002 26.7833 55.0845C26.7353 54.9688 26.6651 54.8637 26.5766 54.7752C26.488 54.6866 26.3829 54.6164 26.2672 54.5685C26.1515 54.5206 26.0275 54.4959 25.9023 54.4959ZM7.15217 31.2749L5.45508 29.6049C5.34256 29.4938 5.29621 29.3724 5.30482 29.2109C5.3133 29.0516 5.37059 28.9421 5.5002 28.8418L25.6858 13.0405C26.3386 12.5315 27.213 12.5312 27.8622 13.0395L48.0566 28.8445C48.1809 28.9409 48.2385 29.0529 48.2483 29.2113C48.2569 29.3735 48.2122 29.4898 48.0947 29.6045L46.4007 31.2754C46.2124 31.4609 45.9367 31.4766 45.7275 31.3117L29.0377 18.2503C28.362 17.7211 27.5695 17.4565 26.7764 17.4565C25.9839 17.4565 25.1907 17.7208 24.5133 18.2491L24.512 18.25L7.81949 31.3138C7.61674 31.4737 7.33729 31.4588 7.15217 31.2749ZM5.35268 45.738C5.35268 43.6309 7.06686 41.9167 9.17383 41.9167C11.2808 41.9167 12.995 43.6309 12.995 45.738C12.995 47.6711 11.5519 49.2725 9.68666 49.5239C9.51589 49.5142 9.34488 49.5093 9.17383 49.5091C9.00266 49.5091 8.83271 49.5149 8.66387 49.5242C6.79711 49.274 5.35268 47.672 5.35268 45.738ZM22.1226 56.6905C21.965 57.3259 21.5724 57.8606 21.0178 58.1955L17.2303 60.4782C17.1488 60.5285 17.0522 60.5781 16.9351 60.6302C16.9046 60.6439 16.8748 60.659 16.8458 60.6756L13.8541 62.4012C12.8197 62.9985 11.6807 62.9983 10.6463 62.401L5.96777 59.703C5.7489 59.5796 5.49018 59.5476 5.24785 59.614C5.00552 59.6803 4.79916 59.8396 4.67364 60.0573C4.54812 60.2749 4.51357 60.5333 4.57752 60.7763C4.64146 61.0193 4.79872 61.2272 5.01512 61.3548L9.69295 64.0526C10.5056 64.5217 11.3777 64.7563 12.2501 64.7563C13.1221 64.7563 13.9945 64.5217 14.8069 64.0527L16.3684 63.152V67.9514H1.97518V58.6105C1.97518 54.8286 4.91066 51.7211 8.62354 51.4389C8.80469 51.4563 8.98816 51.4658 9.17383 51.4658C9.35799 51.4656 9.54205 51.4566 9.72535 51.4388C11.6874 51.5875 13.4776 52.525 14.7242 54.0442L12.5486 55.2994C12.3041 55.4408 12.0457 55.4409 11.8007 55.2992L10.1641 54.3535C9.94534 54.2303 9.68686 54.1984 9.44473 54.2646C9.2026 54.3309 8.99636 54.4899 8.87076 54.7073C8.74517 54.9246 8.71036 55.1828 8.77388 55.4256C8.8374 55.6685 8.99413 55.8765 9.21006 56.0045L10.8463 56.9499C11.2623 57.1905 11.7187 57.3108 12.1751 57.3108C12.631 57.3108 13.087 57.1907 13.5023 56.9505L16.5863 55.1711L16.5936 55.1664C16.5962 55.1649 16.5988 55.1638 16.6013 55.1622L18.5017 54.0188C19.0567 53.6838 19.7113 53.5857 20.345 53.7422C20.9788 53.8989 21.5127 54.2909 21.8478 54.8458C22.1825 55.4003 22.2801 56.0554 22.1226 56.6905ZM20.3983 27.2223C20.2731 27.2223 20.1491 27.247 20.0334 27.2949C19.9178 27.3428 19.8126 27.413 19.7241 27.5015C19.6356 27.59 19.5653 27.6951 19.5174 27.8108C19.4695 27.9265 19.4448 28.0505 19.4448 28.1757V33.5331C19.4448 33.6583 19.4695 33.7823 19.5174 33.898C19.5653 34.0137 19.6356 34.1188 19.7241 34.2073C19.8126 34.2958 19.9178 34.366 20.0334 34.4139C20.1491 34.4618 20.2731 34.4865 20.3983 34.4865H33.155C33.2802 34.4865 33.4042 34.4618 33.5198 34.4139C33.6355 34.366 33.7406 34.2958 33.8292 34.2073C33.9177 34.1188 33.988 34.0137 34.0359 33.898C34.0838 33.7823 34.1085 33.6583 34.1085 33.5331V28.1757C34.1085 28.0505 34.0838 27.9265 34.0359 27.8108C33.988 27.6951 33.9177 27.59 33.8292 27.5015C33.7406 27.413 33.6355 27.3428 33.5198 27.2949C33.4042 27.247 33.2802 27.2223 33.155 27.2223H20.3983ZM32.2015 32.5798H21.3516V29.1291H32.2015V32.5798ZM61.6753 44.6168V37.7082C64.3664 37.4589 66.3421 36.5646 67.6918 34.9834C70.5837 31.5954 69.8749 25.8174 69.1246 19.7002C69.0745 19.2929 69.0245 18.884 68.9753 18.4745C68.0481 10.7353 65.3834 1.29785 60.9247 0.170744C60.7714 0.13205 60.6108 0.13205 60.4574 0.170744C55.999 1.29772 53.3343 10.7353 52.407 18.4741C52.3577 18.8843 52.3075 19.2933 52.2576 19.7007C51.5073 25.8178 50.7985 31.5955 53.6905 34.9834C55.0505 36.5766 57.0462 37.4723 59.7685 37.7136V43.2845C58.8414 42.0286 57.6321 41.0081 56.2383 40.3052C54.8444 39.6024 53.305 39.2368 51.7439 39.238C50.9 39.238 50.0653 39.343 49.263 39.55C49.1418 39.5813 49.0279 39.6361 48.9279 39.7114C48.8278 39.7867 48.7436 39.881 48.68 39.9888C48.6164 40.0967 48.5747 40.216 48.5572 40.34C48.5398 40.464 48.5469 40.5902 48.5782 40.7114C48.6095 40.8326 48.6643 40.9465 48.7396 41.0466C48.8149 41.1466 48.9092 41.2308 49.0171 41.2944C49.1249 41.358 49.2442 41.3997 49.3682 41.4172C49.4922 41.4347 49.6184 41.4276 49.7396 41.3962C50.3945 41.2283 51.0679 41.1437 51.7439 41.1447C53.145 41.1438 54.522 41.508 55.7394 42.2014C56.9569 42.8948 57.9726 43.8934 58.6865 45.0988C57.0068 45.674 55.5516 46.7612 54.5081 48.2417C54.436 48.3441 54.3847 48.4596 54.3572 48.5818C54.3297 48.7039 54.3266 48.8303 54.348 48.9537C54.3693 49.077 54.4148 49.195 54.4818 49.3008C54.5487 49.4066 54.6359 49.4981 54.7382 49.5702C54.8986 49.6837 55.0902 49.7446 55.2866 49.7444C55.586 49.7444 55.8811 49.6036 56.0666 49.3403C57.0683 47.9191 58.5579 46.9645 60.2607 46.6525C60.3308 46.6395 60.3992 46.6186 60.4646 46.5903C60.79 46.5419 61.1185 46.5176 61.4476 46.5176C65.0743 46.5176 68.0248 49.4681 68.0248 53.0947C68.0248 53.3997 68.0047 53.7016 67.9648 53.998H54.2027C53.9499 53.998 53.7074 54.0985 53.5286 54.2772C53.3498 54.456 53.2494 54.6985 53.2494 54.9513C53.2494 55.2042 53.3498 55.4467 53.5286 55.6255C53.7074 55.8042 53.9499 55.9047 54.2027 55.9047H68.7504C68.9625 55.9047 69.1686 55.834 69.336 55.7037C69.5034 55.5734 69.6225 55.391 69.6746 55.1854C69.8451 54.5122 69.9316 53.8087 69.9316 53.0947C69.9316 48.4932 66.2482 44.7383 61.6753 44.6168ZM55.1407 33.7456C52.7931 30.9955 53.4522 25.622 54.1501 19.933C54.2002 19.5241 54.2505 19.1134 54.3002 18.7015C54.8235 14.3332 55.7838 10.2539 57.0038 7.21504C58.1267 4.41873 59.4573 2.5774 60.6911 2.09479C61.9248 2.5774 63.2555 4.41873 64.3784 7.21504C65.5986 10.2539 66.5588 14.3332 67.0821 18.7019C67.1316 19.1133 67.1818 19.5237 67.232 19.9325C67.9299 25.6218 68.5892 30.9954 66.2416 33.7456C65.2575 34.8985 63.7574 35.5721 61.6753 35.7938V26.7836L66.0862 22.3689C66.2649 22.1901 66.3652 21.9475 66.3651 21.6947C66.365 21.4418 66.2645 21.1994 66.0856 21.0206C65.9067 20.8419 65.6642 20.7416 65.4113 20.7417C65.1585 20.7418 64.916 20.8423 64.7373 21.0212L61.6753 24.0857V19.0665C61.6753 18.54 61.2485 18.1132 60.7219 18.1132C60.1952 18.1132 59.7684 18.54 59.7684 19.0665V28.7649L56.7757 25.7723C56.596 25.5981 56.355 25.5016 56.1047 25.5036C55.8545 25.5055 55.615 25.6058 55.438 25.7828C55.2611 25.9597 55.1607 26.1992 55.1588 26.4494C55.1568 26.6997 55.2533 26.9407 55.4274 27.1205L59.6269 31.3199C59.6709 31.3641 59.7185 31.4025 59.7684 31.4361V35.8003C57.6542 35.586 56.1345 34.9099 55.1407 33.7456ZM46.7935 50.2292C48.1194 49.1792 48.9727 47.5569 48.9727 45.7381C48.9727 42.5797 46.403 40.0102 43.2447 40.0102C40.0862 40.0102 37.5166 42.5797 37.5166 45.7381C37.5166 47.5557 38.3686 49.1772 39.693 50.2272C38.2658 50.8323 37.005 51.8016 36.034 53.067L34.9061 52.3871C33.9151 51.7886 32.7476 51.6127 31.618 51.8916C30.4883 52.1705 29.5367 52.8698 28.9384 53.8606C28.34 54.8515 28.1647 56.0197 28.4452 57.1498C28.725 58.2788 29.425 59.2302 30.4165 59.8288L34.1432 62.0747V68.9051C34.1432 69.0303 34.1678 69.1543 34.2158 69.27C34.2637 69.3857 34.3339 69.4908 34.4225 69.5793C34.511 69.6678 34.6161 69.738 34.7318 69.7859C34.8475 69.8339 34.9715 69.8585 35.0967 69.8585H51.3967C51.5219 69.8585 51.6459 69.8339 51.7615 69.7859C51.8772 69.738 51.9823 69.6678 52.0709 69.5793C52.1594 69.4908 52.2297 69.3857 52.2776 69.27C52.3255 69.1543 52.3502 69.0303 52.3502 68.9051V58.6109C52.35 54.8498 50.0562 51.6146 46.7935 50.2292ZM39.4234 45.738C39.4234 43.6309 41.1376 41.9167 43.2446 41.9167C45.3515 41.9167 47.0657 43.6309 47.0657 45.738C47.0657 47.672 45.6211 49.274 43.7545 49.5242C43.5847 49.5144 43.4146 49.5094 43.2446 49.5091C43.0727 49.5091 42.9018 49.5145 42.7317 49.5239C40.8665 49.2725 39.4234 47.6711 39.4234 45.738ZM50.4432 67.9515H36.05V63.1521L37.6113 64.0527C38.424 64.5219 39.2961 64.7564 40.1685 64.7564C41.0405 64.7564 41.9129 64.5218 42.7252 64.053L47.4034 61.355C47.6198 61.2273 47.7771 61.0194 47.841 60.7764C47.9049 60.5335 47.8704 60.2751 47.7449 60.0574C47.6194 59.8398 47.413 59.6805 47.1707 59.6141C46.9283 59.5478 46.6696 59.5798 46.4507 59.7031L41.7721 62.4014C40.7384 62.9985 39.5989 62.9986 38.5643 62.4013L35.5729 60.6758C35.544 60.6591 35.5143 60.644 35.4838 60.6305L35.4834 60.6304C35.3787 60.5849 35.2771 60.5322 35.1795 60.4729L31.4014 58.196C30.8459 57.8606 30.4533 57.326 30.2958 56.6905C30.1383 56.0555 30.2359 55.4005 30.5707 54.8461C30.9057 54.2913 31.4398 53.8994 32.0749 53.7426C32.71 53.5857 33.3654 53.684 33.921 54.0195L35.8162 55.162C35.8189 55.1637 35.8218 55.1649 35.8246 55.1665C35.827 55.168 35.8293 55.1698 35.8319 55.1713L38.9149 56.9502C39.331 57.1908 39.7872 57.3111 40.2434 57.3111C40.6997 57.3111 41.1558 57.1908 41.5715 56.9505L43.2082 56.0048C43.4241 55.8767 43.5808 55.6687 43.6444 55.4259C43.7079 55.183 43.6731 54.9249 43.5475 54.7076C43.4219 54.4902 43.2156 54.3312 42.9735 54.2649C42.7314 54.1987 42.4729 54.2306 42.2542 54.3537L40.6171 55.2997C40.3726 55.4412 40.1145 55.4411 39.8687 55.2992L37.694 54.0445C38.9405 52.5251 40.7308 51.5878 42.6929 51.439C42.8745 51.4565 43.0583 51.4661 43.2444 51.4661C43.4301 51.4661 43.6134 51.4564 43.7947 51.4392C47.5076 51.7214 50.4431 54.8289 50.4431 58.6108V67.9515H50.4432Z" fill="#345766"/>
</g>
<defs>
<clipPath id="clip0_12_173">
<rect width="70" height="70" fill="white"/>
</clipPath>
</defs>
</svg>
