<svg width="40" height="40" viewBox="0 0 40 40" fill="none" xmlns="http://www.w3.org/2000/svg">
<path d="M10 0C8.625 0 7.5 1.125 7.5 2.5V37.5C7.5 38.875 8.625 40 10 40H35C36.375 40 37.5 38.875 37.5 37.5V10L27.5 0H10Z" fill="#E4E4E4"/>
<path d="M30 10H37.5L27.5 0V7.5C27.5 8.875 28.625 10 30 10Z" fill="#A3ABB0"/>
<path opacity="0.3" d="M37.5 17.5L30 10H37.5V17.5Z" fill="#A3ABB0"/>
<path d="M32.5 32.5C32.5 33.1875 31.9375 33.75 31.25 33.75H3.75C3.0625 33.75 2.5 33.1875 2.5 32.5V20C2.5 19.3125 3.0625 18.75 3.75 18.75H31.25C31.9375 18.75 32.5 19.3125 32.5 20V32.5Z" fill="url(#paint0_linear_16176_29776)" fill-opacity="0.9"/>
<path d="M7.95312 23.6841C7.95312 23.3541 8.21312 22.9941 8.63187 22.9941H10.9406C12.2406 22.9941 13.4106 23.8641 13.4106 25.5316C13.4106 27.1116 12.2406 27.9916 10.9406 27.9916H9.27187V29.3116C9.27187 29.7516 8.99187 30.0004 8.63187 30.0004C8.30187 30.0004 7.95312 29.7516 7.95312 29.3116V23.6841ZM9.27187 24.2529V26.7429H10.9406C11.6106 26.7429 12.1406 26.1516 12.1406 25.5316C12.1406 24.8329 11.6106 24.2529 10.9406 24.2529H9.27187ZM15.3681 30.0004C15.0381 30.0004 14.6781 29.8204 14.6781 29.3816V23.7041C14.6781 23.3454 15.0381 23.0841 15.3681 23.0841H17.6569C22.2244 23.0841 22.1244 30.0004 17.7469 30.0004H15.3681ZM15.9981 24.3041V28.7816H17.6569C20.3556 28.7816 20.4756 24.3041 17.6569 24.3041H15.9981ZM23.7444 24.3841V25.9729H26.2931C26.6531 25.9729 27.0131 26.3329 27.0131 26.6816C27.0131 27.0116 26.6531 27.2816 26.2931 27.2816H23.7444V29.3804C23.7444 29.7304 23.4956 29.9991 23.1456 29.9991C22.7056 29.9991 22.4369 29.7304 22.4369 29.3804V23.7029C22.4369 23.3441 22.7069 23.0829 23.1456 23.0829H26.6544C27.0944 23.0829 27.3544 23.3441 27.3544 23.7029C27.3544 24.0229 27.0944 24.3829 26.6544 24.3829H23.7444V24.3841Z" fill="white"/>
<path opacity="0.3" d="M31.25 33.75H7.5V35H31.25C31.9375 35 32.5 34.4375 32.5 33.75V32.5C32.5 33.1875 31.9375 33.75 31.25 33.75Z" fill="#A3ABB0"/>
<defs>
<linearGradient id="paint0_linear_16176_29776" x1="16.375" y1="35.625" x2="16.375" y2="18.1452" gradientUnits="userSpaceOnUse">
<stop stop-color="#00D4FF"/>
<stop offset="1" stop-color="#00A3E0"/>
</linearGradient>
</defs>
</svg>
