<svg width="30" height="30" viewBox="0 0 30 30" fill="none" xmlns="http://www.w3.org/2000/svg">
<rect width="30" height="30" rx="8" fill="#F7F7F7"/>
<path d="M10 5C9.3125 5 8.75 5.5625 8.75 6.25V23.75C8.75 24.4375 9.3125 25 10 25H22.5C23.1875 25 23.75 24.4375 23.75 23.75V10L18.75 5H10Z" fill="#E4E4E4"/>
<path d="M20 10H23.75L18.75 5V8.75C18.75 9.4375 19.3125 10 20 10Z" fill="#A3ABB0"/>
<path opacity="0.3" d="M23.75 13.75L20 10H23.75V13.75Z" fill="#A3ABB0"/>
<path d="M21.25 21.25C21.25 21.5938 20.9688 21.875 20.625 21.875H6.875C6.53125 21.875 6.25 21.5938 6.25 21.25V15C6.25 14.6562 6.53125 14.375 6.875 14.375H20.625C20.9688 14.375 21.25 14.6562 21.25 15V21.25Z" fill="url(#paint0_linear_15967_13695)" fill-opacity="0.9"/>
<path d="M8.97461 16.8421C8.97461 16.6771 9.10461 16.4971 9.31398 16.4971H10.4684C11.1184 16.4971 11.7034 16.9321 11.7034 17.7658C11.7034 18.5558 11.1184 18.9958 10.4684 18.9958H9.63398V19.6558C9.63398 19.8758 9.49398 20.0002 9.31398 20.0002C9.14898 20.0002 8.97461 19.8758 8.97461 19.6558V16.8421ZM9.63398 17.1264V18.3714H10.4684C10.8034 18.3714 11.0684 18.0758 11.0684 17.7658C11.0684 17.4164 10.8034 17.1264 10.4684 17.1264H9.63398ZM12.6821 20.0002C12.5171 20.0002 12.3371 19.9102 12.3371 19.6908V16.8521C12.3371 16.6727 12.5171 16.5421 12.6821 16.5421H13.8265C16.1102 16.5421 16.0602 20.0002 13.8715 20.0002H12.6821ZM12.9971 17.1521V19.3908H13.8265C15.1759 19.3908 15.2359 17.1521 13.8265 17.1521H12.9971ZM16.8702 17.1921V17.9864H18.1446C18.3246 17.9864 18.5046 18.1664 18.5046 18.3408C18.5046 18.5058 18.3246 18.6408 18.1446 18.6408H16.8702V19.6902C16.8702 19.8652 16.7459 19.9996 16.5709 19.9996C16.3509 19.9996 16.2165 19.8652 16.2165 19.6902V16.8514C16.2165 16.6721 16.3515 16.5414 16.5709 16.5414H18.3252C18.5452 16.5414 18.6752 16.6721 18.6752 16.8514C18.6752 17.0114 18.5452 17.1914 18.3252 17.1914H16.8702V17.1921Z" fill="white"/>
<path opacity="0.3" d="M20.625 21.875H8.75V22.5H20.625C20.9688 22.5 21.25 22.2188 21.25 21.875V21.25C21.25 21.5938 20.9688 21.875 20.625 21.875Z" fill="#A3ABB0"/>
<defs>
<linearGradient id="paint0_linear_15967_13695" x1="13.1875" y1="22.8125" x2="13.1875" y2="14.0726" gradientUnits="userSpaceOnUse">
<stop stop-color="#00D4FF"/>
<stop offset="1" stop-color="#00A3E0"/>
</linearGradient>
</defs>
</svg>
