<svg width="30" height="30" viewBox="0 0 30 30" fill="none" xmlns="http://www.w3.org/2000/svg">
<rect width="30" height="30" rx="8" fill="#F7F7F7"/>
<path d="M10 5C9.3125 5 8.75 5.5625 8.75 6.25V23.75C8.75 24.4375 9.3125 25 10 25H22.5C23.1875 25 23.75 24.4375 23.75 23.75V10L18.75 5H10Z" fill="#E4E4E4"/>
<path d="M20 10H23.75L18.75 5V8.75C18.75 9.4375 19.3125 10 20 10Z" fill="#A3ABB0"/>
<path opacity="0.3" d="M23.75 13.75L20 10H23.75V13.75Z" fill="#A3ABB0"/>
<path d="M21 21.375C21 21.7188 20.7188 22 20.375 22H6.625C6.28125 22 6 21.7188 6 21.375V15.125C6 14.7812 6.28125 14.5 6.625 14.5H20.375C20.7188 14.5 21 14.7812 21 15.125V21.375Z" fill="#50BEE8"/>
<path d="M9.23818 20V16.4H10.7257C10.7607 16.4 10.8057 16.4017 10.8607 16.405C10.9157 16.4067 10.9665 16.4117 11.0132 16.42C11.2215 16.4517 11.3932 16.5208 11.5282 16.6275C11.6649 16.7342 11.7657 16.8692 11.8307 17.0325C11.8974 17.1942 11.9307 17.3742 11.9307 17.5725C11.9307 17.8658 11.8565 18.1183 11.7082 18.33C11.5599 18.54 11.3324 18.67 11.0257 18.72L10.7682 18.7425H9.84068V20H9.23818ZM11.3057 20L10.5957 18.535L11.2082 18.4L11.9882 20H11.3057ZM9.84068 18.18H10.7007C10.734 18.18 10.7715 18.1783 10.8132 18.175C10.8549 18.1717 10.8932 18.165 10.9282 18.155C11.0282 18.13 11.1065 18.0858 11.1632 18.0225C11.2215 17.9592 11.2624 17.8875 11.2857 17.8075C11.3107 17.7275 11.3232 17.6492 11.3232 17.5725C11.3232 17.4958 11.3107 17.4175 11.2857 17.3375C11.2624 17.2558 11.2215 17.1833 11.1632 17.12C11.1065 17.0567 11.0282 17.0125 10.9282 16.9875C10.8932 16.9775 10.8549 16.9717 10.8132 16.97C10.7715 16.9667 10.734 16.965 10.7007 16.965H9.84068V18.18ZM12.539 20V16.4H14.7065V17.0025H13.1415V17.9H14.4065V18.5H13.1415V20H12.539ZM14.8573 20L15.9923 16.4H16.8748L18.0098 20H17.3898L16.3598 16.77H16.4948L15.4773 20H14.8573ZM15.4898 19.22V18.6575H17.3798V19.22H15.4898Z" fill="white"/>
<path opacity="0.3" d="M20.625 21.875H8.75V22.5H20.625C20.9688 22.5 21.25 22.2188 21.25 21.875V21.25C21.25 21.5938 20.9688 21.875 20.625 21.875Z" fill="#A3ABB0"/>
</svg>
