<svg width="70" height="70" viewBox="0 0 70 70" fill="none" xmlns="http://www.w3.org/2000/svg">
<g clip-path="url(#clip0_12_129)">
<path fill-rule="evenodd" clip-rule="evenodd" d="M15.1766 16.0021C12.7544 16.0021 10.7895 14.0333 10.7895 11.6111C10.7895 9.19278 12.7583 7.22401 15.1766 7.22401C17.5949 7.22401 19.5637 9.19278 19.5637 11.6111C19.5637 14.0333 17.5949 16.0021 15.1766 16.0021ZM6.94109 30.0122H2.63536V31.729H6.94109V30.0122ZM0.174393 22.9664C0.174393 22.2882 0.724719 21.7379 1.40681 21.7379H8.17351C8.85173 21.7379 9.40205 22.2882 9.40205 22.9664V58.9857C9.40205 59.133 9.37492 59.2803 9.32842 59.412L5.95282 69.1629C5.57302 70.2558 4.00343 70.2558 3.6275 69.1629L0.251903 59.4159C0.201521 59.2803 0.174393 59.133 0.174393 58.9857V22.9664ZM6.94109 27.5512V24.1989H2.63536V27.5512H6.94109ZM6.94109 57.7572V34.19H2.63536V57.7572H6.94109ZM3.13143 60.2181L4.79016 65.0006L6.44502 60.2181H3.13143ZM26.0552 65.1013C25.377 65.1013 24.8267 64.551 24.8267 63.8728C24.8267 61.3653 22.7882 59.3306 20.2846 59.3306C17.7887 59.3306 15.7308 61.3692 15.7424 63.8728C15.7424 65.888 17.3857 67.5313 19.4009 67.5313H67.3646V29.9967H27.2877V63.8728C27.2838 64.551 26.7335 65.1013 26.0552 65.1013ZM13.2815 63.8728V28.7681C13.2815 24.9042 16.4245 21.765 20.2846 21.765C23.726 21.765 26.5939 24.2609 27.1792 27.5357H68.597C69.2753 27.5357 69.8256 28.086 69.8256 28.7681V68.7598C69.8256 69.438 69.2753 69.9922 68.597 69.9922H19.4009C16.0292 69.9922 13.2815 67.2445 13.2815 63.8728ZM20.2846 56.8697C22.0169 56.8697 23.602 57.5014 24.8267 58.5478V28.7681C24.8267 26.2607 22.7882 24.226 20.2846 24.226C17.781 24.226 15.7424 26.2607 15.7424 28.7681V58.5478C16.9671 57.5014 18.5522 56.8697 20.2846 56.8697ZM64.1983 65.6439H30.454C29.7758 65.6439 29.2254 65.0936 29.2254 64.4153V33.1126C29.2254 32.4344 29.7758 31.8841 30.454 31.8841H64.1983C64.8765 31.8841 65.4269 32.4344 65.4269 33.1126V64.4153C65.4269 65.0936 64.8765 65.6439 64.1983 65.6439ZM31.6825 63.1829H46.0957V57.0324C46.0957 56.6798 46.2507 56.3348 46.522 56.1023C46.5414 56.0829 46.5646 56.0674 46.5879 56.0481C46.6034 56.0364 46.6227 56.0248 46.6382 56.0132C46.646 56.0093 46.6537 56.0015 46.6615 55.9977C46.6886 55.9822 46.7119 55.9667 46.739 55.9512C46.7468 55.9473 46.7584 55.9434 46.7661 55.9395C46.7739 55.9357 46.7816 55.9279 46.7933 55.924C46.801 55.9202 46.8088 55.9163 46.8204 55.9124C46.8359 55.9047 46.8553 55.8969 46.8746 55.8892C46.8824 55.8853 46.894 55.8814 46.9018 55.8775C46.9134 55.8737 46.9212 55.8737 46.9328 55.8698C46.9405 55.8659 46.9483 55.862 46.9599 55.8582C46.9677 55.8582 46.9793 55.8543 46.987 55.8504C46.9987 55.8465 47.0064 55.8465 47.018 55.8427C47.0297 55.8388 47.0374 55.8388 47.049 55.8349C47.0568 55.8349 47.0684 55.831 47.0762 55.8271C47.0878 55.8271 47.0994 55.8233 47.1072 55.8233C47.1188 55.8194 47.1266 55.8194 47.1382 55.8194C47.1498 55.8155 47.1576 55.8155 47.1692 55.8155C47.1808 55.8116 47.1886 55.8116 47.2002 55.8116C47.2118 55.8078 47.2196 55.8078 47.2312 55.8078C47.2428 55.8078 47.2506 55.8078 47.2622 55.8039H56.0519C56.7301 55.8039 57.2805 56.3542 57.2805 57.0324C57.2805 57.7145 56.7301 58.2649 56.0519 58.2649H48.5566V63.1829H62.9659V49.9945H54.7149C54.0366 49.9945 53.4863 49.4441 53.4863 48.762C53.4863 48.0838 54.0366 47.5335 54.7149 47.5335H62.9659V34.3412H48.5566V36.8913C48.5566 37.5695 48.0063 38.1198 47.3242 38.1198C46.646 38.1198 46.0957 37.5695 46.0957 36.8913V34.3412H31.6825V47.5335H46.0957V41.9256C46.0957 41.2474 46.646 40.697 47.3242 40.697C48.0063 40.697 48.5566 41.2474 48.5566 41.9256V50.6533C48.5566 52.2694 46.0957 52.2694 46.0957 50.6533V49.9945H31.6825V63.1829ZM59.912 24.8965H55.8039C55.2419 24.8965 54.7536 24.5167 54.6141 23.9741L53.7382 20.6024C53.4359 20.4473 53.1453 20.2807 52.8624 20.0947L49.5023 21.0248C48.9636 21.1721 48.39 20.9395 48.1109 20.4551L46.0569 16.8935C45.774 16.409 45.8593 15.7967 46.2584 15.4014L48.7427 12.9559V11.9483L46.2584 9.50282C45.8593 9.11139 45.774 8.49518 46.0569 8.01074L48.1109 4.453C48.39 3.96855 48.9636 3.73215 49.5023 3.88329L52.8624 4.80955C53.1453 4.62352 53.4359 4.45687 53.7382 4.30573L54.6141 0.93013C54.7536 0.387555 55.2419 0.0116272 55.8039 0.0116272H59.912C60.4739 0.0116272 60.9622 0.387555 61.1018 0.93013L61.9815 4.30573C62.2799 4.45687 62.5706 4.62352 62.8535 4.80955L66.2136 3.88329C66.7523 3.73215 67.3259 3.96855 67.6049 4.453L69.6628 8.01074C69.9419 8.49518 69.8566 9.10752 69.4574 9.50282L66.9732 11.9483V12.9559L69.4574 15.4014C69.8566 15.7967 69.9419 16.409 69.6589 16.8935L67.6049 20.4551C67.3259 20.9395 66.7523 21.1721 66.2136 21.0248L62.8535 20.0947C62.5706 20.2807 62.2799 20.4473 61.9815 20.6024L61.1018 23.9741C60.9622 24.5167 60.4739 24.8965 59.912 24.8965ZM56.7573 22.4355H58.9625L59.7453 19.4203C59.8383 19.0522 60.1019 18.746 60.4545 18.5987C60.9584 18.3856 61.4389 18.1065 61.8769 17.7732C62.183 17.5446 62.5783 17.4671 62.9465 17.5678L65.9501 18.3972L67.0546 16.4904L64.8339 14.3046C64.2874 13.762 64.5277 13.1923 64.5277 12.4521C64.5277 11.7158 64.2874 11.1422 64.8339 10.6035L67.0546 8.41767L65.9501 6.50703L62.9465 7.3364C62.5783 7.43716 62.183 7.36353 61.8769 7.13099C61.4389 6.7977 60.9584 6.52253 60.4545 6.30938C60.1019 6.15823 59.8383 5.85594 59.7453 5.48389L58.9625 2.47259H56.7573L55.9744 5.48389C55.8775 5.85594 55.614 6.15823 55.2613 6.30938C54.7575 6.52253 54.2769 6.7977 53.839 7.13099C53.5328 7.36353 53.1375 7.43716 52.7693 7.3364L49.7658 6.50703L48.6613 8.41767L50.882 10.6035C51.4284 11.1422 51.1881 11.7158 51.1881 12.4521C51.1881 13.1885 51.4284 13.762 50.882 14.3046L48.6613 16.4865L49.7658 18.3972L52.7693 17.5678C53.1375 17.4671 53.5328 17.5446 53.839 17.7732C54.2769 18.1065 54.7575 18.3856 55.2613 18.5987C55.614 18.746 55.8775 19.0522 55.9744 19.4203L56.7573 22.4355ZM57.8579 17.3314C55.1683 17.3314 52.9786 15.1417 52.9786 12.4521C52.9786 9.76248 55.1683 7.57281 57.8579 7.57281C60.5476 7.57281 62.7372 9.76248 62.7372 12.4521C62.7372 15.1417 60.5476 17.3314 57.8579 17.3314ZM57.8579 10.0338C56.5247 10.0338 55.4396 11.1189 55.4396 12.4521C55.4396 13.7853 56.5247 14.8704 57.8579 14.8704C59.1911 14.8704 60.2763 13.7853 60.2763 12.4521C60.2763 11.1189 59.1911 10.0338 57.8579 10.0338ZM26.2762 20.2962L1.40681 20.2923C0.724719 20.2923 0.174393 19.742 0.174393 19.0638C0.174393 18.3856 0.724719 17.8352 1.40681 17.8352H2.84464V13.4171C2.84464 8.36342 6.50702 4.03056 11.3747 3.08881V1.24017C11.3747 0.561954 11.925 0.0116272 12.6071 0.0116272H17.7461C18.4243 0.0116272 18.9785 0.561954 18.9785 1.24017V3.08881C23.8423 4.03056 27.5086 8.36342 27.5086 13.4171V17.8352H28.9464C29.6246 17.8352 30.1788 18.3856 30.1788 19.0638C30.1788 19.742 29.6246 20.2923 28.9464 20.2923L26.2762 20.2962ZM25.0476 17.8352V13.4171C25.0476 9.25091 21.796 5.72417 17.6453 5.387C17.0097 5.33662 16.5175 4.80179 16.5175 4.16233V2.47259H13.8357V4.16233C13.8357 4.80179 13.3435 5.33662 12.704 5.387C8.55719 5.72417 5.30561 9.25091 5.30561 13.4171V17.8352H25.0476ZM15.1766 9.68497C14.1147 9.68497 13.2466 10.5492 13.2466 11.6111C13.2466 12.6769 14.1147 13.5411 15.1766 13.5411C16.2385 13.5411 17.1028 12.6769 17.1028 11.6111C17.1028 10.5492 16.2385 9.68497 15.1766 9.68497Z" fill="#345766"/>
</g>
<defs>
<clipPath id="clip0_12_129">
<rect width="70" height="70" fill="white"/>
</clipPath>
</defs>
</svg>
