<svg width="70" height="70" viewBox="0 0 70 70" fill="none" xmlns="http://www.w3.org/2000/svg">
<g clip-path="url(#clip0_12_188)">
<path d="M35 2.30111H42.9349L40.0982 4.81947L42.9349 7.33783H35M35 1.02539V10.3584M12.5658 64.9605H68.9746V68.9746H1.02539V64.9605H7.78066M4.30541 64.9605V43.359M65.6946 43.3255V64.9605M5.12709 37.1459L7.17787 31.2303H15.2193M54.7084 31.2303H62.8221L64.8729 37.1459" stroke="#345766" stroke-width="2" stroke-miterlimit="10" stroke-linecap="round" stroke-linejoin="round"/>
<path d="M15.2193 43.0616H1.02539L3.07617 37.1459H15.2193M54.7084 37.1459H66.9238L68.9746 43.0616H54.7084M54.6048 50.9053V24.1731M54.6048 64.9606V55.6905M15.3952 23.9937V64.9606M51.0219 22.2712L57.7084 24.9967V19.844L35 10.4829L23.8345 15.0857" stroke="#345766" stroke-width="2" stroke-miterlimit="10" stroke-linecap="round" stroke-linejoin="round"/>
<path d="M19.4105 16.9093L12.2916 19.844V24.9967L35 15.7405L46.5886 20.4642" stroke="#345766" stroke-width="2" stroke-miterlimit="10" stroke-linecap="round" stroke-linejoin="round"/>
<path d="M35.1181 32.7961C38.1649 32.7961 40.6349 30.3275 40.6349 27.2822C40.6349 24.237 38.1649 21.7684 35.1181 21.7684C32.0713 21.7684 29.6014 24.237 29.6014 27.2822C29.6014 30.3275 32.0713 32.7961 35.1181 32.7961Z" stroke="#345766" stroke-width="2" stroke-miterlimit="10" stroke-linecap="round" stroke-linejoin="round"/>
<path d="M35.1181 21.7654V32.799M38.7028 64.9606V50.1464H31.6578V64.9606M4.30541 58.3588H9.78319V50.1464H4.30541M65.6946 58.3588H60.2168V50.1464H65.6946M21.309 37.5225H26.7777V45.7349H21.309V37.5225ZM43.2223 37.5225H48.691V45.7349H43.2223V37.5225ZM32.2656 37.5225H37.7344V45.7349H32.2656V37.5225ZM21.309 50.1464H26.7777V58.3588H21.309V50.1464ZM43.2223 50.1464H48.691V58.3588H43.2223V50.1464Z" stroke="#345766" stroke-width="2" stroke-miterlimit="10" stroke-linecap="round" stroke-linejoin="round"/>
</g>
<defs>
<clipPath id="clip0_12_188">
<rect width="70" height="70" fill="white"/>
</clipPath>
</defs>
</svg>
