<svg width="60" height="60" viewBox="0 0 60 60" fill="none" xmlns="http://www.w3.org/2000/svg">
<g clip-path="url(#clip0_7_499)">
<path d="M8.68567 52.1368H9.62575C11.8148 52.1368 13.2565 52.6451 14.9074 53.8475C16.4852 54.9969 19.0563 56.6279 20.6707 57.5546C22.6571 58.6907 24.9624 59.0062 26.6665 58.7372L40.5714 56.5249C41.9168 56.3123 42.8768 55.1995 42.7173 53.8475C42.5578 52.4989 41.352 51.592 39.9934 51.6119L27.241 52.0737C28.1711 51.0173 28.0615 49.3963 27.0051 48.4596L24.5503 46.2805C22.1253 44.138 18.0628 43.1747 14.7277 43.1747H8.68567" stroke="white" stroke-width="2" stroke-miterlimit="10" stroke-linecap="round" stroke-linejoin="round"/>
<path d="M19.91 49.0643L23.6271 52.3097C24.6867 53.2366 26.3112 53.1336 27.2412 52.0738M1.17188 40.8694H8.6857V54.4456H1.17188V40.8694ZM37.7912 16.9858H42.1793L33.463 29.5886V20.0684H29.3539L35.074 9.50513H41.7375L37.7912 16.9858ZM44.7736 34.4318H26.7595C26.2446 34.4318 25.8227 34.8537 25.8227 35.3686V39.1853C25.8227 39.7002 26.2446 40.1221 26.7595 40.1221H44.7736C45.2885 40.1221 45.7104 39.7002 45.7104 39.1853V35.3686C45.7104 34.8537 45.2885 34.4318 44.7736 34.4318Z" stroke="white" stroke-width="2" stroke-miterlimit="10" stroke-linecap="round" stroke-linejoin="round"/>
<path d="M43.4382 34.4318C45.4844 28.2633 51.2511 25.8716 51.2411 17.0788C51.2312 6.95391 43.3918 1.06442 35.7683 1.17399C28.1414 1.06442 20.302 6.95391 20.292 17.0788C20.2821 25.8716 26.0486 28.2633 28.095 34.4318M29.3672 40.122V42.6465C29.3672 44.0351 30.5032 45.1711 31.8917 45.1711H39.6447C41.0333 45.1711 42.1693 44.0351 42.1693 42.6465V40.122M15.7479 18.0122H12.7084M15.3028 7.36922L13.1536 5.22M15.3028 28.2333L13.1536 30.3825M55.7853 18.0122H58.8281M56.2304 7.36922L58.383 5.22M56.2304 28.2333L58.383 30.3825" stroke="white" stroke-width="2" stroke-miterlimit="10" stroke-linecap="round" stroke-linejoin="round"/>
</g>
<defs>
<clipPath id="clip0_7_499">
<rect width="60" height="60" fill="white"/>
</clipPath>
</defs>
</svg>
