<svg width="60" height="60" viewBox="0 0 60 60" fill="none" xmlns="http://www.w3.org/2000/svg">
<g clip-path="url(#clip0_7_854)">
<path d="M37.0412 23.1026L36.9729 23.0344C35.4136 21.4752 32.8764 21.4751 31.3172 23.0344C30.5618 23.7897 30.1457 24.794 30.1457 25.8623C30.1457 26.9305 30.5617 27.9348 31.3171 28.6901L31.3853 28.7583C32.7568 30.1297 33.5121 31.9531 33.5121 33.8926C33.5121 35.832 32.7569 37.6553 31.3853 39.0267L24.5429 45.8692C24.4607 45.9514 24.3955 46.049 24.351 46.1564C24.3065 46.2638 24.2836 46.3789 24.2836 46.4952C24.2836 46.6114 24.3065 46.7265 24.351 46.834C24.3955 46.9414 24.4607 47.039 24.5429 47.1212C24.6251 47.2034 24.7227 47.2686 24.8301 47.3131C24.9375 47.3576 25.0526 47.3805 25.1689 47.3805C25.2851 47.3805 25.4003 47.3576 25.5077 47.3131C25.6151 47.2686 25.7127 47.2034 25.7949 47.1212L32.6373 40.2787C34.3431 38.5728 35.2825 36.3049 35.2825 33.8925C35.2825 31.48 34.3431 29.2121 32.6373 27.5062L32.569 27.438C32.3614 27.2315 32.1969 26.9859 32.0848 26.7155C31.9728 26.445 31.9155 26.155 31.9163 25.8622C31.9163 25.2668 32.1482 24.7072 32.5691 24.2863C33.438 23.4172 34.8519 23.4172 35.7208 24.2863L35.789 24.3545C41.0484 29.6138 41.0484 38.1712 35.789 43.4303L24.9337 54.2858C19.6746 59.5451 11.1168 59.545 5.8578 54.2856C3.3101 51.7381 1.907 48.3508 1.907 44.7477C1.907 41.1446 3.3101 37.7573 5.8578 35.2098L16.7774 24.2902C16.9434 24.1242 17.0367 23.899 17.0367 23.6642C17.0367 23.4294 16.9434 23.2042 16.7774 23.0382C16.6113 22.8721 16.3862 22.7789 16.1514 22.7789C15.9166 22.7789 15.6914 22.8721 15.5254 23.0382L4.60579 33.9577C1.72369 36.84 0.13657 40.6719 0.13657 44.7479C0.13657 48.824 1.72369 52.6558 4.60579 55.538C7.58066 58.5127 11.4883 60.0001 15.3957 60.0001C19.3033 60.0001 23.2109 58.5127 26.1858 55.538L37.0412 44.6825C42.9908 38.7329 42.9908 29.0523 37.0412 23.1026Z" fill="#345766"/>
<path d="M16.0498 31.3215L9.0095 38.3618C7.2877 40.0837 6.34966 42.3764 6.36831 44.8174C6.38684 47.2578 7.36029 49.5361 9.10924 51.2324C10.8351 52.9065 13.0904 53.7395 15.3562 53.7395C17.711 53.7395 20.0773 52.8388 21.8696 51.0468L23.1273 49.789C23.2095 49.7068 23.2747 49.6092 23.3192 49.5018C23.3637 49.3944 23.3866 49.2793 23.3866 49.163C23.3865 49.0468 23.3636 48.9317 23.3191 48.8243C23.2746 48.7169 23.2094 48.6193 23.1271 48.5371C22.9611 48.3711 22.7359 48.2779 22.5012 48.2779C22.2664 48.2779 22.0413 48.3712 21.8752 48.5372L20.6177 49.7949C17.781 52.6314 13.1715 52.7063 10.342 49.9615C8.93631 48.5979 8.15385 46.7664 8.13886 44.8041C8.12387 42.8409 8.87777 40.9976 10.2616 39.6138L17.3019 32.5736C17.468 32.4076 17.5612 32.1824 17.5612 31.9475C17.5612 31.7127 17.468 31.4875 17.3019 31.3215C17.1359 31.1554 16.9107 31.0622 16.6759 31.0622C16.441 31.0622 16.2158 31.1554 16.0498 31.3215ZM55.4013 4.46934C52.5192 1.58724 48.6873 0 44.6113 0C40.5354 0 36.7035 1.58724 33.8215 4.46934L33.2147 5.07605C33.0516 5.24264 32.9607 5.46686 32.962 5.70002C32.9632 5.93317 33.0563 6.15643 33.2212 6.32131C33.386 6.48619 33.6093 6.57938 33.8424 6.58065C34.0756 6.58191 34.2998 6.49114 34.4664 6.32806L35.0734 5.72135C37.621 3.17377 41.0084 1.77055 44.6113 1.77055C48.2143 1.77055 51.6017 3.17377 54.1494 5.72147C59.4086 10.9807 59.4086 19.5381 54.1494 24.7972L43.2298 35.7168C43.1476 35.799 43.0824 35.8966 43.0379 36.004C42.9934 36.1115 42.9705 36.2266 42.9706 36.3429C42.9706 36.4591 42.9935 36.5742 43.038 36.6817C43.0825 36.7891 43.1477 36.8867 43.2299 36.9689C43.3121 37.0511 43.4097 37.1163 43.5171 37.1608C43.6246 37.2053 43.7397 37.2282 43.8559 37.2282C43.9722 37.2282 44.0873 37.2052 44.1948 37.1608C44.3022 37.1163 44.3998 37.051 44.482 36.9688L55.4015 26.0493C61.3508 20.0996 61.3508 10.419 55.4013 4.46934Z" fill="#345766"/>
<path d="M43.9574 28.6858L50.9976 21.6455C52.7194 19.9237 53.6574 17.6312 53.6389 15.19C53.6204 12.7496 52.6469 10.4713 50.898 8.77487C47.3785 5.36114 41.6544 5.44388 38.1376 8.96043L27.3696 19.7284C23.8482 23.2498 23.8482 28.9797 27.3702 32.5015L27.438 32.5692C28.3068 33.4381 28.3068 34.8521 27.438 35.7209C27.0172 36.1418 26.4573 36.3736 25.8621 36.3736C25.2668 36.3736 24.7071 36.1418 24.2861 35.7209L24.2179 35.6526C18.9586 30.3934 18.9586 21.8359 24.2179 16.5767L31.7988 8.99584C31.881 8.91363 31.9462 8.81604 31.9907 8.70862C32.0352 8.60121 32.0581 8.48609 32.0581 8.36983C32.0581 8.25357 32.0352 8.13845 31.9907 8.03104C31.9462 7.92363 31.881 7.82603 31.7988 7.74383C31.7166 7.66162 31.619 7.59641 31.5116 7.55192C31.4042 7.50742 31.2891 7.48452 31.1728 7.48452C31.0566 7.48452 30.9414 7.50742 30.834 7.55192C30.7266 7.59641 30.629 7.66162 30.5468 7.74383L22.9659 15.3247C17.0164 21.2744 17.0164 30.9551 22.9659 36.9048L23.0341 36.973C23.8138 37.7525 24.838 38.1424 25.8621 38.1424C26.8861 38.1424 27.9103 37.7525 28.69 36.973C30.2491 35.4137 30.2491 32.8766 28.6894 31.3168L28.6216 31.249C25.7905 28.418 25.7905 23.8116 28.6216 20.9806L39.3895 10.2126C42.2263 7.37614 46.836 7.30142 49.6652 10.046C51.0709 11.4096 51.8533 13.2413 51.8682 15.2036C51.8832 17.1667 51.1293 19.0098 49.7456 20.3936L42.7053 27.4339C42.5393 27.5999 42.446 27.8251 42.446 28.0599C42.4461 28.2947 42.5394 28.5199 42.7054 28.6859C42.8714 28.8519 43.0966 28.9451 43.3314 28.9451C43.5662 28.9451 43.7914 28.8518 43.9574 28.6858ZM45.8171 44.6899C45.651 44.5239 45.4259 44.4306 45.1911 44.4307C44.9563 44.4307 44.7312 44.524 44.5652 44.69C44.483 44.7722 44.4178 44.8698 44.3733 44.9772C44.3288 45.0846 44.3059 45.1997 44.3059 45.316C44.3059 45.4322 44.3288 45.5473 44.3733 45.6547C44.4178 45.7621 44.4831 45.8597 44.5653 45.9419L47.476 48.8524C47.6488 49.0252 47.8754 49.1116 48.1019 49.1116C48.3284 49.1116 48.5551 49.0252 48.728 48.8523C48.8102 48.7701 48.8754 48.6725 48.9199 48.5651C48.9644 48.4577 48.9873 48.3426 48.9873 48.2263C48.9873 48.1101 48.9643 47.995 48.9198 47.8876C48.8753 47.7802 48.8101 47.6826 48.7279 47.6004L45.8171 44.6899ZM52.3457 40.3753L48.3651 39.3271C48.1381 39.2673 47.8966 39.3002 47.6937 39.4184C47.4909 39.5367 47.3434 39.7307 47.2836 39.9578C47.2238 40.1848 47.2566 40.4263 47.3749 40.6292C47.4932 40.832 47.6872 40.9796 47.9142 41.0393L51.8948 42.0875C51.9686 42.107 52.0445 42.1168 52.1208 42.1169C52.336 42.117 52.5439 42.0387 52.7056 41.8966C52.8673 41.7546 52.9717 41.5584 52.9992 41.345C53.0268 41.1315 52.9756 40.9153 52.8554 40.7369C52.7351 40.5584 52.5539 40.4298 52.3457 40.3753ZM40.9145 48.039C40.8548 47.812 40.7072 47.618 40.5044 47.4997C40.3015 47.3814 40.06 47.3486 39.833 47.4084C39.6059 47.4682 39.4119 47.6157 39.2936 47.8185C39.1754 48.0214 39.1425 48.2629 39.2023 48.4899L40.2505 52.4705C40.3003 52.6595 40.4112 52.8267 40.5659 52.9461C40.7207 53.0654 40.9106 53.1303 41.106 53.1305C41.2415 53.1306 41.3753 53.0996 41.4969 53.0398C41.6186 52.9801 41.7249 52.8932 41.8077 52.7858C41.8904 52.6785 41.9475 52.5536 41.9743 52.4207C42.0012 52.2879 41.9972 52.1506 41.9627 52.0196L40.9145 48.039ZM13.9288 15.3055C14.0109 15.3878 14.1085 15.4531 14.2159 15.4976C14.3234 15.5421 14.4386 15.565 14.5549 15.5648C14.73 15.5649 14.9012 15.5131 15.0468 15.4158C15.1925 15.3186 15.306 15.1803 15.373 15.0185C15.44 14.8567 15.4576 14.6787 15.4234 14.507C15.3892 14.3352 15.3048 14.1775 15.1809 14.0537L12.2704 11.143C12.1044 10.977 11.8792 10.8838 11.6445 10.8837C11.4097 10.8837 11.1845 10.9769 11.0185 11.1429C10.9362 11.2251 10.871 11.3227 10.8265 11.4301C10.782 11.5375 10.7591 11.6526 10.7591 11.7688C10.7591 11.8851 10.782 12.0002 10.8264 12.1076C10.8709 12.215 10.9361 12.3126 11.0184 12.3948L13.9288 15.3055ZM18.8314 11.9564C18.8813 12.1454 18.9922 12.3126 19.1469 12.432C19.3017 12.5514 19.4915 12.6163 19.687 12.6165C19.8225 12.6166 19.9563 12.5855 20.0779 12.5258C20.1996 12.466 20.3059 12.3791 20.3886 12.2718C20.4714 12.1644 20.5284 12.0395 20.5553 11.9067C20.5822 11.7738 20.5782 11.6366 20.5437 11.5055L19.4955 7.52487C19.4331 7.3007 19.285 7.1101 19.0832 6.99429C18.8814 6.87848 18.6421 6.84677 18.4171 6.90603C18.192 6.96528 17.9994 7.11074 17.8808 7.31093C17.7622 7.51112 17.7272 7.74995 17.7833 7.97577L18.8314 11.9564ZM7.40019 19.6202L11.3807 20.6684C11.4545 20.6878 11.5305 20.6977 11.6068 20.6978C11.822 20.6979 12.0299 20.6195 12.1916 20.4775C12.3533 20.3354 12.4576 20.1393 12.4852 19.9258C12.5128 19.7124 12.4616 19.4962 12.3413 19.3177C12.221 19.1392 12.0398 19.0107 11.8316 18.9561L7.85109 17.908C7.62527 17.8518 7.38644 17.8869 7.18625 18.0055C6.98606 18.1241 6.8406 18.3167 6.78135 18.5417C6.72209 18.7668 6.7538 19.0061 6.86961 19.2079C6.98542 19.4097 7.17602 19.5578 7.40019 19.6202Z" fill="#345766"/>
</g>
<defs>
<clipPath id="clip0_7_854">
<rect width="60" height="60" fill="white"/>
</clipPath>
</defs>
</svg>
