<svg width="24" height="24" viewBox="0 0 24 24" fill="none" xmlns="http://www.w3.org/2000/svg">
<path d="M12 5C8.14 5 5 8.14 5 12C5 15.86 8.14 19 12 19C15.86 19 19 15.86 19 12C19 8.14 15.86 5 12 5ZM12 18C8.6915 18 6 15.3085 6 12C6 8.6915 8.6915 6 12 6C15.3085 6 18 8.6915 18 12C18 15.3085 15.3085 18 12 18Z" fill="#161E2D"/>
<path d="M14.6469 9.64642L11.0004 13.2929L9.35342 11.6464C9.25967 11.5527 9.13251 11.5 8.99992 11.5C8.86734 11.5 8.74018 11.5527 8.64642 11.6464C8.55267 11.7402 8.5 11.8673 8.5 11.9999C8.5 12.1325 8.55267 12.2597 8.64642 12.3534L10.6469 14.3534C10.7407 14.4472 10.8678 14.4998 11.0004 14.4998C11.133 14.4998 11.2602 14.4472 11.3539 14.3534L15.3539 10.3534C15.4477 10.2597 15.5003 10.1325 15.5003 9.99992C15.5003 9.86734 15.4477 9.74018 15.3539 9.64642C15.2602 9.55267 15.133 9.5 15.0004 9.5C14.8678 9.5 14.7407 9.55267 14.6469 9.64642Z" fill="#161E2D"/>
<path d="M21.9348 10.3739C21.7288 10.2214 21.6648 9.91987 21.8013 9.70287C22.2898 8.92587 22.9993 7.29387 20.5563 6.69537C20.3073 6.63437 20.1228 6.37687 20.1758 6.12687C20.4103 5.02987 20.0818 3.43687 17.8738 3.82487C17.6223 3.86887 17.3548 3.69587 17.3053 3.44437C17.1398 2.60337 16.4268 0.899866 14.2983 2.19887C14.0793 2.33237 13.7303 2.25987 13.6273 2.06487C13.2968 1.44037 11.8493 0.000365794 10.3723 2.06487C10.2233 2.27337 9.8808 2.32687 9.7013 2.19837C8.7323 1.50437 7.1668 1.33087 6.6938 3.44337C6.6393 3.68587 6.3813 3.87187 6.1248 3.82337C5.2778 3.66237 3.4188 3.71537 3.8243 6.12537C3.8668 6.37787 3.6973 6.65637 3.4443 6.69437C2.4578 6.84187 0.936796 7.63437 2.1983 9.70137C2.3318 9.91987 2.2933 10.2569 2.0648 10.3724C1.1893 10.8149 0.186796 12.3889 2.0648 13.6289C2.2783 13.7699 2.3318 14.0734 2.1983 14.2919C0.936796 16.3589 2.4578 17.1509 3.4443 17.2989C3.6978 17.3369 3.8668 17.6154 3.8243 17.8679C3.4188 20.2779 5.2778 20.3309 6.1258 20.1694C6.3823 20.1204 6.6403 20.3069 6.6948 20.5494C7.1678 22.6624 8.7333 22.4884 9.7023 21.7944C9.8818 21.6659 10.2243 21.7194 10.3733 21.9279C11.8503 23.9929 13.2978 22.5529 13.6283 21.9279C13.7313 21.7334 14.0803 21.6604 14.2993 21.7939C16.4278 23.0929 17.1408 21.3894 17.3063 20.5484C17.3558 20.2969 17.6233 20.1239 17.8748 20.1679C20.0828 20.5559 20.4108 18.9629 20.1768 17.8659C20.1233 17.6159 20.3083 17.3584 20.5573 17.2974C23.0008 16.6989 22.2913 15.0669 21.8023 14.2899C21.6658 14.0729 21.7248 13.7649 21.9348 13.6199C22.5878 13.1684 23.9998 11.9019 21.9348 10.3739ZM21.2208 15.3559C21.3908 15.6294 21.2858 16.0054 20.8988 16.1329C20.1898 16.3669 18.8833 16.5594 19.2318 18.6289C19.2983 19.0224 19.0878 19.2579 18.6368 19.2234C17.9508 19.1709 16.5383 18.8934 16.1418 20.8909C16.0633 21.2854 15.6768 21.3709 15.3648 21.2134C14.0188 20.5339 13.4803 20.4469 12.4213 21.7989C12.2188 22.0574 11.7968 22.0464 11.5798 21.7989C11.0108 21.1504 10.3663 20.1534 8.6358 21.2139C8.3348 21.3984 7.9918 21.2559 7.8588 20.8919C7.5133 19.9439 7.4113 18.9334 5.3633 19.2249C5.0473 19.2699 4.7123 19.0559 4.7688 18.6304C4.8763 17.8164 4.9998 16.5094 3.1008 16.1344C2.8078 16.0764 2.5788 15.6854 2.7788 15.3574C3.5373 14.1169 3.4323 13.3409 2.1823 12.4084C2.0413 12.3034 1.8118 11.8519 2.1933 11.5789C3.4108 10.7079 3.5373 9.87637 2.7788 8.63537C2.5783 8.30737 2.8078 7.91586 3.1008 7.85837C4.9998 7.48337 4.8763 6.17637 4.7688 5.36237C4.7123 4.93687 5.0478 4.72287 5.3633 4.76787C7.4113 5.05887 7.5133 4.04887 7.8588 3.10087C7.9913 2.73637 8.3348 2.59437 8.6358 2.77887C10.3668 3.83937 11.0113 2.84237 11.5798 2.19387C11.7968 1.94637 12.2183 1.93537 12.4213 2.19387C13.4803 3.54587 14.0188 3.45887 15.3648 2.77937C15.6768 2.62187 16.0633 2.70737 16.1418 3.10187C16.5383 5.09937 17.9508 4.82187 18.6368 4.76937C19.0883 4.73487 19.2983 4.97037 19.2318 5.36387C18.8833 7.43387 20.1898 7.62587 20.8988 7.85987C21.2858 7.98737 21.3908 8.36387 21.2208 8.63687C20.1088 10.4229 21.2838 11.1329 21.8063 11.5809C22.0103 11.7559 22.1278 12.1694 21.8533 12.3834C21.2288 12.8154 20.1088 13.5699 21.2208 15.3559Z" fill="#161E2D"/>
</svg>
