<svg width="60" height="60" viewBox="0 0 60 60" fill="none" xmlns="http://www.w3.org/2000/svg">
<path d="M29.8596 26.4411C37.1079 26.4411 43.017 20.5414 43.017 13.2931C43.017 6.04479 37.1173 0.14502 29.8596 0.14502C22.6113 0.14502 16.7115 6.04479 16.7115 13.2931C16.7115 20.5414 22.6113 26.4411 29.8596 26.4411ZM29.8596 1.73702C36.237 1.73702 41.4157 6.91571 41.4157 13.2837C41.4157 19.6517 36.2276 24.8398 29.8596 24.8398C23.4916 24.8398 18.3129 19.6611 18.3129 13.2837C18.3129 6.90634 23.4916 1.73702 29.8596 1.73702Z" fill="url(#paint0_linear_15428_8294)" fill-opacity="0.9"/>
<path d="M29.7941 15.859C30.8617 15.859 31.7607 15.166 32.0885 14.2202H35.4129C35.624 14.2202 35.8265 14.1363 35.9758 13.987C36.1251 13.8378 36.2089 13.6353 36.2089 13.4242C36.2089 13.2131 36.1251 13.0106 35.9758 12.8613C35.8265 12.712 35.624 12.6282 35.4129 12.6282H32.0885C31.845 11.9258 31.2925 11.3733 30.5901 11.1298V7.06553C30.5901 6.85442 30.5062 6.65195 30.357 6.50267C30.2077 6.3534 30.0052 6.26953 29.7941 6.26953C29.583 6.26953 29.3805 6.3534 29.2313 6.50267C29.082 6.65195 28.9981 6.85442 28.9981 7.06553V11.1205C28.5203 11.285 28.1057 11.5944 27.8119 12.0057C27.5182 12.4169 27.36 12.9095 27.3593 13.4148C27.3577 13.7354 27.4195 14.0532 27.5412 14.3499C27.6628 14.6465 27.842 14.9162 28.0683 15.1434C28.2946 15.3705 28.5635 15.5507 28.8597 15.6735C29.1559 15.7963 29.4735 15.8594 29.7941 15.859ZM29.7941 12.572C30.2623 12.572 30.6369 12.9466 30.6369 13.4148C30.6369 13.883 30.2623 14.2576 29.7941 14.2576C29.3259 14.2576 28.9513 13.883 28.9513 13.4148C28.9513 12.9559 29.3259 12.572 29.7941 12.572Z" fill="url(#paint1_linear_15428_8294)" fill-opacity="0.9"/>
<path d="M36.0029 7.65551C36.3857 7.65551 36.6959 7.34525 36.6959 6.96252C36.6959 6.57979 36.3857 6.26953 36.0029 6.26953C35.6202 6.26953 35.3099 6.57979 35.3099 6.96252C35.3099 7.34525 35.6202 7.65551 36.0029 7.65551Z" fill="url(#paint2_linear_15428_8294)" fill-opacity="0.9"/>
<path d="M38.6811 13.8547C39.0639 13.8547 39.3741 13.5445 39.3741 13.1617C39.3741 12.779 39.0639 12.4688 38.6811 12.4688C38.2984 12.4688 37.9882 12.779 37.9882 13.1617C37.9882 13.5445 38.2984 13.8547 38.6811 13.8547Z" fill="url(#paint3_linear_15428_8294)" fill-opacity="0.9"/>
<path d="M36.1902 20.1199C36.5729 20.1199 36.8832 19.8096 36.8832 19.4269C36.8832 19.0441 36.5729 18.7339 36.1902 18.7339C35.8075 18.7339 35.4972 19.0441 35.4972 19.4269C35.4972 19.8096 35.8075 20.1199 36.1902 20.1199Z" fill="url(#paint4_linear_15428_8294)" fill-opacity="0.9"/>
<path d="M30.0002 21.4122C29.6162 21.4122 29.3072 21.7213 29.3072 22.1052C29.3072 22.4892 29.6162 22.7982 30.0002 22.7982C30.3841 22.7982 30.6932 22.4892 30.6932 22.1052C30.6932 21.7213 30.3841 21.4122 30.0002 21.4122ZM23.2388 19.1273C22.9673 19.3988 22.9673 19.8296 23.2388 20.1012C23.5104 20.3728 23.9412 20.3728 24.2128 20.1012C24.4843 19.8296 24.4843 19.3988 24.2128 19.1273C24.082 19.0011 23.9075 18.9307 23.7258 18.9307C23.5441 18.9307 23.3696 19.0011 23.2388 19.1273Z" fill="url(#paint5_linear_15428_8294)" fill-opacity="0.9"/>
<path d="M21.0568 14.1174C21.4395 14.1174 21.7497 13.8072 21.7497 13.4244C21.7497 13.0417 21.4395 12.7314 21.0568 12.7314C20.674 12.7314 20.3638 13.0417 20.3638 13.4244C20.3638 13.8072 20.674 14.1174 21.0568 14.1174Z" fill="url(#paint6_linear_15428_8294)" fill-opacity="0.9"/>
<path d="M24.0254 7.64595C24.297 7.37437 24.297 6.94359 24.0254 6.67202C23.7538 6.40044 23.323 6.40044 23.0515 6.67202C22.7799 6.94359 22.7799 7.37437 23.0515 7.64595C23.323 7.90816 23.7538 7.90816 24.0254 7.64595ZM29.7285 5.1643C30.1125 5.1643 30.4215 4.85526 30.4215 4.47131C30.4215 4.08736 30.1125 3.77832 29.7285 3.77832C29.3446 3.77832 29.0355 4.08736 29.0355 4.47131C29.0355 4.85526 29.3539 5.1643 29.7285 5.1643ZM56.7644 37.9783L51.1269 25.2891C50.4994 23.8844 48.8138 23.2288 47.3623 23.8188L43.2043 25.5045C42.4739 25.7948 41.9214 26.3473 41.6311 27.059C41.4063 27.6209 41.3782 28.2296 41.5468 28.8102C39.6083 29.5594 37.4919 29.8403 35.3848 29.6343L29.8877 29.0911C28.0897 28.9226 26.3104 29.4845 24.99 30.627L24.4 31.1327C24.3242 31.1095 24.245 31.1 24.1659 31.1046C22.7799 31.2076 21.4407 30.9454 20.2701 30.3273L19.6146 29.9995L19.7551 29.7748C20.1578 29.1473 20.2889 28.3982 20.1109 27.6771C20.0221 27.3117 19.8602 26.9682 19.6348 26.6672C19.4095 26.3662 19.1254 26.114 18.7999 25.9259L14.9229 23.6596C13.5837 22.873 11.8232 23.285 10.9991 24.568L3.43239 36.3301C3.02971 36.9575 2.8986 37.7067 3.07653 38.4278C3.25446 39.1676 3.7227 39.7856 4.38759 40.179L8.27395 42.4546C8.73282 42.7262 9.24788 42.8573 9.75357 42.8573C10.4278 42.8573 11.0927 42.6138 11.6171 42.183L11.8887 42.389C12.9657 43.1944 13.6774 44.3556 13.846 45.5824C13.9396 46.2192 14.3048 46.8186 14.8761 47.2587L15.6908 47.8768L14.5577 49.2346C14.3224 49.513 14.1469 49.8367 14.0421 50.1857C13.9373 50.5348 13.9055 50.9016 13.9485 51.2635C13.9915 51.6254 14.1086 51.9745 14.2923 52.2893C14.476 52.604 14.7226 52.8775 15.0165 53.0929C15.4848 53.4488 16.0373 53.6361 16.5992 53.6642C16.5711 53.8795 16.5617 54.0949 16.5898 54.3197C16.6741 55.0501 17.058 55.7057 17.648 56.1552C18.1631 56.5485 18.7812 56.7358 19.3899 56.7358C19.7364 56.7358 20.0829 56.6609 20.4106 56.5391C20.5792 57.0729 20.9069 57.5505 21.3752 57.9157C21.8902 58.2997 22.4989 58.487 23.1077 58.487C23.4916 58.487 23.8756 58.4027 24.2314 58.2622C24.4 58.6836 24.6716 59.0582 25.0461 59.3392C25.5851 59.7399 26.2561 59.9211 26.9235 59.8464C27.591 59.7716 28.2052 59.4465 28.6422 58.9365L29.2884 58.1405L29.6068 58.3746C30.2248 58.8428 30.974 59.1051 31.7232 59.1051C31.7887 59.1051 31.8543 59.1051 31.9198 59.0957C32.7627 59.0489 33.5399 58.6649 34.0737 58.0281C34.4109 57.6254 34.6169 57.1385 34.6918 56.6234C35.2724 56.9418 35.9373 57.0916 36.6022 57.0354C37.4638 56.9699 38.2129 56.5953 38.728 55.9772C39.0651 55.5746 39.2805 55.0876 39.3461 54.5725C39.9173 54.8909 40.5728 55.0408 41.2565 55.0033C42.118 54.9378 42.8766 54.5632 43.3916 53.9357C43.7288 53.5237 43.9441 53.0367 44.0097 52.5217C44.5903 52.8401 45.2552 52.9899 45.9107 52.9337C46.7629 52.8869 47.5308 52.5123 48.0646 51.8661C48.5516 51.2761 48.7763 50.5176 48.6733 49.7403C48.5703 48.8882 48.0927 48.0828 47.3623 47.549L44.0752 45.1235C44.9231 44.1137 45.9895 43.31 47.1937 42.773L47.7275 42.5389C48.28 43.185 49.1041 43.5503 49.9563 43.5503C50.3309 43.5503 50.7055 43.4847 51.0613 43.3349L55.2193 41.6492C55.9497 41.3589 56.5116 40.797 56.7925 40.0853C57.0828 39.4111 57.0641 38.6525 56.7644 37.9783ZM9.06995 41.0686L5.18359 38.793C4.89329 38.6244 4.69663 38.3622 4.62171 38.0532C4.54679 37.7535 4.60298 37.4538 4.77154 37.1916L12.3382 25.4295C12.7035 24.8583 13.5088 24.6804 14.1175 25.0362L17.9945 27.3025C18.2848 27.471 18.4815 27.7333 18.5564 28.0517C18.6313 28.342 18.5751 28.651 18.4066 28.9132L17.7885 29.8684L10.8492 40.6753C10.8492 40.6753 10.8492 40.6847 10.8399 40.6847C10.4653 41.2465 9.67865 41.4245 9.06995 41.0686ZM15.5316 51.0701C15.4941 50.7798 15.5878 50.4895 15.7844 50.2554L17.9477 47.652C18.1912 47.3617 18.5564 47.2025 18.9216 47.2025C19.1932 47.2025 19.4648 47.2868 19.6895 47.4553C20.0173 47.7082 20.1859 48.0922 20.1297 48.4855C20.1016 48.7009 20.0267 48.8694 19.8956 49.0286L19.4741 49.5343L19.3899 49.6186L19.3805 49.628L17.7323 51.632C17.3109 52.1471 16.5243 52.2314 15.9811 51.8099C15.7283 51.632 15.5691 51.3604 15.5316 51.0701ZM18.6126 54.8816C18.4922 54.7954 18.3909 54.6853 18.3151 54.5582C18.2393 54.431 18.1907 54.2895 18.1722 54.1426C18.1537 53.9957 18.1658 53.8466 18.2078 53.7047C18.2497 53.5627 18.3206 53.4309 18.4159 53.3177L21.6749 49.4032C21.9183 49.1129 22.2742 48.9537 22.6394 48.9537C22.911 48.9537 23.1919 49.038 23.4261 49.2159C23.7538 49.4594 23.913 49.8434 23.8568 50.2367C23.8287 50.4427 23.7538 50.63 23.6227 50.7798L23.2013 51.2949C23.1732 51.323 23.1545 51.3511 23.1264 51.3792C23.1077 51.3979 23.0889 51.426 23.0796 51.4354L20.9163 54.0387C20.8976 54.0575 20.8789 54.0856 20.8695 54.1043L20.3638 54.7036C19.9424 55.2093 19.1557 55.2936 18.6126 54.8816ZM22.3397 56.6328C22.0869 56.4455 21.9277 56.1739 21.8902 55.8742C21.8528 55.5839 21.9464 55.2936 22.1431 55.0501C22.1525 55.0314 22.1618 55.022 22.1712 55.0033L22.1899 54.9846L24.2782 52.4655L24.2876 52.4561C24.3063 52.4374 24.3251 52.428 24.3344 52.4093C24.5519 52.1783 24.8467 52.0354 25.1628 52.0078C25.4788 51.9802 25.7939 52.0697 26.0482 52.2594C26.3853 52.5123 26.5445 52.8962 26.4977 53.2896C26.4696 53.4862 26.3853 53.6735 26.2448 53.8327L25.786 54.3946L25.711 54.4695L24.0816 56.4455C23.6695 56.9512 22.8829 57.0354 22.3397 56.6328ZM26.0013 58.0468C25.9048 57.9768 25.824 57.8873 25.7643 57.784C25.7047 57.6808 25.6673 57.5661 25.6549 57.4475C25.6268 57.2227 25.7017 56.998 25.8609 56.8107L26.9285 55.509L26.9753 55.4622C27.3311 55.0689 27.9305 55.0127 28.3613 55.3404C28.6141 55.5277 28.7452 55.8368 28.7078 56.1458C28.6876 56.2896 28.6294 56.4254 28.5392 56.5391L28.5298 56.5485C28.5298 56.5485 28.5205 56.5485 28.5205 56.5579C28.5205 56.5579 28.5205 56.5672 28.5111 56.5672C28.5017 56.5766 28.5017 56.5859 28.4924 56.5953L27.4154 57.9064C27.0689 58.3091 26.4321 58.3746 26.0013 58.0468ZM47.0907 49.9464C47.1281 50.2835 47.0439 50.6113 46.8378 50.8641C46.5194 51.2387 46.1074 51.3417 45.8077 51.3604C45.3582 51.3885 44.9087 51.2574 44.5435 50.9858L42.7174 49.5999L37.1266 45.3764C36.7708 45.1142 36.2744 45.1797 36.0122 45.5356C35.75 45.8914 35.8156 46.3878 36.1714 46.65L41.7715 50.8735C42.1555 51.1638 42.399 51.5758 42.4552 51.9972C42.4832 52.2407 42.4645 52.5966 42.1929 52.9243C41.9495 53.2146 41.5842 53.3832 41.1722 53.4207C40.7133 53.4488 40.2638 53.3083 39.8986 53.0274L38.1006 51.6788C38.0912 51.6695 38.0912 51.6601 38.0818 51.6507L34.3079 48.8039C33.952 48.5417 33.4557 48.6072 33.1935 48.9631C32.9312 49.3189 32.9968 49.8153 33.3527 50.0775L37.0985 52.9056C37.1079 52.915 37.1079 52.9243 37.1173 52.9337C37.5012 53.224 37.7541 53.6361 37.8009 54.0668C37.829 54.301 37.8009 54.6568 37.5293 54.9752C37.2296 55.3404 36.8082 55.4435 36.5086 55.4622C36.0497 55.4903 35.6095 55.3592 35.2443 55.0876L33.4182 53.711H33.3995L31.4516 52.2407C31.0958 51.9785 30.5994 52.0441 30.3372 52.3999C30.075 52.7558 30.1406 53.2521 30.4964 53.5143L32.4443 54.9846H32.4536C32.8376 55.2749 33.0811 55.6776 33.1279 56.099C33.156 56.3425 33.1373 56.6983 32.8657 57.0167C32.6222 57.307 32.2476 57.485 31.8449 57.5131C31.4048 57.5411 30.9553 57.4007 30.5807 57.1104L30.178 56.8013C30.2248 56.6609 30.281 56.5204 30.2998 56.3706C30.4215 55.4903 30.0469 54.6194 29.3352 54.0762C28.9606 53.7953 28.5298 53.6361 28.0897 53.5799C28.0897 53.5611 28.099 53.5331 28.1084 53.5143C28.2395 52.5591 27.8275 51.5946 27.0408 50.9952C26.5822 50.6602 26.0349 50.468 25.4676 50.4427C25.5893 49.4875 25.1866 48.5323 24.4187 47.9517C23.5946 47.3242 22.527 47.2306 21.628 47.5771C21.4617 47.0317 21.1355 46.5489 20.6916 46.1911C19.4741 45.2827 17.7042 45.4888 16.7584 46.6313L16.7396 46.65L15.8687 45.9945C15.6346 45.8165 15.4848 45.5824 15.4473 45.367C15.2132 43.7188 14.2767 42.1737 12.872 41.1248L12.6192 40.9281L18.7718 31.3574L19.521 31.7414C20.4762 32.2471 21.5437 32.5467 22.6394 32.6591L22.2274 33.015C20.7571 34.2886 20.036 36.1802 20.2982 38.0532L20.7758 41.4713C20.8882 42.2486 21.6187 42.7824 22.3866 42.6793C23.6508 42.5295 24.7839 41.9208 25.5893 40.9562C26.1044 40.3288 26.4509 39.5796 26.5913 38.7743L26.8442 37.2572C26.9472 36.6766 27.378 36.199 27.9773 36.021C28.4924 35.8712 29.176 35.8806 29.6161 36.3582C29.663 36.4144 29.7004 36.4705 29.7566 36.5174L41.2377 45.0112L42.4458 45.9102C42.4458 45.9102 42.4552 45.9102 42.4552 45.9195L46.4071 48.8413C46.791 49.1223 47.0439 49.525 47.0907 49.9464ZM46.5382 41.3215C45.096 41.9676 43.8224 42.9322 42.8485 44.1028L42.7829 44.1777L42.5582 44.0091L30.7586 35.2531C29.9626 34.4103 28.7171 34.1106 27.4903 34.4852C26.301 34.8411 25.4395 35.7963 25.2428 36.9856L24.99 38.5027C24.8963 39.0271 24.6716 39.5234 24.3344 39.9355C23.8287 40.5442 23.117 40.9469 22.3117 41.078L21.8621 37.8284C21.6749 36.4893 22.1899 35.1407 23.2481 34.223L25.2896 32.4531C25.299 32.4437 25.3177 32.4343 25.3271 32.4156L26.0107 31.8256C27.0034 30.9641 28.3519 30.5333 29.7191 30.6738L35.2162 31.2169C37.5855 31.4417 39.9641 31.1233 42.1461 30.2805L46.9783 41.1342L46.5382 41.3215ZM55.3223 39.4953C55.2005 39.8044 54.9477 40.0385 54.6293 40.179L50.4714 41.8646C49.7971 42.1362 49.0292 41.8459 48.7576 41.2184L43.1107 28.5293C42.9889 28.2483 42.9796 27.9393 43.1013 27.6583C43.2231 27.3493 43.4759 27.1152 43.7943 26.9841L47.9522 25.2984C48.1208 25.2329 48.2987 25.1954 48.4767 25.1954C48.9824 25.1954 49.46 25.4764 49.666 25.9352L55.3035 38.6244C55.4346 38.9054 55.4347 39.2144 55.3223 39.4953Z" fill="url(#paint7_linear_15428_8294)" fill-opacity="0.9"/>
<defs>
<linearGradient id="paint0_linear_15428_8294" x1="28.8778" y1="29.7282" x2="28.8778" y2="-0.915308" gradientUnits="userSpaceOnUse">
<stop stop-color="#00D4FF"/>
<stop offset="1" stop-color="#00A3E0"/>
</linearGradient>
<linearGradient id="paint1_linear_15428_8294" x1="31.4522" y1="17.0577" x2="31.4522" y2="5.88286" gradientUnits="userSpaceOnUse">
<stop stop-color="#00D4FF"/>
<stop offset="1" stop-color="#00A3E0"/>
</linearGradient>
<linearGradient id="paint2_linear_15428_8294" x1="35.951" y1="7.82876" x2="35.951" y2="6.21365" gradientUnits="userSpaceOnUse">
<stop stop-color="#00D4FF"/>
<stop offset="1" stop-color="#00A3E0"/>
</linearGradient>
<linearGradient id="paint3_linear_15428_8294" x1="38.6292" y1="14.028" x2="38.6292" y2="12.4129" gradientUnits="userSpaceOnUse">
<stop stop-color="#00D4FF"/>
<stop offset="1" stop-color="#00A3E0"/>
</linearGradient>
<linearGradient id="paint4_linear_15428_8294" x1="36.1382" y1="20.2931" x2="36.1382" y2="18.678" gradientUnits="userSpaceOnUse">
<stop stop-color="#00D4FF"/>
<stop offset="1" stop-color="#00A3E0"/>
</linearGradient>
<linearGradient id="paint5_linear_15428_8294" x1="26.577" y1="23.2817" x2="26.577" y2="18.7747" gradientUnits="userSpaceOnUse">
<stop stop-color="#00D4FF"/>
<stop offset="1" stop-color="#00A3E0"/>
</linearGradient>
<linearGradient id="paint6_linear_15428_8294" x1="21.0048" y1="14.2907" x2="21.0048" y2="12.6756" gradientUnits="userSpaceOnUse">
<stop stop-color="#00D4FF"/>
<stop offset="1" stop-color="#00A3E0"/>
</linearGradient>
<linearGradient id="paint7_linear_15428_8294" x1="27.9744" y1="66.8734" x2="27.9744" y2="1.51685" gradientUnits="userSpaceOnUse">
<stop stop-color="#00D4FF"/>
<stop offset="1" stop-color="#00A3E0"/>
</linearGradient>
</defs>
</svg>
