<svg width="100" height="100" viewBox="0 0 100 100" fill="none" xmlns="http://www.w3.org/2000/svg">
<g clip-path="url(#clip0_41_2716)">
<path fill-rule="evenodd" clip-rule="evenodd" d="M86.0527 40.3664H19.4176L83.4215 21.8254C83.9188 21.6809 84.3385 21.3451 84.5887 20.8916C84.7125 20.667 84.7909 20.4202 84.8193 20.1653C84.8477 19.9104 84.8255 19.6524 84.7541 19.4061L81.4049 7.84375C80.0666 3.22578 75.7668 0 70.9478 0C69.9326 0 68.9209 0.144141 67.9398 0.42793L7.84686 17.8361C5.06756 18.6408 2.76405 20.4887 1.35955 23.0377C-0.0443534 25.5865 -0.373846 28.5217 0.431037 31.3004L3.7033 42.5965V89.1305C3.70311 95.124 8.57928 100 14.5721 100H38.0416C39.1205 100 39.9947 99.1256 39.9947 98.0469C39.9947 96.9682 39.1205 96.0938 38.0416 96.0938H14.5728C10.733 96.0938 7.60955 92.9703 7.60955 89.1305V62.5512H84.0994V89.1305C84.0994 92.9703 80.9762 96.0938 77.1363 96.0938H53.6666C52.5885 96.0938 51.7135 96.9682 51.7135 98.0469C51.7135 99.1256 52.5885 100 53.6666 100H77.1363C83.1299 100 88.0058 95.124 88.0058 89.1305V42.3195C88.0058 41.2406 87.1314 40.3664 86.0527 40.3664ZM51.6129 58.6449L59.9113 44.2727H70.7047L62.4068 58.6449H51.6129ZM36.3082 58.6449L44.6068 44.2727H55.4L47.1023 58.6449H36.3082ZM21.0045 58.6449L29.3021 44.2727H40.0963L31.7978 58.6449H21.0045ZM28.2662 33.3604L14.3699 20.0135L24.7818 16.9975C24.8567 17.1064 24.9426 17.2074 25.0381 17.2988L38.9344 30.6457L28.5224 33.6617C28.4475 33.5528 28.3616 33.4518 28.2662 33.3604ZM54.4381 8.78223L68.334 22.1289L57.9223 25.1447C57.8475 25.0356 57.7615 24.9346 57.6658 24.8434L43.7697 11.4965L54.1814 8.48066C54.2564 8.58961 54.3423 8.69059 54.4379 8.78203L54.4381 8.78223ZM39.7377 13.041L53.6338 26.3871L43.2221 29.4037C43.1473 29.2946 43.0613 29.1936 42.9656 29.1023L29.0695 15.7555L39.4814 12.7396C39.5553 12.8457 39.6408 12.9471 39.7377 13.041ZM69.0269 4.18008C69.6539 3.99844 70.3004 3.90625 70.948 3.90625C74.0387 3.90625 76.7951 5.97227 77.6527 8.93105L80.4588 18.6166L72.6228 20.8861C72.5473 20.7774 72.4612 20.6765 72.3656 20.585L58.4701 7.23867L69.0269 4.18008ZM4.78123 24.9223C5.68162 23.2871 7.15623 22.1031 8.93397 21.5883L10.0814 21.2555C10.1567 21.3642 10.2426 21.4652 10.3379 21.5568L24.234 34.9037L6.98924 39.8994L4.18319 30.2139C3.66815 28.4371 3.88104 26.558 4.78123 24.9223ZM7.60936 44.2727H24.7918L16.4939 58.6449H7.60955L7.60936 44.2727ZM66.9174 58.6449L75.2152 44.2727H84.0996V58.6449H66.9174Z" fill="white"/>
<path fill-rule="evenodd" clip-rule="evenodd" d="M59.3596 79.1234C59.3596 78.7806 59.2694 78.4437 59.098 78.1468C58.9265 77.8499 58.68 77.6034 58.383 77.432L41.2236 67.5252C40.9267 67.3539 40.5899 67.2637 40.2471 67.2637C39.9042 67.2637 39.5675 67.3539 39.2705 67.5252C38.9736 67.6965 38.727 67.9431 38.5556 68.24C38.3841 68.5369 38.2939 68.8737 38.2939 69.2166V89.0302C38.294 89.373 38.3843 89.7096 38.5557 90.0064C38.7271 90.3032 38.9737 90.5496 39.2705 90.7209C39.5673 90.8926 39.9042 90.983 40.2471 90.983C40.59 90.983 40.9268 90.8926 41.2236 90.7209L58.383 80.8148C58.68 80.6434 58.9265 80.3969 59.098 80.1C59.2694 79.8031 59.3596 79.4663 59.3596 79.1234ZM42.2002 85.6474V72.5994L53.5002 79.1232L42.2002 85.6474ZM45.8539 96.0935C44.7783 96.0935 43.9008 96.9709 43.9008 98.0466C43.9008 99.1224 44.7783 99.9998 45.8539 99.9998C46.9305 99.9998 47.807 99.1224 47.807 98.0466C47.807 96.9709 46.9305 96.0935 45.8539 96.0935Z" fill="white"/>
</g>
<defs>
<clipPath id="clip0_41_2716">
<rect width="100" height="100" fill="white"/>
</clipPath>
</defs>
</svg>
